<?xml version="1.0" encoding="utf-8"?>
<!-- Generator: Adobe Illustrator 28.1.0, SVG Export Plug-In . SVG Version: 6.00 Build 0)  -->
<svg version="1.1" id="Layer_1" xmlns="http://www.w3.org/2000/svg" xmlns:xlink="http://www.w3.org/1999/xlink" x="0px" y="0px"
	 viewBox="0 0 250 250" style="enable-background:new 0 0 250 250;" xml:space="preserve">
<style type="text/css">
	.st0{fill:#FFFFFF;}
</style>
<g>
	<path class="st0" d="M124.69,29.65c38.64,0,77.29,0.04,115.93-0.07c3.05-0.01,3.83,0.78,3.8,3.81c-0.15,18.21-0.14,36.42,0,54.63
		c0.02,2.84-0.85,3.4-3.52,3.4c-38.98-0.09-77.95-0.02-116.93-0.14c-3.17-0.01-3.77,0.95-3.73,3.87
		c0.16,11.92,0.02,23.84,0.11,35.76c0.02,2.14-0.53,2.77-2.74,2.76c-36.55-0.07-73.09-0.08-109.64,0.01
		c-2.33,0.01-2.65-0.82-2.64-2.83c0.07-16.78,0.11-33.55-0.03-50.33c-0.02-2.76,0.89-3.18,3.35-3.18
		c68.46,0.06,136.91,0.03,205.37,0.12c3.2,0,4.3-0.55,4.18-4.04c-0.3-8.93-0.21-17.88-0.03-26.82c0.05-2.63-0.68-3.25-3.27-3.25
		c-49.68,0.08-99.37,0.06-149.06,0.06c-19.43,0-38.87-0.05-58.3,0.06c-2.52,0.01-3.6-0.5-3.32-3.22c0.25-2.4,0.25-4.87,0-7.27
		c-0.3-2.89,0.89-3.45,3.53-3.38c6.84,0.18,13.69,0.06,20.53,0.06C60.44,29.65,92.57,29.65,124.69,29.65z"/>
	<path class="st0" d="M186.3,99.18c18.22,0,36.43,0.06,54.65-0.07c2.69-0.02,3.26,0.79,3.22,3.32c-0.15,9.49-0.12,18.98-0.01,28.47
		c0.03,2.16-0.55,2.8-2.74,2.76c-6.95-0.14-13.91-0.13-20.87,0c-2.05,0.04-2.64-0.54-2.58-2.59c0.15-4.96-0.11-9.94,0.11-14.9
		c0.12-2.6-0.8-3.06-3.18-3.05c-27.6,0.08-55.2-0.03-82.8,0.15c-3.52,0.02-4.38-1.03-4.01-4.22c0.25-2.18,0.22-4.43,0-6.61
		c-0.25-2.56,0.52-3.35,3.22-3.33C149.65,99.24,167.98,99.18,186.3,99.18z"/>
	<path class="st0" d="M183.08,168.6c-1.57-6.99-8.71-11.59-17.68-11.39c-8.3,0.18-14.89,5.1-16.13,12.04
		c-1.74,9.72,5.58,17.4,17.53,17.42c0.4-0.03,1.74-0.03,3.04-0.23C179.31,185.03,185.04,177.29,183.08,168.6z M174.17,180.38
		c-4.24,3.1-11.27,3.21-15.58,0.25c-3.73-2.57-5.43-6.71-4.47-10.91c1.19-5.17,6.01-8.5,12.28-8.48c5.79,0.02,10.67,3.35,11.92,8.11
		C179.41,173.52,177.83,177.7,174.17,180.38z"/>
	<path class="st0" d="M117.53,172.88c-0.99-0.68-2.13-1.13-3.57-1.87c2.79-1.87,4.61-4.08,3.71-7.54c-0.93-3.6-3.6-5.06-6.99-5.65
		c-3.19-0.56-6.4-0.14-9.58-0.35c-1.85-0.12-2.49,0.46-2.45,2.37c0.12,5.63-0.03,11.26,0.07,16.88c0.05,3.17-1.42,7.52,0.59,9.19
		c1.91,1.6,6.1,0.48,9.3,0.52c3.25,0.05,6.41-0.31,9.11-2.36C121.69,181.08,121.61,175.71,117.53,172.88z M106.23,161.26
		c4.63,0.34,6.71,1.33,6.71,4.14c0,2.91-2.37,4.24-6.87,4.53c-4.17,0.27-2.19-2.72-2.71-4.23
		C103.6,163.61,102.26,160.97,106.23,161.26z M111.34,182.41c-1.19,0.18-2.41,0.15-3.79,0.23c-1.22-0.5-3.53,0.95-3.94-0.8
		c-0.59-2.49-0.52-5.22,0.07-7.81c0.05-0.2,0.75-0.36,1.15-0.35c2.31,0.07,4.64,0.01,6.91,0.36c2.23,0.34,4,1.65,3.92,4.16
		C115.58,180.83,113.75,182.05,111.34,182.41z"/>
	<path class="st0" d="M138.83,172.76c3.84-2.11,5.69-4.89,4.73-8.92c-0.96-4.03-4.06-5.63-7.79-6.06c-2.73-0.31-5.51-0.1-8.25-0.31
		c-1.94-0.15-2.41,0.58-2.39,2.42c0.09,7.95,0.07,15.89,0.02,23.84c-0.01,1.72-0.01,2.84,2.35,2.82c2.29-0.03,2.49-1.03,2.41-2.82
		c-0.1-2.31,0.17-4.65-0.07-6.95c-0.32-3.14,1.31-3.23,3.55-2.6c1.54,0.43,2.76,1.43,3.73,2.64c1.84,2.33,3.77,4.63,5.31,7.15
		c1.8,2.94,4.14,2.8,7.26,2.05C145.74,181.64,143.46,176.45,138.83,172.76z M132.34,170.09c-2.45,0.03-2.45,0.03-2.45-4.79
		c0.91-1.09-1.92-4.27,2.27-4.1c4.49,0.19,6.84,1.6,6.77,4.51C138.85,168.54,136.58,170.04,132.34,170.09z"/>
	<path class="st0" d="M18.15,172.92c4.36-3.5,5.53-6.1,4.42-9.74c-0.99-3.26-4.67-5.45-9.64-5.65c-2.09-0.09-4.2,0.08-6.28-0.05
		c-1.8-0.11-2.53,0.39-2.51,2.36c0.1,8.05,0.08,16.1,0.01,24.15c-0.02,1.74,0.31,2.51,2.32,2.55c2.19,0.05,2.6-0.8,2.49-2.7
		c-0.13-2.31-0.04-4.63-0.03-6.95c0.01-3.02,0.9-3.65,3.76-2.66c1.39,0.48,2.56,1.35,3.45,2.49c1.63,2.07,3.35,4.11,4.69,6.37
		c1.81,3.06,4.18,4.13,7.93,2.96C24.95,181.72,22.6,176.52,18.15,172.92z M11.31,170.13c-4.27,0.1-1.56-3.16-2.52-4.63
		c0.76-1.57-1.47-4.55,2.6-4.29c4.3,0.28,6.56,1.54,6.62,4.32C18.08,168.48,15.66,170.03,11.31,170.13z"/>
	<path class="st0" d="M57.87,168.1c0,2.21,0.03,4.41-0.01,6.62c-0.02,1.1-0.05,2.22-0.27,3.29c-1.26,6.09-6.86,9.18-15.49,8.61
		c-6.99-0.46-11.35-4.15-11.64-10.25c-0.26-5.61-0.08-11.25-0.23-16.87c-0.05-2.01,1.02-2,2.48-2.04c1.58-0.04,2.44,0.24,2.4,2.13
		c-0.11,5.07-0.1,10.15-0.01,15.22c0.1,5.48,3.13,8.19,8.96,8.19c5.82,0,8.97-2.75,9.07-8.11c0.09-4.85,0.05-9.71,0.01-14.56
		c-0.01-1.64-0.16-2.89,2.28-2.94c2.64-0.06,2.5,1.33,2.47,3.08C57.84,163.03,57.88,165.56,57.87,168.1z"/>
	<path class="st0" d="M234.34,158.55c-0.91-1.82-3.53-1.78-4.43,0.07c-4.41,9.11-8.72,18.26-13.22,27.7
		c2.79,0.16,5.19,0.85,5.95-2.23c1.29-5.26,4.57-7.26,9.86-6.19c1.06,0.22,2.23,0.18,3.3,0.01c2.49-0.4,3.96,0.58,4.71,2.93
		c0.27,0.83,0.86,1.56,1.13,2.39c1,3.1,3.04,3.97,6.32,2.84C243.42,176.86,238.93,167.68,234.34,158.55z M236.12,173.95
		c-2.7-0.03-5.42,0.48-8.09-0.28c0.6-3.27,2.5-5.96,4.03-9.65c1.8,3.61,3.25,6.54,4.68,9.41
		C236.41,173.71,236.26,173.95,236.12,173.95z"/>
	<path class="st0" d="M64.16,171.85c0-3.97,0.07-7.94-0.03-11.91c-0.05-1.78,0.36-2.55,2.35-2.48c4.52,0.14,9.04,0.06,13.57,0.03
		c1.31-0.01,2.29-0.01,2.35,1.83c0.07,2.02-0.99,2.06-2.45,2.03c-2.87-0.06-5.74,0.08-8.6-0.05c-1.78-0.08-2.47,0.32-2.5,2.31
		c-0.08,6.34-0.18,6.34,6.07,6.34c1.65,0,3.31,0.06,4.96-0.02c1.3-0.06,2.06,0.19,2.05,1.76c0,1.52-0.41,2.17-2.06,2.11
		c-2.97-0.12-5.96,0.04-8.93-0.06c-1.56-0.06-2.02,0.43-2.08,2.02c-0.27,6.78-0.34,6.77,6.28,6.77c1.88,0,3.75,0.07,5.62-0.02
		c1.54-0.08,2.17,0.41,2.13,2.04c-0.03,1.51-0.67,1.85-2.02,1.83c-4.85-0.05-9.71-0.1-14.56,0.02c-1.84,0.05-2.21-0.68-2.18-2.32
		C64.22,180.01,64.16,175.93,64.16,171.85z"/>
	<path class="st0" d="M215.72,164.19c-4.43-1.88-8.16-3.12-12.23-2.93c-6.69,0.32-11.68,4.75-11.82,10.59
		c-0.14,5.94,4.56,10.41,11.42,10.87c4.3,0.29,8.27-0.86,12.05-2.83c1.09,4.21,0.86,4.64-3.15,5.79c-3.99,1.15-8.08,1.31-12.14,0.7
		c-7.62-1.14-13.04-7.23-13.02-14.39c0.02-7.15,5.52-13.15,13.41-14.5c4.57-0.78,8.99,0.03,13.37,1.36
		C216.44,159.74,214.91,161.9,215.72,164.19z"/>
</g>
</svg>
