<?xml version="1.0" encoding="utf-8"?>
<!-- Generator: Adobe Illustrator 28.1.0, SVG Export Plug-In . SVG Version: 6.00 Build 0)  -->
<svg version="1.1" id="Layer_1" xmlns="http://www.w3.org/2000/svg" xmlns:xlink="http://www.w3.org/1999/xlink" x="0px" y="0px"
	 viewBox="0 0 250 250" style="enable-background:new 0 0 250 250;" xml:space="preserve">
<style type="text/css">
	.st0{fill:#FFFFFF;}
</style>
<g>
	<path class="st0" d="M203.56,121.33c-0.15-6.55-0.93-13.04-1.68-19.5c-0.67-5.75-2.06-11.45-3.47-17.12
		c-2.57-10.39-6.39-20.28-11.25-29.75c-3.65-7.13-8.09-13.79-13.09-20.08c-5.56-7-11.97-13.09-19.17-18.35
		c-8.12-5.93-17.09-10.15-26.81-12.68c-6.04-1.57-12.25-2.27-18.51-2.39c-2.75-0.05-5.45,0.48-8.17,0.73
		c-2.74,0.25-5.42,0.54-8.11,1.19c-1.72,0.41-3.38,1.03-5.09,1.4c-3.38,0.74-6.58,2.02-9.66,3.44c-6.97,3.22-13.46,7.32-19.37,12.26
		C45.95,31.54,36.31,45.31,29.14,60.89c-3.52,7.64-6.11,15.61-8.32,23.74c-1.58,5.82-2.72,11.71-3.48,17.65
		c-0.98,7.66-1.91,15.36-1.55,21.55c-0.01,7.08,0.39,12.54,0.95,18.02c1.04,10.12,2.94,20.04,6.07,29.71
		c2.11,6.52,4.47,12.95,7.53,19.13c4.16,8.39,8.93,16.39,14.89,23.59c7.56,9.14,16.16,17.13,26.58,23.04
		c7.54,4.27,15.48,7.52,23.99,8.85c7.26,1.13,14.57,1.76,22.04,0.75c8.42-1.14,16.44-3.15,24.1-6.83c7.59-3.64,14.5-8.26,20.73-13.9
		c8.15-7.39,14.93-15.88,20.67-25.27c3.71-6.08,6.7-12.49,9.42-19.03c2-4.79,3.41-9.8,4.86-14.8c1.93-6.66,3.51-13.41,4.34-20.24
		C203,138.4,203.76,129.9,203.56,121.33z M198.89,152.83c-1.93,10.11-4.54,20.05-8.57,29.59c-2.74,6.49-5.77,12.81-9.48,18.8
		c-5.47,8.83-11.9,16.87-19.65,23.82c-8.27,7.41-17.62,13.03-28.1,16.7c-9.04,3.16-18.41,3.71-27.92,3.44
		c-11.48-0.33-21.95-3.86-31.91-9.32c-10.76-5.91-19.59-14.09-27.22-23.56c-6.31-7.83-11.28-16.52-15.39-25.7
		c-4.85-10.81-8.3-22.05-10.28-33.73c-0.89-5.24-1.76-10.49-1.85-15.84c-0.08-4.86-0.88-9.68-0.67-14.57
		c0.64-14.62,2.17-29.1,6.52-43.16c3.35-10.8,7.81-21.12,13.58-30.83c6.05-10.17,13.71-19.04,22.68-26.72
		c5.84-5,12.38-9.06,19.44-12.12c3.05-1.32,6.34-2.16,9.49-3.25c6.78-2.34,13.71-2.8,20.72-2.76c4.68,0.03,9.32,0.29,13.96,1.37
		c7.46,1.75,14.58,4.22,21.29,7.92c10.32,5.68,18.95,13.33,26.41,22.4c5.33,6.48,9.93,13.46,13.69,20.92
		c3.49,6.93,6.5,14.09,8.68,21.59c1.86,6.37,3.57,12.76,4.77,19.28c1.65,8.99,2.09,18.08,2.09,28.99
		C201.28,133.86,200.69,143.42,198.89,152.83z"/>
	<path class="st0" d="M196.48,100.22c-2.1-14.76-6.42-28.91-13.08-42.3c-4.3-8.65-9.43-16.78-15.79-24.06
		c-7.82-8.97-16.88-16.42-27.71-21.57c-5.61-2.66-11.43-4.72-17.55-5.75c-7.77-1.31-15.53-1.75-23.4-0.29
		C93.82,7.2,88.8,8.29,83.94,10.26c-7.59,3.07-14.5,7.24-20.85,12.39c-8.72,7.08-15.72,15.62-21.65,25.1
		c-4.57,7.3-8.13,15.08-11.23,23.1c-3.43,8.85-5.62,18.01-7.27,27.3c-1.55,8.7-2.14,17.5-2.1,24.44
		c-0.04,11.72,0.79,21.45,2.67,31.1c1.91,9.74,4.49,19.26,8.26,28.46c5.99,14.62,14.09,27.86,25.39,39.01
		c12.22,12.05,26.7,19.78,43.78,22.09c9.75,1.32,19.46,0.5,28.85-2.52c5.87-1.88,11.52-4.35,16.83-7.61
		c11.05-6.79,19.94-15.79,27.39-26.29c5.14-7.25,9.4-15,12.81-23.23c3.03-7.3,5.54-14.77,7.31-22.46
		c1.58-6.86,2.52-13.83,3.32-20.84C199.01,126.85,198.37,113.5,196.48,100.22z M186.17,167.48c-3.82,13.66-9.45,26.5-17.52,38.2
		c-6.47,9.37-14.18,17.53-23.74,23.82c-6.41,4.22-13.31,7.24-20.78,9.13c-8.45,2.14-16.93,2.26-25.39,0.84
		c-8.65-1.45-16.67-4.8-24.02-9.68c-14.36-9.53-24.63-22.56-32.29-37.81c-4.43-8.82-7.89-18.01-10.31-27.59
		c-2.57-10.19-4.23-20.51-4.75-31.01c-0.57-11.65,0-23.22,1.83-34.76c0.8-5.1,1.85-10.15,3.18-15.1
		c3.05-11.29,7.25-22.15,13.15-32.32c6.45-11.11,14.35-20.94,24.6-28.77C85.11,11.01,101.92,6.56,120.55,9.6
		c7.58,1.24,14.64,4.05,21.24,8c10.95,6.56,19.68,15.41,26.9,25.86c6.46,9.34,11.31,19.44,15.02,30.15
		c3.26,9.39,5.35,19.02,6.76,28.85c1.19,8.32,1.37,16.65,1.43,21.14C191.76,141.06,189.84,154.39,186.17,167.48z"/>
	<path class="st0" d="M163.91,206.08c-0.37,0.29-0.92-0.02-1.26-0.28c-2.42-1.85-4.84-1.5-7.39-0.21
		c-5.49,2.77-14.73,0.44-18.04-4.68c-2.11-3.26-2.16-7.07-1.96-10.81c0.28-5.18,1.79-10.12,3.22-15.07
		c2.11-7.34,3.47-14.71,1.75-22.35c-0.92-4.1-2.52-7.96-4.28-11.74c-1.63-3.51-3.17-7.06-4.95-10.51c-0.96-1.85-1.22-4.07-1.8-6.12
		c-1.06-1.88-0.05-4.54-2.25-6.02c0.34,1.44-0.19,2.94,0.44,4.32c2.5,13.4,1,26.92,1.28,40.39c0.2,9.74,0.49,19.47,1.39,29.16
		c0.37,4,0.65,8.15,3.14,11.64c0.33,0.46,0.39,0.98,0.04,1.44c-0.43,0.58-0.93,0.17-1.38-0.01c-6.83-2.62-13.62-2.55-20.38,0.3
		c-0.39,0.17-0.87,0.57-1.28,0.23c-0.46-0.39-0.07-0.89,0.17-1.22c3.47-4.73,3.48-10.36,3.92-15.78
		c1.47-18.07,0.91-36.18,0.95-54.28c0.04-19.94,0.21-39.87-0.27-59.81c-0.19-7.66-0.63-15.33-2.41-22.84
		c-0.32-1.38-1.19-2.41-1.72-3.64c0.73-0.91,1.63-0.47,2.5-0.32c0.68,0.12,1.31,0.78,2.07,0.23c0.33,0.08,0.66,0.16,0.98,0.24
		c0.71,0.69,1.5,0.99,2.45,0.49c2.19,0.05,4.37,0.35,6.57,0.01c1.06,0.45,1.94,0.04,2.78-0.59c1.31-0.44,2.61-0.89,3.92-1.33
		c0.87,0.2,0.76,0.95,0.9,1.57c-0.18,0.3-0.36,0.61-0.54,0.91c-0.62,0.3-1.06,0.71-0.84,1.48c-2.29,10.58-2.5,21.35-2.85,32.1
		c-0.11,3.49-0.03,6.99-0.04,10.49c-0.03,7.6,0.89,15.08,2.87,22.42c0.73,2.71,1.84,5.3,3.71,7.48c2.24,2.62,5.22,2.07,6.39-1.21
		c0.7-1.96,0.86-4.02,0.77-6.1c-0.25-5.75-1.47-11.34-2.87-16.9c-2.51-10.01-4.73-20.06-4.27-30.49c0.25-5.65,1.04-11.16,3.68-16.26
		c0.8-1.54,1.87-2.87,3.15-4.04c0.48,0.05,0.76-0.13,0.76-0.65c0.19-0.14,0.37-0.28,0.56-0.42c1.89-0.59,3.78-1.19,5.67-1.78h1.98
		c2.31,1.24,4.96,1.09,7.4,1.77c2.06,1.04,3.57,2.6,4.55,4.68c-0.37,0.98,0.04,1.9,0.22,2.83c0.25,1.32-0.01,2.56-0.4,3.8
		c-0.48-1-0.76-1.99-0.78-3.05c-0.02-1.08-0.42-2.02-1.38-2.63c-0.12-0.24-0.23-0.48-0.35-0.72c0.44-0.59,0.04-0.62-0.41-0.61
		c-0.45-0.34-0.9-0.7-1.36-1.04c-3.1-2.25-6.74-1.41-8.52,1.96c-0.69,0.41-1.01,0.95-0.62,1.74c-0.04,0.22-0.09,0.44-0.14,0.65
		c-0.5,0.14-0.63,0.37-0.17,0.73c-0.06,0.56-0.12,1.12-0.19,1.67c-0.87,1.24-0.57,2.53-0.18,3.82c0,1.37,0,2.74,0.01,4.11
		c-0.48,1.85-0.55,3.69,0.06,5.53c0.39,1.93,0.06,3.89,0.28,5.82c-0.31,0.23-0.27,0.57,0.05,0.6c1.35,0.1,1.02,1.01,0.95,1.82
		c-0.95,0.63-0.72,1.6-0.68,2.49c0.4,9.25,1.04,18.49,0.33,27.75c-0.38,4.97-0.95,9.92-3.78,14.25c-2.01,3.07-4.89,4.34-8.5,4.06
		c-2.16-0.17-3.36-1.91-4.91-3.08c0.1-0.7-0.17-1.27-0.67-1.73c-0.03-0.03-0.32,0.13-0.36,0.24c-0.2,0.62-0.06,1.21,0.29,1.74
		c0.11,0.17,0.31,0.28,0.47,0.41c1.94,3.77,4.68,6.9,7.62,9.89c0.44,0.44,0.85,0.91,1.27,1.37c0.1,0.84,0.57,1.31,1.42,1.37
		c1.25,1.02,2.43,2.12,3.41,3.41c-0.02,0.67,0.33,1.02,0.98,1.11c0.44,0.37,0.85,0.77,1.08,1.31c-0.05,0.44,0.12,0.72,0.58,0.76
		c0.15,0.2,0.31,0.39,0.47,0.58c-0.07,0.47,0.1,0.76,0.6,0.78c0.1,0.04,0.13,0.11,0.11,0.21c0.59,2.39,1.88,4.47,2.86,6.69
		c0.04,0.22,0.09,0.44,0.13,0.65c-0.71,0.83-0.04,1.67,0.13,2.41c0.51,2.16-0.12,4.39,0.52,6.52c-0.02,0.22-0.04,0.44-0.06,0.66
		c-1.51,0.63-0.55,1.58-0.31,2.43c-0.03,0.22-0.06,0.44-0.09,0.66c-0.56,0.27-0.64,0.63-0.19,1.07c-0.1,0.68-0.19,1.37-0.29,2.05
		c-0.33,0.21-0.34,0.44-0.04,0.7c-0.08,0.44-0.16,0.88-0.24,1.32c-0.88,1.14-1.33,2.38-0.87,3.82c-0.03,0.22-0.06,0.44-0.09,0.66
		c-0.56,0.26-0.6,0.62-0.21,1.07c-0.06,0.22-0.11,0.43-0.17,0.65c-0.4,0.11-0.46,0.46-0.54,0.79c-1.01,4.32-2.07,8.63-2.96,12.97
		c-0.18,0.86-0.77,1.84-0.11,2.78c-0.04,0.45-0.09,0.89-0.14,1.34c-0.78,1.14-0.59,2.31-0.1,3.49c0.08,1.03,0.17,2.06,0.25,3.09
		c-0.41,0.31-0.21,0.53,0.1,0.73c0.12,0.28,0.24,0.56,0.36,0.84c-0.08,0.74,0.24,1.13,1,1.13c0.11-0.01,0.19,0.03,0.25,0.12
		c0.02,0.33,0.17,0.59,0.51,0.65c0.06,0.01,0.17-0.32,0.25-0.5c0.72-0.13,1.19-0.57,1.49-1.21c1.81-2.22,2.24-4.85,2.26-7.61
		c0.08-0.45,0.17-0.91,0.25-1.36c0.34-0.19,0.42-0.42,0.09-0.7c0.07-0.44,0.13-0.89,0.19-1.33c1.04-1.85,1.43-3.8,0.87-5.89
		c0.06-0.33,0.11-0.66,0.17-0.99c0.58-0.41,0.59-0.89,0.17-1.42c0.04-0.45,0.09-0.89,0.13-1.34c1.11-2.91,1.42-5.9,0.92-8.97
		c0.06-0.68,0.12-1.37,0.18-2.05c0.71-0.61,0.53-1.54,0.55-2.24c0.06-2.36,0.92-4.68,0.33-7.05c-0.08-0.82,0-1.62,0.2-2.41
		c0.54-0.55,0.5-1.13,0.09-1.72c0.09-1.49,0.18-2.98,0.28-4.47c0.54-0.66,0.53-1.35,0.08-2.06c0.02-0.34,0.03-0.67,0.06-1.01
		c0.53-0.08,0.61-0.47,0.58-0.88c-0.18-2.7,0.88-5.28,0.73-7.98c-0.02-0.39-0.18-1.06,0.55-0.99c0.54,0.05,0.36,0.61,0.41,0.98
		c0.18,1.45-0.31,2.94,0.32,4.36c-0.1,6.65-0.2,13.31-0.3,19.96c-0.34,0.22-0.37,0.44-0.02,0.68c0.04,7.27-0.24,14.55,0.36,21.81
		c0.45,5.42,1.08,10.82,3.01,15.97C163.96,205.23,164.35,205.74,163.91,206.08z"/>
	<path class="st0" d="M105.83,57.52c-2.2,16.29-1.21,32.66-1.04,49c0.01,1.37,0.02,2.74,0.02,4.11c-0.63,1.2-0.5,2.49-0.41,3.76
		c0.08,1.09-0.01,2.09-0.88,2.92c-0.84-1.76-0.2-3.86-1.62-5.34c-0.07-0.67-0.14-1.34-0.21-2.02c0.36-0.96,0.67-1.93-0.25-2.78
		c-0.03-0.45-0.06-0.9-0.09-1.35c0.35-0.75,0.6-1.48-0.23-2.09c-0.03-0.22-0.05-0.44-0.08-0.67c0.45-0.52,0.38-0.97-0.15-1.38
		c-0.08-0.57-0.15-1.14-0.22-1.71c0.44-0.39,0.34-0.73-0.09-1.04c-0.21-1.95-0.42-3.89-0.63-5.84c0.43-0.43,0.42-0.79-0.15-1.08
		c-0.03-0.22-0.07-0.44-0.1-0.66c0.4-0.55,0.4-1.04-0.25-1.4c-0.06-0.45-0.11-0.89-0.16-1.34c0.33-0.26,0.25-0.48-0.06-0.69
		c-0.21-1.72-0.42-3.44-0.62-5.16c0.43-0.39,0.34-0.72-0.09-1.03c-0.08-0.46-0.16-0.92-0.24-1.38c0.45-0.46,0.34-0.8-0.21-1.06
		c-0.86-6.46-1.86-12.9-2.96-19.32c-0.41-2.37-0.89-4.72-1.57-7.03c-0.56-1.92-1.6-3.53-3.21-4.75c-0.46-0.47-0.92-0.81-1.44-0.08
		c-1.91,1.56-2.12,3.75-2.2,5.98c-0.02,0.62-0.09,1.23-0.14,1.85c-0.58,3.09-0.52,6.19-0.03,9.28c-0.01,5.51-0.01,11.01-0.01,16.52
		c-0.49,2.75-0.48,5.49,0,8.24c0,0.93,0,1.85,0,2.77c-0.48,0.47-0.28,1.08-0.28,1.63c-0.02,2.23-0.01,4.46-0.01,6.7
		c0.01,21.8,0.01,43.6,0.03,65.4c0,0.65-0.27,1.39,0.38,1.93c0.07,3.1,0.13,6.19,0.2,9.29c-0.41,0.82-0.44,1.62,0.1,2.4
		c0.08,1.38,0.16,2.76,0.24,4.14c-0.65,2.52,0.09,5,0.3,7.48c0.07,0.82-0.29,1.85,0.57,2.52c0.04,0.22,0.08,0.44,0.12,0.67
		c-0.34,0.63-0.41,1.23,0.22,1.74c0.04,0.22,0.09,0.44,0.13,0.66c-0.31,1.65,0.51,3.05,0.97,4.55c0.24,0.79,1.33,1.51,0.72,2.32
		c-0.69,0.91-1.53-0.25-2.33-0.25c-0.09,0-0.18,0.11-0.27,0.17c-1.95-0.32-3.9-0.65-5.86-0.97c-0.33-0.38-0.67-0.44-1.03-0.03
		c-4.31,0.09-8.54,0.61-12.46,2.73c-0.4-0.85-0.02-1.38,0.29-1.75c2.27-2.69,2.75-6.01,3.15-9.29c1.42-11.45,1.51-22.96,1.53-34.47
		c0.05-34.02,0.08-68.03,0.07-102.05c0-2.67,0.2-5.38-0.55-8.01c-0.25-0.89-0.66-1.67-1.65-1.96c-0.12-0.2-0.24-0.4-0.36-0.6
		c-0.51,0.11-1.22-0.26-1.4,0.61c-2.26,1.39-2.78,3.8-3.33,6.06c-1.47,6.05-2.38,12.21-3.18,18.39c-1.01,7.81-2.05,15.62-3.08,23.43
		c-0.33,0.19-0.46,0.41-0.08,0.68c-0.03,0.22-0.05,0.44-0.08,0.66c-0.85,0.71-0.66,1.55-0.33,2.42c-0.07,0.7-0.13,1.39-0.2,2.09
		c-0.34,0.21-0.36,0.44-0.04,0.69c-0.1,1.03-0.2,2.06-0.3,3.1c-0.34,0.2-0.4,0.43-0.06,0.68c-0.04,0.56-0.08,1.12-0.12,1.69
		c-1.04,2.56-1.27,5.22-0.91,7.94c-0.08,0.91-0.16,1.83-0.24,2.74c-0.36,0.18-0.33,0.55-0.44,0.87c-0.76,2.23-0.25,4.7-1.32,6.96
		c-0.78-0.64-0.42-1.69-0.99-2.3c0.01-0.45,0.02-0.91,0.03-1.36c0.9-0.45,0.86-0.93,0.05-1.44c0.06-1.94,0.12-3.87,0.18-5.81
		c0.54-0.78,0.55-1.58,0.09-2.4c0-0.22,0.01-0.45,0.02-0.67c0.26,0.01,0.45-0.1,0.46-0.36c0.01-0.25-0.15-0.4-0.42-0.39
		c0.01-0.2,0.02-0.41,0.02-0.62c0.6-0.24,0.62-0.5,0.02-0.77c0.01-0.2,0.01-0.4,0.02-0.6c0.81-2.51,0.67-5.06,0.22-7.6
		c0.07-2.4,0.14-4.81,0.2-7.22c0.48-0.3,0.39-0.79,0.39-1.24c-0.02-7.38-0.04-14.76-0.06-22.14c0-0.41-0.13-0.66-0.54-0.73
		c-0.02-0.57-0.03-1.14-0.04-1.71c0.3-1.63,0.76-3.28-0.31-4.83c-0.02-0.34-0.03-0.68-0.05-1.02c0.37-0.27,0.26-0.51-0.06-0.73
		c-0.26-1-0.3-2.03-0.28-3.05c0.41-0.51,0.39-0.98-0.11-1.42c-0.06-0.22-0.11-0.44-0.16-0.66c0.48-0.84,0.07-1.46-0.48-2.05
		c-0.1-0.57-0.19-1.14-0.28-1.71c0.38-0.29,0.22-0.52-0.09-0.73c-0.17-0.77-0.33-1.53-0.5-2.3c0.65-0.28,0.22-0.54,0.03-0.88
		c-0.59-1.08-0.45-1.92,0.88-2.27c0.33,0.15,0.67,0.3,1,0.45c0.93,1.18,1.98,1.32,3.16,0.36c0.22-0.03,0.44-0.06,0.66-0.09
		c0.3,0.35,0.51,0.23,0.69-0.12c0.96-0.17,1.91-0.34,2.87-0.52c0.4,0.24,0.73,0.19,0.94-0.26c0.28-0.1,0.55-0.2,0.83-0.29
		c0.5,0.16,0.96,0.2,1.23-0.37c0.44-0.06,0.89-0.12,1.33-0.18c0.51,0.39,0.99,0.43,1.42-0.12c1.11-0.32,2.23-0.35,3.34-0.04
		c1.07,0.65,2.14,1.33,3.48,1.19c0.33,0.08,0.65,0.15,0.98,0.22c0.62,0.51,1.27,0.93,2.11,0.48c0.44,0.07,0.89,0.13,1.33,0.19
		c0.74,0.6,1.46,0.73,2.15-0.07c1.19-0.22,2.37-0.43,3.56-0.65c0.78,0.03,1.55,0.04,1.91-0.86c1.77-0.92,3.61-0.87,5.48-0.42
		c0.2,0.34,0.43,0.41,0.69,0.08c0.57-0.02,1.14-0.02,1.67,0.25c0.18,0.36,0.4,0.55,0.73,0.14c0.22,0.07,0.43,0.14,0.65,0.21
		c0.24,0.39,0.55,0.48,0.95,0.2c0.6,0.15,1.2,0.31,1.81,0.46c0.17,0.35,0.37,0.57,0.73,0.18c0.79,0.16,1.58,0.32,2.37,0.48
		c0.46,0.63,0.95,0.59,1.44,0.04c0.17-0.02,0.34-0.04,0.51-0.06c0.39,0.21,0.68,0.1,0.9-0.26c0.29-0.13,0.57-0.25,0.85-0.38
		c0.71,0.22,1.51,0.25,1.99,0.94C106.9,51.76,106.22,54.61,105.83,57.52z"/>
	<path class="st0" d="M163.09,51.97c-0.37,0.98,0.04,1.9,0.22,2.83c0.25,1.32-0.01,2.56-0.4,3.8c-0.48-1-0.76-1.99-0.78-3.05
		c-0.02-1.08-0.42-2.02-1.38-2.63c3.37,9.4-3.01,18.69-9.64,23.2c-0.58,0.39-1.23,0.6-1.95,0.48c-0.31,0.23-0.27,0.57,0.05,0.6
		c1.35,0.1,1.02,1.01,0.95,1.82c0.43-0.14,0.91-0.19,1.28-0.43c7.35-4.73,12.19-11.11,13.09-20.04
		C164.75,56.23,164.24,54.02,163.09,51.97z M162.72,59.63l-0.08-0.06l0.09-0.03L162.72,59.63z"/>
	<path class="st0" d="M105.27,136.96c-1.12,0.14-1.45-1-1.53-1.92c-0.67-7.58-1.3-15.16-1.94-22.74c-0.01-0.1,0.07-0.21,0.1-0.32
		c1.42,1.49,0.78,3.59,1.62,5.34c0.87-0.83,0.96-1.83,0.88-2.92c-0.09-1.27-0.22-2.56,0.41-3.76c0.57,2.58,0.42,5.22,0.58,7.82
		c0.35,5.48,0.44,10.98,0.59,16.47C106.01,135.67,106.27,136.84,105.27,136.96z"/>
	<path class="st0" d="M86.76,167.26c0,0.39-0.1,0.78-0.15,1.17c-0.65-0.54-0.38-1.28-0.38-1.93c-0.02-21.8-0.03-43.6-0.03-65.4
		c0-2.23-0.01-4.46,0.01-6.7c0-0.55-0.2-1.16,0.28-1.63c0.04,5.77,0.11,11.54,0.13,17.32C86.68,129.15,86.73,148.21,86.76,167.26z"
		/>
	<path class="st0" d="M161.9,131.38c-0.06,1.31-0.21,2.62-0.31,3.93c-0.28,3.69-0.55,7.39-0.83,11.09
		c-0.63-1.41-0.14-2.91-0.32-4.36c-0.05-0.37,0.13-0.94-0.41-0.98c-0.72-0.07-0.57,0.6-0.55,0.99c0.15,2.7-0.9,5.28-0.73,7.98
		c0.03,0.42-0.06,0.81-0.58,0.88c-0.03-0.45-0.12-0.91-0.07-1.35c0.74-5.79,1-11.62,1.29-17.45c0.02-0.34,0.12-0.67,0.18-1.01
		c0.15-0.91,0.84-0.99,1.55-0.97C161.98,130.15,161.92,130.85,161.9,131.38z"/>
	<path class="st0" d="M56.86,126.69c-0.42,2.83-0.55,5.67-0.66,8.52c-0.03,0.78-0.04,1.7-1.24,1.64c-1.13-0.06-1.22-0.87-1.16-1.71
		c0.26-3.58,0.54-7.15,0.82-10.72c0.58,0.62,0.21,1.66,0.99,2.3c1.07-2.27,0.55-4.74,1.32-6.96c0.11-0.32,0.08-0.69,0.44-0.87
		C57.62,121.52,57.24,124.11,56.86,126.69z"/>
	<path class="st0" d="M55.51,95.19c-0.47-2.54-0.1-5.11-0.15-7.66c-0.09-5.48-0.05-10.96-0.06-16.44c0.41,0.07,0.54,0.32,0.54,0.73
		c0.01,7.38,0.04,14.76,0.06,22.14C55.9,94.4,55.99,94.89,55.51,95.19z"/>
	<path class="st0" d="M38.45,160.01c-0.03,1.07-0.86,1.52-1.81,1.74c-1.02-0.23-1.7-0.87-1.72-1.87c-0.03-1.05,0.72-1.79,1.72-1.74
		C37.63,158.19,38.49,158.87,38.45,160.01z"/>
	<path class="st0" d="M76.15,224.35c-0.1,1.13-1.15,1.49-2.03,1.38c-0.85-0.11-1.52-0.8-1.37-1.85c0.15-1.06,0.72-1.65,1.88-1.46
		C75.78,222.52,76.23,223.36,76.15,224.35z"/>
	<path class="st0" d="M60.81,212.72c-1.15,0.09-1.8-0.77-1.86-1.81c-0.06-1,0.8-1.4,1.71-1.68c0.84,0.27,1.83,0.5,1.92,1.59
		C62.66,211.95,61.84,212.64,60.81,212.72z"/>
	<path class="st0" d="M153.87,217.9c-0.21,1.01-0.82,1.63-1.89,1.52c-1.07-0.11-1.69-0.9-1.55-1.88c0.13-0.93,0.82-1.67,1.92-1.51
		C153.34,216.18,154.05,216.71,153.87,217.9z"/>
	<path class="st0" d="M175.22,186.61c-0.11,1.14-0.7,1.82-1.74,1.8c-1.02-0.02-1.77-0.78-1.73-1.74c0.04-0.86,0.55-1.82,1.66-1.82
		C174.54,184.85,175.15,185.54,175.22,186.61z"/>
	<path class="st0" d="M184.31,159.63c-0.03,1.1-0.79,1.53-1.42,1.63c-1.41-0.1-2.13-0.52-2.11-1.69c0.02-1.16,0.79-1.63,1.79-1.62
		C183.58,157.97,184.34,158.5,184.31,159.63z"/>
	<path class="st0" d="M150.98,177.31c-0.69,4.69-2.15,9.23-2.99,13.9c-0.16,0.89-0.42,1.77-0.63,2.65
		c-0.66-0.94-0.06-1.92,0.11-2.78c0.89-4.34,1.95-8.65,2.96-12.97C150.52,177.78,150.58,177.43,150.98,177.31z"/>
	<path class="st0" d="M47.29,186.88c0,1.3-0.46,1.88-1.57,1.79c-1.18-0.1-1.77-0.75-1.73-1.91c0.04-1.17,0.88-1.59,1.87-1.58
		C47.07,185.2,47.17,186.21,47.29,186.88z"/>
	<path class="st0" d="M186.1,149.94c0.01,1.64-0.73,2.12-1.76,2.1c-1.01-0.02-1.64-0.77-1.56-1.68c0.07-0.87,0.44-1.87,1.67-1.78
		C185.54,148.66,186.05,149.35,186.1,149.94z"/>
	<path class="st0" d="M170.93,195.11c-0.08,0.99-0.47,1.78-1.53,1.69c-1.32-0.07-1.98-0.67-1.95-1.83c0.03-1.14,1.02-1.34,1.83-1.36
		C170.15,193.59,171.03,193.95,170.93,195.11z"/>
	<path class="st0" d="M88.28,17.7c-0.08,1.36-0.66,2.09-1.81,2.06c-1.18-0.03-1.43-1.01-1.41-1.94c0.01-0.86,0.25-1.8,1.4-1.72
		C87.53,16.16,88.24,16.75,88.28,17.7z"/>
	<path class="st0" d="M91.99,205.85c-0.35,0.31-0.86,0.1-1.28-0.11c-1.05-0.54-2.09-1.08-3.13-1.62c0.09-0.06,0.18-0.17,0.27-0.17
		c0.8,0,1.64,1.16,2.33,0.25c0.61-0.81-0.48-1.53-0.72-2.32c-0.46-1.49-1.28-2.89-0.97-4.55c0.79,2.53,1.39,5.14,3.27,7.19
		C92.06,204.84,92.52,205.39,91.99,205.85z"/>
	<path class="st0" d="M34.56,122.25c0,1.14-0.97,1.39-1.87,1.65c-0.84-0.38-1.77-0.72-1.61-1.87c0.13-0.88,0.62-1.72,1.63-1.63
		C33.72,120.5,34.56,121.11,34.56,122.25z"/>
	<path class="st0" d="M187.3,140.96c-0.09,1.08-0.82,1.72-1.76,1.68c-0.98-0.03-1.64-0.89-1.59-1.85c0.05-0.8,0.44-1.71,1.55-1.68
		C186.67,139.15,187.23,139.82,187.3,140.96z"/>
	<path class="st0" d="M160.27,210.79c0.04,1.05-0.55,1.61-1.53,1.64c-1.04,0.03-1.78-0.59-1.87-1.6c-0.09-1.01,0.51-1.69,1.6-1.91
		C159.48,209.13,160.22,209.63,160.27,210.79z"/>
	<path class="st0" d="M59.31,41.93c-0.2,0.83-0.48,1.74-1.4,1.69c-0.87-0.05-1.8-0.51-1.82-1.67c-0.03-1.07,0.55-1.79,1.6-1.86
		C58.92,39.99,58.99,41.11,59.31,41.93z"/>
	<path class="st0" d="M40.68,169.19c-0.05,0.94-0.59,1.62-1.65,1.54c-1-0.08-1.75-0.52-1.72-1.69c0.03-1.14,0.69-1.6,1.85-1.62
		C40.22,167.46,40.74,168.15,40.68,169.19z"/>
	<path class="st0" d="M80.04,22.33c-0.06,1.02-0.56,1.74-1.75,1.66c-1.06-0.07-1.72-0.59-1.71-1.7c0.01-1.12,0.79-1.5,1.73-1.42
		C79.15,20.95,80.11,21.17,80.04,22.33z"/>
	<path class="st0" d="M35.08,140.89c-0.04,1.27-0.31,2.03-1.46,2.04c-1.17,0.01-1.64-0.68-1.7-1.72c-0.05-1.05,0.52-1.6,1.57-1.6
		S35.04,140.19,35.08,140.89z"/>
	<path class="st0" d="M97.12,14.81c0.06,1.12-0.63,1.54-1.6,1.49c-0.97-0.05-1.81-0.35-1.75-1.6c0.05-1.12,0.66-1.63,1.68-1.67
		C96.66,13.06,97.06,13.79,97.12,14.81z"/>
	<path class="st0" d="M39.35,84.52c0.06,0.99-0.52,1.65-1.53,1.62c-0.89-0.03-1.89-0.12-1.86-1.45c0.05-1.16,0.7-1.74,1.82-1.78
		C38.86,82.87,39.3,83.61,39.35,84.52z"/>
	<path class="st0" d="M34.66,131.82c-0.1,0.97-0.81,1.49-1.8,1.57c-1.11,0.09-1.51-0.85-1.56-1.66c-0.05-0.84,0.32-1.77,1.42-1.76
		C33.78,129.99,34.58,130.49,34.66,131.82z"/>
	<path class="st0" d="M35.76,102.81c0.04,1.37-0.56,2.04-1.6,2.04c-0.93,0-1.57-0.64-1.61-1.64c-0.03-0.95,0.28-1.73,1.41-1.67
		C34.91,101.59,35.84,101.77,35.76,102.81z"/>
	<path class="st0" d="M43.8,178.38c-0.1,1.12-0.93,1.35-1.85,1.31c-1.06-0.05-1.51-0.68-1.39-1.49c0.08-1.3,0.61-1.79,1.69-1.65
		C43.35,176.68,43.91,177.26,43.8,178.38z"/>
	<path class="st0" d="M163.04,41.73c-0.11,0.95-0.78,1.47-1.6,1.38c-0.8-0.08-1.98-0.09-1.92-1.4c0.06-1.1,0.74-1.77,1.87-1.8
		C162.58,39.89,162.84,40.8,163.04,41.73z"/>
	<path class="st0" d="M181.79,168.96c0.07,1.06-0.65,1.33-1.5,1.39c-0.86-0.19-1.84-0.23-1.81-1.41c0.03-1,0.51-1.78,1.64-1.76
		C181.22,167.2,181.72,167.94,181.79,168.96z"/>
	<path class="st0" d="M49.36,58.02c0.02,1.1-0.7,1.61-1.6,1.61c-1.09,0-1.62-0.84-1.54-1.86c0.07-0.88,0.45-1.7,1.59-1.61
		C48.94,56.25,49.35,56.98,49.36,58.02z"/>
	<path class="st0" d="M36.35,150.47c-0.01,1.07-0.32,1.84-1.3,1.85c-1.07,0-1.84-0.63-1.89-1.76c-0.05-1.15,0.76-1.59,1.76-1.63
		C36.1,148.87,36.19,149.81,36.35,150.47z"/>
	<path class="st0" d="M178.81,76.94c-0.87-0.25-1.94-0.41-1.91-1.58c0.02-0.94,0.51-1.82,1.65-1.84c1.01-0.02,1.61,0.66,1.72,1.59
		C180.38,76.08,179.79,76.69,178.81,76.94z"/>
	<path class="st0" d="M172.93,57.64c0.05,1.18-0.66,1.59-1.7,1.66c-1.21,0.09-1.43-0.72-1.44-1.64c0-0.91,0.17-1.72,1.41-1.64
		C172.24,56.09,172.96,56.44,172.93,57.64z"/>
	<path class="st0" d="M156.89,34.32c0.02,1.19-0.7,1.62-1.82,1.69c-1.28,0.09-1.33-0.77-1.37-1.66c-0.04-1.06,0.5-1.61,1.54-1.55
		C156.13,32.87,156.98,33.07,156.89,34.32z"/>
	<path class="st0" d="M65.49,34.51c-0.08,1.05-0.59,1.67-1.71,1.66c-1.07-0.01-1.5-0.61-1.5-1.63c0-1.06,0.54-1.6,1.58-1.51
		C64.74,33.1,65.61,33.28,65.49,34.51z"/>
	<path class="st0" d="M37.34,94.03c-0.01,1.15-0.78,1.23-1.62,1.24c-1.04,0-1.82-0.37-1.74-1.56c0.07-0.97,0.57-1.59,1.5-1.52
		C36.81,92.23,37.35,92.85,37.34,94.03z"/>
	<path class="st0" d="M56.59,203.55c-0.07,1.07-0.59,1.5-1.66,1.43c-1.11-0.07-1.62-0.52-1.6-1.7c0.02-1.18,0.67-1.44,1.67-1.42
		C56.08,201.88,56.66,202.38,56.59,203.55z"/>
	<path class="st0" d="M34.77,112.7c0,1.07-0.49,1.56-1.55,1.54c-1.07-0.02-1.59-0.59-1.58-1.59c0.01-0.93,0.3-1.71,1.72-1.62
		C34.23,111.02,34.77,111.55,34.77,112.7z"/>
	<path class="st0" d="M42.08,75.51c-0.31,0.82-0.41,1.86-1.59,1.7c-0.9-0.12-1.83-0.45-1.81-1.67c0.02-1.17,0.8-1.62,1.78-1.69
		C41.55,73.78,41.8,74.69,42.08,75.51z"/>
	<path class="st0" d="M115.8,12.92c0.02,0.97-0.28,1.83-1.35,1.77c-1.23,0.02-1.96-0.36-2.02-1.51c-0.06-1.06,0.47-1.61,1.53-1.54
		C114.81,11.68,115.77,11.76,115.8,12.92z"/>
	<path class="st0" d="M84.17,229.26c-0.06,1.14-0.89,1.44-1.78,1.38c-0.89-0.06-1.69-0.48-1.61-1.59c0.06-0.96,0.48-1.64,1.6-1.56
		C83.48,227.56,84.24,227.99,84.17,229.26z"/>
	<path class="st0" d="M168.22,49.6c0,0.87-0.61,1.41-1.59,1.4c-0.91-0.01-1.67-0.37-1.71-1.5c-0.04-1.19,0.7-1.61,1.71-1.69
		C167.73,47.74,168.14,48.42,168.22,49.6z"/>
	<path class="st0" d="M178.75,177.62c-0.02,1.31-0.41,1.95-1.54,1.87c-0.98-0.08-1.79-0.27-1.75-1.56c0.03-1.2,0.77-1.64,1.74-1.66
		C178.19,176.25,178.71,176.93,178.75,177.62z"/>
	<path class="st0" d="M51.58,195.1c-0.04,1-0.2,1.84-1.37,1.89c-1.12,0.06-1.74-0.57-1.84-1.61c-0.11-1.11,0.67-1.56,1.61-1.56
		C50.81,193.83,51.62,194.07,51.58,195.1z"/>
	<path class="st0" d="M68.8,218.01c-0.01,0.89-0.42,1.61-1.41,1.59c-1.08-0.01-1.87-0.53-1.9-1.74c-0.02-1,0.56-1.42,1.63-1.46
		C67.98,216.51,68.82,216.83,68.8,218.01z"/>
	<path class="st0" d="M187.88,131.41c-0.01,1.02-0.5,1.56-1.56,1.58c-1.18,0.02-1.62-0.59-1.63-1.69c0-0.98,0.4-1.47,1.42-1.46
		C187.19,129.84,187.88,130.21,187.88,131.41z"/>
	<path class="st0" d="M92.56,233.17c0.04,0.87-0.28,1.37-1.28,1.34c-1.13-0.03-1.88-0.38-1.87-1.67c0.01-0.99,0.45-1.45,1.45-1.48
		C92.15,231.32,92.61,231.97,92.56,233.17z"/>
	<path class="st0" d="M125.04,14.74c0,0.96-0.55,1.46-1.5,1.47c-0.89-0.12-1.78-0.15-1.75-1.41c0.03-1.13,0.54-1.72,1.67-1.7
		C124.51,13.12,125.04,13.73,125.04,14.74z"/>
	<path class="st0" d="M120.75,235.17c-0.08,1.02-0.14,1.83-1.43,1.75c-1.12-0.07-1.71-0.48-1.7-1.63c0-1.08,0.59-1.53,1.61-1.57
		C120.35,233.67,120.76,234.28,120.75,235.17z"/>
	<path class="st0" d="M101.81,235.25c-0.01,0.93-0.23,1.67-1.51,1.69c-1.17,0.01-1.66-0.5-1.66-1.6c-0.01-1.02,0.5-1.62,1.53-1.6
		C101.07,233.76,101.89,233.99,101.81,235.25z"/>
	<path class="st0" d="M148.24,29.33c-1.01,0.1-1.43-0.48-1.44-1.44c-0.01-1.04,0.44-1.59,1.54-1.52c0.91,0.06,1.74,0.19,1.65,1.41
		C150.12,29.09,149.16,29.24,148.24,29.33z"/>
	<path class="st0" d="M183.01,84.47c0.02,1.08-0.78,1.36-1.62,1.3c-0.74-0.06-1.7-0.08-1.7-1.24c0-1.07,0.47-1.74,2-1.77
		C182.46,82.76,182.98,83.41,183.01,84.47z"/>
	<path class="st0" d="M142.23,22.31c-0.05,0.88-0.24,1.61-1.34,1.59c-1.19-0.02-1.81-0.63-1.81-1.81c0-1.05,0.66-1.37,1.6-1.31
		C141.73,20.74,142.29,21.2,142.23,22.31z"/>
	<path class="st0" d="M134.04,17.86c-0.09,0.98-0.64,1.63-1.72,1.61c-1.09-0.02-1.42-0.84-1.41-1.76c0-0.91,0.3-1.75,1.44-1.66
		C133.35,16.13,134.05,16.63,134.04,17.86z"/>
	<path class="st0" d="M111.35,236.07c0.03,1.07-0.56,1.58-1.58,1.6c-1.12,0.02-1.71-0.53-1.69-1.68c0.02-1,0.42-1.62,1.54-1.59
		C110.74,234.41,111.33,234.95,111.35,236.07z"/>
	<path class="st0" d="M72.22,27.94c0.03,1.32-0.77,1.53-1.67,1.61c-1.22,0.1-1.41-0.81-1.43-1.67c-0.03-0.9,0.44-1.5,1.47-1.45
		C71.66,26.48,72.33,26.9,72.22,27.94z"/>
	<path class="st0" d="M176.86,66.42c-0.06,0.94-0.4,1.7-1.48,1.58c-1.31,0.08-1.51-0.82-1.54-1.69c-0.03-0.96,0.41-1.69,1.53-1.61
		C176.42,64.76,176.92,65.41,176.86,66.42z"/>
	<path class="st0" d="M128.35,234.44c-1.26,0.03-1.58-0.73-1.64-1.71c-0.08-1.2,0.78-1.37,1.7-1.41c1.02-0.03,1.66,0.35,1.55,1.51
		C130.09,234.01,129.49,234.41,128.35,234.44z"/>
	<path class="st0" d="M188,121.79c-0.01,0.98-0.37,1.66-1.48,1.68c-0.96,0.02-1.69-0.22-1.7-1.41c-0.01-1.09,0.37-1.76,1.56-1.79
		C187.42,120.25,188.03,120.66,188,121.79z"/>
	<path class="st0" d="M187.6,112.34c0.06,0.99-0.34,1.65-1.41,1.69c-1.09,0.03-1.69-0.5-1.69-1.63c-0.01-0.9,0.21-1.59,1.31-1.53
		C186.76,110.92,187.67,111.02,187.6,112.34z"/>
	<path class="st0" d="M186.61,103.05c-0.01,1.06-0.5,1.54-1.6,1.48c-1.09-0.07-1.69-0.46-1.63-1.67c0.06-1.17,0.75-1.43,1.71-1.41
		C186.13,101.46,186.67,101.98,186.61,103.05z"/>
	<path class="st0" d="M106.18,13.25c-0.02,0.94-0.38,1.56-1.43,1.48c-1.02-0.08-1.76-0.5-1.7-1.65c-0.07-1.25,0.72-1.43,1.66-1.46
		C105.86,11.58,106.21,12.23,106.18,13.25z"/>
	<path class="st0" d="M45.43,66.73c0.08,1-0.62,1.46-1.66,1.49c-1.2,0.03-1.52-0.81-1.58-1.79c-0.07-1.12,0.69-1.28,1.57-1.24
		C44.66,65.22,45.52,65.32,45.43,66.73z"/>
	<path class="st0" d="M184.96,93.65c0.05,0.91-0.27,1.52-1.34,1.51c-1.1-0.01-1.71-0.47-1.73-1.64c-0.02-1.13,0.58-1.48,1.61-1.5
		C184.65,92.01,185.05,92.57,184.96,93.65z"/>
	<path class="st0" d="M146.42,223.83c-0.04,0.96-0.43,1.73-1.5,1.64c-0.98-0.07-1.72-0.55-1.67-1.74c0.04-1.11,0.66-1.49,1.63-1.45
		C146.01,222.21,146.48,222.77,146.42,223.83z"/>
	<path class="st0" d="M138.54,229.03c-0.06,1.08-0.65,1.49-1.67,1.44c-1.08-0.06-1.74-0.49-1.6-1.63c-0.02-1.28,0.8-1.39,1.73-1.37
		C138.02,227.5,138.61,227.92,138.54,229.03z"/>
	<path class="st0" d="M88.03,194.26c-0.86-0.67-0.51-1.7-0.57-2.52c-0.21-2.48-0.95-4.96-0.3-7.48
		C87.43,187.59,88.1,190.89,88.03,194.26z"/>
	<path class="st0" d="M155.48,182.9c0.08-3.02,0.43-6,0.92-8.97C156.9,177.01,156.59,180,155.48,182.9z"/>
	<path class="st0" d="M153.54,162.22c-0.65-2.13-0.02-4.35-0.52-6.52c-0.17-0.73-0.83-1.58-0.13-2.41
		C154.11,156.2,153.89,159.2,153.54,162.22z"/>
	<path class="st0" d="M129.21,124.32c-0.55,0.27-1.07,0.63-1.19-0.45c-0.04-0.41-0.15-0.97-0.62-1.25c-0.63-1.38-0.1-2.88-0.44-4.32
		C129.16,119.78,128.15,122.44,129.21,124.32z"/>
	<path class="st0" d="M86.51,65.25c-0.49-3.1-0.55-6.19,0.03-9.28C86.65,59.07,86.73,62.16,86.51,65.25z"/>
	<path class="st0" d="M52.99,50c0.19,0.34,0.61,0.61-0.03,0.88c-0.76-1.08-0.99-2.38-1.41-3.59c-0.1-0.3-0.21-0.77-0.06-0.96
		c0.32-0.41,0.7,0.06,1.05,0.15c0.65,0.18,0.85,0.88,1.33,1.25C52.54,48.08,52.4,48.92,52.99,50z"/>
	<path class="st0" d="M156.58,171.88c-0.02-3.13,0.26-6.23,0.88-9.29c0.58,2.38-0.27,4.7-0.33,7.05
		C157.12,170.34,157.29,171.27,156.58,171.88z"/>
	<path class="st0" d="M115.42,48.1c-0.76,0.55-1.39-0.11-2.07-0.23c-0.87-0.15-1.77-0.59-2.5,0.32c-0.4-0.61-0.79-1.21-1.4-2.13
		C111.88,46.22,113.47,47.72,115.42,48.1z"/>
	<path class="st0" d="M86.5,90.01c-0.48-2.74-0.49-5.49,0-8.24C86.68,84.52,86.71,87.26,86.5,90.01z"/>
	<path class="st0" d="M153.62,195.93c-0.02,2.75-0.46,5.39-2.26,7.61C152.11,201,152.86,198.47,153.62,195.93z"/>
	<path class="st0" d="M107.66,48.92c-0.48-0.69-1.29-0.72-1.99-0.94c0.14-0.17,0.25-0.37,0.42-0.51c0.68-0.55,1.5-1.67,2.23-1.02
		C108.98,47.04,108.3,48.18,107.66,48.92z"/>
	<path class="st0" d="M58.53,108.2c0.03,2.69-0.49,5.31-0.91,7.94C57.26,113.42,57.49,110.76,58.53,108.2z"/>
	<path class="st0" d="M158.54,47.28c-2.44-0.69-5.09-0.53-7.4-1.77C153.76,45.45,156.3,45.77,158.54,47.28z"/>
	<path class="st0" d="M55.09,110.01c-0.11-2.54-0.09-5.08,0.22-7.6C55.76,104.95,55.91,107.5,55.09,110.01z"/>
	<path class="st0" d="M152.76,152.64c-0.98-2.22-2.27-4.31-2.86-6.69C151.32,147.98,152.52,150.1,152.76,152.64z"/>
	<path class="st0" d="M154.15,192.54c0.01-2,0.37-3.95,0.87-5.89C155.57,188.74,155.18,190.69,154.15,192.54z"/>
	<path class="st0" d="M134.46,45.8c0.06,1.35-0.37,2.19-1.45,2.68c-0.13-0.62-0.02-1.37-0.9-1.57
		C132.64,46.09,133.59,46.27,134.46,45.8z"/>
	<path class="st0" d="M149.17,45.51c-1.89,0.59-3.78,1.19-5.67,1.78C145.19,46.09,147,45.21,149.17,45.51z"/>
	<path class="st0" d="M55.26,69.38c-0.25-1.6-0.4-3.21-0.31-4.83C56.02,66.1,55.56,67.75,55.26,69.38z"/>
	<path class="st0" d="M151.45,174.94c-0.46-1.44-0.01-2.68,0.87-3.82C152.41,172.48,151.88,173.7,151.45,174.94z"/>
	<path class="st0" d="M147.23,195.2c-0.03,1.16-0.07,2.33-0.1,3.49C146.64,197.51,146.45,196.34,147.23,195.2z"/>
	<path class="st0" d="M74.84,47.74c-1.35,0.15-2.41-0.54-3.48-1.19C72.68,46.48,73.75,47.14,74.84,47.74z"/>
	<path class="st0" d="M58.03,48.53c-1.18,0.96-2.23,0.82-3.16-0.36C55.89,48.57,56.98,48.38,58.03,48.53z"/>
	<path class="st0" d="M153.17,165.31c-0.24-0.85-1.2-1.8,0.31-2.43C153.59,163.72,153.52,164.53,153.17,165.31z"/>
	<path class="st0" d="M128.19,48.24c-0.83,0.63-1.71,1.04-2.78,0.59C126.3,48.44,127.22,48.21,128.19,48.24z"/>
	<path class="st0" d="M101.69,109.96c-0.22-0.91-0.43-1.83-0.25-2.78C102.36,108.03,102.05,108.99,101.69,109.96z"/>
	<path class="st0" d="M132.61,124.48c-0.09,0.22-0.18,0.44-0.27,0.66c-0.16-0.13-0.36-0.24-0.47-0.41
		c-0.35-0.53-0.49-1.12-0.29-1.74c0.03-0.11,0.33-0.26,0.36-0.24C132.44,123.22,132.71,123.78,132.61,124.48z"/>
	<path class="st0" d="M54.88,115.81c-0.19-0.81-0.14-1.61,0.09-2.4C55.43,114.23,55.43,115.03,54.88,115.81z"/>
	<path class="st0" d="M86.92,180.12c-0.54-0.78-0.51-1.58-0.1-2.4C87.06,178.51,87.09,179.31,86.92,180.12z"/>
	<path class="st0" d="M118.85,48.83c-0.95,0.51-1.74,0.21-2.45-0.49C117.26,48.3,118.06,48.55,118.85,48.83z"/>
	<path class="st0" d="M59.24,99.96c-0.33-0.87-0.52-1.71,0.33-2.42C59.72,98.39,59.65,99.2,59.24,99.96z"/>
	<path class="st0" d="M158.04,153.98c-0.19-0.69-0.2-1.38,0.08-2.06C158.57,152.63,158.58,153.32,158.04,153.98z"/>
	<path class="st0" d="M101.35,105.83c-0.3-0.67-0.41-1.37-0.23-2.09C101.95,104.35,101.71,105.08,101.35,105.83z"/>
	<path class="st0" d="M81.42,48.56c-0.69,0.79-1.41,0.67-2.15,0.07C79.98,48.4,80.7,48.44,81.42,48.56z"/>
	<path class="st0" d="M54.3,57.67c-0.42-0.63-0.59-1.31-0.48-2.05C54.37,56.22,54.78,56.84,54.3,57.67z"/>
	<path class="st0" d="M77.94,48.44c-0.84,0.45-1.49,0.03-2.11-0.48C76.57,47.95,77.29,48.03,77.94,48.44z"/>
	<path class="st0" d="M157.67,160.18c-0.2-0.59-0.17-1.16,0.09-1.72C158.17,159.05,158.21,159.63,157.67,160.18z"/>
	<path class="st0" d="M88.36,196.67c-0.63-0.51-0.56-1.11-0.22-1.74C88.47,195.47,88.5,196.06,88.36,196.67z"/>
	<path class="st0" d="M142.66,137.77c-0.85-0.06-1.32-0.53-1.42-1.37C141.83,136.74,142.37,137.13,142.66,137.77z"/>
	<path class="st0" d="M71.08,48.33c-0.58-0.22-1.17-0.05-1.76,0.01c0.18-0.87,0.89-0.5,1.4-0.61
		C70.84,47.92,70.96,48.13,71.08,48.33z"/>
	<path class="st0" d="M86.89,47.06c-0.36,0.9-1.13,0.89-1.91,0.86C85.56,47.51,86.17,47.15,86.89,47.06z"/>
	<path class="st0" d="M68.02,46.59c-0.43,0.54-0.91,0.51-1.42,0.12C67.06,46.5,67.53,46.39,68.02,46.59z"/>
	<path class="st0" d="M155.18,185.66c-0.21-0.51-0.08-0.97,0.17-1.42C155.78,184.77,155.76,185.25,155.18,185.66z"/>
	<path class="st0" d="M101.04,103.07c-0.27-0.43-0.37-0.89-0.15-1.38C101.42,102.1,101.49,102.55,101.04,103.07z"/>
	<path class="st0" d="M99.7,91.37c-0.34-0.42-0.4-0.89-0.25-1.4C100.11,90.34,100.1,90.82,99.7,91.37z"/>
	<path class="st0" d="M54.57,59.76c-0.2-0.46-0.24-0.94-0.11-1.42C54.96,58.77,54.98,59.25,54.57,59.76z"/>
	<path class="st0" d="M132.47,49.4c-0.01,0.65-0.44,1.05-0.84,1.48C131.41,50.11,131.85,49.7,132.47,49.4z"/>
	<path class="st0" d="M103.4,48.68c-0.5,0.55-0.98,0.59-1.44-0.04C102.45,48.45,102.93,48.43,103.4,48.68z"/>
	<path class="st0" d="M54.65,123.05c-0.15-0.48-0.17-0.97,0.05-1.44C55.51,122.13,55.55,122.61,54.65,123.05z"/>
	<path class="st0" d="M148.85,204.48c-0.76-0.01-1.08-0.39-1-1.13C148.32,203.61,148.63,204,148.85,204.48z"/>
	<path class="st0" d="M147.05,142.29c-0.65-0.09-1-0.43-0.98-1.11C146.56,141.41,146.9,141.77,147.05,142.29z"/>
	<path class="st0" d="M90.34,48.21c-0.48-0.02-0.96-0.05-1.44-0.08C89.42,47.4,89.88,47.74,90.34,48.21z"/>
	<path class="st0" d="M81.73,203.15c-0.35,0.17-0.69,0.16-1.03-0.03C81.05,202.71,81.39,202.77,81.73,203.15z"/>
	<path class="st0" d="M100.66,99.99c-0.22-0.33-0.26-0.68-0.09-1.04C101,99.26,101.1,99.6,100.66,99.99z"/>
	<path class="st0" d="M98.28,80.38c-0.27-0.31-0.38-0.66-0.21-1.06C98.62,79.57,98.74,79.92,98.28,80.38z"/>
	<path class="st0" d="M98.61,82.79c-0.24-0.33-0.3-0.67-0.09-1.03C98.95,82.06,99.04,82.4,98.61,82.79z"/>
	<path class="st0" d="M99.95,93.11c-0.26-0.33-0.36-0.68-0.15-1.08C100.37,92.32,100.38,92.68,99.95,93.11z"/>
	<path class="st0" d="M151.15,176.67c-0.39-0.45-0.35-0.81,0.21-1.07C151.51,176,151.37,176.34,151.15,176.67z"/>
	<path class="st0" d="M152.9,167.04c-0.45-0.45-0.38-0.8,0.19-1.07C153.25,166.37,153.18,166.72,152.9,167.04z"/>
	<path class="st0" d="M65.27,46.89c-0.28,0.57-0.74,0.53-1.23,0.37C64.36,46.87,64.78,46.77,65.27,46.89z"/>
	<path class="st0" d="M149.86,204.75c-0.09,0.18-0.2,0.51-0.25,0.5c-0.33-0.06-0.48-0.31-0.51-0.65
		C149.35,204.65,149.61,204.7,149.86,204.75z"/>
	<path class="st0" d="M59,102.74c-0.33-0.25-0.31-0.48,0.04-0.69C59.24,102.29,59.19,102.52,59,102.74z"/>
	<path class="st0" d="M59.66,96.88c-0.39-0.27-0.25-0.49,0.08-0.68C59.9,96.45,59.89,96.68,59.66,96.88z"/>
	<path class="st0" d="M55.45,112.38c-0.01,0.26-0.2,0.37-0.46,0.36c-0.14-0.26-0.14-0.51,0.03-0.75
		C55.3,111.98,55.46,112.13,55.45,112.38z"/>
	<path class="st0" d="M99.29,88.64c-0.21-0.21-0.21-0.44-0.06-0.69C99.54,88.16,99.62,88.38,99.29,88.64z"/>
	<path class="st0" d="M54.9,63.54c-0.16-0.23-0.2-0.48-0.06-0.73C55.16,63.03,55.27,63.27,54.9,63.54z"/>
	<path class="st0" d="M55.05,111.38c-0.15-0.26-0.15-0.52,0.02-0.77C55.67,110.88,55.65,111.13,55.05,111.38z"/>
	<path class="st0" d="M153.86,194.57c-0.16-0.26-0.13-0.49,0.09-0.7C154.28,194.15,154.2,194.38,153.86,194.57z"/>
	<path class="st0" d="M53.54,53.91c-0.17-0.23-0.22-0.47-0.09-0.73C53.76,53.39,53.92,53.62,53.54,53.91z"/>
	<path class="st0" d="M148.71,144.37c-0.46-0.04-0.63-0.32-0.58-0.76C148.51,143.71,148.73,143.95,148.71,144.37z"/>
	<path class="st0" d="M58.65,106.52c-0.35-0.26-0.29-0.48,0.06-0.68C58.88,106.08,58.86,106.3,58.65,106.52z"/>
	<path class="st0" d="M149.78,145.74c-0.51-0.02-0.67-0.31-0.6-0.78C149.56,145.08,149.78,145.32,149.78,145.74z"/>
	<path class="st0" d="M152.56,169.79c-0.29-0.25-0.29-0.48,0.04-0.7C152.77,169.34,152.75,169.57,152.56,169.79z"/>
	<path class="st0" d="M104.82,48.36c-0.22,0.36-0.52,0.47-0.9,0.26C104.13,48.27,104.47,48.3,104.82,48.36z"/>
	<path class="st0" d="M59.39,48.33c-0.18,0.34-0.4,0.47-0.69,0.12C58.89,48.21,59.12,48.16,59.39,48.33z"/>
	<path class="st0" d="M160.44,167.04c-0.36-0.23-0.33-0.46,0.02-0.68C160.65,166.59,160.65,166.82,160.44,167.04z"/>
	<path class="st0" d="M142.93,47.71c-0.01,0.51-0.29,0.7-0.76,0.65C142.27,47.97,142.51,47.74,142.93,47.71z"/>
	<path class="st0" d="M99.59,48.15c-0.35,0.39-0.55,0.17-0.73-0.18C99.15,47.84,99.38,47.96,99.59,48.15z"/>
	<path class="st0" d="M147.48,202.51c-0.32-0.2-0.51-0.42-0.1-0.73C147.57,202,147.63,202.24,147.48,202.51z"/>
	<path class="st0" d="M63.2,47.55c-0.21,0.45-0.54,0.5-0.94,0.26C62.55,47.65,62.82,47.42,63.2,47.55z"/>
	<path class="st0" d="M97.06,47.52c-0.39,0.28-0.7,0.18-0.95-0.2C96.48,47.17,96.78,47.27,97.06,47.52z"/>
	<path class="st0" d="M95.47,47.11c-0.33,0.4-0.55,0.22-0.73-0.14C95.02,46.82,95.25,46.92,95.47,47.11z"/>
	<path class="st0" d="M93.07,46.71c-0.27,0.33-0.5,0.26-0.69-0.08C92.62,46.48,92.85,46.51,93.07,46.71z"/>
	<path class="st0" d="M148.88,70.78c-0.61-1.84-0.54-3.68-0.06-5.53C149.06,67.09,149.16,68.93,148.88,70.78z"/>
	<path class="st0" d="M148.81,61.14c-0.4-1.3-0.69-2.59,0.18-3.82C149.17,58.6,149.08,59.87,148.81,61.14z"/>
	<path class="st0" d="M150.1,52.52c-0.09,0.62-0.14,1.26-0.62,1.74C149.1,53.47,149.41,52.93,150.1,52.52z"/>
	<path class="st0" d="M149.18,55.64c-0.45-0.36-0.32-0.59,0.17-0.73C149.49,55.2,149.46,55.45,149.18,55.64z"/>
	<path class="st0" d="M160.4,52.21c-0.3-0.09-0.42-0.31-0.41-0.61C160.44,51.59,160.84,51.61,160.4,52.21z"/>
	<path class="st0" d="M70.72,47.73c0.02-0.04,0.04-0.08,0.06-0.11C70.76,47.65,70.74,47.68,70.72,47.73
		C70.72,47.72,70.72,47.73,70.72,47.73z"/>
	<polygon class="st0" points="162.64,59.57 162.73,59.54 162.72,59.63 	"/>
</g>
</svg>
