<?xml version="1.0" encoding="utf-8"?>
<!-- Generator: Adobe Illustrator 28.1.0, SVG Export Plug-In . SVG Version: 6.00 Build 0)  -->
<svg version="1.1" id="Layer_1" xmlns="http://www.w3.org/2000/svg" xmlns:xlink="http://www.w3.org/1999/xlink" x="0px" y="0px"
	 viewBox="0 0 250 250" style="enable-background:new 0 0 250 250;" xml:space="preserve">
<style type="text/css">
	.st0{fill:#FFFFFF;}
</style>
<g>
	<path class="st0" d="M247.75,131.5c-3.54-16.82-12.88-30.25-25.95-41.12c-14.41-11.99-30.98-19.68-49.19-23.91
		c-4.73-1.1-6.8-4.65-5.34-9.31c0.47-1.5,1.25-2.83,2.06-4.16c1.81-2.94,4.68-4.84,7.01-7.27c4.56-4.74,6.2-10.3,4.51-16.69
		c-1.94-7.31-6.86-12.29-13.15-16.01c-12.29-7.25-25.62-9.07-39.55-7.08c-8.38,1.2-16.07,4.19-22.35,10.07
		c-4.75,4.46-8.26,9.75-9.7,16.21c-0.21,0.93-0.56,2.44,0.36,2.85c1.17,0.52,1.54-1.06,2.13-1.8c7.36-9.26,16.21-16.36,28.06-18.78
		c14.87-3.04,28.2,1.16,40.59,9.24c1.31,0.86,2.37,2.03,3.29,3.3c3.24,4.46,3.01,8.85-0.7,12.94c-1.28,1.41-2.62,2.77-3.84,4.23
		c-4.3,5.15-7.13,10.83-6.11,17.81c0.24,1.66-0.51,2.34-2.09,1.87c-3.37-1.02-6.84-0.88-10.29-1.03
		c-13.78-0.59-27.31,0.73-40.39,5.31c-0.94,0.33-2.3,0.22-2.74,1.85c0.42,0.06,0.72,0.14,1.02,0.15c11.16,0.1,22.31,0.44,33.44,1.45
		c1.69,0.16,2.41,0.53,2.56,2.35c0.43,5.09,1.05,10.15,1.64,15.22c0.38,3.33,0.41,3.3-2.89,3.81c-8.19,1.28-16.37,0.83-24.58,0.07
		c-2.25-0.21-2.61-0.91-2.05-2.9c1.5-5.41,2.91-10.85,4.28-16.29c0.21-0.84,0.72-2.09-0.3-2.55c-0.92-0.41-1.41,0.79-1.88,1.46
		c-3.62,5.11-6.27,10.74-8.33,16.62c-0.75,2.15-1.85,2.79-4.06,2.38c-8.16-1.52-16.3-3.11-24.26-5.5c-3.73-1.12-3.73-1.1-3.73-4.68
		c-3.49,0.72-6.42,2.44-9.18,4.54c-0.98,0.74-0.98,1.32,0.14,1.85c1.44,0.69,1.63,1.76,1.2,3.23c-3.22,11.07-5.2,22.39-6.56,33.82
		c-0.18,1.5-0.62,1.6-1.9,1.25c-5.5-1.5-11.03-2.9-16.54-4.36c-0.8-0.21-1.57-0.56-2.3-0.19c-0.19,0.82,0.35,0.88,0.67,1.11
		c5.31,3.79,11.1,6.67,17.18,8.97c2.34,0.88,3.46,2.31,3.37,4.86c-0.25,7.06,0.83,13.96,2.44,20.81c1.11,4.74,2.79,9.31,4.29,14.19
		c-0.92-0.14-1.51-0.17-2.09-0.32c-8.88-2.26-17.75-4.52-26.61-6.82c-0.47-0.12-0.95-0.68-1.35-0.09c-0.36,0.55-0.23,1.19,0.35,1.6
		c0.49,0.35,1.01,0.66,1.54,0.96c8.95,5.14,18.4,9.09,28.37,11.77c2.41,0.64,4.07,1.85,5.38,4.02c2.94,4.87,5.56,9.98,9.25,14.37
		c2.06,2.45,4.59,4.26,8.19,5.14c-3.66-6.8-7.83-12.81-10.33-20.11c7.43,1.11,14.42,2.29,21.45,3.12c2.82,0.33,4.53,1.45,5.85,3.93
		c3.75,7.04,8.72,13.08,15.4,17.6c0.62,0.42,1.29,1.39,1.98,0.87c0.75-0.57,0.25-1.59-0.11-2.39c-0.32-0.7-0.66-1.4-0.99-2.11
		c-2.2-4.69-4.41-9.37-6.58-14.07c-0.46-0.99-1.25-2.1,0.95-2.11c8.3-0.08,16.61,0.55,24.9-0.45c1.46-0.17,2.11,0.35,1.54,1.98
		c-1.06,3.01-1.94,6.08-2.97,9.11c-1.32,3.87-2.69,7.72-4.14,11.83c2.63-0.63,4.24-2.04,5.72-3.63c3.78-4.05,6.63-8.72,8.01-14.06
		c1.13-4.4,3.05-6.74,8.01-6.7c5.1,0.04,10.21-0.86,15.85-1.4c-3.76,6.82-6.66,13.39-11.32,18.92c-0.57,0.68-1.87,1.34-1.02,2.32
		c0.89,1.02,1.85,0.05,2.65-0.62c6.72-5.67,12.85-11.85,17.11-19.66c1.17-2.15,2.9-3.44,5.35-4.11c8.3-2.27,16.14-5.62,23.18-10.65
		c1.84-1.32,3.65-2.68,4.17-5.09c0.14-0.66,0.51-1.49-0.14-1.91c-0.33-0.21-1.11,0.18-1.63,0.41c-5.38,2.37-10.86,4.45-16.41,6.35
		c-2.55,0.87-5.06,1.96-8,2.36c1.63-3.76,2.97-7.31,3.9-11.01c1.86-7.39,3.7-14.77,4.13-22.42c0.19-3.21,1.63-5.19,4.88-6.16
		c3.99-1.18,7.53-3.42,10.98-5.74c1.75-1.18,3.14-2.72,4.22-4.52c0.35-0.58,0.95-1.27,0.45-1.89c-0.49-0.62-1.25-0.18-1.91,0.03
		c-4.86,1.52-9.75,2.94-14.58,4.55c-1.89,0.63-2.6,0.68-2.64-1.77c-0.2-12.41-1.52-24.68-4.99-36.65c0-0.2,0.01-0.41,0.01-0.6
		c0.16,0.09,0.31,0.18,0.46,0.27c16.76,7.9,30.87,18.74,39.35,35.73c6.47,12.98,7.35,26.32,1.99,39.89
		c-4.57,11.58-12.39,20.76-22.06,28.34c-19.72,15.45-42.69,22.2-67.23,24.54c-13.38,1.27-26.62,0.1-39.8-2.12
		c-26.77-4.52-49.93-15.79-68.13-36.39c-4.02-4.55-7.63-9.41-11.07-14.39c-0.42-0.61-0.81-1.52-1.79-1.08
		c-0.56,0.25-0.3,0.89-0.22,1.4c1.91,13.16,8.43,23.75,18.04,32.68c11.55,10.74,25.2,17.77,39.9,23.02
		c4.8,1.71,9.74,2.96,15.26,4.41c-1.28,0.42-1.92,0.64-2.57,0.85c-4.84,1.56-9.7,3.06-14.36,5.17c-2.57,1.17-2.02,2.77-1.41,4.88
		c0.7,2.39,2.05,1.82,3.59,1.36c0.41-0.12,0.84-0.22,1.25-0.34c19.32-5.65,39.12-8.41,59.15-8.39c17.05,0.03,33.99,2.14,50.62,6.28
		c4.03,1,7.96,2.66,12.88,2.73c-9-7.27-19.02-11.2-29.52-15.05c4.09-1.46,7.71-2.64,11.24-4.03c18.64-7.32,34.87-18,46.82-34.37
		C247.25,166.36,251.59,149.73,247.75,131.5z M101.71,177.09c-6.05-0.41-11.94-2.35-17.93-2.53c-5.94-0.18-7.94-3.13-9.17-8.3
		c-1.97-8.33-4.05-16.64-4.85-25.15c-0.6-6.37-0.21-5.16,4.4-3.75c6.96,2.12,14.06,3.55,21.26,4.46c2.36,0.3,3.22,1.31,3.34,3.64
		c0.53,9.93,1.4,19.82,4.07,29.46C103.39,176.93,103.21,177.14,101.71,177.09z M103.6,100.82c-2.78,10.1-5.14,20.27-4.96,30.85
		c0.02,1.47-0.53,2.06-2.03,1.79c-7.4-1.3-14.82-2.49-22.2-3.89c-6.29-1.2-5.21-0.48-5.31-6.52c0.45-9.86,1.63-19.63,3.57-29.31
		c0.38-1.9,0.99-2.47,2.94-1.73c8.58,3.24,17.47,5.39,26.55,6.67C103.63,98.88,104.03,99.25,103.6,100.82z M110.74,101.98
		c0.3-1.73,1.36-1.95,2.83-1.78c4.28,0.48,8.57,0.99,12.88,1.28c5.48,0.37,10.86-0.53,16.27-0.86c1.58-0.09,2.04,0.04,2.33,1.61
		c1.67,9.02,2.32,18.16,3.01,27.28c0.39,5.15,0.29,5.05-4.76,5.68c-4.98,0.62-9.99,0.34-14.14,0.73
		c-7.05-0.12-13.26-0.29-19.44-1.18c-1.82-0.27-2.22-0.99-2.21-2.67C107.59,121.93,108.99,111.94,110.74,101.98z M149.04,154.5
		c-0.37,7.17-1.04,14.29-2.39,21.35c-0.41,2.16-1.47,2.79-3.53,2.86c-8.63,0.33-17.25,0.9-25.89,0.12
		c-2.24-0.21-3.35-0.94-4.01-3.12c-3.03-9.97-4.61-20.18-5.62-30.52c-0.2-1.99,0.55-2.49,2.33-2.2c7.87,1.25,15.82,1.49,23.76,1.72
		c3.97,0.11,7.94-0.07,11.88-0.71c2.79-0.45,3.4,0.12,3.46,2.97C149.09,149.48,149.04,151.99,149.04,154.5z M150.78,88.67
		c-1.69-5.7-3.63-11.29-7.9-16.55c12.94,1.2,24.86,3.57,36.72,7.75c-0.76,1.28-1.96,1.65-2.97,2.2c-7.1,3.89-14.73,6.31-22.57,8.18
		C152.49,90.62,151.28,90.36,150.78,88.67z M189.87,140.31c-1.15,10.31-4.34,20.03-8.08,29.62c-0.93,2.39-2.44,3.9-4.96,4.41
		c-5.67,1.14-11.23,2.82-16.52,3.11c-4.67,0.49-4.88,0.46-4.31-3.59c1.35-9.61,1.31-19.31,1.83-28.97c0.1-1.83,0.7-2.4,2.58-2.61
		c9.01-1.01,18.02-2.12,26.81-4.45C190.14,137.07,190.21,137.31,189.87,140.31z M188.97,129.14c-7.26,1.93-14.57,3.63-22.07,4.38
		c-2.24,0.22-4.49,0.42-6.68,0.87c-2.02,0.42-2.76-0.05-2.9-2.23c-0.57-8.7-0.95-17.42-2.42-26.05c-0.4-2.34-2.17-5.17-0.81-6.89
		c1.16-1.47,4.24-1.4,6.46-2.08c8.37-2.54,16.28-6.1,23.78-10.61c3.28-1.97,3.31-1.97,4.09,1.87c1.34,6.55,1.19,13.23,1.67,19.86
		c0.44,6.02,0.61,12.07,0.9,18.1C191.26,127.95,190.39,128.76,188.97,129.14z"/>
	<path class="st0" d="M84.7,57.86c-1.08-0.44-2.18-0.43-3.28,0.06c-1.66,0.73-2.8,1.93-3.55,3.59c-0.32,0.73-0.21,1.73-1.11,2.18
		c-1.71-3.15-4.34-3.55-6.85-1.09c-0.95,0.93-1.46,2.12-1.93,3.33c-0.7,1.81-1.45,3.6-2.17,5.4c-0.49-0.51-0.59-0.92-0.6-1.33
		c-0.03-1.91-0.97-3.1-2.83-3.48c-1.99-0.4-2.56,1.11-3,2.52c-0.3,0.96-0.72,1.19-1.65,1.05c-2.62-0.38-3.47,1.16-3.84,3.44
		c-0.45,2.8-0.15,5.69-1.18,8.61c-0.94-1.79-0.87-3.64-1.22-5.39c-0.2-0.97,0.42-2.32-0.76-2.83c-1.32-0.57-1.55,1.03-2.32,1.59
		c-0.35,0.25-0.6,0.68-0.97,0.85c-4.03,1.91-4.8,5.29-4.4,9.33c0.08,0.83,0.61,2.55-0.85,2.47c-1.13-0.06,0.31-1.39-0.1-2.15
		c-0.07-0.13-0.02-0.34-0.01-0.51c0.06-1.22-0.08-2.31-1.65-2.39c-1.45-0.07-2.04,0.79-2.06,2.09c-0.02,0.89-0.3,1.41-1.23,1.69
		c-2.45,0.74-2.73,2.62-2.3,4.78c0.23,1.19,0.79,2.38-0.16,3.77c-0.4-0.73-0.71-1.25-0.97-1.78c-0.34-0.69-0.53-1.6-1.48-1.6
		c-1.05,0.01-1.48,0.84-1.57,1.75c-0.09,0.89-0.64,1.34-1.28,1.82c-1.4,1.07-1.98,2.51-1.99,4.29c-0.01,3.08,1.15,5.93,1.54,8.92
		c0.12,0.4,0.32,0.79-0.04,1.16c-0.16-0.27-0.31-0.54-0.46-0.81c-0.8-1.42-1.6-2.83-2.4-4.26c-0.37-0.66-0.63-1.57-1.61-1.31
		c-0.82,0.23-1.13,0.97-1.09,1.86c0.05,0.91-0.24,1.81-0.98,2.3c-1.13,0.74-1.11,1.76-1.2,2.92c-0.2,2.6,0.66,5.11,0.61,7.72
		c-0.44-0.5-0.71-1.01-0.84-1.57c-0.25-1.1-0.92-1.71-2.02-1.59c-1.35,0.15-1.15,1.26-1.2,2.2c-0.04,0.77,0.15,1.83-0.27,2.27
		c-2.88,3.04-0.55,5.57,0.67,8.19c0.36,0.77,0.93,1.6,1.95,1.46c1.45-0.2,0.14-1.49,0.7-2.33c0.4,0.46,0.66,0.77,0.93,1.08
		c0.73,0.82,0.93,2.76,2.45,2.01c1.31-0.64,0.89-2.27,0.54-3.54c-0.11-0.42-0.17-0.92-0.44-1.21c-1.71-1.89-0.42-3.33,0.76-4.64
		c1.61-1.78,4.92-2.21,4.41-5.65c-0.01-0.05,0.11-0.13,0.19-0.16c2.63-1.02,2.42-3.01,1.8-5.17c-0.44-1.55,0.2-2.29,1.79-2.34
		c0.65-0.02,1.3-0.14,2.03-0.23c0,1.72,0.02,3.36-0.01,5c-0.02,1.53,0.43,2.9,1.31,4.13c0.68,0.95,1.65,1.25,2.75,1.01
		c0.92-0.2,1.65-0.81,1.69-1.74c0.09-2.22,0.68-4.52-0.41-6.64c-2.01-3.93-2.84-8.15-3.11-12.49c-0.08-1.31-1.34-2.64-0.14-4.02
		c0.24,0.13,0.49,0.18,0.52,0.29c0.63,2.15,1.23,4.31,1.84,6.47c2.19-1.2,2.41-1.62,2.42-4.6c0.01-3.31,0.98-4.55,4.34-4.68
		c2.12-0.08,3.5-0.68,4.01-2.81c0.14-0.58,0.54-0.87,1.13-0.86c2.72,0.06,3.18-1.9,3.51-3.95c0.4-2.43,0.77-4.86,1.16-7.29
		c0.15,0.02,0.29,0.03,0.44,0.04v7.75c5.32-2.27,3.1-7.5,4.92-11.13c0.56,2.28-0.29,5.31,2.85,5.61c3.4,0.32,2.76-3.27,3.98-5.11
		c1.87,1.05,3.7,1.65,5.71,0.65c2-0.98,2.69-2.95,3.55-4.78c4,2.32,5.75,2.15,8.02-0.7c0.71-0.88,1.21-1.88,1.62-2.94
		C88.02,62.65,86.47,58.59,84.7,57.86z M23.7,111.71c-0.25-0.48-0.54-1,0.06-1.31c0.55-0.29,0.95,0.24,1.24,0.63
		c1.14,1.52,1.88,3.2,2.1,5.43C25.12,115.01,24.51,113.29,23.7,111.71z M33.02,104.72c-1.6-1.7-2.34-3.38-2.82-5.2
		c-0.14-0.5-0.12-1.08,0.5-1.26c0.5-0.15,0.74,0.31,0.93,0.69C32.47,100.64,33.77,102.23,33.02,104.72z M37.93,109.93
		c0.44,1.33,0.88,2.65,1.44,4.34C37.7,112.97,37.53,112.52,37.93,109.93z M48.73,85.35c-0.01,0.45-0.1,0.89-0.64,0.92
		c-0.48,0.03-0.75-0.29-0.88-0.75c-0.14-0.49-0.3-0.98-0.47-1.46c-0.48-1.34-0.56-2.66,0.19-3.93c0.07-0.12,0.53-0.18,0.63-0.08
		c1.12,1.01,1.12,2.4,1.16,3.55C48.73,84.32,48.73,84.83,48.73,85.35z M74.23,69.53c-0.28,0.65-0.7,1.25-1.54,0.98
		c-0.59-0.2-0.87-0.65-1-1.33c-0.64-3.41-0.04-3.97,4.05-3.44C75.23,67.03,74.75,68.29,74.23,69.53z M81.47,66.95
		c0.48-1.4,1.53-1.82,2.78-2.6C83.92,66.14,83.13,66.85,81.47,66.95z"/>
	<path class="st0" d="M136.46,53.27c-0.03,0.02-0.06,0.03-0.08,0.05c0.03,0,0.07-0.01,0.1-0.02
		C136.48,53.29,136.47,53.28,136.46,53.27z"/>
	<path class="st0" d="M157.87,37.82c-0.55-0.8-1.58-0.49-2.41-0.51c-1.27-0.04-1.71,0.93-2.23,1.85c-1.45,2.55-2.97,5.06-4.45,7.6
		c-0.5,0.86-0.96,1.59-2.19,1.35c-3.19-0.63-5.44,1-7.52,3.15c-0.66,0.69-1.02,1.83-2.59,2.05c-0.03,0.01-0.07,0.02-0.1,0.02h-0.01
		c-0.07,0.01-0.13,0.02-0.2,0.02c3.1-5.8,6.03-11.27,9.02-16.85c-3.09-0.5-4.85,0.58-5.98,3.22c-1.62,3.8-3.8,7.31-6.76,11.23
		c0.2-1.86,0.03-3.6-1.39-3.05c-2.01,0.8-3.82,0.82-5.84,0.5c-0.74-0.12-1.34,0.72-1.84,1.32c-0.98,1.16-1.91,2.38-2.95,3.67
		c-0.99-1.35-1.06-3.23-3.05-3.62c-1.72-0.34-2.97,1.22-4.94,0.98c1.49-3.89,2.93-7.58,4.32-11.28c0.45-1.21,0.94-2.2,2.54-2.02
		c0.82,0.09,1.24-0.54,1.24-1.34c0-0.92,0.3-2.04-1.05-2.3c-1.28-0.24-2.62-0.45-3.31,1.15c-1.14,2.6-2.36,5.18-3.42,7.82
		c-1.18,2.94-2.21,5.94-3.31,8.91c-0.24-0.03-0.48-0.06-0.72-0.09c0.21-3.95-0.98-7.92,0.59-11.85c0.37-0.93,0.75-1.8-0.2-2.57
		c-0.51-0.41-1.21-0.51-1.66-0.03c-0.45,0.48-0.72,1.15-0.97,1.78c-1.68,4.28-3.34,8.56-5.01,12.85c-0.79-3.2-1.09-6.32,0-9.39
		c0.34-0.98,0.62-1.93-0.63-2.36c-1.28-0.43-1.86,0.36-2.24,1.5c-0.54,1.63-1.08,3.3-2.71,4.26c-2.69-3.94-5.25-3.74-7.39,0.5
		c-0.96,1.9-1.49,3.86-1.35,6c0.05,0.7-0.5,1.69,0.82,1.73c1.06,0.03,1.2-0.82,1.34-1.6c0.34-1.82,0.32-3.76,1.76-5.24
		c2.41,2.83,2.41,2.83,5.79,2.58c-0.75,5.09,0.1,10.21-0.79,15.27c-0.12,0.7-0.6,1.62,0.48,1.99c1.08,0.36,1.76-0.2,2.31-1.13
		c1.73-2.92,2.94-6.05,3.97-9.26c0.27-0.82,0.37-1.72,1.25-2.61c0.53,2.95-0.06,5.49-0.17,8.03c-0.04,0.77-0.77,1.83,0.34,2.31
		c1.15,0.51,1.75-0.58,2.26-1.29c1.16-1.63,2.16-3.38,3.36-5.3c0.31,0.69,0.49,1.07,0.66,1.46c1.41,3.34,3.21,3.71,5.87,1.38
		c1.36-1.19,2.92-2.15,4.38-3.21c0.23-0.17,0.4-0.58,0.76-0.31c0.36,0.28,0.02,0.55-0.09,0.81c-1,2-0.43,2.57,1.73,2.11
		c1.65-0.35,2.45-1.42,3.23-2.72c0.72-1.21,4.32-1.05,4.92,0.16c1.02,2.05,2.7,2.56,4.52,1.2c0.87-0.64,1.51-1.61,2.93-3.18
		c-0.7,3.46,0.94,3.43,2.71,3.29c0.95-0.08,2.01-0.27,2.83,0.05c3.23,1.25,5.01-0.89,6.92-2.75c0.7-0.68,1.26-1.54,0.9-2.56
		c-0.42-1.21-1.53,0.08-2.44-0.68c2.48-4.27,5-8.58,7.48-12.91C157.59,39.27,158.41,38.61,157.87,37.82z M117.27,53.47
		c-0.53,2.14-1.02,4.33-3.41,5.82c0.16-2.52,1.03-4.44,2.06-6.3c0.15-0.25,0.56-0.6,0.75-0.55
		C117.11,52.56,117.39,53.01,117.27,53.47z M142.24,56.1c0.2-2.76,1.15-4.45,3.87-5.4C145.14,52.89,144.19,54.58,142.24,56.1z"/>
	<path class="st0" d="M23.92,159.27c-1.72,0.03-3.36-0.21-3.24-2.64c0.12-2.54,2.06-2.32,3.59-2.2c2.91,0.22,3.93-0.98,2.89-3.76
		c-0.98-2.63-2.85-4.49-5.11-6.03c-0.22-0.01-0.44-0.02-0.66-0.03c0.07,0.19,0.15,0.37,0.22,0.56c0.27,1.26,2.49,2.57,0.53,3.71
		c-1.7,0.99-2.31-1.16-3.22-2.17c-0.22-0.25-0.49-0.58-0.5-0.89c-0.17-4.64-4.06-6.62-6.73-9.48c-1.29-1.38-2.47-2.86-3.79-4.4
		c-1.21,1.68-1.86,3.6-2.52,5.52c-0.35,1.24-0.82,2.45-1.03,3.71c-0.77,4.67,1.65,9.71,5.52,11.55c1.27,0.61,2.56,1.07,3.82-0.09
		c1.3-1.19,1.21-2.57,0.61-4.01c-1.42-3.44-3.67-6.2-6.89-8.11c-1.07-0.63-2.11-1.27-1.71-2.79c5.7-1.53,12.91,7.05,12.55,12.54
		c-0.25,3.84-3.77,6.36-7.78,5.5c-4.71-1.01-8.54-5.66-8.97-10.86c-0.32-3.84,0.17-7.6,1.25-11.28c1.22-4.14,2.55-8.24,3.82-12.37
		c0.29-0.93,0.47-1.93,1.79-1.75c1.37,0.18,1.55,1.15,1.51,2.29c-0.03,0.86,0.2,1.79-0.04,2.59c-1.38,4.71,1.71,7.07,4.83,9.43
		c0.74,0.57,1.55,1.05,2.4,1.62c0.97-1.07,0.21-2.02,0.01-2.94c-0.14-0.62-0.87-1.25-0.01-1.82c0.7-0.46,1.48-0.49,2.18,0.05
		c2.19,1.68,4.41,3.34,6.53,5.11c1.02,0.85,1.23,2.1,0.7,3.32c-0.77,1.76-2.33,0.07-3.54,0.69c1.44,1.33,2.88,2.52,4.15,3.88
		c1.94,2.07,2.97,4.66,3.51,7.4C31.38,155.18,28.08,159.19,23.92,159.27z"/>
	<path class="st0" d="M204.4,33.13c-8.5,0.05-14.64,6.44-14.85,15.05c-0.18,7.29,6.31,15.62,14.95,14.78
		c8.63,0.96,15.34-6.97,15.32-14.71C219.79,39.55,213.16,33.08,204.4,33.13z M204.76,59.21c-6.36-0.03-11.49-5.16-11.34-11.36
		c0.15-5.91,5.4-10.95,11.35-10.89c5.71,0.06,11.21,5.41,11.15,10.86C215.84,53.94,210.67,59.23,204.76,59.21z"/>
	<path class="st0" d="M193.98,86.49c0-0.2,0-0.4,0.01-0.6c0.15,0.09,0.31,0.18,0.46,0.27C194.29,86.26,194.14,86.37,193.98,86.49z"
		/>
	<path class="st0" d="M136.48,53.3c-0.03,0.01-0.07,0.02-0.1,0.02c0.03-0.02,0.06-0.03,0.08-0.05
		C136.47,53.28,136.48,53.29,136.48,53.3z"/>
	<path class="st0" d="M21.61,145.17c-0.07-0.18-0.15-0.37-0.22-0.55c0.22,0.01,0.44,0.02,0.66,0.03
		C21.9,144.82,21.75,144.99,21.61,145.17z"/>
	<path class="st0" d="M210.57,52.45c-0.42-2.46-0.94-4.8-0.11-7.37c0.66-2.04-0.89-3.61-3.32-4.01c-6.59-1.1-7.15-0.63-7.15,5.93
		v1.03c0,1.56,0.08,3.12-0.02,4.67c-0.09,1.5,0.17,2.59,1.97,2.56c1.72-0.03,1.71-1.22,1.84-2.52c0.11-1.11-1.07-3.01,0.96-3.19
		c2-0.18,1.38,2.01,1.94,3.12c0.17,0.34,0.03,0.85,0.02,1.28c-0.02,0.9,0.5,1.11,1.31,1.2C210.34,55.41,210.98,54.87,210.57,52.45z
		 M204.89,46.72c-0.86,0.01-1.26-0.4-1.18-1.28c0.07-0.73-0.21-1.64,0.96-1.75c1.02,0.11,1.59,0.68,1.67,1.66
		C206.43,46.37,205.79,46.71,204.89,46.72z"/>
</g>
</svg>
