<?xml version="1.0" encoding="utf-8"?>
<!-- Generator: Adobe Illustrator 28.1.0, SVG Export Plug-In . SVG Version: 6.00 Build 0)  -->
<svg version="1.1" id="Layer_1" xmlns="http://www.w3.org/2000/svg" xmlns:xlink="http://www.w3.org/1999/xlink" x="0px" y="0px"
	 viewBox="0 0 250 250" style="enable-background:new 0 0 250 250;" xml:space="preserve">
<style type="text/css">
	.st0{fill:#282828;}
</style>
<g>
	<path class="st0" d="M114,96c1.4-0.8,3-0.1,4.5-0.5c0.8,0.6,1.8,0.5,2.7,0.8c0.6,0.2,1.4,0.8,1.9,0.1c0.5-0.7-0.8-0.7-0.8-1.3
		c0-0.2,0-0.3-0.1-0.5l0,0c0.3,0,0.6-0.1,0.8-0.3h0c0.3,0,0.5-0.1,0.7-0.3c0.2-0.1,0.4-0.3,0.6-0.4c0.1,0,0.3,0,0.4,0
		c0,0.1,0,0.2,0.1,0.3c0,0,0.1-0.1,0.1-0.1c-0.1-0.1-0.1-0.2-0.2-0.2c0-0.1,0-0.2,0-0.3l0,0c0.2,0,0.5,0,0.7,0
		c0.9,0.5,1.4,0.3,2.3-0.4c1.2-1,1.1-2.4,1.9-3.5c0.1-0.1,0.1-0.2,0.2-0.2c0,0-0.1-0.1-0.1-0.1c0,0.1,0,0.2-0.1,0.3
		c-0.2-0.1-0.5-0.3-0.7-0.4c2.6-6.2,1.6-10.6-3.5-14.7c-0.6-0.5-0.7-0.8-0.5-1.5c0.7-2.7,1.9-5.2,3.5-7.5c0.8-1.2,1.6-1.3,2.9-0.6
		c11.9,6.7,13.7,23.1,3.6,32.8c-5.9,5.6-13.2,7.5-21.1,7.1c-1.2-0.1-2.5-0.2-3.7-0.4c-0.7-0.1-1.1-0.1-1,0.8
		c1.3,9.9,4.3,19.1,10.7,27c0.1,0.1,0.3,0.2,0.5,0.3c8.6-12.9,20.9-20.9,34.8-27.1c-0.4-0.8-1.3-1.1-1.9-1.7c-3.6-3-6-6.7-6.9-11.4
		c-0.1-0.8-0.5-2,0.2-2.5c0.6-0.4,1.5,0.3,2.3,0.7c3.1,1.5,6.2,2.8,9.6,3.4c11.5,1.8,21.6-5,24.3-16.5c1.8-7.7,0.8-15-4-21.5
		c-4.1-5.6-11.6-6.5-16.5-2.4c-3.2,2.7-4.3,7-2.9,10.5c1.7,4.1,5.7,6.5,10,6.1c1.3-0.1,2.7-0.3,4-0.7c1.1-0.3,1.5,0,1.9,0.9
		c1,2.7,1.4,5.6,1.7,8.5c0.1,0.8-0.4,1-1,1.2c-11.7,4.3-27.2-2.1-26.1-18.7c0.6-9.1,7.8-16.3,17-17.2c5-0.5,9.7,0,14,2.8
		c0.7,0.5,0.9,0.1,1.3-0.5c2.6-3.7,6.2-5.7,11-6c-1.3,2-2.3,3.7-2.9,5.7c-1.7,5.1-0.9,10.2-0.2,15.4c1.6,11.2,0.5,22-6.2,31.6
		c-4.9,7-11.6,11.9-19,16c-7.6,4.2-15.1,8.6-22,14.1c-9.7,7.7-15.8,17.6-19.1,29.4c-0.2,0.6-0.3,1.1-0.5,1.8c-1-0.3-1.6-1.1-2.3-1.8
		c-9.9-10.1-15.6-22.2-18.1-36c-0.8-4.7-1.2-9.5-1.1-14.2c0-1-0.3-1.6-1.1-2.2c-10.6-8.1-10.3-23.6-3.9-31.4
		c0.3-0.1,0.4-0.3,0.5-0.6c0-0.1,0.1-0.2,0.2-0.1c0.7,0.6,1.3,0.1,1.9-0.3l0,0c0.2,1.1,0.4,2.3,0.1,3.5c-0.1,0.2,0.2,0.5,0.3,0.8
		c-1.5,3.8-1.8,7.8-1,11.9c0,0.3,0,0.6,0.3,0.9c0,0.1,0.1,0.2,0.1,0.4c-0.6,0-0.7,0.6-1,0.9c-0.6,0.7-1.9,1.5,0.3,1.8
		c0.5,0.1,1.1,0.6,0.8,1.4c-0.5,1.5,0.5,1,1.2,0.9l0,0c0.1,0.3,0.2,0.7,0.3,1c0.1,0.5,0.1,1.2,0.8,1c1-0.3-0.1-0.8,0-1.2
		c0-0.3,0-0.6,0-0.8l0,0c0.1,0,0.2,0,0.3,0c0.1,0.1,0.2,0.3,0.4,0.4c0.2,0.4,0,1.2,0.8,1c0.3-0.1,0.1-0.5-0.1-0.7
		c0.1-0.5,0.2-0.9,0.3-1.4c0,0,0.1,0,0.1-0.1c0-0.1,0-0.2-0.1-0.3c0-0.2,0.1-0.5,0.1-0.7c0.1-0.3,0.2-0.5,0.2-0.8
		c-0.1-0.1,0-0.2,0.1-0.3c0.1,0,0.2,0,0.3,0c0.3,0.4,0.6,0.9,1.2,0.4c-0.3-0.6-0.8-0.3-1.2-0.4c-0.1-0.1-0.2-0.2-0.3-0.3
		c-0.1-0.4,0.1-0.7,0.3-1.1c0.3-0.3,0.3-0.7,0.3-1.2c0-0.6,0.2-1.1,0.4-1.7c0.3-0.3,0.3-0.6,0.3-1c0-0.4,0.1-0.8,0.4-1.1
		c0.3,0.5,0,1.6,1.1,1.4c0.5-0.1,0.6-0.5,0.6-0.9c0-0.9-0.6-1.2-1.4-1.2c-0.1,0-0.1,0-0.2,0c0.1-0.1,0.1-0.3,0.2-0.4
		c0.2-0.2,0.6-0.3,0.6-0.5c0.1-0.3-0.3-0.2-0.5-0.3c0.3-0.7,0.5-1.4,0.8-2.1c0.1-0.1,0.1-0.2,0.1-0.3l0,0c1-0.4,1.5-0.2,1.9,0.9
		c0.4,1.1,0.4,2.4,1.3,3.4c-0.2,0.8-0.3,1.6-0.5,2.5c-0.2,0.3-0.3,0.6-0.2,1c-0.1,0.6-0.1,1.2-0.2,1.9c-0.7,0.7-0.9-0.1-1.3-0.8
		c-0.1,2.2-0.2,4-0.3,5.9c0,0.8,0.1,1.4,1,1.6c0,0.2,0,0.5,0,0.7c-0.4,0.2-0.8,0.5-1.2,0.6c-0.8,0.2-1,0.8-0.8,1.5
		c0.2,0.9,0.9,0.7,1.5,0.7c1.1,0.1,1.4-1.2,2.3-1.4c0.7,0.1,1.4,0.3,2.1,0.4C112.8,96.1,113.4,96.2,114,96z M124.1,94.7
		c0,0,0,0.1-0.1,0.1C124.1,94.7,124.1,94.7,124.1,94.7c0,0,0-0.1,0.1-0.1C124.2,94.6,124.2,94.6,124.1,94.7z M104.8,90.2
		c-1.1,1-1.6,1.9-0.6,3c0.3,0.4,0.8,0.6,1.3,0.3c0.5-0.3,0.2-0.7,0.1-1.1C105.2,91.7,105,91,104.8,90.2z M98.2,69.6
		c-0.4,0-0.8,0.1-0.9,0.6c0,0.4,0.2,0.7,0.6,0.7c0.5,0,0.8-0.3,0.9-0.7C98.9,69.7,98.6,69.6,98.2,69.6z M108.2,82.4
		c-0.5,0.9-0.5,1.5,0,2.3C108.7,83.8,108.7,83.2,108.2,82.4z M106.1,85.8c-0.1-0.4-0.2-0.6-0.6-0.5c-0.1,0-0.2,0.3-0.2,0.4
		c0.2,0.2,0.4,0.4,0.6,0.5C106,86,106,85.9,106.1,85.8z M105.5,83.4l0.1,0l-0.1-0.1L105.5,83.4z"/>
	<path class="st0" d="M229.4,22.8c-2.5,1.4-5,2.6-7.2,4.2c-6.2,4.7-9.5,11.2-11.3,18.6c-1.9,7.7-2.6,15.7-3.9,23.5
		c-1.4,8.6-3.5,16.9-7.5,24.7c-5.3,10.3-13.8,17.3-24.1,22.1c-6.2,2.9-12.6,5.2-18.7,8.4c-12.1,6.4-22.2,15-28.9,27.2
		c-0.7,1.3-1.3,2.8-2.1,4.1c0.9-4.9,2.7-9.4,5.1-13.6c6-10.4,14.9-17.6,25.4-23.1c6.9-3.6,13.9-7,20.5-11.1
		c10-6.2,15.9-15.3,18.7-26.5c2-8.1,2.9-16.4,3.9-24.7c0.9-7.4,1.9-14.7,5.7-21.3C209.5,26.8,220.4,21.3,229.4,22.8z"/>
	<path class="st0" d="M114.5,172.9c-0.4,0.6-0.2,1.1-0.2,1.7c0,8.4,0.1,16.9,0,25.3c0,3.5,0.8,6.6,3.3,9.2c0.3,0.3,0.6,0.7,0.9,1.1
		c0.3,0.5,0.9,0.9,0.7,1.5c-0.3,0.7-1,0.3-1.6,0.3c-2.8,0-5.7,0-8.5,0c-0.4,0-1,0.3-1.2-0.3c-0.2-0.5,0.1-0.9,0.4-1.3
		c0.7-0.8,1.5-1.4,2.1-2.3c1-1.8,1.3-3.7,1.2-5.8c-0.1-10.1,0-20.3,0-30.4c0-2.6-0.7-3.6-3-4.5c-0.5-0.2-1.3-0.2-1.1-1.1
		c0.2-0.8,0.9-0.3,1.3-0.4c6.9-1.2,11,2.6,14.6,7.7c5.5,7.7,10.9,15.5,16.7,23c1.5,1.9,3,3.7,4.9,5.3c0.5-0.5,0.2-1.1,0.2-1.6
		c-0.1-8.6,0.2-17.2-0.2-25.8c-0.1-3.1-1.3-5.5-3.6-7.5c-0.3-0.2-0.7-0.4-0.7-1c3.5,0,7.1,0,10.6,0c0.1,0.5-0.3,0.7-0.6,0.9
		c-2.7,1.8-3.2,4.4-3.2,7.4c0.1,12,0,23.9,0,35.9c0,0.6,0.4,1.6-0.4,1.7c-1,0.1-2.2,0.7-3.1-0.5c-1.1-1.5-2.2-2.9-3.3-4.4
		c-8.4-11-16.5-22.2-25.2-33C115.3,173.6,115.1,173,114.5,172.9z"/>
	<path class="st0" d="M234.2,201.6c-0.3-9.4,0.3-18.8-0.3-28.3c-0.2-2.6-1.4-4.5-3.2-6.2c-0.4-0.3-0.7-0.7-1.4-1.2c3.9,0,7.4,0,11,0
		c0.2,0.4-0.2,0.6-0.4,0.7c-3.1,1.9-3.5,4.9-3.5,8.1c0,11.7,0,23.3,0,35c0,0.7,0.5,1.8-0.5,2c-1.1,0.2-2.3,0.5-3.3-0.8
		c-4.4-5.9-8.8-11.8-13.3-17.6c-5-6.6-10.1-13.1-15.1-19.6c-0.3-0.4-0.5-0.8-1.2-0.9c0,3.1,0,6.2,0,9.3c0,5.8,0.1,11.5,0,17.3
		c-0.1,3.7,0.8,7.1,3.4,9.9c0.4,0.4,0.7,0.8,1,1.2c0.3,0.4,0.6,0.8,0.4,1.3c-0.2,0.6-0.8,0.3-1.2,0.3c-2.9,0-5.9,0-8.8,0
		c-0.4,0-1,0.3-1.2-0.4c-0.1-0.5,0.1-0.9,0.5-1.2c2.5-1.9,3.3-4.5,3.2-7.6c-0.1-10.3-0.1-20.6-0.1-30.9c0-3-0.3-3.5-3.1-4.6
		c-0.5-0.2-1.3-0.3-1-1.1c0.2-0.8,0.9-0.3,1.4-0.3c1-0.1,2,0.1,3,0c3.3-0.4,5.7,1.1,7.8,3.3c3.7,3.7,6.4,8.1,9.5,12.3
		c4.6,6.2,8.8,12.8,14.1,18.5c0.6,0.6,1.1,1.3,1.7,2C233.8,201.9,234,201.8,234.2,201.6z"/>
	<path class="st0" d="M110,80.9c-0.9-0.9-0.8-2.2-1.3-3.4c-0.4-1.1-1-1.3-1.9-0.9c2.3-7.1,5.9-13.5,10.3-19.4
		c9-11.9,21.1-19.2,35.3-23.4c10.1-3,20.5-4.8,31-5.7c4.7-0.4,9.5-0.8,14.2-1.4c4.7-0.6,9-2.2,13-5.8c-1.1,3.5-3.1,5.6-5.5,7.4
		c-4.7,3.3-10.1,4.8-15.6,5.5c-8.1,1.1-16.2,1.3-24.3,2.1c-17.8,1.9-32.8,8.8-44.1,23.1c-5,6.4-8.7,13.5-10.8,21.4
		C110.3,80.6,110.1,80.8,110,80.9z"/>
	<path class="st0" d="M69.3,212c-4.1,0-8.1,0-12.2,0c0-0.1-0.1-0.2-0.1-0.3c1.9-2.1,2-4.3,0.7-6.7c-1-1.9-1.7-4-2.5-6
		c-0.4-1-1.1-1.5-2.3-1.5c-5,0.1-10,0-15,0c-0.7,0-1.3-0.1-1.7,0.8c-0.9,2.5-1.8,5-2.8,7.4c-0.7,1.9-0.7,3.5,0.9,5
		c0.3,0.3,0.5,0.6,0.8,1.1c-3.5,0-6.8,0-10.2,0c0.2-0.3,0.4-0.6,0.6-0.8c4-2.5,5.1-6.7,6.7-10.7c3.7-9.3,7.6-18.6,11.1-28
		c0.4-1.2,0.4-2.1-0.2-3.1c-0.7-1.3-1.4-2.6-2.7-3.9c2.4,0,4.5-0.1,6.7,0c1.1,0,1.5,1,2,1.8c1.3,2.1,2,4.5,2.9,6.8
		c3.4,8.8,6.7,17.7,10,26.6c1.4,3.6,3.1,7,6.1,9.6C68.6,210.7,69.1,211.2,69.3,212z M45.4,174.5c-2.7,7-5.1,13.5-7.7,20.3
		c5.2,0,10.1,0,15,0c1.1,0,0.8-0.5,0.5-1.1C50.7,187.5,48.1,181.2,45.4,174.5z"/>
	<path class="st0" d="M194.6,212c-4,0-8,0-12,0c0-0.1-0.1-0.3-0.1-0.3c2-2.2,1.8-4.5,0.6-6.9c-1-1.9-1.7-3.9-2.5-5.8
		c-0.4-1-1.1-1.5-2.3-1.4c-4.9,0.1-9.9,0.1-14.8,0c-1,0-1.6,0.2-1.9,1.3c-0.8,2.3-1.7,4.6-2.6,6.9c-0.8,1.9-0.7,3.7,0.9,5.2
		c0.3,0.3,0.5,0.6,0.8,1.1c-3.5,0-6.7,0-10.2,0c0.4-0.9,1-1.4,1.7-1.9c1.7-1.2,2.7-2.9,3.5-4.7c4.3-10.5,8.5-21,12.7-31.6
		c1.1-2.8,0.3-4.8-1.2-6.9c-0.3-0.4-0.7-0.8-1.3-1.4c2.4,0,4.6-0.1,6.7,0c1.2,0.1,1.7,1.3,2.2,2.3c1.3,2.4,2.1,5.1,3.1,7.7
		c3.3,8.7,6.6,17.4,9.9,26c1.2,3.3,2.9,6.3,5.6,8.6C194,210.6,194.6,211.1,194.6,212z M179.1,194.8c-2.8-6.8-5.5-13.3-8.3-20.3
		c-0.6,1.6-1,2.7-1.4,3.8c-1.9,5-3.8,10-5.7,15c-0.2,0.5-1.2,1.5,0.5,1.5C169.1,194.8,174,194.8,179.1,194.8z"/>
	<path class="st0" d="M70.2,165.9c11.3,0,22,0,32.6,0c0.9,0,1.4,0.3,1.7,1.1c0.6,1.5,1.2,2.9,1.8,4.4c0.2,0.5,0.4,1.1-0.1,1.5
		c-0.5,0.3-1,0-1.5-0.3c-3.2-1.8-6.6-3.4-10.2-4.2c-3.9-0.9-7.8-1.1-11.8-0.9c-3.1,0.2-3.9,1.1-3.9,4.2c0,4.6,0,9.2,0,13.8
		c0,1.3,0.3,1.8,1.6,1.8c3.5-0.1,7.1-0.1,10.6-0.1c2.8,0,5-1.4,7.2-3c0.6-0.4,1.1-1.1,1.9-0.7c0.8,0.4,0.4,1.2,0.4,1.9
		c0.1,2.3,0,4.6,0,6.9c0,1.4-0.6,1.5-1.6,0.9c-0.3-0.1-0.5-0.3-0.7-0.5c-2.4-2.5-5.5-3-8.7-2.9c-3.1,0.1-6.2,0.1-9.4,0
		c-1,0-1.3,0.3-1.3,1.3c0,4.9,0,9.8,0,14.7c0,2.1,0.5,4,2.4,5.2c0.3,0.2,0.7,0.4,0.6,0.8c-0.1,0.5-0.6,0.4-1,0.4c-3.2,0-6.4,0-9.5,0
		c-0.3,0-0.7,0-0.9-0.4c-0.2-0.5,0.2-0.7,0.5-0.8c1.9-1.1,2-2.7,2-4.7c-0.1-11.5-0.1-23.1,0-34.7C73,169.3,72.2,167.7,70.2,165.9z"
		/>
	<path class="st0" d="M181.5,223.9c-1.7,3.6-3.3,7.2-5,10.8c-0.2,0.5-0.3,1.3-0.9,1.3c-0.5,0-0.9-0.7-1.2-1.2
		c-1.4-2.2-2.1-4.7-3.1-7.1c-0.5-1.2-1-2.5-1.8-3.6c-2,3.7-2.4,11.2-0.7,13.7c-1.6,0.2-3,0.2-4.4,0c3-5.2,3.7-10.7,3.5-16.5
		c3.2-0.2,3.2-0.2,4.6,3c1.2,2.7,2.4,5.4,3.7,8.4c1-2.2,2-4.1,2.9-6c0.4-0.9,0.9-1.8,1.2-2.7c0.7-2.2,2-3.4,4.2-2.6
		c-0.2,5.7,0.8,11.1,2.9,16.5c-0.4,0.2-1.1,0.1-1.8,0.1c-1.9,0-1.7,0-1.8-1.5c-0.2-2.5-0.6-5-1-7.5c-0.2-1.7-0.5-3.4-0.8-5
		C181.8,223.9,181.6,223.9,181.5,223.9z"/>
	<path class="st0" d="M121.9,108.5c3.5,0,6.3,2.8,6.3,6.2c0,3.4-2.9,6.2-6.4,6.2c-3.4,0-6.2-2.8-6.2-6.1
		C115.7,111.2,118.4,108.5,121.9,108.5z"/>
	<path class="st0" d="M143.2,59.4c-3.5-0.1-6.4-2.9-6.3-6.3c0.1-3.4,3.1-6.2,6.5-6.1c3.4,0.1,6.2,2.9,6.1,6.2
		C149.5,56.7,146.7,59.4,143.2,59.4z"/>
	<path class="st0" d="M120.3,89.8c-3.5,0-6.2-2.6-6.3-6c0-3.5,2.7-6.2,6.3-6.2c3.4,0,6.2,2.7,6.2,6.1
		C126.6,87.2,124,89.8,120.3,89.8z"/>
	<path class="st0" d="M78.9,221.2c3.7,0.3,7-0.3,10.2,0.4c1.3,0.3,2.6,0.7,3.6,1.7c2.4,2.3,1.6,5.4-1.8,6.8c-2.2,0.9-2.3,1.1-1,3.2
		c1.3,2,2.8,3.9,4.5,5.6c0.3,0.3,0.7,0.4,0.6,1c-0.9,0.1-1.7-0.4-2.4-0.8c-2.7-1.8-4.9-4.1-6.2-7.1c-0.7-1.7-2-0.9-3-1
		c-1,0-0.6,1-0.5,1.6c0.1,1.7-0.6,3.5,0.7,5.2c-1.5,0.3-2.9,0.1-4.4,0.1C80.9,235.5,80.7,223,78.9,221.2z M85.3,230.1
		c1.2,0.1,2.5-0.1,3.6-0.7c1.5-0.8,2.2-2.1,2.1-3.8c-0.1-1.7-1.1-2.6-2.7-3.1c-1.2-0.4-2.4-0.3-3.7-0.4c-1.2-0.1-1.7,0.3-1.7,1.6
		c0.1,1.4,0,2.7,0,4.1C83.1,230.3,82.7,230.1,85.3,230.1z"/>
	<path class="st0" d="M214.5,23.7c1.7-2.9,4.8-3.8,7.8-4.7c0.3-0.1,0.7-0.2,1-0.2c1.2-0.1,2-0.3,1.8-2c-0.2-1.8,1.3-2.8,2.8-3.4
		c1.5-0.6,3.1-0.8,4.7-0.7c3.4,0.2,6.8,0.3,10.4,0.2c-1.5,1.9-3.3,2.5-5.3,2.6c-1.9,0-3.9,0-5.8,0c-0.8,0-1.5,0.1-2.2,0.5
		c-0.6,0.4-1,0.9-0.8,1.6c0.2,0.9,0.9,0.5,1.4,0.5c1.6,0.1,3.3,0.2,5,0.4c-1.9,1-3.5,2.6-6,2.5C224.2,20.8,219.2,21.4,214.5,23.7z"
		/>
	<path class="st0" d="M214.3,235.3c-0.5,1.6-1,2.9-3.1,2.7c-3.8-0.2-7.7-0.1-11.5-0.1c-0.1,0-0.2-0.1-0.5-0.2
		c1.1-0.6,1.1-1.5,1.1-2.5c0.1-3.6,0.1-7.2,0.2-10.8c0-1.1,0.1-2.3-1.4-3.1c4.5,0,8.5,0,12.5,0c1.7,0,1.3,1.5,1.8,2.3
		c-0.5,0.3-0.8,0.2-1.2,0c-2.4-1.7-5.1-1.6-7.8-1.6c-1.2,0-1.6,0.6-1.6,1.6c0,1.6-0.5,3.9,0.3,4.5c1.2,0.9,3.4,0.4,5.1,0.2
		c0.9-0.1,1.8-0.7,2.8-1.2c0,1.2,0,2.3,0,3.5c-0.1,0-0.3,0.2-0.4,0.1c-2.1-2-4.7-1.1-7.1-1.3c-0.8-0.1-0.8,0.5-0.8,1
		c0,1.8,0,3.5,0,5.3c0,1.2,0.5,1.5,1.6,1.5C207.9,237.2,211.3,237.4,214.3,235.3z"/>
	<path class="st0" d="M28.8,237.9c-1.7,0-3.1,0-5,0c1.1-0.8,1.2-1.6,1.2-2.6c0-3.8-0.1-7.5,0-11.3c0-1.1-0.6-1.8-1.5-2.8
		c3.9,0.2,7.4-0.3,10.9,0.4c2.6,0.6,4.1,2.3,4.1,4.8c0,2.3-1.2,3.7-3.9,4.4c-1.9,0.5-4,0.5-5.9,0.5c-0.8,0-1.2,0.2-1.1,1.1
		C27.7,234.3,27,236.2,28.8,237.9z M29.9,230.5c1,0.1,2.1-0.1,3.1-0.5c1.4-0.5,2.5-1.4,2.6-3c0.1-1.7-0.3-3.2-1.8-4.1
		c-1.5-0.8-3.1-1-4.8-1c-1,0-1.6,0.5-1.6,1.7c0.1,1.5,0,3.1,0,4.6C27.5,230.6,27.5,230.6,29.9,230.5z"/>
	<path class="st0" d="M225.8,233.7c1.5,0.2,2.1,1.5,3,2.2c2,1.5,4.7,1.8,6.8,0.6c2.1-1.3,2.2-3.3,0.2-4.7c-1.5-1-3.2-1.3-4.9-1.9
		c-1.2-0.4-2.4-0.7-3.4-1.5c-2.4-1.7-2.3-4.7,0.3-6.1c3-1.7,6.2-1.1,9.2,0.1c1.4,0.6,0.1,1.8,0.8,2.6c-1.1,0.2-1.3-0.6-1.8-0.9
		c-1.9-1.6-4-2.5-6.5-1.7c-0.9,0.3-1.7,0.8-1.9,1.9c-0.2,1.2,0.6,1.9,1.5,2.4c2,1.1,4.2,1.6,6.3,2.3c2.4,0.9,3.6,2.2,3.7,4.2
		c0,2-1.1,3.5-3.5,4.3c-3.2,1.2-6.3,0.4-9.3-0.7C225.8,236.6,225.9,236.6,225.8,233.7z"/>
	<path class="st0" d="M66.6,223.6c-0.6,0.3-1,0.2-1.4,0c-2.3-1.7-5-1.6-7.6-1.5c-1.2,0-1.8,0.5-1.7,1.7c0,0.2,0,0.4,0,0.5
		c0.1,1.4-0.6,3.7,0.3,4c1.8,0.6,3.9,0.6,5.9-0.1c0.7-0.2,1.4-0.6,2-0.9c0.4,0.2,0.3,0.5,0.3,0.7c0,0.9,0.3,2.1-0.2,2.6
		c-0.7,0.7-1.4-0.6-2.2-0.8c-1.9-0.5-3.7-0.1-5.6-0.2c-0.5,0-0.5,0.4-0.5,0.8c0,1.9,0,3.9,0,5.8c0,0.9,0.5,1.2,1.3,1.2
		c3.5,0,7,0.2,10-2.1c-0.2,2.1-1,2.9-2.7,2.9c-4,0-8.1,0-12.3-0.2c1.3-0.8,1.1-1.9,1.1-3c0-3.7,0-7.4,0.1-11.1
		c0-0.8,0.1-1.7-0.8-2.4c4.1,0,8.3-0.1,12.4,0C66.4,221.4,65.9,222.9,66.6,223.6z"/>
	<path class="st0" d="M149.1,221.3c1.3,0,2.6,0,4.2,0c-2,2-1.4,4.3-1.5,6.5c-0.1,1.9,0.1,3.8-0.3,5.6c-0.5,2.4-1.9,3.7-4.1,4.3
		c-2.5,0.7-5,0.6-7.5-0.1c-2.6-0.7-3.7-2.3-3.8-5c-0.1-2.6,0-5.3,0-8c0-1.1,0.3-2.4-0.9-3.3c1.4,0,2.8,0,4.2,0c-1.3,0.9-1,2.2-1,3.4
		c0,2.4,0,4.7,0,7.1c0.1,3.8,1.9,5.4,6.1,5.4c3.9,0,5.9-1.9,6-5.6c0-1.7,0-3.4,0-5.1C150.3,224.8,150.7,222.9,149.1,221.3z"/>
	<path class="st0" d="M108.9,221.3c4.3,0,8.5,0,12.6,0c1.7,0,1.3,1.5,1.9,2.4c-0.9,0.4-1.4-0.2-2-0.5c-2.3-1-4.7-1.3-7.2-1.2
		c-1.4,0-1.9,0.6-1.8,2c0,0.2,0,0.4,0,0.5c0.1,1.5-0.6,4,0.3,4.3c2.1,0.6,4.5,0.8,6.7-0.4c0.5-0.2,1.2-1.2,1.5-0.3
		c0.3,0.9,0.3,2.1-0.1,3.1c-0.1,0.3-0.6,0-0.9-0.2c-2.1-1.6-4.5-0.7-6.8-0.9c-0.4,0-0.7,0.1-0.7,0.6c0,1.9,0.1,3.9,0.1,5.8
		c0,0.7,0.7,0.9,1,1.5c-1.5,0-2.9,0-4.7,0c1.2-0.9,1.1-2.1,1.1-3.3c0-3.3,0-6.6,0-9.9C110,223.5,110,222.3,108.9,221.3z"/>
	<path class="st0" d="M99.4,67.8c-0.6,0.4-1.2,0.8-1.9,0.3c1.8-2.7,4.3-4.7,6.7-6.7c3.4-2.7,6.9-5.2,10-8.1c1.4-1.3,2.7-2.8,3.8-4.6
		c0.4,1.5-0.4,2.5-1,3.5c-2,3.1-4.8,5.5-7.4,8c-3.2,3.1-6.7,6-8.9,10c-0.3,0.6-0.7,1.2-1,1.8c-0.1-0.3-0.3-0.6-0.3-0.8
		C99.8,70.1,99.6,68.9,99.4,67.8c0.1-0.1,0.1-0.1,0.2-0.2c0,0-0.1-0.1-0.1-0.1C99.4,67.6,99.4,67.7,99.4,67.8z"/>
	<path class="st0" d="M108.6,92.9c-0.9-0.2-1-0.9-1-1.6c0.1-1.9,0.2-3.7,0.3-5.9c0.3,0.7,0.5,1.5,1.3,0.8
		C109,88.4,108.8,90.7,108.6,92.9z"/>
	<path class="st0" d="M100.4,90.1c-0.7,0.1-1.7,0.7-1.2-0.9c0.2-0.7-0.4-1.3-0.8-1.4c-2.2-0.3-0.9-1.1-0.3-1.8
		c0.3-0.3,0.4-0.9,1-0.9c0.4,1.2,1.3,2.2,1.4,3.5C100.5,89.1,100.5,89.6,100.4,90.1z"/>
	<path class="st0" d="M129.1,89c0.2,0.1,0.5,0.3,0.7,0.4l0,0c-0.8,1-0.7,2.5-1.9,3.5c-0.9,0.7-1.4,0.9-2.3,0.4
		c0.1-0.2,0.2-0.4,0.2-0.6C127.1,91.5,128.1,90.3,129.1,89z"/>
	<path class="st0" d="M110.4,95c-0.9,0.2-1.2,1.5-2.3,1.4c-0.6,0-1.4,0.2-1.5-0.7c-0.1-0.7,0-1.2,0.8-1.5c0.4-0.1,0.8-0.4,1.2-0.6
		C108.6,94.9,109.8,94.5,110.4,95z"/>
	<path class="st0" d="M122.3,94.6c0,0.2,0.1,0.3,0.1,0.5c0,0.6,1.3,0.7,0.8,1.3c-0.5,0.7-1.3,0.1-1.9-0.1c-0.9-0.3-1.9-0.2-2.7-0.8
		C119.8,95.2,121.1,94.9,122.3,94.6z"/>
	<path class="st0" d="M105.6,80.2c0.1,0,0.1,0,0.2,0c0.8,0,1.4,0.2,1.4,1.2c0,0.5-0.1,0.9-0.6,0.9c-1.1,0.1-0.8-0.9-1.1-1.4
		C105.5,80.6,105.5,80.4,105.6,80.2z"/>
	<path class="st0" d="M100.4,90.1c0-0.5,0-1,0-1.5c0.6,0.1,0.8,0.6,1,1.1c0,0.1,0,0.2,0,0.4l0,0C101.1,90.1,100.8,90.1,100.4,90.1
		L100.4,90.1z"/>
	<path class="st0" d="M114,96c-0.7,0.1-1.2,0-1.6-0.6C113.1,95.5,113.8,95.2,114,96z"/>
	<path class="st0" d="M102.9,90.8c0.3,0.2,0.4,0.6,0.1,0.7c-0.8,0.2-0.6-0.6-0.8-1C102.4,90.6,102.7,90.7,102.9,90.8z"/>
	<path class="st0" d="M105.9,79.1c0.2,0.1,0.6,0,0.5,0.3c-0.1,0.2-0.4,0.3-0.6,0.5C105.8,79.6,105.8,79.3,105.9,79.1z"/>
	<path class="st0" d="M104.3,84.7c0,0.4,0.1,0.8-0.3,1.2C104,85.4,104,85,104.3,84.7z"/>
	<path class="st0" d="M105,82c0,0.4,0,0.7-0.3,1C104.7,82.6,104.8,82.3,105,82z"/>
	<path class="st0" d="M123.8,94c-0.2,0.3-0.4,0.3-0.7,0.3C123.3,94.2,123.5,94.1,123.8,94z"/>
	<path class="st0" d="M103.6,87.5c-0.1,0.3-0.2,0.5-0.2,0.8C103.4,88,103.5,87.8,103.6,87.5z"/>
	<path class="st0" d="M125.6,93.3c-0.2,0-0.5,0-0.7,0c0.2-0.1,0.5-0.3,0.7-0.5C125.6,93,125.6,93.1,125.6,93.3z"/>
	<path class="st0" d="M99,84.8c-0.2-0.2-0.3-0.5-0.3-0.9C99,84.2,99,84.4,99,84.8z"/>
	<path class="st0" d="M109.4,84.3c-0.1-0.3,0-0.7,0.2-1C109.6,83.7,109.6,84,109.4,84.3z"/>
	<path class="st0" d="M97.3,68.2c0,0.3-0.2,0.5-0.5,0.6C96.9,68.6,97,68.3,97.3,68.2z"/>
	<path class="st0" d="M123.1,94.3c-0.2,0.3-0.5,0.3-0.8,0.3C122.5,94.4,122.8,94.3,123.1,94.3z"/>
	<path class="st0" d="M101.5,90.1c0-0.1,0-0.2,0-0.4c0.1,0.1,0.2,0.3,0.3,0.4C101.7,90.1,101.6,90.1,101.5,90.1z"/>
	<path class="st0" d="M124.8,93.6c-0.1,0-0.3,0-0.4,0c0.2-0.1,0.3-0.2,0.5-0.3C124.8,93.4,124.8,93.5,124.8,93.6L124.8,93.6z"/>
	<path class="st0" d="M103.3,89c0,0.1,0,0.2,0.1,0.3c0,0-0.1,0-0.1,0.1C103.2,89.2,103.2,89.1,103.3,89z"/>
	<path class="st0" d="M125.6,93.3c0-0.1,0-0.3,0-0.4c0.1-0.1,0.2-0.1,0.3-0.2C125.7,92.8,125.6,93,125.6,93.3z"/>
	<path class="st0" d="M104,87.3c-0.1,0-0.2,0-0.3,0c0-0.1,0-0.2,0.1-0.3C103.8,87,103.9,87.1,104,87.3L104,87.3z"/>
	<path class="st0" d="M106.8,76.7c0,0.1,0,0.2-0.1,0.3l0-0.2L106.8,76.7z"/>
	<path class="st0" d="M104.8,90.2c0.3,0.9,0.5,1.5,0.7,2.2c0.1,0.4,0.4,0.8-0.1,1.1c-0.5,0.3-0.9,0.1-1.3-0.3
		C103.2,92,103.7,91.1,104.8,90.2z"/>
	<path class="st0" d="M98.2,69.6c0.4,0,0.7,0.1,0.6,0.6c-0.1,0.4-0.4,0.7-0.9,0.7c-0.4,0-0.6-0.3-0.6-0.7
		C97.4,69.7,97.8,69.6,98.2,69.6z"/>
	<path class="st0" d="M100.4,90.1c0.3,0,0.7,0,1,0c0,0.3,0.1,0.6,0,0.8c-0.1,0.4,1,0.9,0,1.2c-0.7,0.2-0.7-0.6-0.8-1
		C100.6,90.7,100.5,90.4,100.4,90.1z"/>
	<path class="st0" d="M108.2,82.4c0.5,0.9,0.5,1.5,0,2.3C107.8,83.9,107.8,83.2,108.2,82.4z"/>
	<path class="st0" d="M106.1,85.8c0,0.1-0.1,0.2-0.2,0.4c-0.2-0.2-0.4-0.3-0.6-0.5c0,0,0.1-0.3,0.2-0.4
		C105.8,85.2,106,85.4,106.1,85.8z"/>
	<path class="st0" d="M104,87.3c0.4,0.1,0.9-0.2,1.2,0.4C104.6,88.2,104.3,87.7,104,87.3C104,87.3,104,87.3,104,87.3z"/>
	<path class="st0" d="M124.9,93.6c0.1,0.1,0.1,0.2,0.2,0.2c0,0-0.1,0.1-0.1,0.1C124.9,93.8,124.9,93.7,124.9,93.6
		C124.8,93.6,124.9,93.6,124.9,93.6z"/>
	<path class="st0" d="M129.8,89.4c0-0.1,0-0.2,0.1-0.3c0,0,0.1,0.1,0.1,0.1C129.9,89.2,129.9,89.3,129.8,89.4
		C129.8,89.4,129.8,89.4,129.8,89.4z"/>
	<polygon class="st0" points="105.5,83.4 105.6,83.3 105.6,83.4 	"/>
	<path class="st0" d="M124.1,94.7c0,0,0,0.1-0.1,0.1C124.1,94.7,124.1,94.7,124.1,94.7L124.1,94.7z"/>
	<path class="st0" d="M124.1,94.7c0,0,0-0.1,0.1-0.1C124.2,94.6,124.2,94.6,124.1,94.7C124.1,94.7,124.1,94.7,124.1,94.7z"/>
	<path class="st0" d="M99.4,67.8c0-0.1,0-0.2,0.1-0.3c0,0,0.1,0.1,0.1,0.1C99.5,67.6,99.5,67.7,99.4,67.8
		C99.4,67.8,99.4,67.8,99.4,67.8z"/>
</g>
</svg>
