<?xml version="1.0" encoding="utf-8"?>
<!-- Generator: Adobe Illustrator 28.1.0, SVG Export Plug-In . SVG Version: 6.00 Build 0)  -->
<svg version="1.1" id="Layer_1" xmlns="http://www.w3.org/2000/svg" xmlns:xlink="http://www.w3.org/1999/xlink" x="0px" y="0px"
	 viewBox="0 0 250 250" style="enable-background:new 0 0 250 250;" xml:space="preserve">
<style type="text/css">
	.st0{fill:#282828;}
</style>
<g>
	<path class="st0" d="M238.89,53.22c0.24,0.54,0.81,0.46,1.23,0.61c5.36,1.97,8.76,7.14,8.38,12.79
		c-0.39,5.72-4.53,10.41-10.2,11.57c-5.49,1.12-11.19-1.67-13.72-6.72c-2.57-5.12-1.39-11.32,2.81-15.18
		c1.57-1.45,3.58-2.06,5.38-3.06C234.81,53.22,236.85,53.22,238.89,53.22z M235.87,75.87c5.65-0.01,10.13-4.47,10.13-10.1
		c0-5.64-4.48-10.11-10.12-10.11c-5.68,0-10.13,4.43-10.14,10.09C225.74,71.38,230.24,75.88,235.87,75.87z"/>
	<path class="st0" d="M63.15,108.89c3.35,1.31,6.72,2.35,9.98,3.73c15.66,6.64,15.2,24.23,7.74,32.57
		c-4.48,5.01-10.22,7.7-16.66,9.11c-4.05,0.89-8.16,1.26-12.31,1.26c-13.69,0.01-27.37-0.02-41.06,0.04
		c-1.39,0.01-1.69-0.43-1.66-1.73c0.09-3.11,0.02-3.11,3.03-3.48c4.58-0.57,6.72-2.88,7.04-7.47c0.3-4.29,0.2-8.58,0.2-12.87
		c0.01-14.33,0.02-28.66-0.01-42.98c0-2.36-0.08-4.72-0.26-7.07c-0.31-4.01-2.63-6.32-6.64-6.78c-0.05-0.01-0.11,0-0.16-0.02
		c-1.02-0.25-2.58,0.41-2.98-0.51c-0.49-1.13-0.17-2.63-0.19-3.96c-0.01-0.45,0.21-0.7,0.67-0.7c0.32,0,0.64,0,0.97,0
		c13.04,0,26.08-0.01,39.13,0.01c5.54,0.01,11.06,0.22,16.45,1.68c10.35,2.81,17.34,13.65,15.27,23.7
		c-0.96,4.66-3.58,8.21-7.51,10.81c-2.84,1.89-5.99,3.1-9.23,4.12C64.36,108.52,63.76,108.7,63.15,108.89z M35.89,129.16
		L35.89,129.16c0.01,5.05-0.05,10.09,0.03,15.14c0.06,4.18,2.31,6.31,6.48,6.33c2.85,0.02,5.67-0.39,8.49-0.78
		c5.91-0.82,9.81-4.18,11.87-9.61c2.51-6.62,2.04-13.2-1.14-19.5c-1.97-3.91-5.21-6.36-9.57-7.15c-4.98-0.9-10.02-1.12-15.07-1.2
		c-1.21-0.02-1.09,0.7-1.09,1.46C35.89,118.96,35.89,124.06,35.89,129.16z M35.89,90.08c0,5.26,0.04,10.52-0.03,15.78
		c-0.02,1.24,0.37,1.54,1.55,1.5c4.03-0.13,8.04-0.38,12.02-1.02c6.31-1.01,10.67-5.13,12.07-11.36c0.73-3.24,0.74-6.51,0.09-9.75
		c-1.25-6.21-5.35-10.28-11.44-11.33c-4.29-0.74-8.64-0.92-12.99-1.03c-1.16-0.03-1.3,0.47-1.29,1.43
		C35.9,79.56,35.89,84.82,35.89,90.08z"/>
	<path class="st0" d="M114.62,68.13c5.22,0.13,11.67-0.28,18.1,0.18c19.27,1.38,33.67,14.97,36.22,34.14
		c1.18,8.86,1.22,17.69-1.67,26.27c-5.07,15-15.77,23.43-31.16,26.25c-2.59,0.47-5.21,0.7-7.85,0.71c-11.48,0-22.97-0.01-34.45,0.04
		c-1.18,0-1.57-0.26-1.55-1.5c0.06-3.2,0-3.2,3.19-3.62c0.43-0.06,0.85-0.09,1.28-0.15c3.96-0.6,5.59-2.39,5.85-6.4
		c0.04-0.59,0.02-1.18,0.02-1.77c0-19.85,0-39.71,0-59.56c0-0.38,0-0.75,0-1.13c-0.06-4.56-1.68-6.65-6.07-7.85
		c-0.31-0.08-0.62-0.16-0.94-0.22c-3.35-0.66-3.3-0.65-3.32-4.01c-0.01-1.2,0.44-1.4,1.5-1.39
		C100.31,68.15,106.86,68.13,114.62,68.13z M120.17,108.25c0,10.46-0.01,20.92,0.01,31.38c0,1.18,0.06,2.36,0.23,3.53
		c0.5,3.47,2.84,6.12,6.12,6.62c6.52,0.97,12.11-0.78,16.32-6.08c2.52-3.17,3.94-6.88,4.87-10.76c2.44-10.18,2.67-20.5,1.52-30.85
		c-0.7-6.26-2.13-12.37-5.35-17.91c-3.17-5.46-7.58-9.29-14.06-10.18c-2.67-0.37-5.36-0.03-8.03-0.03c-1.34,0-1.67,0.49-1.66,1.79
		C120.19,86.58,120.17,97.41,120.17,108.25z"/>
	<path class="st0" d="M243.97,169.97c-0.1,0.51-0.58,0.6-0.93,0.8c-20.69,11.78-42.57,20.32-66.15,24.24
		c-17.05,2.83-33.95,2.18-50.85-1.45c-16.06-3.45-31.9-7.78-47.85-11.66c-13.03-3.17-26.22-5.16-39.67-4.94
		c-12.05,0.2-23.97,1.62-35.77,4.02c-0.45,0.09-0.45,0.1-1.27-0.45c4.26-2.19,8.67-3.82,13.18-5.19c11.77-3.6,23.85-5.35,36.13-5.87
		c23.06-0.97,45.58,2.42,67.82,8.22c19.5,5.09,39.33,7.36,59.47,6.58c22.3-0.86,43.87-5.15,64.42-14.06
		c0.39-0.17,0.8-0.28,1.21-0.39C243.78,169.81,243.87,169.92,243.97,169.97z"/>
	<path class="st0" d="M184.86,112.15c0-10.14,0-20.28,0-30.43c0-4.58-1.2-6.19-5.6-7.6c-0.46-0.15-0.93-0.27-1.39-0.39
		c-3.43-0.84-3.37-0.83-3.34-4.32c0.01-1.3,0.65-1.31,1.6-1.31c6.92,0.02,13.85,0.01,20.77,0.01c4.94,0,9.88,0.04,14.81-0.03
		c1.24-0.02,1.53,0.37,1.51,1.55c-0.05,3.27,0.01,3.27-3.16,3.78c-6.48,1.04-7.57,2.31-7.57,8.82c0,18.62,0,37.24,0,55.86
		c0,2.42,0.03,4.83,0.59,7.2c0.55,2.34,2.01,3.83,4.35,4.2c5.45,0.87,10.91,0.72,16.32-0.39c2.1-0.43,3.62-1.74,4.8-3.53
		c3.34-5.05,5.67-10.58,7.78-16.21c0.59-1.57,2.24-2.32,3.74-1.71c0.66,0.27,0.42,0.81,0.4,1.23c-0.25,5.41-0.52,10.82-0.79,16.24
		c-0.15,3.05-0.34,6.11-0.43,9.16c-0.03,1-0.28,1.4-1.37,1.4c-20.66-0.03-41.32-0.03-61.99,0c-1.09,0-1.35-0.35-1.36-1.38
		c-0.02-3.38-0.06-3.38,3.2-3.89c5.97-0.94,7.14-2.3,7.14-8.35C184.86,132.12,184.86,122.14,184.86,112.15z"/>
	<path class="st0" d="M237.99,66.78c1.44,1.29,2.18,3.03,3.19,4.59c0.6,0.93,0.29,1.1-0.7,1.18c-1.45,0.11-2.4-0.25-2.95-1.73
		c-0.42-1.14-1.05-2.24-1.97-3.1c-0.44-0.41-1.01-0.77-1.6-0.6c-0.65,0.18-0.44,0.9-0.53,1.39c-0.15,0.84-0.35,1.7-0.32,2.55
		c0.06,1.42-0.74,1.45-1.83,1.49c-1.34,0.05-1.13-0.79-1.13-1.58c0-3.44,0.07-6.87-0.03-10.3c-0.04-1.33,0.42-1.67,1.65-1.58
		c1.39,0.1,2.79,0.03,4.19,0.03c3.08,0.02,4.36,0.77,4.94,2.88C241.42,63.9,240.62,65.25,237.99,66.78z M235.27,64.84
		c1.03,0.11,2.32-0.07,2.77-1.6c0.31-1.03-0.54-1.45-1.34-1.63c-1.25-0.29-2.84-1-3.71,0.13C231.88,63.17,233.08,64.88,235.27,64.84
		z"/>
</g>
</svg>
