<?xml version="1.0" encoding="utf-8"?>
<!-- Generator: Adobe Illustrator 28.1.0, SVG Export Plug-In . SVG Version: 6.00 Build 0)  -->
<svg version="1.1" id="Layer_1" xmlns="http://www.w3.org/2000/svg" xmlns:xlink="http://www.w3.org/1999/xlink" x="0px" y="0px"
	 viewBox="0 0 250 90.61" style="enable-background:new 0 0 250 90.61;" xml:space="preserve">
<style type="text/css">
	.st0{fill:#FFFFFF;}
</style>
<g>
	<path class="st0" d="M93.11,7.53c2.32,0,3.94-3.03,3.94-5.61c0,2.58,1.73,5.61,3.94,5.61c-2.3,0-3.94,3.02-3.94,5.61
		C97.06,10.56,95.43,7.53,93.11,7.53z"/>
	<g>
		<path class="st0" d="M6.96,69.04h0.97c0.3,0,0.49,0.25,0.56,0.74c0,0.29-0.23,0.48-0.7,0.59h-0.6c-1.05,0-1.75,0.58-2.08,1.74
			l-0.03,0.87v0.7h1.88l0.64-0.03c0.28,0,0.47,0.22,0.57,0.66v0.11c0,0.28-0.21,0.47-0.62,0.57H5.07v8.19l0.03,0.45
			c0,0.29-0.23,0.49-0.69,0.6c-0.31,0-0.53-0.19-0.68-0.58l0.04-0.46v-8.2H1.52c-0.3,0-0.49-0.25-0.56-0.74
			c0-0.22,0.19-0.41,0.56-0.59l0.77,0.03h1.44v-0.86c0-1.76,0.77-2.97,2.3-3.61L6.96,69.04z"/>
		<path class="st0" d="M15.7,73.54c1.38,0,2.63,0.52,3.75,1.57c1.06,1.12,1.59,2.37,1.59,3.77c0,2-0.95,3.57-2.85,4.72
			c-0.82,0.42-1.61,0.62-2.37,0.62H15.5c-1.43,0-2.77-0.68-4.01-2.03c-0.75-1.07-1.13-2.17-1.13-3.31c0-1.73,0.77-3.19,2.3-4.36
			C13.64,73.87,14.66,73.54,15.7,73.54z M11.71,78.76v0.19c0,1.51,0.73,2.68,2.18,3.51c0.53,0.27,1.1,0.41,1.7,0.41h0.24
			c1.56,0,2.76-0.81,3.59-2.43c0.19-0.52,0.29-1.01,0.29-1.49v-0.19c0-1.26-0.58-2.32-1.73-3.18c-0.67-0.47-1.44-0.7-2.31-0.7
			c-1.71,0-2.96,0.89-3.75,2.68C11.78,78,11.71,78.4,11.71,78.76z"/>
		<path class="st0" d="M24.26,73.4c0.44,0.11,0.66,0.29,0.66,0.56v1.18c1.3-1.16,2.61-1.74,3.92-1.74c0.71,0,1.45,0.17,2.24,0.51
			c0.18,0.19,0.27,0.37,0.27,0.54v0.03c-0.07,0.43-0.28,0.64-0.63,0.64H30.7c-0.74-0.24-1.3-0.35-1.69-0.35h-0.24
			c-1.64,0-2.84,0.85-3.6,2.54c-0.16,0.46-0.25,0.97-0.25,1.55v4.77c0,0.33-0.22,0.53-0.66,0.6h-0.03c-0.34,0-0.55-0.23-0.63-0.69
			v-9.32C23.65,73.67,23.87,73.4,24.26,73.4z"/>
		<path class="st0" d="M43.88,73.52c1.37,0,2.61,0.52,3.73,1.56c1.06,1.12,1.59,2.37,1.59,3.76c0,1.99-0.95,3.56-2.84,4.7
			c-0.82,0.42-1.6,0.62-2.36,0.62h-0.32c-1.22,0-2.5-0.6-3.83-1.79v5.78c0,0.26-0.23,0.45-0.68,0.55c-0.3,0-0.51-0.23-0.61-0.68
			V79.2c0-2.69,1.27-4.51,3.81-5.45C42.68,73.65,43.18,73.58,43.88,73.52z M39.89,78.72v0.2c0,1.5,0.72,2.66,2.17,3.49
			c0.53,0.27,1.1,0.41,1.7,0.41H44c1.56,0,2.75-0.81,3.58-2.42c0.19-0.52,0.29-1.01,0.29-1.48v-0.2c0-1.25-0.57-2.31-1.72-3.17
			c-0.68-0.47-1.45-0.7-2.31-0.7c-1.7,0-2.95,0.89-3.73,2.68C39.96,77.96,39.89,78.36,39.89,78.72z"/>
		<path class="st0" d="M56.22,73.47c2.07,0,3.68,0.99,4.82,2.95c0.39,0.77,0.59,1.6,0.59,2.5v0.19c-0.08,0.46-0.29,0.69-0.63,0.69
			h-8.65c0.36,1.21,1.08,2.11,2.16,2.7c0.64,0.24,1.23,0.37,1.78,0.37c0.64,0,1.37-0.2,2.17-0.6h0.19c0.4,0.08,0.6,0.28,0.6,0.6
			v0.12c0,0.58-0.92,0.99-2.77,1.24h-0.27c-1.93,0-3.47-0.9-4.64-2.71c-0.47-0.85-0.7-1.74-0.7-2.68c0-1.96,0.93-3.53,2.79-4.71
			C54.58,73.69,55.43,73.47,56.22,73.47z M52.25,78.49h8c0-0.67-0.33-1.45-1-2.35c-0.91-0.86-1.81-1.29-2.71-1.29h-0.43
			c-1.33,0-2.43,0.65-3.29,1.96C52.52,77.32,52.33,77.88,52.25,78.49z"/>
		<path class="st0" d="M64.78,73.4c0.44,0.11,0.66,0.29,0.66,0.56v1.18c1.3-1.16,2.61-1.74,3.92-1.74c0.71,0,1.45,0.17,2.24,0.51
			c0.18,0.19,0.27,0.37,0.27,0.54v0.03c-0.07,0.43-0.28,0.64-0.63,0.64h-0.02c-0.74-0.24-1.3-0.35-1.69-0.35h-0.24
			c-1.64,0-2.84,0.85-3.6,2.54c-0.16,0.46-0.25,0.97-0.25,1.55v4.77c0,0.33-0.22,0.53-0.66,0.6h-0.03c-0.34,0-0.55-0.23-0.63-0.69
			v-9.32C64.17,73.67,64.39,73.4,64.78,73.4z"/>
		<path class="st0" d="M79.29,69.04h0.97c0.3,0,0.49,0.25,0.56,0.74c0,0.29-0.23,0.48-0.7,0.59h-0.6c-1.05,0-1.75,0.58-2.08,1.74
			l-0.03,0.87v0.7h1.88l0.64-0.03c0.28,0,0.47,0.22,0.57,0.66v0.11c0,0.28-0.21,0.47-0.62,0.57h-2.47v8.19l0.03,0.45
			c0,0.29-0.23,0.49-0.69,0.6c-0.31,0-0.53-0.19-0.68-0.58l0.04-0.46v-8.2h-2.26c-0.3,0-0.49-0.25-0.56-0.74
			c0-0.22,0.19-0.41,0.56-0.59l0.77,0.03h1.44v-0.86c0-1.76,0.77-2.97,2.3-3.61L79.29,69.04z"/>
		<path class="st0" d="M83.71,73.44c0.43,0.11,0.64,0.29,0.64,0.56v4.31c0,1.89,0.54,3.16,1.62,3.81c0.69,0.52,1.45,0.78,2.3,0.78
			c1.61,0,2.83-0.83,3.65-2.5c0.17-0.54,0.26-1.07,0.26-1.61v-4.66c0.09-0.46,0.32-0.69,0.67-0.69c0.43,0.1,0.64,0.31,0.64,0.63
			v9.58c0,0.29-0.21,0.47-0.64,0.56h-0.02c-0.43-0.08-0.64-0.29-0.64-0.63v-0.89h-0.23c-1.12,1.02-2.31,1.53-3.57,1.53h-0.28
			c-1.63,0-3.04-0.8-4.24-2.41c-0.55-0.86-0.83-1.92-0.83-3.18v-4.38C83.1,73.71,83.32,73.44,83.71,73.44z"/>
		<path class="st0" d="M96.38,73.67c0.43,0.11,0.64,0.29,0.64,0.54v0.67c0.99-0.8,1.98-1.2,2.98-1.2c1.32,0,2.52,0.66,3.61,1.99
			c0.47-0.86,1.34-1.48,2.61-1.87l0.88-0.12c1.59,0,2.85,0.77,3.78,2.3c0.31,0.64,0.46,1.25,0.46,1.83v5.89
			c0,0.27-0.21,0.45-0.63,0.54h-0.01c-0.42-0.07-0.63-0.28-0.63-0.62V77.9c0-1.35-0.72-2.29-2.15-2.82L107.35,75h-0.41
			c-1.15,0-2.02,0.66-2.61,1.98c-0.09,0.29-0.13,0.54-0.13,0.75v5.83c-0.08,0.44-0.28,0.67-0.61,0.67h-0.03
			c-0.42-0.07-0.63-0.26-0.63-0.58v-4.86c0-1.38-0.19-2.25-0.58-2.61c-0.59-0.79-1.36-1.18-2.31-1.18h-0.13
			c-1.31,0-2.23,0.7-2.76,2.1c-0.09,0.34-0.13,0.78-0.13,1.31v5.24c0,0.32-0.21,0.51-0.63,0.58h-0.02c-0.33,0-0.54-0.22-0.62-0.67
			v-9.1C95.8,73.93,96.01,73.67,96.38,73.67z"/>
		<path class="st0" d="M118.76,73.47c2.07,0,3.68,0.99,4.82,2.95c0.39,0.77,0.59,1.6,0.59,2.5v0.19c-0.08,0.46-0.29,0.69-0.63,0.69
			h-8.65c0.36,1.21,1.08,2.11,2.16,2.7c0.64,0.24,1.23,0.37,1.78,0.37c0.64,0,1.37-0.2,2.17-0.6h0.19c0.4,0.08,0.6,0.28,0.6,0.6
			v0.12c0,0.58-0.92,0.99-2.77,1.24h-0.27c-1.93,0-3.47-0.9-4.64-2.71c-0.47-0.85-0.7-1.74-0.7-2.68c0-1.96,0.93-3.53,2.79-4.71
			C117.12,73.69,117.97,73.47,118.76,73.47z M114.79,78.49h8c0-0.67-0.33-1.45-1-2.35c-0.91-0.86-1.81-1.29-2.71-1.29h-0.44
			c-1.33,0-2.43,0.65-3.29,1.96C115.05,77.32,114.86,77.88,114.79,78.49z"/>
		<path class="st0" d="M136.18,69.08h0.2c1.33,0,2.31,0.73,2.94,2.19c0.07,0.32,0.11,0.61,0.11,0.85v0.2c0,1-0.54,1.94-1.62,2.8
			l-0.51,0.54l3.59,3.6h0.15l1.7-1.71c0.16-0.11,0.3-0.17,0.44-0.17c0.42,0,0.67,0.26,0.73,0.78c0,0.26-0.46,0.79-1.39,1.6
			l-0.54,0.58l2.41,2.42c0.09,0.11,0.13,0.23,0.13,0.35v0.12c-0.09,0.44-0.31,0.66-0.64,0.66h-0.12c-0.27,0-0.74-0.39-1.42-1.18
			l-1.4-1.36c-1.58,1.72-2.61,2.58-3.07,2.58c-0.47,0.19-0.94,0.29-1.41,0.29c-1.53,0-2.74-0.76-3.63-2.29
			c-0.26-0.62-0.4-1.21-0.4-1.78c0-1.35,0.74-2.63,2.24-3.85l0.59-0.64c-1.37-1.27-2.05-2.23-2.05-2.89c-0.06,0-0.09-0.2-0.09-0.6
			c0-1.28,0.69-2.26,2.07-2.93C135.57,69.13,135.9,69.08,136.18,69.08z M133.89,80.06v0.22c0,1.11,0.63,1.91,1.89,2.41l0.63,0.09
			c0.99,0,1.92-0.56,2.79-1.68l0.74-0.74l-3.59-3.59h-0.15c-1.52,1.35-2.28,2.34-2.28,2.97L133.89,80.06z M134.59,71.99v0.33
			c0,0.59,0.54,1.35,1.63,2.26h0.13c1.12-0.97,1.68-1.72,1.68-2.26v-0.16c0-0.74-0.44-1.28-1.32-1.63l-0.43-0.04
			c-0.72,0-1.26,0.38-1.6,1.15L134.59,71.99z"/>
		<path class="st0" d="M157.91,73.45c1.38,0,2.64,0.52,3.76,1.56c0.06,0.11,0.1,0.21,0.1,0.32v0.03c-0.08,0.43-0.29,0.64-0.63,0.64
			h-0.04c-0.17,0-0.57-0.25-1.23-0.74c-0.62-0.32-1.23-0.47-1.84-0.47h-0.24c-1.61,0-2.83,0.85-3.66,2.54
			c-0.19,0.57-0.29,1.09-0.29,1.55c0,1.64,0.85,2.89,2.54,3.74c0.52,0.19,1.06,0.29,1.62,0.29c0.95,0,1.88-0.38,2.79-1.14l0.27-0.06
			h0.12c0.32,0,0.52,0.22,0.59,0.64v0.02c0,0.49-0.83,1.06-2.48,1.69c-0.57,0.11-0.98,0.16-1.26,0.16h-0.32
			c-1.45,0-2.79-0.68-4.04-2.05c-0.76-1.07-1.14-2.18-1.14-3.33c0-1.75,0.77-3.22,2.32-4.41C155.83,73.78,156.85,73.45,157.91,73.45
			z"/>
		<path class="st0" d="M169.04,73.54c1.38,0,2.63,0.52,3.75,1.57c1.06,1.12,1.59,2.37,1.59,3.77c0,2-0.95,3.57-2.85,4.72
			c-0.82,0.42-1.61,0.62-2.37,0.62h-0.32c-1.43,0-2.77-0.68-4.01-2.03c-0.75-1.07-1.13-2.17-1.13-3.31c0-1.73,0.77-3.19,2.3-4.36
			C166.98,73.87,167.99,73.54,169.04,73.54z M165.04,78.76v0.19c0,1.51,0.73,2.68,2.18,3.51c0.53,0.27,1.1,0.41,1.7,0.41h0.24
			c1.56,0,2.76-0.81,3.59-2.43c0.19-0.52,0.29-1.01,0.29-1.49v-0.19c0-1.26-0.58-2.32-1.73-3.18c-0.67-0.47-1.44-0.7-2.31-0.7
			c-1.71,0-2.96,0.89-3.75,2.68C165.11,78,165.04,78.4,165.04,78.76z"/>
		<path class="st0" d="M180.51,73.55c1.79,0,3.19,0.81,4.21,2.42l0.03,0.28v0.03c0,0.35-0.23,0.56-0.68,0.62
			c-0.29,0-0.62-0.29-0.97-0.87c-0.77-0.75-1.63-1.12-2.6-1.12c-1.28,0-2.28,0.61-3.02,1.84l-0.04,0.24c0,0.44,0.43,0.69,1.3,0.77
			c3.04,0.73,4.7,1.15,4.97,1.26c0.72,0.47,1.07,1.06,1.07,1.79v0.03c0,1.05-0.78,2.02-2.35,2.91c-0.68,0.31-1.4,0.46-2.17,0.46
			c-1.57,0-2.9-0.74-3.99-2.21c-0.09-0.14-0.14-0.26-0.14-0.37v-0.24c0-0.31,0.25-0.49,0.76-0.55c0.2,0,0.52,0.32,0.97,0.96
			c0.74,0.69,1.59,1.03,2.56,1.03c1.16,0,2.13-0.56,2.9-1.67l0.09-0.27v-0.06c0-0.42-0.27-0.66-0.82-0.72
			c-3.53-0.79-5.39-1.27-5.59-1.44c-0.63-0.48-0.95-1.06-0.95-1.73c0-0.95,0.71-1.88,2.12-2.79
			C178.97,73.76,179.75,73.55,180.51,73.55z"/>
		<path class="st0" d="M187.58,73.67c0.43,0.11,0.64,0.29,0.64,0.54v0.67c0.99-0.8,1.98-1.2,2.98-1.2c1.32,0,2.52,0.66,3.61,1.99
			c0.47-0.86,1.34-1.48,2.61-1.87l0.88-0.12c1.59,0,2.85,0.77,3.78,2.3c0.31,0.64,0.46,1.25,0.46,1.83v5.89
			c0,0.27-0.21,0.45-0.63,0.54h-0.01c-0.42-0.07-0.63-0.28-0.63-0.62V77.9c0-1.35-0.72-2.29-2.15-2.82L198.55,75h-0.41
			c-1.15,0-2.02,0.66-2.61,1.98c-0.09,0.29-0.13,0.54-0.13,0.75v5.83c-0.08,0.44-0.28,0.67-0.61,0.67h-0.03
			c-0.42-0.07-0.63-0.26-0.63-0.58v-4.86c0-1.38-0.19-2.25-0.58-2.61c-0.59-0.79-1.36-1.18-2.31-1.18h-0.12
			c-1.31,0-2.23,0.7-2.76,2.1c-0.09,0.34-0.13,0.78-0.13,1.31v5.24c0,0.32-0.21,0.51-0.63,0.58h-0.02c-0.33,0-0.54-0.22-0.62-0.67
			v-9.1C187,73.93,187.21,73.67,187.58,73.67z"/>
		<path class="st0" d="M209.97,73.47c2.07,0,3.68,0.99,4.82,2.95c0.39,0.77,0.59,1.6,0.59,2.5v0.19c-0.08,0.46-0.29,0.69-0.63,0.69
			h-8.65c0.36,1.21,1.08,2.11,2.16,2.7c0.64,0.24,1.23,0.37,1.78,0.37c0.64,0,1.37-0.2,2.17-0.6h0.19c0.4,0.08,0.6,0.28,0.6,0.6
			v0.12c0,0.58-0.92,0.99-2.77,1.24h-0.27c-1.93,0-3.47-0.9-4.64-2.71c-0.47-0.85-0.7-1.74-0.7-2.68c0-1.96,0.93-3.53,2.79-4.71
			C208.32,73.69,209.17,73.47,209.97,73.47z M205.99,78.49h8c0-0.67-0.33-1.45-1-2.35c-0.91-0.86-1.81-1.29-2.71-1.29h-0.44
			c-1.33,0-2.43,0.65-3.29,1.96C206.26,77.32,206.07,77.88,205.99,78.49z"/>
		<path class="st0" d="M219.56,69.54h0.14c0.39,0.09,0.59,0.25,0.59,0.51v3.67h1.76l0.35-0.04c0.29,0,0.49,0.23,0.6,0.68
			c0,0.29-0.19,0.51-0.56,0.64l-0.57-0.04h-1.59v5.92c0,1.07,0.36,1.74,1.09,1.99l0.94,0.08h0.44c0.27,0,0.45,0.21,0.54,0.63v0.01
			c-0.07,0.42-0.28,0.63-0.62,0.63h-0.83c-1.2,0-2.09-0.66-2.68-1.97c-0.1-0.32-0.15-0.7-0.15-1.14v-6.16h-0.91l-0.61,0.04
			c-0.37-0.13-0.56-0.34-0.56-0.64c0.07-0.42,0.31-0.63,0.71-0.63v-0.03l0.26,0.03h1.11v-3.43
			C219.07,69.79,219.25,69.54,219.56,69.54z"/>
		<path class="st0" d="M226.12,70.66c0.44,0.11,0.66,0.29,0.66,0.56v0.24c0,0.31-0.24,0.49-0.73,0.56c-0.29,0-0.48-0.23-0.59-0.68
			C225.54,70.89,225.77,70.66,226.12,70.66z M226.12,73.41c0.44,0.11,0.66,0.29,0.66,0.56v9.65c0,0.33-0.22,0.53-0.66,0.6h-0.03
			c-0.34,0-0.55-0.23-0.63-0.69v-9.32C225.51,73.68,225.73,73.41,226.12,73.41z"/>
		<path class="st0" d="M234.73,73.45c1.38,0,2.64,0.52,3.76,1.56c0.06,0.11,0.1,0.21,0.1,0.32v0.03c-0.08,0.43-0.29,0.64-0.63,0.64
			h-0.04c-0.17,0-0.57-0.25-1.23-0.74c-0.62-0.32-1.23-0.47-1.84-0.47h-0.24c-1.61,0-2.83,0.85-3.66,2.54
			c-0.19,0.57-0.29,1.09-0.29,1.55c0,1.64,0.85,2.89,2.54,3.74c0.52,0.19,1.06,0.29,1.62,0.29c0.95,0,1.88-0.38,2.79-1.14l0.27-0.06
			H238c0.32,0,0.52,0.22,0.59,0.64v0.02c0,0.49-0.83,1.06-2.48,1.69c-0.57,0.11-0.98,0.16-1.26,0.16h-0.32
			c-1.45,0-2.79-0.68-4.04-2.05c-0.76-1.07-1.14-2.18-1.14-3.33c0-1.75,0.77-3.22,2.32-4.41C232.66,73.78,233.68,73.45,234.73,73.45
			z"/>
		<path class="st0" d="M244.77,73.55c1.79,0,3.19,0.81,4.21,2.42l0.03,0.28v0.03c0,0.35-0.23,0.56-0.68,0.62
			c-0.29,0-0.62-0.29-0.97-0.87c-0.77-0.75-1.63-1.12-2.6-1.12c-1.28,0-2.28,0.61-3.02,1.84l-0.04,0.24c0,0.44,0.43,0.69,1.3,0.77
			c3.04,0.73,4.7,1.15,4.97,1.26c0.72,0.47,1.07,1.06,1.07,1.79v0.03c0,1.05-0.78,2.02-2.35,2.91c-0.68,0.31-1.4,0.46-2.17,0.46
			c-1.57,0-2.9-0.74-3.99-2.21c-0.09-0.14-0.14-0.26-0.14-0.37v-0.24c0-0.31,0.25-0.49,0.76-0.55c0.2,0,0.52,0.32,0.97,0.96
			c0.74,0.69,1.59,1.03,2.56,1.03c1.16,0,2.13-0.56,2.9-1.67l0.09-0.27v-0.06c0-0.42-0.27-0.66-0.82-0.72
			c-3.53-0.79-5.39-1.27-5.59-1.44c-0.63-0.48-0.95-1.06-0.95-1.73c0-0.95,0.71-1.88,2.12-2.79C243.23,73.76,244,73.55,244.77,73.55
			z"/>
	</g>
	<g>
		<g>
			<g>
				<path class="st0" d="M1.39,51.68V8.23c0-1.55,1.25-2.8,2.8-2.8h38.19c1.55,0,2.8,1.25,2.8,2.8v2.97c0,1.55-1.25,2.8-2.8,2.8
					H12.69c-1.55,0-2.8,1.25-2.8,2.8v26.32c0,1.55,1.25,2.8,2.8,2.8h29.76c1.55,0,2.8,1.25,2.8,2.8v2.97c0,1.55-1.25,2.8-2.8,2.8
					H4.19C2.64,54.48,1.39,53.23,1.39,51.68z M13.29,30.36v-1.62c0-1.55,1.25-2.8,2.8-2.8h21.59c1.55,0,2.8,1.25,2.8,2.8v1.62
					c0,1.55-1.25,2.8-2.8,2.8H16.09C14.55,33.16,13.29,31.91,13.29,30.36z"/>
				<path class="st0" d="M50.64,51.41V11.14c0-1.43,1.16-2.59,2.59-2.59h2.75c1.43,0,2.59,1.16,2.59,2.59v32.32
					c0,1.43,1.16,2.59,2.59,2.59h25.38c1.43,0,2.59,1.16,2.59,2.59v2.75c0,1.43-1.16,2.59-2.59,2.59h-33.3
					C51.81,54,50.64,52.84,50.64,51.41z"/>
				<path class="st0" d="M93.11,50.96V17.65c0-1.95,1.77-3.53,3.95-3.53l0,0c2.18,0,3.95,1.58,3.95,3.53v33.31
					c0,1.95-1.77,3.53-3.95,3.53l0,0C94.88,54.48,93.11,52.91,93.11,50.96z"/>
				<path class="st0" d="M146.33,53.87l-5.31-10.17c-0.2-0.38-0.56-0.62-0.95-0.62h-16.24c-0.85,0-1.39-1.06-0.96-1.9l1.99-3.9
					c0.2-0.39,0.56-0.63,0.96-0.63h9.6c0.86,0,1.39-1.07,0.95-1.91l-6.9-13.22c-0.43-0.82-1.48-0.82-1.9,0l-16.76,32.34
					c-0.2,0.38-0.56,0.62-0.95,0.62h-5.34c-0.86,0-1.39-1.07-0.95-1.91L125.4,11.1c0.82-1.56,1.86-2.56,3.39-2.56s2.51,1,3.33,2.56
					l21.89,41.47c0.44,0.84-0.09,1.91-0.95,1.91h-5.77C146.89,54.48,146.53,54.25,146.33,53.87z"/>
				<path class="st0" d="M158.54,51.68v-2.97c0-1.55,1.13-2.8,2.52-2.8h30.56c4.13,0,6.43-2.56,6.43-6.41
					c0-4.18-2.31-6.34-6.43-6.34h-20.27c-8.32,0-13.48-5.87-13.48-13.97c0-7.89,4.8-13.76,13.6-13.76h29.17
					c1.39,0,2.52,1.25,2.52,2.8v2.97c0,1.55-1.13,2.8-2.52,2.8h-29.17c-3.52,0-5.58,2.29-5.58,6.01s2.12,5.94,5.52,5.94h20.21
					c8.92,0,13.72,4.66,13.72,14.17c0,8.23-4.49,14.37-13.72,14.37h-30.56C159.67,54.48,158.54,53.23,158.54,51.68z"/>
			</g>
		</g>
		<g>
			<g>
				<path class="st0" d="M222.06,54.48c-4.67,0-8.12-3.68-8.12-8.53c0-4.92,3.45-8.19,8.12-8.19h7.6c0.81,0,1.46,0.65,1.46,1.46l0,0
					c0,0.81-0.65,1.46-1.46,1.46h-7.6c-2.99,0-5.2,2.23-5.2,5.41c0,3.15,2.18,5.48,5.2,5.48h7.6c0.81,0,1.46,0.65,1.46,1.46l0,0
					c0,0.81-0.65,1.46-1.46,1.46L222.06,54.48L222.06,54.48z"/>
				<path class="st0" d="M231.91,44.5c0-3.66,3.68-6.37,8.53-6.37c4.92,0,8.19,2.71,8.19,6.37v3.19c0,3.79-3.34,6.42-8.19,6.42
					s-8.53-2.69-8.53-6.42V44.5z M234.83,47.69c0,2.42,2.32,4.13,5.48,4.13c3.15,0,5.41-1.71,5.41-4.13V44.5
					c0-2.35-2.23-4.08-5.41-4.08c-3.15,0-5.48,1.71-5.48,4.08V47.69z"/>
			</g>
			<g>
				<path class="st0" d="M210.03,54.79c-1.47,0-2.6-1.16-2.6-2.63s1.12-2.64,2.6-2.64c1.51,0,2.67,1.16,2.67,2.64
					C212.7,53.63,211.54,54.79,210.03,54.79z"/>
			</g>
		</g>
	</g>
</g>
</svg>
