<?xml version="1.0" encoding="utf-8"?>
<!-- Generator: Adobe Illustrator 28.1.0, SVG Export Plug-In . SVG Version: 6.00 Build 0)  -->
<svg version="1.1" id="Layer_1" xmlns="http://www.w3.org/2000/svg" xmlns:xlink="http://www.w3.org/1999/xlink" x="0px" y="0px"
	 viewBox="0 0 250 250" style="enable-background:new 0 0 250 250;" xml:space="preserve">
<style type="text/css">
	.st0{fill:#282828;}
	.st1{fill:none;stroke:#282828;stroke-miterlimit:10;}
</style>
<g>
	<g>
		<g>
			<g>
				<g>
					<polygon class="st0" points="28.91,99.15 28.91,103.08 5.01,103.08 5.01,135.88 1.91,135.88 1.91,99.15 					"/>
					<rect x="7.52" y="121.9" class="st0" width="21.97" height="3.93"/>
				</g>
				<g>
					<polygon class="st0" points="235.97,131.95 235.97,135.88 208.97,135.88 208.97,135.74 208.39,135.74 208.39,99.01 
						235.39,99.01 235.39,102.94 212.08,102.94 212.08,131.95 					"/>
					<rect x="214" y="121.76" class="st0" width="21.97" height="3.93"/>
				</g>
				<rect x="31.87" y="98.91" class="st0" width="3.57" height="37.07"/>
				<rect x="157.53" y="98.8" class="st0" width="3.88" height="37.2"/>
				<path class="st0" d="M44.34,98.42h8.73c2.2,0,4.38,0.46,6.36,1.4c3.54,1.69,8.11,5.2,8.11,12.08c0,11.22-11.6,14.17-11.6,14.17
					l9.97,10.3h-5.54l-14.16-14.16h7.4c0,0,9.71,0.81,9.71-10.21c0-3.25-1.22-5.43-2.66-6.88c-1.74-1.74-4.16-2.64-6.62-2.64h-9.36
					v33.89H40.8V98.42H44.34"/>
				<path class="st0" d="M84.01,102.02l-2.64,2.11c-0.75-1.34-2.27-2.21-3.8-2.18c-2.21,0.04-4.31,1.93-4.14,4.32
					c0.13,1.74,1.44,3.2,3.13,3.61c1.05,0.26,2.21,0.29,3.29,0.44c3.73,0.52,7.18,2.8,9.12,6.02c2.48,4.11,2.35,9.54-0.1,13.63
					c-2.01,3.35-4.95,4.8-6.04,5.28c-1.13,0.51-3.45,1.36-6.46,1.14c-2.46-0.18-4.33-1.01-5.37-1.57c-1.1-0.63-3.29-2.06-4.96-4.77
					c-1.9-3.07-2.07-6.03-2.08-7.3h3.38c0.04,0.99,0.26,3.38,1.92,5.75c1.97,2.82,4.7,3.82,5.6,4.1c0.78,0.22,2.14,0.5,3.8,0.26
					c1.31-0.19,2.32-0.62,2.97-0.97c0.85-0.42,2.7-1.48,4.1-3.64c0.01-0.02,0.03-0.04,0.04-0.06c1.66-2.6,1.81-5.89,0.53-8.69
					c-0.31-0.68-0.72-1.39-1.25-2.09c-0.95-1.25-1.98-2.41-3.46-3.04c-1.65-0.7-3.42-0.64-5.14-0.99c-1.68-0.35-3.31-1.07-4.55-2.28
					c-2.02-2-2.69-5.24-1.66-7.89c1.03-2.65,3.67-4.59,6.5-4.82c2.83-0.23,5.73,1.22,7.28,3.6
					C84.03,102.01,84.02,102.02,84.01,102.02z"/>
				<polygon class="st0" points="115.1,99.03 115.1,102.73 102.92,102.73 102.92,136 99.21,136 99.21,102.73 87.03,102.73 
					87.03,99.03 				"/>
				<polygon class="st0" points="155.22,99.03 155.22,102.73 143.04,102.73 143.04,136 139.33,136 139.33,102.73 127.15,102.73 
					127.15,99.03 				"/>
				<polygon class="st0" points="166.44,136 170.13,136 170.13,112.14 184.6,136 199.12,112.14 199.12,136 203.23,136 203.23,97.75 
					184.83,128.79 166.44,97.75 				"/>
			</g>
			<g>
				<path class="st0" d="M42.11,170.31c-0.55,0.93-1.3,1.68-2.25,2.25c-0.95,0.57-2.08,0.86-3.41,0.86c-2.17,0-3.93-0.73-5.27-2.2
					c-1.34-1.46-2.01-3.38-2.01-5.75c0-2.37,0.68-4.29,2.03-5.75c1.35-1.47,3.11-2.2,5.28-2.2c1.18,0,2.23,0.25,3.15,0.74
					c0.92,0.49,1.68,1.25,2.29,2.26l-1.05,0.57c-0.45-0.78-1.04-1.38-1.78-1.8c-0.74-0.42-1.61-0.63-2.62-0.63
					c-1.79,0-3.24,0.63-4.37,1.89c-1.12,1.26-1.69,2.9-1.69,4.92c0,2.04,0.56,3.68,1.67,4.94c1.11,1.26,2.57,1.89,4.37,1.89
					c1.01,0,1.91-0.22,2.68-0.65c0.78-0.43,1.41-1.06,1.9-1.88L42.11,170.31z"/>
				<path class="st0" d="M62.22,173.41c-2.18,0-3.92-0.72-5.23-2.16s-1.96-3.32-1.96-5.63c0-2.39,0.66-4.34,1.99-5.85
					c1.32-1.5,3.11-2.26,5.36-2.26c2.13,0,3.85,0.71,5.16,2.13c1.31,1.42,1.97,3.28,1.97,5.59c0,2.52-0.66,4.52-1.99,5.98
					C66.2,172.68,64.43,173.41,62.22,173.41z M62.21,172.29c1.86,0,3.34-0.61,4.44-1.83c1.09-1.22,1.64-2.9,1.64-5.04
					c0-2.11-0.53-3.77-1.6-4.97s-2.52-1.8-4.35-1.8c-1.78,0-3.24,0.63-4.37,1.89c-1.14,1.26-1.7,2.92-1.7,4.97
					c0,2.06,0.54,3.71,1.62,4.94C58.97,171.67,60.41,172.29,62.21,172.29z"/>
				<path class="st0" d="M83.09,170.67l1.07-0.61c0.44,0.8,0.95,1.37,1.55,1.72c0.6,0.34,1.3,0.51,2.13,0.51
					c1.02,0,1.85-0.27,2.49-0.8c0.64-0.54,0.96-1.3,0.96-2.3c0-0.86-0.26-1.55-0.77-2.07c-0.51-0.53-1.34-0.95-2.46-1.29
					c-1.42-0.42-2.47-0.97-3.15-1.66c-0.68-0.68-1.01-1.55-1.01-2.6c0-1.22,0.41-2.2,1.22-2.94c0.81-0.74,1.85-1.1,3.1-1.1
					c1.01,0,1.88,0.23,2.58,0.7c0.71,0.47,1.24,1.04,1.61,1.72l-1.06,0.57c-0.27-0.55-0.68-1-1.23-1.34s-1.19-0.52-1.91-0.52
					c-0.9,0-1.64,0.25-2.23,0.75c-0.59,0.5-0.88,1.18-0.88,2.04c0,0.79,0.26,1.43,0.77,1.94c0.51,0.51,1.36,0.94,2.53,1.3
					c1.45,0.44,2.5,1.01,3.15,1.7c0.65,0.69,0.97,1.58,0.97,2.69c0,1.29-0.42,2.34-1.27,3.15c-0.85,0.81-1.97,1.21-3.38,1.21
					c-1.08,0-2.02-0.24-2.81-0.71C84.25,172.23,83.6,171.56,83.09,170.67z"/>
				<path class="st0" d="M121.33,173.15h-1.15v-10.8c0-0.17,0-0.42,0.01-0.74c0-0.32,0.01-0.74,0.02-1.25h-0.04
					c-0.09,0.2-0.16,0.36-0.21,0.48c-0.06,0.12-0.13,0.28-0.22,0.48l-5.42,11.83h-0.46l-5.45-11.76c-0.09-0.19-0.16-0.35-0.21-0.49
					c-0.06-0.14-0.14-0.32-0.25-0.55h-0.05c0.02,0.26,0.03,0.55,0.04,0.85c0,0.3,0,0.61,0,0.93v11.02h-1.17v-15.37h1.24l5.55,12.09
					c0.1,0.21,0.19,0.41,0.27,0.6c0.08,0.19,0.16,0.4,0.24,0.63h0.06c0.1-0.24,0.19-0.45,0.26-0.64s0.17-0.41,0.29-0.65l5.51-12.01
					h1.17v15.35H121.33z"/>
				<path class="st0" d="M143.91,173.15h-7.63v-15.37h7.29v1.11h-6.1v5.92h5.65v1.11h-5.65v6.11h6.44L143.91,173.15L143.91,173.15z"
					/>
				<path class="st0" d="M166.82,158.89h-4.44v14.25h-1.18v-14.25h-4.44v-1.11h10.05L166.82,158.89L166.82,158.89z"/>
				<path class="st0" d="M181.68,173.15h-1.19v-15.37h1.19V173.15z"/>
				<path class="st0" d="M208.71,170.31c-0.55,0.93-1.3,1.68-2.25,2.25c-0.95,0.57-2.08,0.86-3.41,0.86c-2.17,0-3.93-0.73-5.27-2.2
					c-1.34-1.46-2.01-3.38-2.01-5.75c0-2.37,0.68-4.29,2.03-5.75c1.35-1.47,3.11-2.2,5.28-2.2c1.18,0,2.23,0.25,3.15,0.74
					c0.92,0.49,1.68,1.25,2.29,2.26l-1.05,0.57c-0.45-0.78-1.04-1.38-1.78-1.8s-1.61-0.63-2.62-0.63c-1.79,0-3.24,0.63-4.37,1.89
					c-1.12,1.26-1.69,2.9-1.69,4.92c0,2.04,0.56,3.68,1.67,4.94c1.11,1.26,2.57,1.89,4.37,1.89c1.01,0,1.91-0.22,2.68-0.65
					c0.78-0.43,1.41-1.06,1.9-1.88L208.71,170.31z"/>
			</g>
			<g>
				<path class="st0" d="M242.45,91.45h-0.96l-1.51-3.16c-0.32-0.66-0.63-1.09-0.94-1.3c-0.31-0.2-0.69-0.31-1.14-0.31h-1.32v4.77
					h-0.84V80.6h2.94c0.95,0,1.71,0.25,2.3,0.75c0.58,0.5,0.87,1.2,0.87,2.11c0,0.73-0.2,1.35-0.61,1.88s-0.96,0.89-1.68,1.09v0.03
					c0.21,0.11,0.41,0.28,0.59,0.51c0.18,0.23,0.38,0.56,0.59,1L242.45,91.45z M236.57,81.37v4.55h1.84c0.77,0,1.39-0.22,1.86-0.65
					s0.7-1.01,0.7-1.75c0-0.69-0.21-1.22-0.62-1.59c-0.42-0.38-1.01-0.56-1.79-0.56H236.57z"/>
			</g>
		</g>
		<circle class="st1" cx="238.95" cy="85.7" r="9.14"/>
	</g>
</g>
</svg>
