<?xml version="1.0" encoding="utf-8"?>
<!-- Generator: Adobe Illustrator 28.1.0, SVG Export Plug-In . SVG Version: 6.00 Build 0)  -->
<svg version="1.1" id="Layer_1" xmlns="http://www.w3.org/2000/svg" xmlns:xlink="http://www.w3.org/1999/xlink" x="0px" y="0px"
	 viewBox="0 0 250 250" style="enable-background:new 0 0 250 250;" xml:space="preserve">
<style type="text/css">
	.st0{fill:#282828;}
</style>
<g>
	<path class="st0" d="M232.52,127.68c-3.17-15.08-11.56-27.13-23.28-36.88c-12.92-10.75-27.78-17.65-44.12-21.44
		c-4.24-0.98-6.1-4.17-4.79-8.35c0.42-1.35,1.12-2.54,1.85-3.73c1.62-2.63,4.2-4.34,6.29-6.52c4.09-4.25,5.56-9.24,4.04-14.97
		c-1.74-6.56-6.16-11.02-11.8-14.36c-11.02-6.51-22.98-8.14-35.47-6.35c-7.51,1.07-14.41,3.75-20.04,9.03
		c-4.26,4-7.41,8.75-8.7,14.54c-0.19,0.83-0.5,2.19,0.32,2.56c1.05,0.47,1.38-0.95,1.91-1.61c6.6-8.3,14.54-14.67,25.17-16.84
		c13.34-2.72,25.29,1.04,36.4,8.29c1.18,0.77,2.12,1.82,2.95,2.96c2.91,4,2.7,7.94-0.62,11.61c-1.15,1.26-2.35,2.49-3.44,3.79
		c-3.86,4.62-6.39,9.71-5.48,15.97c0.22,1.49-0.46,2.1-1.87,1.67c-3.02-0.91-6.13-0.79-9.23-0.93c-12.36-0.53-24.49,0.65-36.23,4.77
		c-0.84,0.29-2.06,0.2-2.46,1.66c0.38,0.06,0.65,0.13,0.92,0.13c10.01,0.09,20.01,0.39,29.99,1.3c1.52,0.14,2.16,0.48,2.29,2.11
		c0.38,4.56,0.94,9.1,1.47,13.65c0.35,2.99,0.37,2.96-2.59,3.42c-7.35,1.15-14.69,0.74-22.04,0.07c-2.02-0.19-2.34-0.82-1.84-2.6
		c1.35-4.85,2.61-9.73,3.84-14.61c0.19-0.75,0.64-1.87-0.27-2.29c-0.83-0.37-1.26,0.71-1.69,1.31c-3.25,4.58-5.62,9.63-7.48,14.91
		c-0.68,1.93-1.66,2.5-3.64,2.13c-7.32-1.37-14.62-2.79-21.75-4.93c-3.34-1-3.35-0.99-3.35-4.2c-3.13,0.65-5.76,2.19-8.24,4.07
		c-0.88,0.67-0.88,1.18,0.13,1.66c1.29,0.62,1.46,1.58,1.08,2.9c-2.89,9.93-4.67,20.08-5.89,30.34c-0.16,1.34-0.56,1.44-1.71,1.12
		c-4.93-1.34-9.89-2.6-14.83-3.91c-0.72-0.19-1.4-0.5-2.06-0.17c-0.17,0.74,0.31,0.79,0.6,1c4.77,3.39,9.96,5.98,15.41,8.05
		c2.1,0.79,3.11,2.07,3.02,4.36c-0.23,6.33,0.75,12.52,2.19,18.66c1,4.25,2.5,8.35,3.85,12.73c-0.82-0.12-1.36-0.15-1.87-0.28
		c-7.96-2.02-15.92-4.06-23.87-6.11c-0.42-0.11-0.85-0.61-1.21-0.08c-0.33,0.49-0.21,1.06,0.32,1.43c0.44,0.31,0.91,0.59,1.38,0.86
		c8.03,4.61,16.5,8.16,25.45,10.55c2.16,0.58,3.65,1.66,4.83,3.61c2.64,4.37,4.99,8.95,8.3,12.89c1.85,2.2,4.11,3.82,7.34,4.61
		c-3.28-6.1-7.02-11.49-9.26-18.04c6.66,0.99,12.93,2.05,19.24,2.8c2.53,0.29,4.06,1.3,5.25,3.52c3.36,6.31,7.83,11.73,13.81,15.78
		c0.55,0.37,1.16,1.25,1.77,0.78c0.67-0.51,0.22-1.43-0.1-2.14c-0.29-0.63-0.59-1.26-0.89-1.89c-1.97-4.21-3.95-8.4-5.9-12.62
		c-0.41-0.89-1.12-1.88,0.85-1.89c7.44-0.07,14.9,0.49,22.33-0.41c1.31-0.15,1.89,0.32,1.38,1.78c-0.95,2.7-1.74,5.46-2.67,8.17
		c-1.18,3.47-2.42,6.92-3.71,10.61c2.36-0.56,3.81-1.83,5.13-3.26c3.39-3.63,5.95-7.83,7.18-12.61c1.01-3.95,2.73-6.04,7.19-6.01
		c4.57,0.04,9.15-0.77,14.22-1.25c-3.38,6.12-5.97,12.01-10.16,16.97c-0.51,0.61-1.68,1.2-0.91,2.08c0.8,0.92,1.66,0.04,2.37-0.56
		c6.03-5.08,11.53-10.63,15.34-17.64c1.05-1.93,2.6-3.08,4.8-3.68c7.44-2.04,14.48-5.04,20.79-9.56c1.65-1.18,3.27-2.4,3.74-4.56
		c0.13-0.59,0.46-1.34-0.13-1.72c-0.29-0.19-0.99,0.16-1.46,0.36c-4.82,2.12-9.74,3.99-14.72,5.7c-2.29,0.78-4.54,1.76-7.18,2.11
		c1.46-3.38,2.67-6.56,3.5-9.87c1.66-6.63,3.32-13.25,3.71-20.1c0.17-2.88,1.46-4.65,4.38-5.52c3.58-1.06,6.75-3.07,9.84-5.14
		c1.57-1.05,2.81-2.44,3.79-4.06c0.31-0.52,0.85-1.14,0.41-1.69c-0.44-0.56-1.12-0.16-1.72,0.02c-4.36,1.37-8.75,2.64-13.08,4.08
		c-1.69,0.56-2.34,0.61-2.37-1.59c-0.18-11.13-1.37-22.14-4.48-32.87c0-0.18,0-0.36,0-0.54c0.14,0.08,0.28,0.16,0.42,0.24
		c15.03,7.08,27.69,16.81,35.29,32.05c5.81,11.64,6.59,23.61,1.79,35.78c-4.1,10.39-11.11,18.62-19.79,25.42
		c-17.69,13.86-38.29,19.91-60.3,22.01c-12,1.14-23.88,0.09-35.7-1.9C82,196.3,61.22,186.2,44.9,167.72
		c-3.6-4.09-6.84-8.44-9.93-12.91c-0.38-0.55-0.72-1.36-1.6-0.97c-0.5,0.23-0.27,0.8-0.2,1.25c1.72,11.8,7.56,21.3,16.18,29.31
		c10.36,9.63,22.6,15.93,35.78,20.64c4.3,1.53,8.73,2.66,13.69,3.95c-1.15,0.38-1.73,0.57-2.31,0.76c-4.34,1.4-8.7,2.74-12.88,4.64
		c-2.3,1.05-1.81,2.49-1.26,4.38c0.63,2.15,1.84,1.63,3.22,1.22c0.37-0.11,0.75-0.2,1.12-0.3c17.32-5.07,35.08-7.55,53.06-7.52
		c15.29,0.02,30.48,1.92,45.4,5.63c3.62,0.9,7.14,2.39,11.56,2.45c-8.07-6.52-17.06-10.04-26.48-13.5
		c3.67-1.31,6.91-2.37,10.08-3.61c16.72-6.57,31.28-16.14,41.99-30.83C232.07,158.94,235.97,144.03,232.52,127.68z M101.53,168.57
		c-5.43-0.37-10.71-2.11-16.08-2.27c-5.33-0.16-7.12-2.81-8.22-7.44c-1.76-7.47-3.63-14.92-4.35-22.56
		c-0.54-5.72-0.19-4.63,3.95-3.37c6.24,1.9,12.61,3.18,19.06,4c2.12,0.27,2.89,1.18,3,3.26c0.48,8.9,1.25,17.78,3.65,26.42
		C103.04,168.42,102.89,168.61,101.53,168.57z M103.23,100.16c-2.49,9.06-4.61,18.18-4.45,27.67c0.02,1.32-0.48,1.85-1.82,1.61
		c-6.64-1.17-13.29-2.23-19.91-3.49c-5.64-1.07-4.67-0.43-4.77-5.85c0.4-8.84,1.46-17.6,3.2-26.29c0.34-1.7,0.89-2.22,2.64-1.55
		c7.7,2.91,15.66,4.84,23.82,5.98C103.26,98.42,103.62,98.75,103.23,100.16z M109.64,101.2c0.27-1.55,1.22-1.75,2.54-1.6
		c3.84,0.43,7.69,0.89,11.56,1.15c4.92,0.34,9.74-0.48,14.6-0.77c1.41-0.08,1.83,0.03,2.09,1.45c1.5,8.09,2.08,16.28,2.7,24.47
		c0.35,4.62,0.26,4.53-4.27,5.09c-4.47,0.55-8.96,0.31-12.68,0.65c-6.32-0.11-11.89-0.26-17.43-1.05c-1.63-0.24-1.99-0.89-1.98-2.4
		C106.81,119.09,108.07,110.13,109.64,101.2z M143.99,148.31c-0.33,6.43-0.93,12.82-2.15,19.15c-0.37,1.94-1.32,2.5-3.16,2.56
		c-7.74,0.29-15.47,0.81-23.22,0.11c-2.01-0.19-3-0.84-3.6-2.8c-2.72-8.94-4.13-18.1-5.04-27.37c-0.18-1.78,0.49-2.23,2.09-1.98
		c7.06,1.12,14.19,1.33,21.31,1.54c3.56,0.1,7.12-0.06,10.66-0.63c2.5-0.41,3.05,0.11,3.1,2.66
		C144.03,143.81,143.99,146.05,143.99,148.31z M145.55,89.26c-1.52-5.12-3.26-10.13-7.08-14.84c11.6,1.07,22.3,3.2,32.93,6.95
		c-0.68,1.15-1.76,1.48-2.67,1.97c-6.37,3.49-13.21,5.66-20.24,7.34C147.09,91.01,146,90.78,145.55,89.26z M180.61,135.58
		c-1.03,9.24-3.89,17.97-7.25,26.57c-0.83,2.14-2.19,3.5-4.44,3.95c-5.08,1.03-10.07,2.53-14.82,2.79
		c-4.19,0.44-4.37,0.41-3.86-3.22c1.21-8.62,1.18-17.32,1.64-25.98c0.09-1.64,0.63-2.15,2.32-2.34c8.08-0.91,16.16-1.9,24.05-3.99
		C180.85,132.67,180.91,132.88,180.61,135.58z M179.81,125.56c-6.51,1.73-13.07,3.26-19.8,3.93c-2.01,0.2-4.02,0.37-5.99,0.78
		c-1.81,0.38-2.48-0.05-2.6-2c-0.51-7.81-0.85-15.63-2.17-23.36c-0.36-2.1-1.95-4.64-0.73-6.18c1.04-1.32,3.81-1.26,5.8-1.87
		c7.5-2.28,14.61-5.47,21.33-9.51c2.94-1.77,2.97-1.77,3.67,1.68c1.2,5.88,1.07,11.87,1.5,17.81c0.39,5.4,0.55,10.82,0.81,16.24
		C181.85,124.49,181.08,125.22,179.81,125.56z"/>
	<path class="st0" d="M86.28,61.63c-0.97-0.4-1.96-0.38-2.94,0.05c-1.49,0.66-2.51,1.73-3.18,3.22c-0.29,0.65-0.19,1.55-1,1.96
		c-1.53-2.82-3.89-3.18-6.14-0.98c-0.85,0.83-1.31,1.9-1.73,2.99c-0.63,1.62-1.3,3.23-1.95,4.85c-0.44-0.46-0.53-0.83-0.54-1.19
		c-0.02-1.72-0.87-2.78-2.54-3.12c-1.79-0.36-2.3,1-2.69,2.26c-0.27,0.86-0.64,1.07-1.48,0.94c-2.35-0.35-3.12,1.04-3.45,3.08
		c-0.41,2.51-0.13,5.11-1.05,7.72c-0.84-1.61-0.78-3.26-1.09-4.83c-0.18-0.87,0.37-2.08-0.69-2.54c-1.18-0.51-1.39,0.92-2.08,1.43
		c-0.31,0.23-0.54,0.61-0.87,0.76c-3.62,1.72-4.31,4.75-3.95,8.37c0.07,0.74,0.55,2.29-0.76,2.22c-1.02-0.06,0.28-1.25-0.09-1.93
		c-0.07-0.12-0.01-0.3-0.01-0.46c0.05-1.09-0.07-2.07-1.48-2.15c-1.3-0.07-1.83,0.7-1.85,1.87c-0.02,0.8-0.27,1.26-1.1,1.52
		c-2.2,0.67-2.45,2.35-2.06,4.29c0.21,1.07,0.71,2.14-0.14,3.39c-0.36-0.66-0.63-1.12-0.87-1.59c-0.3-0.62-0.48-1.44-1.33-1.43
		c-0.94,0.01-1.32,0.76-1.41,1.57c-0.08,0.8-0.58,1.2-1.15,1.64c-1.25,0.96-1.78,2.25-1.79,3.85c-0.01,2.76,1.03,5.32,1.38,8
		c0.11,0.35,0.28,0.71-0.04,1.04c-0.14-0.24-0.28-0.48-0.42-0.72c-0.72-1.27-1.44-2.54-2.15-3.82c-0.33-0.59-0.57-1.41-1.44-1.17
		c-0.74,0.21-1.02,0.87-0.97,1.67c0.04,0.82-0.22,1.62-0.88,2.06c-1.02,0.67-0.99,1.58-1.07,2.62c-0.18,2.33,0.59,4.58,0.55,6.92
		c-0.4-0.45-0.64-0.91-0.75-1.4c-0.23-0.99-0.83-1.53-1.81-1.43c-1.21,0.13-1.03,1.13-1.08,1.97c-0.04,0.69,0.14,1.64-0.24,2.04
		c-2.58,2.72-0.49,4.99,0.6,7.35c0.32,0.69,0.83,1.43,1.75,1.31c1.3-0.18,0.13-1.33,0.63-2.09c0.35,0.42,0.59,0.69,0.83,0.97
		c0.66,0.73,0.83,2.47,2.2,1.8c1.18-0.58,0.8-2.03,0.48-3.18c-0.1-0.37-0.15-0.82-0.4-1.09c-1.53-1.69-0.37-2.98,0.69-4.16
		c1.45-1.6,4.41-1.98,3.96-5.07c0-0.04,0.1-0.12,0.17-0.14c2.36-0.91,2.17-2.7,1.62-4.64c-0.4-1.39,0.18-2.06,1.6-2.1
		c0.58-0.02,1.17-0.13,1.82-0.21c0,1.54,0.02,3.01-0.01,4.49c-0.02,1.37,0.39,2.6,1.18,3.7c0.61,0.85,1.48,1.12,2.47,0.9
		c0.82-0.18,1.48-0.73,1.52-1.56c0.08-1.99,0.61-4.05-0.36-5.96c-1.8-3.53-2.55-7.31-2.79-11.2c-0.07-1.17-1.2-2.36-0.13-3.6
		c0.22,0.12,0.44,0.16,0.47,0.26c0.56,1.93,1.1,3.86,1.65,5.8c1.97-1.08,2.16-1.45,2.17-4.12c0.01-2.97,0.88-4.08,3.89-4.2
		c1.9-0.07,3.14-0.61,3.6-2.52c0.12-0.52,0.49-0.78,1.01-0.77c2.44,0.05,2.85-1.71,3.15-3.54c0.36-2.18,0.69-4.36,1.04-6.54
		c0.13,0.01,0.26,0.02,0.4,0.04v6.95c4.77-2.04,2.78-6.72,4.42-9.98c0.5,2.04-0.26,4.76,2.56,5.03c3.05,0.28,2.48-2.93,3.57-4.58
		c1.67,0.94,3.32,1.48,5.13,0.58c1.79-0.88,2.41-2.65,3.19-4.29c3.59,2.08,5.16,1.93,7.2-0.62c0.63-0.79,1.09-1.68,1.45-2.63
		C89.26,65.92,87.87,62.28,86.28,61.63z M31.57,109.93c-0.22-0.43-0.48-0.9,0.06-1.17c0.49-0.26,0.85,0.21,1.11,0.57
		c1.02,1.36,1.68,2.87,1.88,4.87C32.84,112.89,32.3,111.34,31.57,109.93z M39.93,103.66c-1.43-1.52-2.1-3.03-2.53-4.67
		c-0.12-0.45-0.11-0.97,0.45-1.13c0.45-0.13,0.66,0.28,0.83,0.62C39.44,100,40.6,101.43,39.93,103.66z M44.34,108.33
		c0.39,1.19,0.79,2.38,1.29,3.89C44.13,111.06,43.97,110.65,44.34,108.33z M54.02,86.28c-0.01,0.4-0.09,0.8-0.57,0.83
		c-0.43,0.03-0.67-0.26-0.79-0.68c-0.12-0.44-0.27-0.88-0.42-1.31c-0.43-1.2-0.5-2.39,0.17-3.53c0.07-0.11,0.47-0.16,0.57-0.07
		c1.01,0.91,1,2.15,1.04,3.19C54.02,85.36,54.02,85.82,54.02,86.28z M76.89,72.1c-0.25,0.58-0.62,1.12-1.39,0.88
		c-0.53-0.18-0.78-0.58-0.9-1.19c-0.58-3.06-0.03-3.56,3.63-3.08C77.78,69.85,77.36,70.98,76.89,72.1z M83.38,69.78
		c0.43-1.25,1.38-1.63,2.49-2.33C85.58,69.05,84.87,69.69,83.38,69.78z"/>
	<path class="st0" d="M132.71,57.51c-0.02,0.01-0.05,0.03-0.07,0.04c0.03,0,0.06,0,0.09-0.01
		C132.72,57.53,132.71,57.52,132.71,57.51z"/>
	<path class="st0" d="M151.91,43.65c-0.49-0.72-1.41-0.44-2.16-0.46c-1.14-0.03-1.53,0.83-2,1.66c-1.3,2.29-2.67,4.54-3.99,6.81
		c-0.45,0.77-0.86,1.43-1.97,1.21c-2.86-0.56-4.88,0.9-6.74,2.83c-0.59,0.62-0.92,1.64-2.33,1.84c-0.03,0.01-0.06,0.01-0.09,0.01h0
		c-0.06,0.01-0.12,0.01-0.18,0.02c2.78-5.2,5.4-10.11,8.09-15.11c-2.77-0.45-4.35,0.52-5.36,2.89c-1.45,3.41-3.4,6.55-6.06,10.07
		c0.18-1.66,0.02-3.23-1.25-2.73c-1.8,0.71-3.43,0.74-5.24,0.45c-0.66-0.11-1.2,0.65-1.65,1.18c-0.88,1.04-1.72,2.13-2.64,3.29
		c-0.89-1.21-0.95-2.9-2.74-3.25c-1.54-0.3-2.67,1.09-4.43,0.88c1.34-3.49,2.63-6.79,3.88-10.12c0.41-1.09,0.84-1.98,2.28-1.81
		c0.73,0.08,1.11-0.48,1.11-1.2c0-0.83,0.27-1.83-0.94-2.07c-1.15-0.22-2.35-0.4-2.97,1.03c-1.02,2.34-2.12,4.65-3.06,7.01
		c-1.06,2.64-1.99,5.33-2.97,7.99c-0.21-0.03-0.43-0.06-0.64-0.08c0.19-3.54-0.88-7.1,0.53-10.63c0.33-0.83,0.68-1.61-0.18-2.3
		c-0.46-0.37-1.09-0.46-1.49-0.03c-0.4,0.43-0.65,1.04-0.87,1.6c-1.51,3.84-2.99,7.68-4.49,11.52c-0.71-2.87-0.97-5.67,0-8.42
		c0.31-0.88,0.55-1.73-0.57-2.11c-1.15-0.39-1.67,0.33-2.01,1.34c-0.48,1.46-0.97,2.96-2.43,3.82c-2.42-3.53-4.71-3.35-6.63,0.45
		c-0.86,1.71-1.33,3.46-1.21,5.38c0.04,0.62-0.45,1.52,0.73,1.55c0.95,0.03,1.07-0.74,1.2-1.43c0.3-1.63,0.29-3.37,1.58-4.7
		c2.16,2.54,2.16,2.54,5.2,2.32c-0.67,4.56,0.09,9.15-0.71,13.7c-0.11,0.63-0.54,1.45,0.43,1.79c0.97,0.33,1.58-0.18,2.08-1.02
		c1.55-2.62,2.63-5.42,3.56-8.31c0.24-0.74,0.33-1.54,1.12-2.34c0.48,2.64-0.05,4.92-0.15,7.2c-0.03,0.69-0.69,1.64,0.3,2.08
		c1.04,0.46,1.57-0.52,2.02-1.16c1.04-1.46,1.94-3.03,3.02-4.76c0.28,0.62,0.44,0.96,0.59,1.31c1.26,2.99,2.88,3.33,5.27,1.24
		c1.22-1.06,2.62-1.93,3.93-2.88c0.21-0.15,0.35-0.52,0.68-0.28c0.32,0.25,0.02,0.49-0.08,0.73c-0.9,1.8-0.39,2.3,1.55,1.89
		c1.48-0.31,2.2-1.28,2.9-2.44c0.65-1.08,3.87-0.94,4.41,0.14c0.92,1.84,2.42,2.29,4.06,1.08c0.78-0.58,1.35-1.45,2.63-2.85
		c-0.62,3.11,0.84,3.07,2.43,2.95c0.85-0.07,1.8-0.24,2.54,0.05c2.9,1.12,4.49-0.8,6.2-2.47c0.62-0.61,1.13-1.38,0.81-2.29
		c-0.38-1.09-1.38,0.07-2.19-0.61c2.22-3.83,4.48-7.7,6.71-11.58C151.66,44.95,152.39,44.36,151.91,43.65z M115.5,57.69
		c-0.47,1.92-0.91,3.88-3.05,5.22c0.14-2.26,0.93-3.98,1.85-5.65c0.13-0.23,0.5-0.54,0.68-0.49
		C115.35,56.88,115.6,57.28,115.5,57.69z M137.89,60.05c0.18-2.48,1.03-3.99,3.47-4.85C140.49,57.17,139.64,58.68,137.89,60.05z"/>
	<path class="st0" d="M31.77,152.58c-1.54,0.03-3.02-0.19-2.91-2.36c0.11-2.28,1.85-2.08,3.22-1.98c2.61,0.2,3.52-0.88,2.59-3.37
		c-0.88-2.36-2.56-4.03-4.58-5.4c-0.2-0.01-0.4-0.02-0.59-0.03c0.07,0.17,0.13,0.33,0.2,0.5c0.24,1.13,2.23,2.3,0.47,3.33
		c-1.52,0.89-2.08-1.04-2.89-1.94c-0.2-0.22-0.44-0.52-0.45-0.8c-0.15-4.16-3.64-5.94-6.04-8.51c-1.16-1.24-2.22-2.57-3.39-3.95
		c-1.08,1.51-1.67,3.23-2.26,4.95c-0.32,1.11-0.74,2.2-0.93,3.33c-0.69,4.19,1.48,8.71,4.95,10.36c1.14,0.55,2.29,0.96,3.43-0.08
		c1.17-1.06,1.08-2.3,0.55-3.6c-1.28-3.09-3.29-5.56-6.18-7.27c-0.96-0.57-1.89-1.14-1.53-2.5c5.12-1.37,11.57,6.32,11.25,11.24
		c-0.22,3.44-3.39,5.7-6.98,4.93c-4.23-0.91-7.66-5.08-8.05-9.74c-0.29-3.45,0.15-6.82,1.12-10.11c1.09-3.71,2.29-7.39,3.42-11.09
		c0.26-0.83,0.42-1.73,1.6-1.57c1.23,0.16,1.39,1.04,1.35,2.05c-0.02,0.77,0.18,1.6-0.03,2.32c-1.24,4.23,1.53,6.34,4.33,8.45
		c0.67,0.51,1.39,0.94,2.15,1.45c0.87-0.96,0.19-1.81,0-2.63c-0.12-0.56-0.78-1.12,0-1.64c0.62-0.42,1.33-0.44,1.95,0.04
		c1.96,1.51,3.95,2.99,5.86,4.58c0.92,0.76,1.1,1.88,0.62,2.98c-0.69,1.58-2.09,0.06-3.18,0.62c1.29,1.19,2.58,2.26,3.73,3.48
		c1.74,1.86,2.67,4.18,3.15,6.64C38.46,148.91,35.5,152.51,31.77,152.58z"/>
	<path class="st0" d="M193.64,39.44c-7.62,0.04-13.13,5.77-13.32,13.5c-0.16,6.54,5.66,14.01,13.41,13.25
		c7.74,0.86,13.76-6.25,13.74-13.2C207.44,45.2,201.5,39.4,193.64,39.44z M193.96,62.84c-5.71-0.02-10.31-4.63-10.17-10.19
		c0.13-5.3,4.85-9.82,10.18-9.77c5.13,0.06,10.05,4.85,10,9.74C203.9,58.11,199.26,62.85,193.96,62.84z"/>
	<path class="st0" d="M184.3,87.3c0-0.18,0-0.36,0.01-0.54c0.14,0.08,0.28,0.16,0.42,0.24C184.58,87.1,184.44,87.2,184.3,87.3z"/>
	<path class="st0" d="M132.72,57.54c-0.03,0.01-0.06,0.01-0.09,0.01c0.02-0.01,0.05-0.03,0.07-0.04
		C132.71,57.52,132.72,57.53,132.72,57.54z"/>
	<path class="st0" d="M29.69,139.93c-0.07-0.17-0.13-0.33-0.2-0.5c0.2,0.01,0.4,0.02,0.59,0.02
		C29.95,139.62,29.82,139.78,29.69,139.93z"/>
	<path class="st0" d="M199.17,56.77c-0.38-2.21-0.84-4.31-0.1-6.61c0.59-1.83-0.8-3.24-2.98-3.6c-5.91-0.98-6.42-0.57-6.42,5.32
		v0.93c0,1.4,0.07,2.8-0.02,4.19c-0.08,1.35,0.15,2.33,1.77,2.3c1.54-0.03,1.53-1.09,1.65-2.26c0.1-1-0.96-2.7,0.86-2.86
		c1.79-0.16,1.24,1.8,1.74,2.8c0.15,0.31,0.02,0.76,0.01,1.15c-0.02,0.81,0.45,1,1.18,1.08C198.97,59.43,199.54,58.95,199.17,56.77z
		 M194.08,51.64c-0.77,0.01-1.13-0.36-1.06-1.15c0.07-0.65-0.19-1.47,0.86-1.57c0.91,0.1,1.43,0.61,1.5,1.49
		C195.46,51.32,194.89,51.62,194.08,51.64z"/>
</g>
</svg>
