<?xml version="1.0" encoding="utf-8"?>
<!-- Generator: Adobe Illustrator 28.1.0, SVG Export Plug-In . SVG Version: 6.00 Build 0)  -->
<svg version="1.1" id="Layer_1" xmlns="http://www.w3.org/2000/svg" xmlns:xlink="http://www.w3.org/1999/xlink" x="0px" y="0px"
	 viewBox="0 0 250 250" style="enable-background:new 0 0 250 250;" xml:space="preserve">
<style type="text/css">
	.st0{fill:#282828;}
</style>
<path class="st0" d="M245.69,140.58c-1.95-12.52-6.1-23.69-14.41-33.2c-15.38-17.64-35.14-23.97-57.94-21.99
	c-2.05,0.19-2.55,0.65-2.89-1.9c-1.67-12.15-4.56-24.03-10.02-35.1c-8.33-16.88-20.09-31.17-33.44-44.32
	c-3.52-3.46-5.72-1.87-7.51,0.98c-3.78,6.04-9.36,10.43-13.84,15.83C91.22,38.25,81.5,57.69,77.99,79.98
	c-0.73,4.6-0.01,6.36-6.42,5.62c-29.25-3.38-56.57,13.18-66.25,41c4.79,0.58,7.88,0.68,11.15-4.88
	c11.87-20.21,29.82-30.3,53.78-28.11c4.24,0.39,7.86,1.58,8.76,6.59c2.45,13.85,7.86,26.28,18.96,35.34c4,3.28,3.97,7.02,3.52,11.09
	c-0.32,3.01-1.95,5.9-2.11,8.89c-0.15,2.88-1,3.35-3.75,3.63c-7.79,0.76-15.35,2.51-22.46,6.17c-12.12,6.25-19.62,16.35-25.15,28.36
	c-2.82,6.13-4.71,6.61-10.35,3.03c-13.68-8.73-23.4-20.36-27.23-36.52c-0.86-3.68-0.42-4.88,3.59-4.82
	c12.09,0.21,24.17,0.01,36.26,0.13c2.62,0.02,3.95-0.36,3.82-3.47c-0.11-2.62-0.37-3.83-3.51-3.8c-16.43,0.17-32.87,0.08-50.06,0.08
	c1.44,2.09,0.99,3.93,1.17,5.69c1,9.8,3.43,19.12,8.8,27.58c7.26,11.41,16.75,20.08,29.44,25.07c1.96,0.77,2.95,2.56,1.86,4.22
	c-1.38,2.12-0.64,4.21-0.87,6.29c-0.96,9.08-1.37,18.26-3.06,27.21c-0.73,3.89,0.31,3.83,3.13,3.88c9.98,0.18,19.83-0.75,29.73-2.26
	c16.1-2.47,30.11-8.67,41.85-20.02c4.43-4.27,7.53-9.51,11.21-15.06c5.98,12.32,15.16,20.69,26.61,26.6
	c16.94,8.74,35.18,11.06,53.96,10.77c3.53-0.05,4.51-1.67,4.25-4.78c-0.81-9.91-0.79-19.97-2.69-29.67
	c-1.14-5.78,1.65-7.05,5.23-9.21c11.83-7.09,21.83-16.1,28.46-28.39C245.64,165.05,247.67,153.37,245.69,140.58z M86.11,82.39
	c0.9-14.36,6.1-27.23,14.04-38.96c6.47-9.56,13.93-18.46,20.27-28.1c2.45-3.71,3.46-2.37,5.48-0.31
	c18.19,18.49,31.62,39.62,36.24,65.56c0.59,3.37,1.17,7.6-3.02,9.33c-16.38,6.72-27.85,18.39-35.27,35.31
	c-4.16-8.01-8.1-14.87-13.31-20.75c-5.03-5.67-11.36-10.08-18.26-13.03C87.71,89.5,85.81,87.14,86.11,82.39z M136.06,133.01
	c-4.34-1.95-4.95-3.49-2.68-7.97c5.67-11.24,13.57-19.95,24.78-25.73c1.81-0.93,2.8-1.63,2.9,1.04c-2.69,7.15-4.44,14.67-9.18,20.78
	c-2.87,3.68-6.03,7.14-9.32,10.45C140.89,133.26,139.09,134.38,136.06,133.01z M163.76,169.62c13.51,5.59,22.6,15.17,28.35,28.48
	c2.07,4.81,0.19,5.25-3.74,4.95c-1.96-0.15-3.95-0.02-5.92-0.02c-18.2,0.58-32.01-7.83-43.23-21.31c-3.65-4.39-2.69-7.54,2.63-10.81
	C148.94,166.55,156.05,166.43,163.76,169.62z M87,97.84c13,7.47,22.6,16.42,28.03,29.59c1.17,2.8-0.14,3.83-1.56,4.66
	c-1.77,1.05-3.66,3.33-6.19,1.07C96.99,123.95,89.04,113.39,87,97.84z M54.66,198.11c7.17-17.08,19.84-27.39,38.01-30.71
	c7.53-1.38,13.04,3.53,18.8,7.22c1.24,0.8-0.2,2.25-0.61,2.78c-9.76,13.35-21.79,23.35-38.85,25.54c-2.3,0.3-4.29,2.14-5.88,1.49
	c-3.78-0.57-6.66-0.86-9.47-1.49C53.95,202.34,53.56,200.73,54.66,198.11z M100.17,225.67c-13.95,10.06-29.78,13.38-46.58,14.42
	c-6.28,0.38-8.18-0.24-6.92-7.07c1.25-6.82,2.89-13.7,2.58-20.75c-0.12-2.64,1.75-2.32,3.2-2.07c24.3,4.26,44.61-2.99,61.28-21.03
	c1.24-1.34,2.14-3.46,4.43-3.45c0.93,0.01,1.28,1.94,1.27,7.4C118.61,206.22,111.81,217.26,100.17,225.67z M107.59,154.51
	c-0.34-7.52,8.1-15.74,16.17-15.72c9.3,0.02,15.88,6.36,15.89,15.32c1.84,7.84-6.86,15.72-15.75,16.7
	C117.43,171.52,107.92,161.71,107.59,154.51z M161.86,233.92c-16.19-6.63-28.79-17.04-33.52-34.63c-1.14-4.26-0.39-9.01-0.61-13.53
	c-0.06-1.19,0.57-2.17,1.34-2.38c1.34-0.38,1.61,1.05,2.32,1.93c9.61,11.75,20.93,21.35,36.19,24.44c8.7,1.76,17.67,3.13,26.61,0.5
	c2.52-0.74,3.77,0.11,3.83,3.26c0.15,9.07,2.69,17.88,2.47,27.21C187.52,239.82,174.28,239,161.86,233.92z M238.31,148.4
	c-1.59,22.6-11.91,39.57-32.56,50.05c-3.19,1.62-4.16,0.64-5.14-1.77c-3.05-7.54-7.23-14.44-12.53-20.52
	c-7.57-8.7-17.46-13.98-28.71-15.8c-9.27-1.51-9.02-0.99-11.69-9.96c-0.76-2.56-0.02-5.44-1.9-7.83c-0.54-0.68-0.73-2.52,1.11-3.93
	c12.8-9.89,19.67-23.36,22.44-39.04c0.73-4.16,2.86-5.57,6.9-6.1c26.2-3.47,49.88,13.13,58.9,36.7c0.81,2.13,1.9,4.34,1.9,6.53
	C237.05,140.67,239.64,144.26,238.31,148.4z"/>
</svg>
