<?xml version="1.0" encoding="utf-8"?>
<!-- Generator: Adobe Illustrator 28.1.0, SVG Export Plug-In . SVG Version: 6.00 Build 0)  -->
<svg version="1.1" id="Layer_1" xmlns="http://www.w3.org/2000/svg" xmlns:xlink="http://www.w3.org/1999/xlink" x="0px" y="0px"
	 viewBox="0 0 250 250" style="enable-background:new 0 0 250 250;" xml:space="preserve">
<style type="text/css">
	.st0{fill:#282828;}
</style>
<g>
	<path class="st0" d="M250.33,148.16c-3.37-1.7-6.76-3.24-10.22-4.62c-6.77-2.7-13.73-4.81-20.86-6.34
		c-3.17-0.68-6.17-1.86-9.02-3.39c-0.15-0.08-0.29-0.16-0.5-0.16c0.14,0.1,0.28,0.2,0.42,0.29c6.75,3.93,13.87,7.01,21.37,9.18
		c0.49,0.14,0.77,0.38,0.98,0.83c1.22,2.72,1.48,5.51,0.74,8.5c-0.55-0.62-1.04-1.17-1.53-1.71c-3.24-3.51-7.15-6.03-11.51-7.89
		c-3.07-1.31-6.13-2.61-8.86-4.57c-3.4-2.44-6.29-5.4-8.8-8.73c-0.05-0.07-0.09-0.14-0.13-0.22c0.54-0.13,0.17-0.27,1.8,0.83
		c0.57,0.38,1.14,0.76,1.79,1.04c-3.07-2.59-5.68-5.55-7.57-9.09c-1.9-3.54-3.26-7.24-3.49-11.48c0.47,0.35,0.52,0.72,0.64,1.04
		c1.36,3.58,3.04,7,5.44,10.01c2.88,3.62,6.31,6.56,10.63,8.37c2.29,0.96,4.69,1.32,7.16,1.32c4.24-0.01,8.47,0.06,12.68,0.59
		c1.12,0.14,2.24,0.3,3.38,0.45c0.07-0.27-0.14-0.4-0.23-0.58c-1.85-3.59-4.83-6.14-7.9-8.61c-6.23-5.01-13.14-8.77-20.72-11.3
		c-0.22-0.07-0.45-0.13-0.69-0.2c2.42-2.4,5.39-3.7,8.66-4.24c4.15-0.69,7.92,0.63,11.51,2.59c3.97,2.17,7.17,5.24,10.09,8.64
		c7.33,8.53,12.25,18.27,14.79,29.23C250.35,147.99,250.34,148.03,250.33,148.16z M209.5,133.4c-0.04,0.04-0.1,0.08-0.02,0.13
		c0.02,0.02,0.07,0,0.1,0c-0.03-0.04-0.07-0.08-0.1-0.12c-0.07-0.03-0.14-0.06-0.21-0.09c0,0.03-0.02,0.08-0.01,0.08
		C209.34,133.43,209.43,133.54,209.5,133.4z M206.77,131.64c-0.05-0.03-0.1-0.06-0.16-0.09c-0.07-0.06-0.14-0.11-0.21-0.17
		c-0.13-0.09-0.25-0.34-0.4-0.15c-0.12,0.16,0.13,0.22,0.26,0.27c0.08,0.06,0.16,0.12,0.25,0.18c0.05,0.02,0.1,0.05,0.15,0.07
		c0.07,0.06,0.15,0.11,0.22,0.17c0.44,0.28,0.89,0.56,1.33,0.84c0.02-0.04,0.05-0.08,0.07-0.12c-0.43-0.27-0.87-0.54-1.3-0.82
		C206.92,131.77,206.84,131.71,206.77,131.64z M208.55,132.88c-0.02-0.03-0.03-0.08-0.05-0.09c-0.03-0.01-0.07,0.02-0.1,0.03
		c0.02,0.03,0.03,0.08,0.05,0.08C208.47,132.91,208.51,132.88,208.55,132.88z"/>
	<path class="st0" d="M34.83,131.97c0.07-4.69,1.05-9.2,3.81-13.17c3.2-4.62,7.67-7.12,13.24-7.66c3.85-0.37,7.58,0.05,11.06,1.86
		c4.37,2.26,6.75,5.97,7.63,10.73c0.05,0.28,0,0.39-0.31,0.39c-1.64-0.01-3.28-0.01-4.92,0c-0.29,0-0.35-0.12-0.41-0.38
		c-1.06-4.82-5.03-7.42-9.5-7.77c-3.78-0.29-7.2,0.49-10.05,3.11c-2.22,2.05-3.53,4.63-4.2,7.54c-1.05,4.57-0.98,9.11,0.85,13.49
		c1.88,4.5,5.17,7.4,10.12,8.06c2.93,0.39,5.8,0.12,8.36-1.57c2.98-1.97,4.36-4.9,4.82-8.32c0.07-0.51,0.18-0.7,0.73-0.68
		c1.46,0.04,2.93,0.04,4.39,0c0.48-0.01,0.58,0.14,0.56,0.58c-0.25,5.41-3.82,12.82-12.02,14.51c-4.21,0.87-8.39,0.81-12.42-0.83
		c-5.6-2.29-8.97-6.59-10.72-12.27C35.13,137.13,34.86,134.6,34.83,131.97z"/>
	<path class="st0" d="M157.86,132.25c0-6.4,0.01-12.8-0.01-19.21c0-0.58,0.14-0.72,0.72-0.71c7.23,0.02,14.46,0.02,21.7,0
		c0.62,0,0.75,0.18,0.74,0.76c-0.04,1.29-0.04,2.58,0,3.87c0.02,0.57-0.1,0.76-0.73,0.76c-5.29-0.03-10.58,0-15.86-0.03
		c-0.6,0-0.7,0.16-0.7,0.72c0.03,3.52,0.02,7.04,0,10.55c0,0.49,0.12,0.62,0.62,0.62c5.33-0.02,10.66,0,15.99-0.02
		c0.55,0,0.7,0.14,0.68,0.69c-0.04,1.35-0.04,2.71,0,4.06c0.01,0.5-0.13,0.61-0.61,0.61c-5.31-0.02-10.62,0-15.93-0.03
		c-0.6,0-0.75,0.15-0.75,0.75c0.03,3.5,0.03,6.99,0,10.49c0,0.56,0.1,0.73,0.7,0.72c5.29-0.03,10.58-0.01,15.86-0.03
		c0.56,0,0.75,0.1,0.73,0.7c-0.05,1.37-0.03,2.75-0.01,4.13c0.01,0.39-0.05,0.57-0.52,0.57c-7.36-0.02-14.73-0.02-22.09,0
		c-0.54,0-0.53-0.24-0.53-0.63C157.87,145.14,157.86,138.69,157.86,132.25z"/>
	<path class="st0" d="M35.06,150.87c-1.9,0-3.75-0.01-5.61,0.01c-0.38,0-0.41-0.26-0.51-0.49c-1.33-3.27-2.66-6.53-3.96-9.81
		c-0.21-0.54-0.48-0.73-1.08-0.72c-4.35,0.03-8.7,0.02-13.04,0.01c-0.46,0-0.68,0.11-0.84,0.57c-1.2,3.27-2.45,6.52-3.64,9.79
		c-0.19,0.54-0.46,0.66-0.98,0.65c-1.89-0.03-3.79-0.01-5.75-0.01c0.82-2.06,1.62-4.05,2.42-6.05c4.28-10.64,8.57-21.28,12.83-31.93
		c0.19-0.47,0.41-0.68,0.93-0.69c1.2-0.02,2.4-0.07,3.59-0.16c0.44-0.03,0.58,0.13,0.73,0.51c3.12,8.03,6.26,16.06,9.39,24.09
		c1.77,4.54,3.53,9.09,5.3,13.63C34.92,150.46,34.98,150.64,35.06,150.87z M17.18,121.38c-1.67,4.45-3.28,8.76-4.91,13.1
		c3.44,0,6.8,0,10.23,0C20.73,130.13,18.98,125.82,17.18,121.38z"/>
	<path class="st0" d="M155.48,112.32c-1.26,4.48-2.49,8.86-3.72,13.24c-2.45,8.7-4.9,17.39-7.34,26.09
		c-0.11,0.38-0.25,0.55-0.69,0.54c-2.58-0.03-5.16-0.02-7.73,0c-0.39,0-0.51-0.14-0.61-0.48c-3.64-12.96-7.28-25.91-10.94-38.86
		c-0.13-0.46-0.05-0.54,0.41-0.54c1.64,0.02,3.28,0.03,4.91,0c0.45-0.01,0.63,0.11,0.74,0.56c1.79,6.8,3.6,13.6,5.4,20.4
		c1.2,4.51,2.39,9.01,3.6,13.51c0.06,0.21-0.02,0.58,0.4,0.56c0.4-0.02,0.31-0.36,0.37-0.59c3.01-11.28,6.01-22.56,8.99-33.85
		c0.12-0.46,0.29-0.61,0.77-0.61C151.82,112.34,153.61,112.32,155.48,112.32z"/>
	<path class="st0" d="M113.73,131.67c0,4.46,0.01,8.91-0.01,13.37c0,0.47,0.08,0.63,0.59,0.62c1.94-0.04,3.89,0,5.83-0.02
		c0.44-0.01,0.55,0.12,0.54,0.55c-0.03,1.44-0.02,2.88,0,4.32c0.01,0.39-0.08,0.52-0.5,0.52c-6.2-0.01-12.41-0.01-18.61,0
		c-0.37,0-0.54-0.05-0.53-0.49c0.03-1.46,0.03-2.93,0-4.39c-0.01-0.4,0.11-0.52,0.51-0.51c1.92,0.02,3.84,0,5.77,0.02
		c0.43,0.01,0.54-0.11,0.53-0.54c-0.01-8.98-0.01-17.96,0-26.93c0-0.42-0.11-0.5-0.51-0.5c-1.92,0.02-3.84,0-5.77,0.02
		c-0.43,0.01-0.55-0.11-0.54-0.54c0.03-1.44,0.03-2.88,0-4.32c-0.01-0.42,0.13-0.51,0.52-0.51c6.2,0.01,12.41,0.01,18.61,0
		c0.41,0,0.52,0.11,0.51,0.52c-0.02,1.46-0.02,2.93,0,4.39c0.01,0.38-0.12,0.47-0.48,0.47c-1.94-0.02-3.89,0.02-5.83-0.02
		c-0.57-0.01-0.66,0.17-0.66,0.69C113.74,122.8,113.73,127.23,113.73,131.67z"/>
	<path class="st0" d="M81.69,134.94c0-5.51-0.01-11.01,0.01-16.52c0-0.56-0.1-0.77-0.73-0.76c-3.45,0.04-6.91,0.01-10.36,0.03
		c-0.51,0-0.62-0.14-0.61-0.62c0.03-1.4,0.02-2.8,0-4.2c-0.01-0.39,0.05-0.56,0.52-0.56c9.4,0.02,18.79,0.01,28.19,0
		c0.4,0,0.51,0.1,0.51,0.5c-0.03,1.42-0.03,2.84,0,4.26c0.01,0.49-0.12,0.62-0.61,0.61c-3.43-0.02-6.86,0-10.29-0.03
		c-0.61-0.01-0.8,0.11-0.8,0.76c0.02,11.01,0.01,22.03,0.03,33.04c0,0.61-0.17,0.75-0.75,0.73c-1.48-0.04-2.97-0.04-4.46,0
		c-0.54,0.01-0.69-0.11-0.68-0.67C81.7,145.99,81.69,140.46,81.69,134.94z"/>
	<path class="st0" d="M150.24,93.47c0.02-6.71,4.39-12.74,11.01-14.96c6.48-2.16,12.37-1.05,17.27,3.81
		c7.6,7.53,5.92,20.47-3.32,25.6c-5.5,3.05-11.1,2.64-16.48-0.35c-4.72-2.62-7.58-6.66-8.35-12.07c-0.02-0.13-0.04-0.26-0.05-0.39
		C150.3,94.56,150.27,94.01,150.24,93.47z M154.07,93.58c0.03,0.75,0.09,1.6,0.27,2.43c1.5,6.94,8.8,10.9,14.95,9.97
		c6.74-1.02,11.29-7.34,9.95-14.38c-1.48-7.79-9.04-12.1-16.55-9.57C157.53,83.78,154.08,88.35,154.07,93.58z"/>
	<path class="st0" d="M138.96,96.97c1.85,1.85,3.61,3.6,5.37,5.36c1.47,1.47,2.93,2.94,4.41,4.4c0.27,0.26,0.28,0.4,0,0.66
		c-0.71,0.68-1.41,1.37-2.09,2.09c-0.24,0.25-0.38,0.23-0.61-0.01c-4.15-4.16-8.31-8.32-12.46-12.47c-0.63-0.63-0.84-1.38-0.52-2.22
		c0.32-0.81,0.96-1.21,1.83-1.25c0.98-0.04,1.97,0.04,2.93-0.21c2.23-0.58,4.16-1.62,5.31-3.7c0.84-1.53,0.79-3.14-0.13-4.61
		c-2.04-3.25-5.01-4.96-8.84-5.11c-1.07-0.04-2.14,0.02-3.21-0.02c-0.49-0.02-0.55,0.16-0.55,0.59c0.01,6.69,0.01,13.37,0.01,20.06
		c0,2.6-0.01,5.2,0.01,7.8c0,0.42-0.09,0.57-0.53,0.55c-0.89-0.04-1.79-0.04-2.69,0c-0.51,0.03-0.6-0.14-0.6-0.62
		c0.02-8.85,0.01-17.7,0.01-26.55c0-1.7,0-3.41,0-5.11c0-0.3-0.02-0.53,0.42-0.52c2.8,0.06,5.61-0.21,8.38,0.1
		c5.15,0.58,9.1,3.14,11.36,7.85c1.76,3.67,0.53,7.75-2.82,10.46c-0.71,0.58-1.48,1.07-2.3,1.49
		C140.82,96.38,139.96,96.69,138.96,96.97z"/>
	<path class="st0" d="M101.95,92.44c0-5.22,0.01-10.44-0.02-15.67c0-0.63,0.19-0.73,0.76-0.73c3.08,0.03,6.16-0.01,9.24,0.02
		c3.49,0.04,6.22,1.55,8.13,4.45c1.18,1.79,2.14,3.69,2.41,5.87c0.82,6.71-4.13,12.53-11.03,12.08c-1.78-0.12-3.58-0.04-5.37-0.07
		c-0.48-0.01-0.32,0.32-0.32,0.54c-0.01,2.97-0.01,5.94-0.01,8.91c0,1,0,1-0.98,1c-0.74,0-1.49-0.04-2.23,0.01
		c-0.51,0.03-0.6-0.14-0.6-0.62c0.02-4.87,0.01-9.74,0.01-14.62C101.95,93.23,101.95,92.84,101.95,92.44z M105.75,87.27
		c0,2.25,0.01,4.5-0.01,6.75c0,0.45,0.1,0.59,0.57,0.58c1.88-0.02,3.76-0.06,5.63,0.05c3.45,0.2,6.51-2.4,6.79-6.32
		c0.17-2.31-0.85-4.2-2.07-6c-0.98-1.44-2.4-2.33-4.16-2.41c-2.14-0.1-4.28-0.04-6.42-0.07c-0.47-0.01-0.33,0.3-0.33,0.53
		C105.75,82.69,105.75,84.98,105.75,87.27z"/>
	<path class="st0" d="M50.68,79.26c-15.9,0-31.81,0-47.71,0.01c-0.61,0-0.82-0.16-0.74-0.75c0.08-0.6-0.26-1.41,0.14-1.75
		c0.35-0.3,1.13-0.09,1.72-0.09c31.44,0,62.88,0,94.31-0.02c0.69,0,0.92,0.18,0.83,0.85c-0.07,0.56,0.23,1.29-0.11,1.64
		c-0.34,0.35-1.08,0.1-1.64,0.1C81.87,79.26,66.28,79.26,50.68,79.26z"/>
	<path class="st0" d="M197.29,112.71c-0.88-4.71-1.92-9.39-3.22-14.01c-1.54-5.5-4.05-10.55-6.88-15.47
		c-1.39-2.42-2.8-4.82-4.28-7.19c-0.11-0.18-0.22-0.36-0.39-0.65c1.32,0.38,2.46,0.91,3.55,1.52c5.67,3.18,9.15,7.99,10.62,14.29
		c0.25,1.09,0.15,2.22,0.19,3.33c0.21,5.93,0.41,11.86,0.62,17.78c0,0.13-0.02,0.26-0.03,0.39
		C197.42,112.71,197.36,112.71,197.29,112.71z"/>
	<path class="st0" d="M204.33,110.24c0.67-1.81,1.24-3.63,1.53-5.53c0.72-4.83-0.17-9.36-2.56-13.61c-0.25-0.44-0.41-0.28-0.67-0.04
		c-2.05,1.91-3.29,4.25-3.75,7.04c-0.23-0.79-0.2-1.61-0.14-2.41c0.25-3.89,1.41-7.44,4.11-10.36c1.33-1.44,2.83-2.65,4.62-3.49
		c0.42-0.2,0.85-0.35,1.31-0.37c0.55-0.03,0.78,0.21,0.68,0.75c-0.06,0.34-0.18,0.68-0.34,0.98c-1.9,3.74-1.98,7.61-0.91,11.59
		c0.46,1.72,0.89,3.46,1.02,5.25c0.28,3.76-1.18,6.79-3.86,9.32C205.03,109.66,204.67,109.94,204.33,110.24z"/>
	<path class="st0" d="M195.02,119.47c0,0.81-0.05,1.62,0.01,2.42c0.13,1.85-1.16,3.25-2.31,3.67c-1.45,0.53-3.03,0.08-4.15-1.27
		c-1.01-1.22-1.22-2.62-0.81-4.12c0.06-0.22,0.18-0.38,0.34-0.54c3.54-3.56,5.17-7.83,4.86-12.85c-0.01-0.18-0.23-0.51,0.2-0.56
		c0.36-0.04,0.37,0.23,0.42,0.46C194.42,110.9,194.91,115.16,195.02,119.47z"/>
	<path class="st0" d="M82.76,90.66c0.72,0,1.44-0.03,2.16,0.01c0.46,0.03,0.54-0.15,0.53-0.55c-0.03-0.74,0-1.49-0.01-2.23
		c-0.01-0.83-0.12-0.96-0.96-1.11c-0.17-0.03-0.41,0.06-0.4-0.28c0.01-0.33,0.23-0.25,0.41-0.25c1.16,0,2.32-0.01,3.47,0
		c0.17,0,0.42-0.1,0.45,0.22c0.03,0.37-0.26,0.27-0.44,0.3c-0.86,0.15-0.99,0.28-0.99,1.15c-0.01,2.23-0.01,4.46,0,6.69
		c0,0.97,0.08,1.04,1.05,1.22c0.18,0.03,0.42,0,0.39,0.31c-0.02,0.29-0.24,0.2-0.39,0.2c-1.22,0.01-2.45,0.01-3.67,0
		c-0.15,0-0.36,0.09-0.38-0.21c-0.02-0.31,0.2-0.28,0.39-0.31c1.02-0.17,1.08-0.23,1.08-1.25c0-0.92-0.02-1.84,0.01-2.75
		c0.01-0.38-0.12-0.47-0.48-0.46c-1.49,0.02-2.97,0.02-4.46,0c-0.37-0.01-0.48,0.1-0.47,0.47c0.03,1,0.03,2.01,0.03,3.01
		c0,0.6,0.27,0.93,0.89,0.98c0.2,0.02,0.55-0.1,0.52,0.3c-0.03,0.41-0.37,0.21-0.55,0.21c-1.11,0.02-2.23,0.02-3.34,0
		c-0.16,0-0.42,0.13-0.43-0.22c-0.01-0.31,0.22-0.27,0.4-0.3c0.86-0.15,0.97-0.27,0.97-1.15c0.01-2.25,0.01-4.5,0-6.75
		c0-0.86-0.13-0.99-1-1.15c-0.17-0.03-0.41,0.05-0.4-0.28c0.01-0.33,0.24-0.25,0.42-0.25c1.16,0,2.32,0,3.47,0
		c0.2,0,0.41-0.03,0.4,0.28c0,0.28-0.21,0.22-0.37,0.25c-0.87,0.17-0.96,0.26-0.99,1.15c-0.02,0.76,0,1.53-0.03,2.29
		c-0.02,0.41,0.15,0.46,0.49,0.45C81.28,90.64,82.02,90.66,82.76,90.66z"/>
	<path class="st0" d="M32.38,91.37c-0.74,0-1.49,0.01-2.23-0.01c-0.31-0.01-0.47,0.04-0.46,0.41c0.03,0.98,0,1.97,0.02,2.95
		c0.02,0.82,0.17,0.97,0.98,1.1c0.19,0.03,0.48-0.05,0.46,0.31c-0.03,0.39-0.33,0.21-0.5,0.21c-1.14,0.02-2.27,0.01-3.41,0
		c-0.16,0-0.42,0.13-0.43-0.22c-0.01-0.31,0.22-0.29,0.4-0.3c0.74,0,0.98-0.43,0.98-1.1c0-2.27,0.01-4.54-0.01-6.81
		c-0.01-0.87-0.15-0.99-1.01-1.14c-0.17-0.03-0.43,0.07-0.43-0.25c0-0.36,0.27-0.27,0.47-0.27c1.14-0.01,2.27-0.01,3.41,0
		c0.18,0,0.42-0.09,0.45,0.22c0.04,0.37-0.25,0.29-0.44,0.31c-0.63,0.06-0.93,0.39-0.93,1.02c0,0.83,0,1.66-0.01,2.49
		c-0.01,0.27,0.06,0.38,0.36,0.38c1.55-0.01,3.1-0.02,4.65,0c0.33,0,0.4-0.12,0.39-0.42c-0.02-0.79,0-1.57-0.01-2.36
		c-0.01-0.84-0.12-0.95-0.96-1.11c-0.17-0.03-0.41,0.05-0.4-0.28c0.01-0.33,0.24-0.25,0.42-0.25c1.16,0,2.31-0.01,3.47,0
		c0.17,0,0.42-0.1,0.45,0.22c0.03,0.37-0.26,0.27-0.45,0.3c-0.86,0.14-0.99,0.28-0.99,1.14c-0.01,2.27-0.01,4.54,0,6.81
		c0,0.83,0.13,0.95,0.97,1.09c0.19,0.03,0.49-0.05,0.47,0.3c-0.02,0.37-0.33,0.22-0.5,0.22c-1.16,0.01-2.31,0.01-3.47,0
		c-0.18,0-0.47,0.16-0.48-0.23c-0.01-0.32,0.24-0.25,0.42-0.28c0.97-0.16,1.06-0.25,1.07-1.2c0.01-0.92-0.02-1.83,0.01-2.75
		c0.01-0.39-0.07-0.54-0.5-0.52C33.87,91.39,33.13,91.37,32.38,91.37z"/>
	<path class="st0" d="M55.24,106.75c0.7-1.44,1.34-2.77,1.97-4.09c0.08-0.18,0.17-0.35,0.25-0.53c0.81-1.66,0.81-1.66,2.68-1.5
		c0.14,0.01,0.33-0.06,0.35,0.18c0.03,0.29-0.19,0.24-0.35,0.25c-0.63,0.04-0.86,0.36-0.83,0.99c0.07,1.79,0.11,3.57,0.15,5.36
		c0.01,0.58,0.19,0.98,0.85,1c0.17,0,0.32,0.04,0.32,0.24c0,0.23-0.19,0.2-0.33,0.2c-0.96,0-1.92,0-2.88,0
		c-0.12,0-0.27,0.03-0.29-0.16c-0.02-0.2,0.08-0.28,0.27-0.28c0.68,0,0.81-0.42,0.8-1c-0.02-1.75-0.01-3.49-0.01-5.27
		c-0.23,0.06-0.25,0.24-0.31,0.38c-0.88,1.92-1.76,3.83-2.65,5.75c-0.08,0.18-0.09,0.48-0.37,0.48c-0.28,0.01-0.29-0.29-0.37-0.47
		c-0.75-1.71-1.49-3.43-2.24-5.15c-0.1-0.23-0.16-0.5-0.44-0.75c-0.06,0.88-0.13,1.69-0.16,2.51c-0.04,0.85-0.01,1.7-0.06,2.55
		c-0.03,0.6,0.21,0.9,0.8,0.95c0.16,0.01,0.38-0.02,0.38,0.25c0,0.28-0.23,0.22-0.39,0.22c-0.76,0.01-1.53,0-2.29,0
		c-0.15,0-0.33,0.04-0.37-0.17c-0.05-0.24,0.13-0.28,0.32-0.3c0.55-0.07,0.74-0.43,0.8-0.95c0.22-1.75,0.31-3.52,0.44-5.28
		c0.04-0.59-0.11-1.04-0.81-1.09c-0.14-0.01-0.32,0.03-0.32-0.21c0-0.29,0.22-0.21,0.37-0.22c0.04,0,0.09,0.01,0.13,0
		c1.27-0.25,1.98,0.24,2.44,1.49C53.65,103.67,54.47,105.13,55.24,106.75z"/>
	<path class="st0" d="M42.95,96.35c-1.14,0-2.27,0-3.41-0.01c-0.17,0-0.43,0.12-0.46-0.2c-0.03-0.35,0.26-0.29,0.45-0.32
		c0.94-0.15,1.04-0.21,1.07-1.14c0.08-2.27,0.05-4.54,0.02-6.81c-0.01-0.7-0.27-1.06-0.97-1.1c-0.18-0.01-0.4,0.03-0.38-0.29
		c0.02-0.34,0.26-0.23,0.43-0.23c2.12-0.01,4.24,0,6.35-0.01c0.33,0,0.46,0.08,0.47,0.42c0.01,0.52,0.07,1.04,0.1,1.56
		c0.01,0.15,0.09,0.34-0.2,0.38c-0.27,0.04-0.33-0.09-0.39-0.3c-0.06-0.23-0.16-0.45-0.25-0.67c-0.19-0.48-0.56-0.72-1.06-0.74
		c-0.72-0.03-1.44-0.02-2.16-0.03c-0.32-0.01-0.41,0.14-0.41,0.44c0.01,1.05,0.01,2.1,0,3.14c0,0.28,0.07,0.39,0.36,0.37
		c0.46-0.03,0.92-0.03,1.37-0.02c0.66,0.01,1.24-0.1,1.34-0.91c0.03-0.22,0.17-0.27,0.37-0.26c0.24,0.01,0.21,0.17,0.21,0.32
		c0,0.81,0,1.62,0,2.42c0,0.13,0.02,0.28-0.17,0.29c-0.14,0.01-0.35,0.07-0.38-0.15c-0.15-1.11-0.97-1.05-1.77-1.05
		c-1.33,0.01-1.33,0-1.33,1.36c0,0.63-0.01,1.27,0,1.9c0.01,0.58,0.26,0.95,0.9,0.97c0.37,0.01,0.74,0.05,1.11,0.07
		c1.32,0.09,2.23-0.44,2.63-1.74c0.07-0.22,0.2-0.31,0.44-0.24c0.28,0.08,0.14,0.26,0.14,0.42c0,0.02-0.01,0.04-0.02,0.06
		c-0.17,0.67-0.07,1.56-0.54,1.97c-0.45,0.38-1.29,0.09-1.97,0.11C44.21,96.36,43.58,96.35,42.95,96.35z"/>
	<path class="st0" d="M94.13,104.78c-0.57,0-1.14,0.01-1.7-0.01c-0.32-0.01-0.46,0.06-0.45,0.42c0.03,0.76,0.01,1.53,0.01,2.29
		c0,0.54,0.18,0.89,0.78,0.9c0.19,0,0.44,0,0.39,0.3c-0.04,0.26-0.28,0.15-0.43,0.15c-0.9,0.01-1.79,0.01-2.69,0
		c-0.15,0-0.38,0.1-0.41-0.18c-0.02-0.25,0.17-0.26,0.35-0.27c0.61-0.01,0.75-0.4,0.75-0.92c0-1.83-0.01-3.67,0-5.5
		c0.01-0.59-0.24-0.9-0.83-0.92c-0.14-0.01-0.32,0.03-0.31-0.22c0.01-0.24,0.17-0.21,0.32-0.21c0.96,0,1.92,0,2.88,0
		c0.13,0,0.27-0.01,0.3,0.17c0.03,0.22-0.11,0.25-0.28,0.26c-0.7,0.02-0.87,0.45-0.84,1.06c0.02,0.54,0.02,1.09,0,1.64
		c-0.01,0.32,0.05,0.46,0.42,0.45c1.18-0.03,2.36-0.02,3.54,0c0.33,0.01,0.46-0.08,0.44-0.43c-0.03-0.59-0.02-1.18-0.01-1.77
		c0.01-0.57-0.21-0.92-0.82-0.94c-0.14,0-0.32,0.02-0.31-0.23c0.01-0.24,0.18-0.2,0.32-0.2c0.96,0,1.92,0,2.88,0
		c0.14,0,0.32-0.05,0.34,0.19c0.02,0.24-0.15,0.23-0.3,0.23c-0.72,0.02-0.9,0.42-0.89,1.08c0.03,1.75,0.02,3.49,0,5.24
		c-0.01,0.61,0.13,1.04,0.84,1.04c0.16,0,0.33,0.02,0.33,0.23c0,0.28-0.23,0.21-0.39,0.22c-0.96,0.01-1.92,0-2.88,0
		c-0.14,0-0.33,0.04-0.35-0.19c-0.01-0.21,0.14-0.26,0.3-0.25c0.75,0.03,0.91-0.43,0.91-1.05c-0.01-0.72-0.01-1.44,0-2.16
		c0.01-0.31-0.1-0.42-0.41-0.41C95.35,104.8,94.74,104.78,94.13,104.78z"/>
	<path class="st0" d="M56.59,96.35c-0.55,0-1.09,0.01-1.64,0c-0.16,0-0.37,0.08-0.4-0.19c-0.03-0.23,0.12-0.29,0.31-0.34
		c0.8-0.24,0.81-0.26,0.54-1.01c-0.25-0.67-0.35-1.54-0.83-1.94c-0.49-0.42-1.38-0.11-2.09-0.12c-1.22-0.02-1.22-0.01-1.61,1.12
		c-0.12,0.35-0.21,0.71-0.35,1.05c-0.22,0.56,0.02,0.82,0.56,0.91c0.21,0.04,0.56-0.05,0.51,0.33c-0.05,0.37-0.38,0.19-0.58,0.2
		c-0.85,0.02-1.7,0.01-2.55,0c-0.15,0-0.37,0.1-0.4-0.19c-0.02-0.22,0.08-0.33,0.29-0.34c0.81-0.06,1.13-0.65,1.4-1.29
		c1.09-2.63,2.18-5.26,3.25-7.9c0.12-0.3,0.22-0.57,0.6-0.57c0.4,0,0.32,0.36,0.4,0.57c1.01,2.64,2,5.28,3,7.93
		c0.25,0.66,0.56,1.24,1.38,1.29c0.18,0.01,0.27,0.11,0.27,0.3c-0.01,0.23-0.17,0.21-0.33,0.21C57.72,96.35,57.16,96.35,56.59,96.35
		z M51.55,91.96c0.97,0,1.87,0,2.82,0c-0.45-1.24-0.89-2.44-1.37-3.78C52.48,89.54,52.03,90.73,51.55,91.96z"/>
	<path class="st0" d="M94.47,91.14c0.75-1.24,1.39-2.42,1.96-3.63c0.26-0.55-0.14-0.61-0.51-0.72c-0.19-0.06-0.55,0.09-0.51-0.32
		c0.04-0.4,0.37-0.22,0.57-0.22c0.87-0.02,1.75-0.01,2.62-0.01c0.17,0,0.41-0.09,0.44,0.23c0.03,0.32-0.21,0.28-0.39,0.3
		c-0.63,0.09-1.07,0.45-1.39,0.98c-0.3,0.48-0.59,0.97-0.93,1.42c-1.26,1.64-1.72,3.47-1.49,5.52c0.09,0.83,0.2,1.01,1.04,1.11
		c0.11,0.01,0.22,0.04,0.32,0.04c0.22,0,0.24,0.13,0.24,0.3c0,0.19-0.13,0.19-0.26,0.19c-1.38,0-2.75,0-4.13,0
		c-0.14,0-0.26-0.03-0.27-0.21c-0.01-0.19,0.08-0.28,0.26-0.29c0.15-0.01,0.3-0.03,0.46-0.05c0.48-0.06,0.77-0.3,0.79-0.8
		c0.06-1.61,0.2-3.21-0.9-4.62c-0.65-0.84-1.12-1.82-1.66-2.74c-0.27-0.45-0.63-0.79-1.17-0.86c-0.22-0.03-0.38-0.06-0.33-0.34
		c0.04-0.28,0.25-0.19,0.4-0.19c1.05-0.01,2.1-0.01,3.15,0c0.18,0,0.4-0.08,0.42,0.25c0.01,0.26-0.16,0.24-0.33,0.29
		c-0.76,0.22-0.78,0.25-0.37,0.97C93.13,88.86,93.78,89.96,94.47,91.14z"/>
	<path class="st0" d="M72.31,91.08c0,1.2-0.01,2.4,0.01,3.6c0.01,0.83,0.22,1.03,1.03,1.13c0.13,0.02,0.26,0.03,0.39,0.05
		c0.16,0.01,0.22,0.11,0.22,0.26c0,0.17-0.09,0.23-0.25,0.23c-1.42,0-2.84,0-4.26,0c-0.14,0-0.25-0.02-0.26-0.21
		c-0.01-0.2,0.08-0.27,0.26-0.29c0.13-0.01,0.26-0.04,0.39-0.05c0.59-0.04,0.93-0.32,0.93-0.95c0.01-2.56,0.02-5.11,0.03-7.67
		c0-0.26-0.09-0.34-0.34-0.33c-0.35,0.02-0.7,0-1.05,0.01c-1.22,0.03-1.43,0.19-1.81,1.38c-0.04,0.12-0.08,0.25-0.12,0.37
		c-0.06,0.21-0.22,0.17-0.37,0.17c-0.2,0-0.17-0.15-0.17-0.28c0.04-0.78,0.08-1.57,0.14-2.35c0.03-0.37,0.25-0.41,0.47-0.18
		c0.23,0.24,0.49,0.25,0.78,0.25c2.12,0,4.24,0.01,6.36,0.01c0.28,0,0.55-0.03,0.79-0.24c0.29-0.26,0.49-0.25,0.5,0.23
		c0.02,0.72,0.08,1.44,0.12,2.15c0.01,0.17,0.07,0.35-0.22,0.37c-0.23,0.02-0.3-0.07-0.34-0.28c-0.05-0.25-0.15-0.5-0.25-0.74
		c-0.22-0.53-0.6-0.81-1.2-0.85c-1.82-0.13-1.82-0.15-1.82,1.65c0,0.85,0,1.7,0,2.56C72.3,91.08,72.31,91.08,72.31,91.08z"/>
	<path class="st0" d="M198.88,136.12c-0.02-3.16-1.01-6.03-2.55-8.75c-0.14-0.25-0.48-0.58-0.21-0.8c0.23-0.19,0.56,0.14,0.78,0.33
		c3.08,2.55,4.73,5.81,4.82,9.83c0.03,1.2,0.01,1.2-1.18,1.15c-0.3-0.01-0.61-0.08-0.91-0.04c-0.76,0.08-0.86-0.31-0.75-0.92
		C198.92,136.64,198.88,136.38,198.88,136.12z"/>
	<path class="st0" d="M76.04,109.04c-2.5,0.01-4.39-1.8-4.4-4.21c-0.01-2.51,1.94-4.42,4.52-4.42c2.46-0.01,4.38,1.87,4.36,4.26
		C80.5,107.21,78.62,109.03,76.04,109.04z M79.02,105.04c0.03-1.16-0.2-2.19-0.92-3.05c-1.19-1.43-3.29-1.39-4.34,0.07
		c-1.15,1.61-0.81,4.47,0.67,5.76c1.41,1.23,3.41,0.81,4.21-0.88C78.94,106.32,79.05,105.66,79.02,105.04z"/>
	<path class="st0" d="M65.81,109.04c-2.5,0-4.38-1.82-4.38-4.23c0-2.52,1.96-4.43,4.53-4.41c2.47,0.02,4.32,1.83,4.32,4.22
		C70.29,107.2,68.43,109.04,65.81,109.04z M68.83,105.01c-0.04-1.28-0.27-2.22-0.92-3.01c-1.27-1.57-3.58-1.37-4.55,0.38
		c-0.84,1.52-0.58,3.86,0.58,5.15c1.47,1.65,3.84,1.2,4.61-0.87C68.78,106.03,68.81,105.38,68.83,105.01z"/>
	<path class="st0" d="M63.04,96.35c-1.07,0-2.14,0-3.21,0c-0.17,0-0.43,0.1-0.43-0.23c0-0.31,0.25-0.26,0.42-0.28
		c0.93-0.16,1.08-0.29,1.08-1.21c0.01-2.23,0.01-4.46,0-6.69c-0.01-0.89-0.17-1.04-1.06-1.17c-0.18-0.03-0.41,0.05-0.38-0.28
		c0.02-0.34,0.26-0.24,0.43-0.24c1.16-0.01,2.32-0.01,3.47,0c0.17,0,0.41-0.11,0.44,0.22c0.03,0.32-0.18,0.27-0.37,0.3
		c-0.84,0.14-0.99,0.27-1,1.08c-0.02,2.27,0,4.54-0.01,6.82c0,0.66,0.28,1.03,0.96,1.06c0.46,0.02,0.92,0.05,1.37,0.04
		c1.02-0.03,1.53-0.71,1.9-1.55c0.09-0.21,0.07-0.59,0.49-0.43c0.38,0.14,0.12,0.41,0.08,0.6c-0.14,0.64-0.12,1.46-0.52,1.85
		c-0.41,0.4-1.25,0.1-1.89,0.12C64.22,96.36,63.63,96.35,63.04,96.35z"/>
	<path class="st0" d="M192.63,128.03c1.16,4.87,0.41,9.36-2.5,13.44c-0.6,0.84-1.53,1.05-2.2,0.52c-0.29-0.22-0.43-0.4-0.12-0.78
		c2.35-2.94,3.81-6.28,4.41-9.99c0.13-0.84,0.18-1.69,0.26-2.54C192.49,128.47,192.43,128.24,192.63,128.03z"/>
	<path class="st0" d="M85.68,104.58c0,0.94,0.02,1.88-0.01,2.82c-0.02,0.65,0.26,0.98,0.91,1c0.19,0,0.44-0.03,0.4,0.28
		c-0.03,0.27-0.27,0.16-0.42,0.16c-0.98,0.01-1.97,0.01-2.95,0c-0.17,0-0.44,0.12-0.44-0.21c0-0.26,0.22-0.23,0.39-0.23
		c0.63-0.02,0.88-0.34,0.88-0.96c-0.01-1.94-0.02-3.89,0-5.83c0-0.42-0.14-0.54-0.53-0.5c-0.26,0.03-0.52,0.05-0.78,0.04
		c-0.69-0.04-1.04,0.32-1.23,0.93c-0.07,0.22-0.02,0.64-0.37,0.58c-0.43-0.07-0.15-0.47-0.16-0.71c-0.02-0.45,0.06-0.91,0.09-1.37
		c0.02-0.31,0.13-0.43,0.38-0.18c0.21,0.21,0.46,0.22,0.72,0.22c1.66,0,3.32,0,4.98,0c0.2,0,0.41,0.02,0.57-0.12
		c0.51-0.44,0.58-0.19,0.58,0.32c0,0.48,0.06,0.96,0.08,1.44c0.01,0.15,0.12,0.35-0.17,0.39c-0.21,0.03-0.24-0.09-0.3-0.25
		c-0.47-1.22-0.99-1.48-2.35-1.3c-0.37,0.05-0.27,0.27-0.27,0.46c-0.01,1,0,2.01,0,3.01C85.67,104.58,85.68,104.58,85.68,104.58z"/>
	<path class="st0" d="M45.97,109.04c-0.06-0.01-0.26-0.01-0.45-0.04c-1.19-0.2-1.83-1.1-1.66-2.3c0.02-0.17,0.11-0.23,0.24-0.25
		c0.18-0.04,0.22,0.11,0.26,0.23c0.12,0.35,0.28,0.68,0.5,0.99c0.3,0.42,0.7,0.72,1.21,0.84c0.72,0.16,1.39-0.14,1.66-0.72
		c0.32-0.68,0.16-1.39-0.44-1.88c-0.51-0.42-1.12-0.66-1.69-0.99c-0.76-0.44-1.42-0.96-1.5-1.92c-0.14-1.53,1.13-2.67,2.84-2.57
		c0.04,0,0.09,0.01,0.13,0.02c1.47,0.15,1.69,0.41,1.62,1.88c-0.01,0.14,0.01,0.26-0.17,0.29c-0.16,0.03-0.24-0.04-0.3-0.18
		c-0.1-0.24-0.17-0.5-0.3-0.72c-0.36-0.62-0.93-0.9-1.59-0.78c-0.56,0.1-0.94,0.43-1.08,1c-0.17,0.69,0.1,1.21,0.65,1.58
		c0.45,0.3,0.94,0.54,1.42,0.79c1.45,0.77,1.98,1.65,1.69,2.81C48.72,108.33,47.64,109.05,45.97,109.04z"/>
	<path class="st0" d="M197.29,112.71c0.06,0,0.12,0,0.18,0c0.06,0.32,0.07,0.65-0.01,1.13
		C197.39,113.37,197.34,113.04,197.29,112.71z"/>
	<path class="st0" d="M206.99,131.83c0.43,0.27,0.87,0.54,1.3,0.82c-0.02,0.04-0.05,0.08-0.07,0.12c-0.44-0.28-0.89-0.56-1.33-0.84
		C206.92,131.9,206.95,131.87,206.99,131.83z"/>
	<path class="st0" d="M206.27,131.51c-0.13-0.06-0.38-0.11-0.26-0.27c0.15-0.2,0.27,0.06,0.4,0.15
		C206.36,131.43,206.31,131.47,206.27,131.51z"/>
	<path class="st0" d="M208.55,132.88c-0.04,0.01-0.07,0.03-0.1,0.02c-0.02-0.01-0.03-0.05-0.05-0.08c0.03-0.01,0.07-0.04,0.1-0.03
		C208.52,132.8,208.53,132.84,208.55,132.88z"/>
	<path class="st0" d="M206.51,131.69c-0.08-0.06-0.16-0.12-0.25-0.18c0.05-0.04,0.09-0.08,0.14-0.12c0.07,0.06,0.14,0.11,0.21,0.17
		C206.58,131.6,206.55,131.64,206.51,131.69z"/>
	<path class="st0" d="M206.77,131.64c0.07,0.06,0.14,0.13,0.22,0.19c-0.03,0.03-0.07,0.07-0.1,0.1c-0.07-0.06-0.15-0.11-0.22-0.17
		C206.7,131.72,206.74,131.68,206.77,131.64z"/>
	<path class="st0" d="M209.5,133.4c-0.08,0.15-0.16,0.03-0.24,0c0,0,0.01-0.06,0.01-0.08c0.07,0.03,0.14,0.06,0.21,0.09L209.5,133.4
		z"/>
	<path class="st0" d="M206.61,131.55c0.05,0.03,0.1,0.06,0.16,0.09c-0.04,0.04-0.07,0.08-0.11,0.12c-0.05-0.02-0.1-0.05-0.15-0.07
		C206.55,131.64,206.58,131.6,206.61,131.55z"/>
	<path class="st0" d="M209.48,133.41c0.03,0.04,0.07,0.08,0.1,0.12c-0.04,0-0.08,0.01-0.1,0c-0.07-0.05-0.01-0.09,0.02-0.13
		C209.5,133.4,209.48,133.41,209.48,133.41z"/>
	<path class="st0" d="M51.55,91.96c0.47-1.23,0.93-2.42,1.44-3.78c0.49,1.34,0.92,2.53,1.37,3.78
		C53.42,91.96,52.52,91.96,51.55,91.96z"/>
</g>
</svg>
