<?xml version="1.0" encoding="utf-8"?>
<!-- Generator: Adobe Illustrator 28.1.0, SVG Export Plug-In . SVG Version: 6.00 Build 0)  -->
<svg version="1.1" id="Layer_1" xmlns="http://www.w3.org/2000/svg" xmlns:xlink="http://www.w3.org/1999/xlink" x="0px" y="0px"
	 viewBox="0 0 250 250" style="enable-background:new 0 0 250 250;" xml:space="preserve">
<style type="text/css">
	.st0{fill:#282828;}
</style>
<g>
	<path class="st0" d="M153.94,155.57c-0.49-1.38-0.57-2.98-1.33-3.44c-1.21-0.73-1.91-1.63-2.48-2.77
		c-2.83-5.7-5.82-11.34-8.35-17.17c-0.92-2.12-0.74-4.73-1.09-7.42c-0.09-0.01-0.55,0.07-0.93-0.09c-0.47-0.19-1.13-0.5-1.23-0.88
		c-1.69-6.49-3.34-12.99-4.9-19.5c-0.18-0.77,0.27-1.67,0.33-2.52c0.04-0.63,0.14-1.45-0.2-1.86c-1.02-1.24-1.36-2.66-1.52-4.17
		c-0.72-6.53-1.7-13.04-2.1-19.58c-0.84-13.75-1.45-27.52-1.98-41.29c-0.14-3.63,0.37-7.28,0.53-10.93c0.03-0.63-0.18-1.27-0.28-1.9
		c0.52-1.54,0.44-3-0.8-4.34c-0.37-0.4-0.71-0.84-1.14-1.16c-0.82-0.6-0.88-1.35-0.86-2.32c0.07-2.76,0-5.52-0.08-8.28
		c-0.02-0.74-0.29-1.47-0.44-2.2c-0.22,0.01-0.43,0.03-0.65,0.05c0,3.68,0.02,7.37-0.03,11.05c-0.01,0.45-0.26,1.05-0.6,1.31
		c-2.05,1.59-3.06,3.47-2.09,5.57c-0.26,0.88-0.54,1.35-0.51,1.79c0.17,2.2,0.68,4.41,0.59,6.6c-0.65,16.38-1.29,32.77-2.18,49.14
		c-0.33,6-1.33,11.96-2.06,17.94c-0.09,0.78-0.2,1.51-1.05,2.11c-0.48,0.34-0.44,1.57-0.44,2.39c0,1,0.49,2.07,0.27,2.99
		c-1.43,5.99-3.03,11.94-4.51,17.92c-0.36,1.45-0.98,2.38-2.61,2.2c-0.18,1.53-0.51,2.8-0.4,4.02c0.15,1.67-0.2,3.12-0.98,4.54
		c-0.61,1.13-1.14,2.3-1.72,3.44c-2.33,4.63-4.66,9.26-7.02,13.87c-0.21,0.41-0.53,0.88-0.93,1.07c-1.72,0.82-2.04,1.53-1.45,3.58
		h11.19c-0.98-9.25,7.61-16.57,14.57-17.14c4.76-0.39,9.16,0.55,13.07,3.31c4.85,3.43,7.02,8.22,6.66,14.05H153.94z M118.63,124.61
		c0.59-3.17,1.17-6.29,1.76-9.41c0.39-2.08,0.82-4.16,1.18-6.25c0.14-0.83,0.52-1.16,1.38-1.14c1.48,0.05,2.96-0.06,4.43,0.06
		c0.41,0.03,1.03,0.56,1.11,0.95c0.98,5.23,1.89,10.47,2.83,15.79H118.63z M109.14,124.81h0.02c0.02,0,0.04,0.01,0.06,0.01
		c0-0.03,0.01-0.05,0.01-0.08C109.19,124.77,109.16,124.8,109.14,124.81z M109.14,124.81C109.1,124.82,109.06,124.88,109.14,124.81
		L109.14,124.81z"/>
	<path class="st0" d="M241.29,146.16c0.25,0.26,0.49,0.5,0.71,0.76c3.91,4.54,2.86,10.72-2.38,13.42c-1.43,0.74-3.02,1.28-4.6,1.55
		c-6.53,1.11-12.78-0.21-18.83-2.6c-7.89-3.12-14.08-8.42-19.1-15.28c0.44-0.36,0.82-0.66,1.2-0.97
		c8.66-6.84,12.23-15.71,10.66-26.64c-1.45-10.1-6.84-17.88-14.61-24.09c-9.82-7.86-21.38-11.23-33.69-12.46
		c-1.17-0.12-1.97-0.46-2.71-1.42c-3.75-4.8-7.74-9.38-13.04-12.57c-2.24-1.34-4.62-2.24-7.3-2.03c-2.61,0.21-5.09,2.21-5.51,4.54
		c3.01-2.49,6.01-1.86,9-0.12c3.55,2.06,6.4,4.93,9.1,7.97c0.87,0.98,1.68,1.99,2.59,3.07c-2.5,0.52-4.8,0.83-7,1.47
		c-7.84,2.27-11.06,7.88-10.22,14.83c0.69,5.69,3.77,10.1,8.34,13.47c3.85,2.83,8.31,4.22,12.86,5.46
		c5.83,1.59,11.42,2.2,16.54-2.16c2.64,5.39,5.11,10.83,7.94,16.08c2.82,5.23,6.01,10.27,9.18,15.62c-2.11,0.76-4.33,1.73-6.64,2.34
		c-9.92,2.64-19.18,0.56-27.96-4.29c-2.87-1.59-5.45-3.58-7.17-6.49c-2.81-4.73-1.32-7.9,4.14-8.67c6.06-0.85,10.92,1.58,14.95,5.85
		c0.83,0.87,1.3,2.22,1.6,3.43c0.42,1.68-0.39,2.87-2.02,3.46c-2.1,0.77-3.99,0.41-4.85-0.92c-1.3,1.79-0.96,2.65,1.19,2.89
		c0.93,0.1,1.88,0.1,2.81,0.04c5.47-0.36,7.85-4.76,5-9.43c-4.96-8.13-16.18-10.12-24.02-5.2c-1.9,1.19-2.77,3.01-2.66,5.28
		c0.12,2.35,0.99,4.42,2.32,6.3c2.92,4.12,7.16,6.42,11.69,8.26c11.07,4.51,22.14,5.1,33.16-0.17c0.84-0.4,1.19-0.01,1.74,0.49
		c3.02,2.75,5.87,5.78,9.2,8.09c7.18,5,15.4,7.5,24.01,8.62c5.01,0.65,10.07,0.79,14.97-0.82c4.55-1.5,7.55-4.43,8.08-9.39
		C250.48,148.91,245.66,144.68,241.29,146.16z M169.27,105.9c-3.92-1.79-7.84-1.6-11.79,0.06c0.41,0.05,0.82,0.07,1.22,0.15
		c2.21,0.45,4.45,0.82,6.61,1.44c0.84,0.24,1.63,0.94,2.26,1.6c0.94,1,1.35,2.41,0.63,3.54c-0.49,0.76-1.7,1.38-2.64,1.46
		c-4.88,0.44-9.23-1.21-13.27-3.78c-4.62-2.95-8.59-6.49-10.47-11.86c-1.06-3.02-1.13-6.11-0.46-9.2c0.57-2.6,2.11-4.7,4.5-5.75
		c2.36-1.04,4.94-1.61,7.44-2.29c0.35-0.09,1.02,0.16,1.22,0.47c5.07,7.93,10.11,15.88,15.15,23.83
		C169.53,105.68,169.4,105.79,169.27,105.9z M192.92,137.77c-3.51-6.62-7.05-13.23-10.45-19.91c-5.49-10.77-10.84-21.62-18.14-31.34
		c-1.27-1.69-2.63-3.3-3.95-4.94c13.96,2.25,26.58,6.99,35.73,18.24c5.37,6.6,8.21,14.28,8.11,22.83
		c-0.08,7.44-3.26,13.5-9.25,18.35C194.26,139.88,193.51,138.87,192.92,137.77z"/>
	<path class="st0" d="M110.97,67.28c1.75-0.75,3.54-0.84,5.3,0.04c0.59,0.29,1.15,0.64,1.86,1.03c-1.37-3.15-3.66-4.86-6.77-4.47
		c-2.14,0.27-4.36,0.98-6.24,2.04c-5.44,3.06-9.37,7.81-13.17,12.63c-0.63,0.81-1.29,1.18-2.32,1.27
		c-9.95,0.88-19.48,3.33-28.12,8.47c-10.3,6.13-17.79,14.53-20.2,26.66c-1.71,8.59-0.17,16.53,5.54,23.37
		c1.75,2.1,3.89,3.88,5.98,5.92c-1.1,1.32-2.23,2.82-3.5,4.18c-8.61,9.21-19.11,14.11-31.84,13.79c-3.06-0.07-5.96-0.85-8.47-2.73
		c-3.24-2.42-4.25-6.4-2.49-10.02c0.59-1.21,1.4-2.31,2.1-3.45c-4.94-0.7-8.99,2.84-8.6,7.61c0.3,3.58,2.02,6.35,5.12,8.2
		c2.83,1.69,5.97,2.28,9.2,2.48c8.4,0.51,16.38-1.32,24.14-4.34c6.95-2.7,12.79-6.99,17.71-12.55c0.56-0.63,0.96-1.05,1.95-0.6
		c13.85,6.36,27.03,4.19,39.69-3.36c3.52-2.1,6.09-5.18,7.12-9.29c0.86-3.46-0.11-5.98-3.28-7.58c-5.74-2.9-11.59-3.05-17.3,0.16
		c-3.36,1.89-6.07,4.42-6.95,8.41c-0.48,2.21,0.28,3.98,2.16,5.23c2.11,1.41,4.45,1.55,6.84,1.27c2.05-0.24,2.35-1.08,1.11-2.86
		c-0.26,0.32-0.46,0.73-0.79,0.94c-1.13,0.71-4.09,0.3-5.22-0.67c-1.05-0.9-1.33-2.38-0.58-4.1c0.41-0.93,0.92-1.94,1.67-2.58
		c1.6-1.37,3.28-2.72,5.12-3.71c4.11-2.21,8.43-2.75,12.79-0.64c1.86,0.9,2.49,2.27,2.07,4.27c-0.2,0.95-0.52,1.91-0.98,2.77
		c-2.05,3.84-5.51,6.11-9.26,7.99c-9.78,4.91-19.82,6.1-30.19,2.02c-0.94-0.37-1.83-0.85-2.91-1.35
		c7.58-9.67,12.08-20.79,17.53-31.56c2.62,3.03,6.02,3.63,9.54,3.48c6.16-0.27,11.9-2.19,17.32-5.05c3.62-1.91,6.48-4.68,8.48-8.26
		c1.72-3.07,2.81-6.35,2.37-9.92c-0.77-6.23-4.23-10.09-10.51-11.72c-2.17-0.56-4.39-0.91-6.8-1.4
		C101.26,74.52,105.13,69.79,110.97,67.28z M71.46,110.16c-4.72,9.16-9.49,18.29-14.27,27.43c-0.59,1.13-1.35,2.16-2.16,3.42
		c-6.54-5.31-9.74-12.04-9.23-20.21c0.74-11.84,6.23-21.24,15.67-28.31c8.24-6.17,17.67-9.48,27.74-11.11
		c0.09-0.01,0.19,0.04,0.48,0.1c-1.34,1.67-2.66,3.24-3.9,4.87C80.21,93.8,75.72,101.91,71.46,110.16z M97.34,81.31
		c2.07,0.63,4.22,1.05,6.19,1.91c3.29,1.44,5.04,4.14,5.43,7.72c0.52,4.8-0.57,9.18-3.71,12.86c-5.01,5.87-11.09,9.91-19.06,10.43
		c-0.59,0.04-1.19,0.02-1.78-0.03c-1.1-0.11-2.23-0.27-2.68-1.48c-0.49-1.31-0.2-2.56,0.71-3.6c1.4-1.62,3.36-2.22,5.36-2.59
		c1.53-0.28,3.1-0.39,4.65-0.58c-3.91-1.67-7.83-1.82-12.15,0.16c1.22-2.1,2.16-3.85,3.22-5.53c3.83-6.1,7.71-12.17,11.52-18.29
		C95.63,81.34,96.29,80.99,97.34,81.31z"/>
	<path class="st0" d="M199.38,182.71c-0.75-0.83-0.15-1.86,0.55-2.63c0.2-0.22,0.44-0.4,0.66-0.59c0.68-0.57,1.41-1.09,2.04-1.71
		c0.27-0.27,0.34-0.74,0.5-1.13c-0.45-0.1-1.1-0.44-1.32-0.26c-0.77,0.62-1.4,1.41-2.05,2.17c-0.85,0.98-1.67,1.99-2.5,2.99
		c-0.1-0.09-0.21-0.17-0.31-0.26c0.17-0.35,0.38-0.69,0.51-1.05c0.45-1.25,1.21-2.7-0.12-3.67c-1.34-0.98-2.43,0.29-3.3,1.16
		c-1.75,1.74-3.31,3.67-5.07,5.39c-1.11,1.09-2.36,2.12-3.73,2.85c-1.59,0.85-2.8-0.13-2.47-1.9c0.09-0.46,0.67-0.94,1.14-1.2
		c1.71-0.95,3.53-1.7,5.18-2.73c0.95-0.6,1.47-1.71,0.88-2.85c-0.61-1.19-1.79-1.06-2.88-0.84c-0.52,0.1-1.11,0.24-1.51,0.55
		c-1.59,1.22-3.19,2.46-4.66,3.81c-1.67,1.53-3.18,3.23-4.83,4.78c-0.35,0.33-1.01,0.31-1.53,0.46c0.07-0.55,0-1.19,0.25-1.64
		c0.58-1.03,1.37-1.94,1.97-2.95c0.55-0.92,1.12-1.89,1.37-2.92c0.14-0.58-0.17-1.54-0.63-1.91c-0.36-0.29-1.33-0.12-1.86,0.16
		c-0.81,0.43-1.51,1.09-2.19,1.74c-0.75,0.72-1.42,1.52-2.12,2.29c-0.12-0.65,0.09-1.04,0.17-1.46c0.2-1.01,0.6-2.31-0.56-2.77
		c-0.7-0.27-1.97,0.12-2.61,0.65c-1.47,1.22-2.69,2.74-4.05,4.1c-0.55,0.55-1.12,1.12-1.79,1.51c-0.36,0.21-1.07,0.21-1.37-0.02
		c-0.28-0.22-0.43-0.96-0.27-1.3c0.33-0.73,0.83-1.42,1.39-2.01c0.68-0.71,1.51-1.26,2.22-1.94c0.2-0.19,0.33-0.69,0.22-0.9
		c-0.12-0.22-0.58-0.37-0.87-0.35c-1.28,0.08-1.71,1.1-2.32,2.03c-0.75,1.15-1.71,2.17-2.57,3.24c-0.11-0.09-0.22-0.17-0.33-0.26
		c0.14-0.26,0.28-0.52,0.4-0.79c0.87-1.86,0.95-3.51,0.04-3.98c-1.61-0.84-2.59,0.46-3.55,1.37c-1.32,1.26-2.48,2.68-3.76,3.99
		c-0.84,0.87-1.8,1.56-3.28,1.39c0.52-0.9,0.98-1.59,1.34-2.34c0.75-1.56,0.64-3.19-0.22-4.04c-0.86-0.86-2.41-0.91-4.03-0.12
		c-2.31,1.14-4.05,2.93-5.42,4.72c0.23,0.47,0.45,0.74,0.49,1.04c0.09,0.63,0.01,1.29,0.12,1.91c0.34,2.01,1.68,2.83,3.55,2.01
		c1.06-0.46,1.95-1.31,2.94-1.94c0.43-0.27,0.92-0.62,1.39-0.63c1.68-0.04,2.86-0.87,3.94-2.05c1.3-1.42,2.63-2.81,4.03-4.13
		c0.45-0.42,1.17-0.57,1.76-0.84c0.14,0.17,0.27,0.33,0.41,0.5c-1.93,2.99-3.87,5.97-5.83,9c1.57,0.34,2.57-0.15,3.45-1.31
		c1.11-1.46,2.42-2.77,3.52-4c0.42,0.93,0.66,2.2,1.11,2.29c0.82,0.16,1.81-0.33,2.67-0.69c0.42-0.17,0.69-0.68,1.03-1.03
		c1.27-1.31,2.5-2.66,3.84-3.9c0.47-0.44,1.19-0.61,1.81-0.9c0.15,0.16,0.3,0.33,0.44,0.49c-1.94,3.01-3.88,6.01-5.86,9.07
		c1.61,0.32,2.55-0.21,3.49-1.34c2.05-2.46,4.27-4.78,6.49-7.1c0.48-0.5,1.23-0.74,1.86-1.1c0.12,0.15,0.25,0.3,0.37,0.44
		c-0.55,0.78-1.13,1.54-1.66,2.34c-0.73,1.11-1.56,2.17-2.1,3.37c-0.52,1.17-0.5,2.54,0.62,3.39c1.21,0.92,2.14-0.14,2.97-0.86
		c1.28-1.11,2.47-2.34,3.82-3.63c0.04,0.44,0.06,0.68,0.07,0.93c0.07,1.49,0.39,2.91,1.88,3.61c1.52,0.71,2.96,0.2,4.13-0.8
		c1.43-1.21,2.73-2.56,4.05-3.88c1.36-1.36,2.65-2.79,4.05-4.11c0.43-0.41,1.11-0.55,1.68-0.82c0.17,0.17,0.34,0.35,0.5,0.53
		c-1.95,2.96-3.9,5.93-5.89,8.95c1.99,0.28,2.16,0.2,3.2-1.01c1.31-1.51,2.65-3,3.98-4.5c0.13,1.18-0.3,2.33,1.16,2.73
		c1.14,0.31,2.59-0.6,3.28-2.17c-0.46,0.36-0.76,0.58-1.04,0.8C201.08,182.81,200.16,183.58,199.38,182.71z M187.1,177.24
		c0.42-0.25,1.06-0.14,1.6-0.19c-0.03,0.56,0.12,1.22-0.12,1.65c-1.13,1.98-2.95,3.07-5.48,3.84
		C184.01,180.14,185.18,178.38,187.1,177.24z M143.97,186.02c-1.16,0.42-2.01-0.1-1.69-1.3c0.46-1.72,1.18-3.41,2.07-4.95
		c0.56-0.98,1.5-1.84,2.46-2.46c1.4-0.9,2.51-0.12,2.46,1.56C149.19,181.37,146.4,185.14,143.97,186.02z"/>
	<path class="st0" d="M68.28,173.94c4.33,0.73,6.49-0.43,7.78-4.17c1.02-2.96,0.27-5.58-2.3-7.06c-1.19,1.75-2.47,3.47-3.59,5.3
		c-2.23,3.67-4.23,7.47-6.57,11.07c-1.87,2.89-4.43,5.17-7.6,6.65c-2.21,1.04-4.52,1.46-6.91,0.75c-1.74-0.52-2.69-2.03-2.23-3.46
		c0.3-0.94,0.91-1.62,1.98-1.31c1.02,0.29,1.3,1.08,1.04,2.11c-0.41,1.61,0.08,2.3,1.73,2.42c2.06,0.15,3.91-0.6,5.19-2.08
		c1.96-2.26,3.84-4.64,5.39-7.19c3.17-5.23,5.89-10.76,11.48-14.71c-1.79-0.47-3.16-1.05-4.56-1.16c-6.77-0.54-12.67,1.48-17.4,6.45
		c-1.49,1.56-2.54,3.42-2.58,5.67c-0.04,2.19,1.07,3.42,3.19,3c1.68-0.34,3.39-1.09,4.78-2.09c3.55-2.55,5.77-6.15,7.31-10.52
		c0.14,0.46,0.28,0.68,0.24,0.86c-1.06,5.27-3.38,9.69-8.46,12.13c-0.95,0.46-2.07,0.72-3.13,0.78c-3.62,0.22-5.52-2.32-4.35-5.77
		c1.33-3.92,4.16-6.57,7.72-8.4c5.43-2.79,11.1-3.59,17.07-1.73c0.77,0.24,1.79-0.3,2.85-0.51c-0.45,0.39-0.82,0.72-1.32,1.16
		c2.31,1.69,4.01,3.72,3.76,6.77c-0.16,1.94-1.14,3.44-2.58,4.67C73.75,175.7,69.84,175.87,68.28,173.94z"/>
	<path class="st0" d="M114.12,181.39c-0.73,0.74-1.46,1.48-2.02,2.06c-0.2-1.36-0.43-2.86-0.63-4.37c-0.13-0.97-0.39-1.97,0.82-2.56
		c0.3-0.15,0.46-0.67,0.59-1.05c0.03-0.09-0.36-0.47-0.47-0.44c-0.39,0.12-0.85,0.28-1.11,0.57c-1.62,1.85-3.15,3.79-4.81,5.6
		c-1.39,1.53-2.88,2.98-4.43,4.34c-0.43,0.39-1.22,0.37-1.85,0.53c0.09-0.63,0-1.35,0.29-1.88c0.83-1.51,1.81-2.94,2.72-4.4
		c0.66-1.05,1.3-2.1,2-3.24c-1.74-0.2-2.94,0.23-3.89,1.44c-0.91,1.16-1.92,2.26-2.93,3.33c-0.53,0.57-1.12,1.14-1.8,1.5
		c-0.39,0.2-1.12,0.15-1.48-0.11c-0.26-0.19-0.36-1.03-0.17-1.32c0.58-0.88,1.33-1.66,2.06-2.43c0.68-0.71,1.41-1.37,2.22-2.14
		c-1.76-0.81-2.57-0.38-3.49,1.18c-0.75,1.26-1.73,2.39-2.61,3.57c-0.09-0.07-0.19-0.14-0.28-0.22c0.3-1.02,0.73-2.03,0.84-3.07
		c0.06-0.58-0.25-1.49-0.68-1.75c-0.45-0.27-1.33-0.08-1.89,0.18c-0.65,0.3-1.21,0.86-1.72,1.38c-2.13,2.19-4.21,4.44-6.37,6.61
		c-0.65,0.66-1.52,1.09-2.29,1.62c-0.2-0.16-0.39-0.31-0.58-0.47c1.16-3.38,3.73-6.04,5.28-9.22c-0.09-0.15-0.18-0.29-0.27-0.44
		c-1.09,0.51-2.18,1.01-3.27,1.51c-0.69-1.43-1.69-1.8-3.63-1.11c-2.76,0.97-4.72,2.96-6.3,5.13c0.3,0.69,0.3,1.41,0.53,2.05
		c0.35,0.97,0.65,2.4,1.35,2.68c0.82,0.32,2.1-0.25,3.07-0.69c0.71-0.32,1.23-1.03,1.65-1.4c0.45,0.8,0.78,2.09,1.32,2.18
		c0.86,0.16,2.01-0.28,2.78-0.83c1.15-0.82,2.11-1.93,3.1-2.95c1.59-1.62,3.09-3.33,4.72-4.9c0.5-0.49,1.3-0.67,1.96-0.99
		c0.13,0.18,0.26,0.36,0.4,0.53c-1.93,2.97-3.87,5.95-5.86,9.02c2.25,0.1,2.23,0.08,3.5-1.4c1.2-1.4,2.45-2.77,3.57-4.02
		c0.34,0.91,0.42,1.98,0.97,2.38c0.96,0.7,1.97,0.01,2.78-0.69c0.33-0.28,0.61-0.64,0.91-0.96c0.5-0.54,0.99-1.08,1.48-1.62
		c-0.29,1.07-0.81,1.96-1.22,2.9c-0.5,1.14-0.72,2.36,0.34,3.28c1.13,0.98,2.29,0.44,3.21-0.38c1.4-1.24,2.71-2.59,4-3.95
		c1.37-1.45,2.67-2.97,4.22-4.71c0.28,3.13-0.23,5.66-1.92,7.88c-0.49,0.64-1.08,1.32-2.16,0.8c0.06-0.26,0.14-0.49,0.15-0.72
		c0.01-0.44-0.02-0.89-0.04-1.34c-0.37,0.03-0.95-0.07-1.08,0.12c-0.27,0.39-0.57,1.13-0.38,1.4c0.38,0.55,1.09,1.27,1.63,1.23
		c1.22-0.07,2.59-0.29,3.59-0.94c1.38-0.9,2.47-2.24,3.66-3.41c0.15-0.15,0.17-0.43,0.26-0.65
		C114.35,181.56,114.23,181.48,114.12,181.39z M75.84,185.74c-1.24,0.76-2.05,0.3-1.82-1.06c0.52-3.1,2.05-5.64,4.74-7.33
		c1.36-0.86,2.47-0.34,2.47,1.13c-0.07,0.25-0.14,0.7-0.31,1.1C79.85,182.13,78.24,184.28,75.84,185.74z"/>
	<path class="st0" d="M145.04,160.51c-1.4-0.02-2.88,0.17-4.21,0.62c-6.54,2.24-11.92,6.1-15.7,11.98
		c-0.63,0.97-1.36,1.45-2.45,1.62c-1.13,0.18-2.24,0.51-3.36,0.77c0.03,0.16,0.07,0.31,0.1,0.47c1.5-0.31,3-0.61,4.56-0.93
		c-0.3,1.33-0.66,2.46-0.78,3.62c-0.12,1.16-0.13,2.38,0.05,3.53c0.42,2.6,2.34,4.29,4.93,4.56c4.54,0.48,9.71-3.03,10.93-7.42
		c0.84-3.02-1.2-5.19-4.22-4.43c-0.69,0.17-1.41,0.51-1.97,0.95c-2.6,2.07-3.56,4.86-3.46,8.07c0.14,0.04,0.28,0.09,0.42,0.14
		c0.27-0.81,0.5-1.63,0.8-2.43c0.88-2.31,2.13-4.39,4.44-5.52c2.18-1.06,3.8,0.13,3.54,2.52c-0.04,0.39-0.13,0.79-0.28,1.14
		c-1.59,3.64-4.37,5.79-8.29,6.36c-2.29,0.33-4.08-1.03-4.21-3.33c-0.1-1.74,0.22-3.52,0.44-5.27c0.31-2.46,1.65-3.7,4.16-4.38
		c4.85-1.32,9.63-3.05,13.71-6.12c1.14-0.86,2.13-2.07,2.8-3.33C147.87,162.07,146.9,160.54,145.04,160.51z M145.82,164.69
		c-1.91,1.66-3.93,3.34-6.2,4.4c-3.51,1.64-7.25,2.76-10.9,4.09c-0.17,0.06-0.37,0.03-0.87,0.07c3.7-6.17,8.56-10.34,15.29-12.18
		c0.19-0.05,0.39-0.07,0.58-0.09c1.05-0.11,2.34-0.25,2.68,0.92C146.64,162.73,146.41,164.18,145.82,164.69z"/>
	<path class="st0" d="M109,170.33c-0.85,0.67-1.37,1.17-1.99,1.47c-0.11,0.05-0.99-0.95-0.9-1.1c0.36-0.59,0.91-1.1,1.5-1.48
		C107.73,169.14,108.29,169.75,109,170.33z"/>
</g>
</svg>
