<?xml version="1.0" encoding="utf-8"?>
<!-- Generator: Adobe Illustrator 28.1.0, SVG Export Plug-In . SVG Version: 6.00 Build 0)  -->
<svg version="1.1" id="Layer_1" xmlns="http://www.w3.org/2000/svg" xmlns:xlink="http://www.w3.org/1999/xlink" x="0px" y="0px"
	 viewBox="0 0 250 250" style="enable-background:new 0 0 250 250;" xml:space="preserve">
<style type="text/css">
	.st0{fill:#282828;}
</style>
<g>
	<path class="st0" d="M123.66,49.83c38.31,0,76.62,0.04,114.92-0.07c3.02-0.01,3.79,0.77,3.77,3.77c-0.15,18.05-0.14,36.11,0,54.16
		c0.02,2.81-0.84,3.38-3.49,3.37c-38.64-0.09-77.27-0.02-115.91-0.14c-3.14-0.01-3.74,0.94-3.7,3.83
		c0.16,11.81,0.02,23.63,0.11,35.45c0.02,2.12-0.52,2.74-2.72,2.74c-36.23-0.07-72.46-0.07-108.68,0c-2.31,0.01-2.62-0.82-2.61-2.81
		c0.07-16.63,0.11-33.26-0.03-49.89c-0.02-2.74,0.88-3.15,3.32-3.15c67.86,0.06,135.72,0.03,203.58,0.12c3.17,0,4.26-0.54,4.15-4.01
		c-0.3-8.85-0.21-17.72-0.03-26.58c0.05-2.61-0.68-3.22-3.24-3.22c-49.25,0.08-98.51,0.06-147.76,0.06
		c-19.26,0-38.53-0.04-57.79,0.06c-2.5,0.01-3.57-0.49-3.29-3.2c0.25-2.38,0.25-4.83,0-7.21c-0.3-2.86,0.88-3.42,3.5-3.35
		c6.78,0.18,13.57,0.06,20.36,0.06C59.96,49.83,91.81,49.83,123.66,49.83z"/>
	<path class="st0" d="M184.73,118.76c18.06,0,36.12,0.06,54.18-0.07c2.66-0.02,3.24,0.78,3.2,3.29c-0.15,9.41-0.12,18.82-0.01,28.23
		c0.03,2.14-0.55,2.78-2.72,2.73c-6.89-0.14-13.79-0.13-20.68,0c-2.03,0.04-2.62-0.53-2.56-2.56c0.15-4.92-0.11-9.85,0.11-14.77
		c0.12-2.58-0.79-3.03-3.15-3.03c-27.36,0.08-54.72-0.03-82.08,0.15c-3.49,0.02-4.34-1.02-3.98-4.19c0.25-2.16,0.21-4.39,0-6.55
		c-0.25-2.54,0.52-3.32,3.19-3.3C148.39,118.82,166.56,118.76,184.73,118.76z"/>
	<path class="st0" d="M181.54,187.57c-1.56-6.93-8.63-11.49-17.52-11.29c-8.23,0.18-14.76,5.06-15.99,11.93
		c-1.73,9.64,5.53,17.25,17.37,17.27c0.4-0.03,1.72-0.03,3.02-0.22C177.8,203.87,183.48,196.19,181.54,187.57z M172.7,199.25
		c-4.21,3.08-11.17,3.18-15.45,0.24c-3.7-2.54-5.38-6.66-4.43-10.82c1.18-5.13,5.96-8.43,12.17-8.4c5.74,0.02,10.58,3.32,11.82,8.04
		C177.9,192.45,176.33,196.59,172.7,199.25z"/>
	<path class="st0" d="M116.55,191.82c-0.98-0.68-2.12-1.12-3.53-1.85c2.77-1.85,4.57-4.04,3.67-7.47c-0.93-3.57-3.57-5.01-6.93-5.6
		c-3.16-0.55-6.34-0.14-9.5-0.35c-1.83-0.12-2.46,0.45-2.42,2.35c0.12,5.58-0.03,11.16,0.07,16.74c0.05,3.15-1.41,7.46,0.58,9.11
		c1.89,1.58,6.05,0.47,9.22,0.52c3.22,0.05,6.35-0.31,9.03-2.34C120.68,199.94,120.6,194.62,116.55,191.82z M105.36,180.3
		c4.59,0.34,6.65,1.32,6.65,4.1c0,2.88-2.35,4.21-6.81,4.49c-4.13,0.27-2.17-2.69-2.69-4.19
		C102.74,182.63,101.42,180.01,105.36,180.3z M110.42,201.26c-1.18,0.18-2.39,0.15-3.76,0.23c-1.21-0.5-3.5,0.95-3.91-0.79
		c-0.58-2.46-0.51-5.18,0.07-7.75c0.05-0.2,0.74-0.36,1.14-0.35c2.29,0.07,4.6,0.01,6.85,0.36c2.21,0.34,3.96,1.64,3.89,4.13
		C114.62,199.7,112.81,200.9,110.42,201.26z"/>
	<path class="st0" d="M137.67,191.7c3.81-2.1,5.64-4.85,4.69-8.84c-0.95-3.99-4.02-5.59-7.73-6.01c-2.71-0.31-5.46-0.1-8.18-0.31
		c-1.92-0.15-2.39,0.58-2.37,2.4c0.09,7.88,0.07,15.76,0.02,23.63c-0.01,1.7-0.01,2.82,2.33,2.79c2.27-0.03,2.47-1.02,2.39-2.8
		c-0.1-2.29,0.16-4.61-0.07-6.89c-0.32-3.11,1.3-3.21,3.52-2.58c1.52,0.43,2.74,1.41,3.7,2.62c1.83,2.31,3.74,4.59,5.26,7.09
		c1.78,2.92,4.11,2.78,7.2,2.04C144.52,200.5,142.26,195.36,137.67,191.7z M131.23,189.06c-2.42,0.03-2.42,0.03-2.42-4.74
		c0.91-1.08-1.91-4.23,2.25-4.06c4.45,0.19,6.78,1.58,6.71,4.47C137.69,187.51,135.44,189,131.23,189.06z"/>
	<path class="st0" d="M18.04,191.86c4.32-3.47,5.49-6.04,4.38-9.65c-0.99-3.23-4.63-5.4-9.56-5.6c-2.07-0.09-4.16,0.08-6.23-0.05
		c-1.79-0.11-2.5,0.39-2.48,2.34c0.1,7.98,0.08,15.96,0.01,23.94c-0.02,1.73,0.31,2.49,2.3,2.53c2.17,0.05,2.58-0.8,2.46-2.68
		c-0.13-2.29-0.04-4.59-0.03-6.89c0.01-2.99,0.89-3.62,3.73-2.63c1.37,0.48,2.54,1.34,3.42,2.47c1.62,2.06,3.32,4.07,4.65,6.31
		c1.79,3.04,4.14,4.09,7.87,2.93C24.78,200.58,22.45,195.42,18.04,191.86z M11.26,189.09c-4.23,0.1-1.54-3.13-2.5-4.59
		c0.75-1.56-1.46-4.51,2.58-4.25c4.26,0.28,6.5,1.52,6.56,4.28C17.97,187.45,15.58,189,11.26,189.09z"/>
	<path class="st0" d="M57.42,187.08c0,2.19,0.03,4.37-0.01,6.56c-0.02,1.09-0.05,2.2-0.27,3.26c-1.25,6.03-6.8,9.1-15.35,8.54
		c-6.93-0.46-11.25-4.11-11.54-10.16c-0.26-5.56-0.08-11.15-0.23-16.72c-0.05-1.99,1.01-1.98,2.46-2.02
		c1.57-0.04,2.42,0.24,2.38,2.11c-0.11,5.03-0.1,10.06-0.01,15.09c0.09,5.43,3.1,8.12,8.88,8.12c5.77,0,8.89-2.73,8.99-8.04
		c0.09-4.81,0.05-9.62,0.01-14.43c-0.01-1.62-0.16-2.86,2.26-2.92c2.62-0.06,2.48,1.32,2.45,3.06
		C57.38,182.05,57.42,184.57,57.42,187.08z"/>
	<path class="st0" d="M232.35,177.61c-0.91-1.81-3.5-1.77-4.39,0.07c-4.38,9.03-8.65,18.1-13.1,27.46c2.77,0.16,5.14,0.84,5.89-2.21
		c1.28-5.22,4.53-7.19,9.77-6.14c1.05,0.22,2.21,0.18,3.27,0.01c2.46-0.39,3.93,0.58,4.67,2.9c0.26,0.82,0.85,1.54,1.12,2.37
		c0.99,3.08,3.02,3.94,6.27,2.82C241.35,195.76,236.9,186.66,232.35,177.61z M234.11,192.87c-2.68-0.03-5.37,0.47-8.02-0.28
		c0.59-3.24,2.48-5.91,3.99-9.57c1.78,3.58,3.23,6.49,4.64,9.33C234.4,192.64,234.25,192.87,234.11,192.87z"/>
	<path class="st0" d="M63.65,190.8c0-3.94,0.07-7.87-0.03-11.81c-0.05-1.76,0.36-2.52,2.33-2.46c4.48,0.14,8.97,0.06,13.45,0.03
		c1.3-0.01,2.27-0.01,2.33,1.81c0.07,2-0.98,2.04-2.43,2.01c-2.84-0.06-5.69,0.08-8.53-0.05c-1.76-0.08-2.45,0.32-2.47,2.29
		c-0.08,6.28-0.17,6.28,6.02,6.28c1.64,0,3.28,0.05,4.92-0.02c1.29-0.06,2.04,0.19,2.04,1.74c0,1.51-0.41,2.16-2.04,2.09
		c-2.95-0.11-5.91,0.04-8.86-0.06c-1.55-0.05-2,0.42-2.06,2.01c-0.27,6.72-0.33,6.71,6.22,6.71c1.86,0,3.72,0.07,5.58-0.02
		c1.52-0.08,2.15,0.41,2.11,2.03c-0.03,1.5-0.66,1.83-2,1.82c-4.81-0.05-9.62-0.1-14.43,0.02c-1.82,0.04-2.19-0.68-2.16-2.3
		C63.71,198.89,63.65,194.84,63.65,190.8z"/>
	<path class="st0" d="M213.89,183.21c-4.39-1.86-8.09-3.1-12.13-2.9c-6.63,0.32-11.58,4.71-11.72,10.5
		c-0.14,5.88,4.52,10.32,11.32,10.78c4.26,0.29,8.2-0.85,11.95-2.8c1.08,4.17,0.85,4.6-3.13,5.74c-3.96,1.14-8.01,1.29-12.04,0.69
		c-7.56-1.13-12.93-7.17-12.91-14.26c0.02-7.09,5.48-13.03,13.3-14.37c4.53-0.78,8.91,0.03,13.25,1.35
		C214.6,178.79,213.08,180.93,213.89,183.21z"/>
</g>
</svg>
