<?xml version="1.0" encoding="utf-8"?>
<!-- Generator: Adobe Illustrator 28.1.0, SVG Export Plug-In . SVG Version: 6.00 Build 0)  -->
<svg version="1.1" id="Layer_1" xmlns="http://www.w3.org/2000/svg" xmlns:xlink="http://www.w3.org/1999/xlink" x="0px" y="0px"
	 viewBox="0 0 250 250" style="enable-background:new 0 0 250 250;" xml:space="preserve">
<g>
	<path d="M216.74,121.73c-0.15-6.53-0.92-13.01-1.67-19.46c-0.67-5.74-2.06-11.43-3.46-17.08c-2.57-10.36-6.37-20.24-11.22-29.69
		c-3.64-7.11-8.07-13.76-13.06-20.04c-5.55-6.98-11.95-13.06-19.13-18.31c-8.1-5.92-17.06-10.13-26.76-12.65
		c-6.03-1.57-12.23-2.27-18.47-2.39c-2.74-0.05-5.44,0.48-8.16,0.73c-2.74,0.25-5.41,0.54-8.09,1.18c-1.72,0.41-3.37,1.03-5.08,1.4
		c-3.37,0.74-6.56,2.01-9.64,3.44c-6.96,3.22-13.43,7.3-19.33,12.23C59.45,32.12,49.83,45.87,42.68,61.41
		c-3.51,7.63-6.1,15.58-8.3,23.69c-1.58,5.81-2.71,11.69-3.47,17.62c-0.98,7.65-1.91,15.33-1.55,21.51
		c-0.01,7.06,0.39,12.52,0.95,17.99c1.03,10.1,2.94,20,6.06,29.65c2.1,6.51,4.46,12.93,7.52,19.09c4.15,8.37,8.91,16.36,14.86,23.54
		c7.54,9.12,16.12,17.1,26.53,22.99c7.52,4.26,15.45,7.51,23.94,8.83c7.24,1.13,14.54,1.76,22,0.75c8.41-1.14,16.41-3.15,24.05-6.81
		c7.57-3.63,14.47-8.24,20.69-13.87c8.13-7.38,14.9-15.85,20.63-25.22c3.7-6.07,6.69-12.46,9.4-18.99c1.99-4.78,3.4-9.78,4.85-14.77
		c1.93-6.65,3.5-13.38,4.33-20.2C216.18,138.77,216.94,130.29,216.74,121.73z M212.09,153.16c-1.93,10.09-4.53,20.01-8.56,29.53
		c-2.74,6.48-5.76,12.78-9.47,18.76c-5.46,8.82-11.88,16.84-19.61,23.77c-8.25,7.39-17.59,13-28.05,16.66
		c-9.03,3.16-18.38,3.7-27.87,3.43c-11.46-0.33-21.91-3.85-31.84-9.3c-10.74-5.9-19.55-14.06-27.17-23.52
		c-6.29-7.81-11.25-16.49-15.36-25.65c-4.84-10.79-8.28-22.01-10.26-33.66c-0.89-5.23-1.76-10.46-1.85-15.81
		c-0.08-4.85-0.88-9.66-0.67-14.55c0.63-14.59,2.16-29.04,6.51-43.07c3.34-10.77,7.79-21.07,13.56-30.77
		c6.04-10.15,13.68-19,22.63-26.67c5.83-4.99,12.35-9.04,19.4-12.09c3.04-1.31,6.33-2.16,9.47-3.24c6.77-2.33,13.68-2.79,20.68-2.75
		c4.67,0.03,9.3,0.28,13.93,1.37c7.44,1.75,14.55,4.21,21.24,7.9c10.3,5.67,18.91,13.3,26.35,22.35
		c5.32,6.47,9.91,13.43,13.66,20.87c3.49,6.92,6.49,14.06,8.66,21.55c1.85,6.36,3.56,12.74,4.76,19.24
		c1.65,8.97,2.09,18.04,2.09,28.93C214.47,134.24,213.88,143.77,212.09,153.16z"/>
	<path d="M209.68,100.66c-2.1-14.73-6.41-28.85-13.05-42.21c-4.29-8.64-9.41-16.74-15.75-24.01c-7.81-8.95-16.85-16.39-27.65-21.53
		c-5.59-2.66-11.41-4.71-17.51-5.74c-7.75-1.31-15.5-1.75-23.36-0.29c-5.13,0.95-10.14,2.04-14.98,4.01
		c-7.58,3.06-14.47,7.22-20.81,12.37c-8.71,7.07-15.69,15.59-21.61,25.05c-4.56,7.29-8.11,15.05-11.21,23.05
		c-3.42,8.83-5.61,17.97-7.26,27.25c-1.55,8.68-2.14,17.47-2.09,24.4c-0.04,11.69,0.79,21.41,2.67,31.03
		c1.9,9.72,4.48,19.22,8.25,28.4c5.98,14.59,14.06,27.8,25.34,38.93c12.2,12.03,26.64,19.74,43.69,22.05
		c9.73,1.32,19.42,0.49,28.79-2.52c5.86-1.88,11.5-4.34,16.8-7.6c11.02-6.78,19.9-15.76,27.33-26.24
		c5.13-7.23,9.38-14.97,12.79-23.19c3.02-7.29,5.53-14.74,7.3-22.42c1.58-6.85,2.51-13.8,3.32-20.8
		C212.2,127.25,211.57,113.92,209.68,100.66z M199.39,167.79c-3.82,13.63-9.43,26.44-17.48,38.13
		c-6.45,9.36-14.15,17.49-23.69,23.77c-6.39,4.21-13.28,7.22-20.74,9.12c-8.43,2.14-16.9,2.26-25.34,0.84
		c-8.63-1.45-16.64-4.79-23.97-9.66c-14.34-9.51-24.58-22.52-32.22-37.74c-4.42-8.81-7.88-17.97-10.29-27.53
		c-2.57-10.17-4.22-20.47-4.74-30.95c-0.57-11.62,0-23.17,1.83-34.68c0.8-5.09,1.85-10.13,3.18-15.07
		c3.04-11.27,7.23-22.11,13.12-32.25c6.44-11.09,14.32-20.9,24.55-28.72c14.94-11.41,31.71-15.85,50.3-12.82
		c7.56,1.24,14.61,4.04,21.19,7.98c10.93,6.55,19.64,15.38,26.85,25.81c6.45,9.32,11.29,19.41,14.99,30.09
		c3.25,9.37,5.34,18.98,6.75,28.79c1.19,8.3,1.37,16.62,1.42,21.1C204.97,141.42,203.05,154.73,199.39,167.79z"/>
	<path d="M177.18,206.31c-0.37,0.29-0.92-0.02-1.25-0.27c-2.42-1.84-4.83-1.5-7.38-0.21c-5.48,2.77-14.7,0.44-18-4.67
		c-2.1-3.25-2.16-7.05-1.96-10.79c0.28-5.17,1.79-10.1,3.21-15.04c2.1-7.32,3.46-14.68,1.75-22.3c-0.92-4.09-2.52-7.94-4.27-11.71
		c-1.63-3.5-3.16-7.05-4.94-10.49c-0.96-1.85-1.22-4.06-1.79-6.11c-1.06-1.88-0.05-4.53-2.24-6.01c0.34,1.43-0.19,2.93,0.44,4.31
		c2.5,13.37,1,26.87,1.28,40.31c0.2,9.72,0.49,19.43,1.39,29.1c0.37,3.99,0.65,8.14,3.13,11.61c0.33,0.46,0.39,0.97,0.04,1.43
		c-0.43,0.58-0.93,0.16-1.38-0.01c-6.82-2.62-13.59-2.54-20.34,0.3c-0.39,0.16-0.87,0.57-1.27,0.23c-0.46-0.38-0.07-0.89,0.17-1.22
		c3.46-4.72,3.47-10.34,3.91-15.75c1.47-18.03,0.91-36.11,0.94-54.17c0.04-19.9,0.21-39.79-0.27-59.68
		c-0.19-7.65-0.63-15.3-2.4-22.8c-0.32-1.37-1.18-2.41-1.72-3.63c0.73-0.91,1.62-0.47,2.49-0.32c0.68,0.12,1.31,0.78,2.07,0.23
		c0.33,0.08,0.66,0.16,0.98,0.24c0.71,0.69,1.5,0.99,2.44,0.49c2.18,0.05,4.37,0.35,6.55,0.01c1.06,0.45,1.94,0.04,2.77-0.59
		c1.3-0.44,2.61-0.89,3.91-1.33c0.87,0.2,0.76,0.95,0.9,1.57c-0.18,0.3-0.36,0.61-0.54,0.91c-0.62,0.3-1.05,0.71-0.84,1.48
		c-2.29,10.56-2.49,21.31-2.84,32.04c-0.11,3.49-0.03,6.98-0.04,10.46c-0.03,7.58,0.89,15.05,2.86,22.37
		c0.73,2.7,1.84,5.29,3.7,7.46c2.23,2.62,5.21,2.06,6.38-1.2c0.7-1.96,0.86-4.01,0.77-6.09c-0.25-5.74-1.47-11.32-2.86-16.87
		c-2.51-9.99-4.72-20.02-4.26-30.43c0.25-5.64,1.03-11.14,3.67-16.23c0.8-1.54,1.87-2.86,3.14-4.03c0.48,0.05,0.76-0.13,0.76-0.65
		c0.19-0.14,0.37-0.28,0.56-0.42c1.89-0.59,3.78-1.19,5.66-1.78h1.97c2.3,1.24,4.95,1.08,7.38,1.77c2.06,1.03,3.57,2.59,4.54,4.67
		c-0.37,0.98,0.04,1.9,0.22,2.83c0.25,1.31-0.01,2.55-0.4,3.79c-0.48-1-0.76-1.98-0.78-3.04c-0.02-1.08-0.42-2.01-1.38-2.62
		c-0.12-0.24-0.23-0.48-0.35-0.71c0.44-0.59,0.04-0.62-0.41-0.61c-0.45-0.34-0.9-0.7-1.36-1.03c-3.09-2.24-6.72-1.41-8.5,1.95
		c-0.69,0.4-1.01,0.94-0.62,1.73c-0.04,0.22-0.09,0.44-0.14,0.65c-0.49,0.14-0.62,0.37-0.17,0.73c-0.06,0.56-0.12,1.12-0.19,1.67
		c-0.86,1.24-0.57,2.52-0.18,3.82c0,1.37,0,2.74,0.01,4.1c-0.48,1.84-0.55,3.68,0.06,5.52c0.38,1.92,0.05,3.88,0.27,5.81
		c-0.31,0.23-0.27,0.57,0.05,0.6c1.35,0.1,1.02,1.01,0.95,1.81c-0.94,0.63-0.72,1.6-0.68,2.49c0.39,9.23,1.03,18.45,0.33,27.69
		c-0.38,4.96-0.94,9.9-3.77,14.22c-2.01,3.06-4.88,4.33-8.48,4.05c-2.16-0.17-3.36-1.91-4.9-3.07c0.1-0.7-0.17-1.26-0.67-1.72
		c-0.03-0.03-0.32,0.13-0.36,0.24c-0.2,0.62-0.06,1.21,0.29,1.74c0.11,0.17,0.31,0.28,0.47,0.41c1.93,3.76,4.67,6.89,7.61,9.87
		c0.44,0.44,0.85,0.91,1.27,1.36c0.1,0.84,0.57,1.3,1.42,1.37c1.25,1.02,2.42,2.11,3.4,3.41c-0.02,0.67,0.33,1.02,0.98,1.11
		c0.44,0.37,0.85,0.77,1.07,1.31c-0.05,0.44,0.12,0.72,0.58,0.76c0.15,0.2,0.31,0.39,0.47,0.58c-0.07,0.47,0.1,0.76,0.6,0.78
		c0.1,0.04,0.13,0.11,0.11,0.21c0.59,2.38,1.88,4.47,2.86,6.68c0.04,0.22,0.09,0.44,0.13,0.65c-0.7,0.83-0.04,1.67,0.13,2.4
		c0.5,2.16-0.12,4.38,0.52,6.5c-0.02,0.22-0.04,0.44-0.06,0.66c-1.51,0.63-0.55,1.57-0.31,2.42c-0.03,0.22-0.06,0.44-0.09,0.66
		c-0.56,0.27-0.63,0.62-0.19,1.07c-0.1,0.68-0.19,1.37-0.29,2.05c-0.33,0.21-0.34,0.44-0.04,0.7c-0.08,0.44-0.16,0.88-0.24,1.32
		c-0.88,1.14-1.32,2.37-0.87,3.81c-0.03,0.22-0.06,0.44-0.09,0.66c-0.56,0.26-0.6,0.62-0.21,1.07c-0.05,0.22-0.11,0.43-0.17,0.65
		c-0.4,0.11-0.46,0.46-0.54,0.79c-1.01,4.31-2.07,8.61-2.96,12.95c-0.18,0.86-0.77,1.83-0.11,2.77c-0.04,0.45-0.09,0.89-0.14,1.34
		c-0.78,1.14-0.59,2.31-0.1,3.49c0.08,1.03,0.17,2.05,0.25,3.08c-0.41,0.31-0.21,0.53,0.1,0.73c0.12,0.28,0.24,0.56,0.36,0.84
		c-0.08,0.74,0.24,1.13,1,1.13c0.11-0.01,0.19,0.03,0.25,0.12c0.02,0.33,0.17,0.59,0.5,0.65c0.05,0.01,0.17-0.32,0.25-0.5
		c0.72-0.13,1.18-0.57,1.49-1.21c1.8-2.22,2.23-4.84,2.26-7.59c0.08-0.45,0.16-0.91,0.25-1.36c0.34-0.19,0.42-0.42,0.09-0.7
		c0.07-0.44,0.13-0.89,0.19-1.32c1.04-1.85,1.42-3.79,0.87-5.88c0.05-0.33,0.11-0.66,0.16-0.99c0.58-0.41,0.59-0.89,0.16-1.42
		c0.04-0.45,0.09-0.89,0.13-1.34c1.11-2.9,1.41-5.89,0.92-8.95c0.06-0.68,0.12-1.37,0.18-2.05c0.71-0.61,0.53-1.54,0.55-2.23
		c0.06-2.35,0.92-4.67,0.33-7.04c-0.08-0.81,0-1.62,0.2-2.41c0.54-0.55,0.49-1.13,0.09-1.72c0.09-1.49,0.18-2.98,0.27-4.47
		c0.54-0.66,0.53-1.35,0.08-2.06c0.02-0.34,0.03-0.67,0.05-1.01c0.53-0.08,0.61-0.47,0.58-0.88c-0.18-2.69,0.88-5.27,0.72-7.96
		c-0.02-0.39-0.18-1.06,0.55-0.99c0.54,0.05,0.36,0.61,0.41,0.98c0.18,1.44-0.31,2.94,0.32,4.35c-0.1,6.64-0.2,13.28-0.3,19.92
		c-0.34,0.22-0.37,0.44-0.02,0.68c0.04,7.26-0.24,14.52,0.36,21.77c0.45,5.41,1.08,10.8,3,15.94
		C177.22,205.46,177.61,205.97,177.18,206.31z"/>
	<path d="M119.21,58.05c-2.2,16.26-1.21,32.59-1.04,48.9c0.01,1.37,0.02,2.74,0.02,4.1c-0.63,1.2-0.5,2.48-0.41,3.75
		c0.08,1.08-0.01,2.09-0.88,2.91c-0.84-1.75-0.2-3.85-1.62-5.33c-0.07-0.67-0.14-1.34-0.21-2.01c0.36-0.96,0.67-1.92-0.25-2.77
		c-0.03-0.45-0.06-0.9-0.09-1.35c0.35-0.74,0.6-1.48-0.23-2.09c-0.03-0.22-0.05-0.44-0.08-0.67c0.45-0.51,0.38-0.97-0.15-1.38
		c-0.08-0.57-0.15-1.14-0.22-1.7c0.44-0.38,0.34-0.72-0.09-1.04c-0.21-1.94-0.42-3.88-0.62-5.82c0.43-0.43,0.42-0.79-0.15-1.07
		c-0.03-0.22-0.07-0.44-0.1-0.66c0.39-0.55,0.4-1.03-0.25-1.39c-0.05-0.45-0.11-0.89-0.16-1.34c0.33-0.26,0.25-0.48-0.05-0.69
		c-0.21-1.72-0.42-3.44-0.62-5.15c0.43-0.38,0.34-0.72-0.09-1.03c-0.08-0.46-0.16-0.92-0.24-1.38c0.45-0.46,0.34-0.8-0.21-1.06
		c-0.86-6.45-1.85-12.87-2.96-19.28c-0.41-2.37-0.89-4.71-1.57-7.01c-0.56-1.92-1.6-3.52-3.2-4.74c-0.46-0.47-0.92-0.81-1.44-0.08
		c-1.9,1.56-2.12,3.74-2.2,5.97c-0.02,0.62-0.09,1.23-0.14,1.85c-0.58,3.09-0.52,6.17-0.03,9.26c-0.01,5.49-0.01,10.99-0.01,16.48
		c-0.49,2.74-0.48,5.48,0,8.22c0,0.92,0,1.84,0,2.76c-0.48,0.47-0.28,1.08-0.28,1.63c-0.02,2.23-0.01,4.45-0.01,6.68
		c0.01,21.76,0.01,43.51,0.03,65.27c0,0.65-0.27,1.39,0.38,1.93c0.07,3.09,0.13,6.18,0.2,9.27c-0.41,0.82-0.44,1.62,0.1,2.39
		c0.08,1.38,0.16,2.75,0.24,4.13c-0.65,2.52,0.09,4.99,0.3,7.47c0.07,0.82-0.29,1.84,0.57,2.52c0.04,0.22,0.08,0.44,0.12,0.67
		c-0.34,0.63-0.41,1.23,0.22,1.74c0.04,0.22,0.09,0.44,0.13,0.66c-0.31,1.65,0.5,3.05,0.96,4.54c0.24,0.79,1.33,1.51,0.72,2.32
		c-0.69,0.91-1.52-0.25-2.32-0.25c-0.09,0-0.18,0.11-0.27,0.17c-1.95-0.32-3.9-0.65-5.84-0.97c-0.33-0.38-0.67-0.44-1.03-0.03
		c-4.3,0.09-8.52,0.6-12.43,2.73c-0.4-0.84-0.02-1.37,0.29-1.75c2.26-2.69,2.74-6,3.15-9.27c1.42-11.42,1.51-22.91,1.52-34.4
		c0.05-33.95,0.08-67.9,0.07-101.84c0-2.66,0.2-5.37-0.55-7.99c-0.25-0.89-0.66-1.67-1.64-1.95c-0.12-0.2-0.24-0.4-0.36-0.6
		c-0.5,0.11-1.22-0.26-1.4,0.61c-2.25,1.38-2.77,3.79-3.32,6.04c-1.47,6.04-2.37,12.19-3.17,18.35c-1.01,7.8-2.05,15.59-3.08,23.38
		c-0.33,0.19-0.46,0.41-0.08,0.68c-0.03,0.22-0.05,0.44-0.08,0.66c-0.85,0.7-0.66,1.55-0.33,2.41c-0.07,0.7-0.13,1.39-0.2,2.08
		c-0.34,0.21-0.36,0.44-0.04,0.69c-0.1,1.03-0.2,2.06-0.3,3.09c-0.34,0.2-0.4,0.43-0.05,0.68c-0.04,0.56-0.08,1.12-0.12,1.68
		c-1.04,2.56-1.27,5.21-0.91,7.93c-0.08,0.91-0.16,1.83-0.24,2.74c-0.36,0.18-0.33,0.55-0.44,0.86c-0.76,2.22-0.25,4.69-1.31,6.95
		c-0.78-0.64-0.42-1.68-0.99-2.3c0.01-0.45,0.02-0.91,0.03-1.36c0.9-0.45,0.86-0.93,0.05-1.43c0.06-1.93,0.12-3.86,0.18-5.79
		c0.54-0.78,0.55-1.58,0.09-2.4c0-0.22,0.01-0.45,0.02-0.67c0.26,0.01,0.45-0.1,0.46-0.36c0.01-0.25-0.15-0.39-0.42-0.39
		c0.01-0.2,0.02-0.41,0.02-0.61c0.6-0.24,0.62-0.49,0.02-0.77c0.01-0.2,0.01-0.4,0.02-0.6c0.81-2.51,0.67-5.05,0.22-7.59
		c0.07-2.4,0.14-4.8,0.2-7.2c0.48-0.3,0.39-0.79,0.38-1.24c-0.02-7.37-0.04-14.73-0.05-22.1c0-0.41-0.13-0.66-0.54-0.72
		c-0.02-0.57-0.03-1.14-0.04-1.7c0.3-1.63,0.76-3.27-0.31-4.82c-0.02-0.34-0.03-0.68-0.05-1.02c0.37-0.27,0.26-0.51-0.05-0.73
		c-0.26-1-0.3-2.02-0.28-3.04c0.41-0.51,0.38-0.98-0.11-1.42c-0.05-0.22-0.11-0.44-0.16-0.66c0.48-0.83,0.07-1.46-0.48-2.05
		c-0.1-0.57-0.19-1.14-0.28-1.71c0.38-0.29,0.22-0.52-0.09-0.73c-0.17-0.77-0.33-1.53-0.5-2.3c0.65-0.27,0.22-0.54,0.03-0.88
		c-0.59-1.07-0.45-1.92,0.88-2.27c0.33,0.15,0.67,0.3,1,0.45c0.93,1.18,1.98,1.32,3.15,0.36c0.22-0.03,0.44-0.06,0.66-0.09
		c0.3,0.35,0.51,0.23,0.69-0.12c0.95-0.17,1.91-0.34,2.86-0.51c0.4,0.24,0.73,0.19,0.94-0.26c0.27-0.1,0.55-0.2,0.83-0.29
		c0.49,0.16,0.95,0.2,1.23-0.37c0.44-0.06,0.89-0.12,1.33-0.18c0.51,0.39,0.99,0.43,1.41-0.12c1.11-0.32,2.22-0.35,3.34-0.04
		c1.07,0.65,2.13,1.33,3.48,1.18c0.33,0.08,0.65,0.15,0.98,0.22c0.62,0.51,1.26,0.92,2.1,0.48c0.44,0.07,0.89,0.13,1.33,0.19
		c0.74,0.6,1.46,0.72,2.15-0.07c1.18-0.22,2.37-0.43,3.56-0.65c0.78,0.03,1.54,0.04,1.9-0.86c1.76-0.92,3.6-0.86,5.47-0.42
		c0.2,0.34,0.43,0.4,0.69,0.08c0.57-0.02,1.14-0.02,1.66,0.25c0.18,0.36,0.4,0.55,0.73,0.14c0.22,0.07,0.43,0.14,0.65,0.21
		c0.24,0.38,0.55,0.48,0.94,0.2c0.6,0.15,1.2,0.31,1.8,0.46c0.17,0.35,0.37,0.57,0.72,0.18c0.79,0.16,1.58,0.32,2.36,0.48
		c0.46,0.63,0.94,0.59,1.44,0.04c0.17-0.02,0.34-0.04,0.51-0.05c0.38,0.21,0.68,0.1,0.9-0.26c0.28-0.13,0.57-0.25,0.85-0.38
		c0.71,0.22,1.51,0.25,1.99,0.94C120.28,52.3,119.6,55.14,119.21,58.05z"/>
	<path d="M176.36,52.51c-0.37,0.98,0.04,1.9,0.22,2.83c0.25,1.31-0.01,2.55-0.4,3.79c-0.48-1-0.76-1.98-0.78-3.04
		c-0.02-1.08-0.42-2.01-1.38-2.62c3.37,9.38-3,18.65-9.62,23.15c-0.58,0.39-1.23,0.6-1.94,0.48c-0.31,0.23-0.27,0.57,0.05,0.6
		c1.35,0.1,1.02,1.01,0.95,1.81c0.43-0.14,0.91-0.19,1.27-0.43c7.34-4.72,12.17-11.09,13.07-20
		C178.02,56.76,177.5,54.55,176.36,52.51z M175.99,60.15l-0.08-0.06l0.09-0.03L175.99,60.15z"/>
	<path d="M118.66,137.33c-1.12,0.14-1.44-1-1.53-1.92c-0.67-7.56-1.3-15.13-1.94-22.7c-0.01-0.1,0.07-0.21,0.1-0.32
		c1.42,1.48,0.78,3.58,1.62,5.33c0.87-0.83,0.95-1.83,0.88-2.91c-0.09-1.27-0.22-2.56,0.41-3.75c0.57,2.57,0.42,5.21,0.58,7.8
		c0.35,5.47,0.44,10.96,0.59,16.43C119.39,136.04,119.65,137.21,118.66,137.33z"/>
	<path d="M100.18,167.57c0,0.39-0.1,0.78-0.15,1.17c-0.65-0.54-0.38-1.28-0.38-1.93c-0.02-21.76-0.03-43.51-0.03-65.27
		c0-2.23-0.01-4.45,0.01-6.68c0-0.55-0.2-1.15,0.28-1.63c0.04,5.76,0.11,11.52,0.13,17.28C100.1,129.54,100.15,148.56,100.18,167.57
		z"/>
	<path d="M175.17,131.77c-0.05,1.31-0.21,2.62-0.31,3.92c-0.28,3.69-0.55,7.38-0.83,11.07c-0.63-1.41-0.14-2.9-0.32-4.35
		c-0.05-0.37,0.13-0.93-0.41-0.98c-0.72-0.07-0.57,0.6-0.55,0.99c0.15,2.69-0.9,5.27-0.72,7.96c0.03,0.42-0.06,0.81-0.58,0.88
		c-0.03-0.45-0.12-0.91-0.07-1.35c0.74-5.78,1-11.6,1.28-17.41c0.02-0.34,0.12-0.67,0.18-1.01c0.15-0.91,0.83-0.99,1.55-0.97
		C175.25,130.53,175.19,131.23,175.17,131.77z"/>
	<path d="M70.34,127.08c-0.42,2.82-0.55,5.66-0.66,8.5c-0.03,0.78-0.04,1.7-1.24,1.63c-1.13-0.06-1.21-0.86-1.15-1.71
		c0.26-3.57,0.54-7.13,0.82-10.7c0.58,0.62,0.21,1.66,0.99,2.3c1.06-2.26,0.55-4.73,1.31-6.95c0.11-0.32,0.08-0.69,0.44-0.86
		C71.1,121.92,70.72,124.51,70.34,127.08z"/>
	<path d="M69,95.65c-0.47-2.54-0.1-5.1-0.15-7.65c-0.09-5.47-0.05-10.94-0.06-16.41c0.41,0.07,0.54,0.32,0.54,0.72
		c0.01,7.37,0.04,14.73,0.05,22.1C69.38,94.86,69.47,95.34,69,95.65z"/>
	<path d="M51.97,160.33c-0.03,1.07-0.85,1.52-1.81,1.74c-1.02-0.23-1.7-0.87-1.72-1.86c-0.03-1.04,0.72-1.79,1.71-1.74
		C51.15,158.51,52.01,159.19,51.97,160.33z"/>
	<path d="M89.59,224.54c-0.1,1.13-1.14,1.49-2.03,1.37c-0.84-0.11-1.52-0.8-1.37-1.85c0.15-1.05,0.71-1.64,1.88-1.46
		C89.22,222.72,89.67,223.55,89.59,224.54z"/>
	<path d="M74.28,212.94c-1.15,0.09-1.79-0.77-1.86-1.8c-0.06-1,0.8-1.4,1.71-1.68c0.83,0.27,1.83,0.5,1.91,1.59
		C76.12,212.17,75.31,212.86,74.28,212.94z"/>
	<path d="M167.15,218.11c-0.21,1.01-0.81,1.62-1.88,1.52c-1.07-0.11-1.68-0.9-1.55-1.88c0.13-0.92,0.82-1.67,1.91-1.51
		C166.63,216.39,167.33,216.92,167.15,218.11z"/>
	<path d="M188.46,186.88c-0.11,1.14-0.7,1.82-1.74,1.79c-1.02-0.02-1.77-0.78-1.73-1.74c0.04-0.86,0.55-1.81,1.66-1.81
		C187.78,185.12,188.39,185.81,188.46,186.88z"/>
	<path d="M197.53,159.95c-0.03,1.1-0.79,1.53-1.42,1.62c-1.41-0.1-2.12-0.52-2.1-1.68c0.02-1.16,0.79-1.62,1.78-1.61
		C196.8,158.3,197.56,158.83,197.53,159.95z"/>
	<path d="M164.27,177.6c-0.69,4.68-2.15,9.21-2.98,13.87c-0.16,0.89-0.42,1.76-0.63,2.64c-0.66-0.94-0.06-1.92,0.11-2.77
		c0.89-4.33,1.95-8.64,2.96-12.95C163.81,178.06,163.87,177.71,164.27,177.6z"/>
	<path d="M60.79,187.15c0,1.3-0.46,1.87-1.57,1.78c-1.18-0.1-1.76-0.75-1.73-1.91c0.04-1.17,0.88-1.59,1.86-1.57
		C60.57,185.47,60.67,186.48,60.79,187.15z"/>
	<path d="M199.32,150.28c0.01,1.64-0.73,2.11-1.75,2.09c-1.01-0.02-1.63-0.77-1.56-1.68c0.07-0.87,0.44-1.86,1.67-1.77
		C198.76,149.01,199.26,149.69,199.32,150.28z"/>
	<path d="M184.18,195.36c-0.08,0.99-0.47,1.77-1.52,1.69c-1.31-0.07-1.98-0.67-1.95-1.83c0.03-1.14,1.02-1.34,1.83-1.36
		C183.4,193.85,184.28,194.21,184.18,195.36z"/>
	<path d="M101.69,18.31c-0.08,1.36-0.66,2.08-1.8,2.05c-1.18-0.03-1.43-1.01-1.41-1.94c0.01-0.86,0.25-1.8,1.4-1.72
		C100.95,16.78,101.65,17.37,101.69,18.31z"/>
	<path d="M105.4,206.08c-0.35,0.31-0.86,0.1-1.27-0.11c-1.04-0.54-2.08-1.07-3.13-1.61c0.09-0.06,0.18-0.17,0.27-0.17
		c0.8,0,1.64,1.16,2.32,0.25c0.61-0.81-0.48-1.53-0.72-2.32c-0.46-1.49-1.28-2.89-0.96-4.54c0.79,2.53,1.38,5.13,3.26,7.17
		C105.47,205.07,105.93,205.62,105.4,206.08z"/>
	<path d="M48.08,122.65c0,1.14-0.97,1.38-1.86,1.65c-0.84-0.38-1.77-0.72-1.61-1.87c0.13-0.88,0.61-1.71,1.62-1.62
		C47.24,120.9,48.08,121.51,48.08,122.65z"/>
	<path d="M200.52,141.32c-0.09,1.08-0.82,1.71-1.76,1.68c-0.97-0.03-1.64-0.89-1.59-1.84c0.05-0.8,0.44-1.71,1.55-1.67
		C199.89,139.51,200.45,140.18,200.52,141.32z"/>
	<path d="M173.54,211.01c0.04,1.04-0.55,1.61-1.53,1.63c-1.04,0.03-1.77-0.59-1.87-1.59c-0.09-1.01,0.51-1.69,1.59-1.9
		C172.75,209.35,173.49,209.86,173.54,211.01z"/>
	<path d="M72.79,42.49c-0.2,0.82-0.48,1.74-1.4,1.69c-0.87-0.05-1.79-0.51-1.82-1.66c-0.03-1.07,0.55-1.79,1.59-1.86
		C72.4,40.56,72.46,41.68,72.79,42.49z"/>
	<path d="M54.2,169.49c-0.05,0.94-0.59,1.62-1.64,1.53c-1-0.08-1.75-0.51-1.72-1.69c0.03-1.14,0.69-1.6,1.84-1.61
		C53.73,167.77,54.25,168.46,54.2,169.49z"/>
	<path d="M93.47,22.93c-0.06,1.02-0.56,1.74-1.75,1.65c-1.06-0.07-1.71-0.59-1.71-1.7c0.01-1.12,0.79-1.5,1.73-1.41
		C92.58,21.55,93.55,21.77,93.47,22.93z"/>
	<path d="M48.61,141.25c-0.04,1.27-0.31,2.02-1.46,2.04c-1.17,0.01-1.64-0.68-1.69-1.72c-0.05-1.05,0.52-1.6,1.57-1.6
		C48.07,139.97,48.56,140.56,48.61,141.25z"/>
	<path d="M110.51,15.43c0.06,1.12-0.62,1.54-1.6,1.49c-0.96-0.05-1.81-0.35-1.75-1.6c0.05-1.12,0.66-1.62,1.68-1.66
		C110.06,13.68,110.46,14.4,110.51,15.43z"/>
	<path d="M52.87,85c0.05,0.99-0.51,1.65-1.52,1.62c-0.89-0.03-1.89-0.12-1.86-1.45c0.05-1.15,0.7-1.73,1.82-1.78
		C52.38,83.35,52.82,84.08,52.87,85z"/>
	<path d="M48.18,132.2c-0.1,0.97-0.81,1.49-1.79,1.57c-1.11,0.09-1.51-0.84-1.56-1.66c-0.05-0.84,0.32-1.77,1.42-1.75
		C47.31,130.37,48.1,130.87,48.18,132.2z"/>
	<path d="M49.28,103.25c0.04,1.37-0.56,2.04-1.59,2.04c-0.93,0-1.57-0.64-1.6-1.64c-0.03-0.94,0.27-1.73,1.41-1.67
		C48.44,102.03,49.36,102.21,49.28,103.25z"/>
	<path d="M57.31,178.66c-0.1,1.12-0.93,1.35-1.84,1.31c-1.06-0.05-1.51-0.68-1.39-1.48c0.08-1.29,0.6-1.78,1.69-1.65
		C56.85,176.97,57.41,177.55,57.31,178.66z"/>
	<path d="M176.31,42.3c-0.11,0.95-0.78,1.47-1.6,1.38c-0.8-0.08-1.98-0.09-1.92-1.39c0.05-1.09,0.74-1.77,1.87-1.79
		C175.84,40.46,176.1,41.36,176.31,42.3z"/>
	<path d="M195.02,169.26c0.07,1.05-0.65,1.32-1.5,1.38c-0.86-0.19-1.84-0.23-1.8-1.41c0.03-1,0.5-1.78,1.64-1.76
		C194.45,167.51,194.95,168.25,195.02,169.26z"/>
	<path d="M62.86,58.55c0.02,1.09-0.7,1.61-1.6,1.61c-1.09,0-1.61-0.84-1.54-1.85c0.07-0.88,0.45-1.69,1.58-1.61
		S62.85,57.51,62.86,58.55z"/>
	<path d="M49.87,150.81c-0.01,1.07-0.32,1.84-1.29,1.84c-1.07,0-1.84-0.62-1.89-1.76c-0.05-1.15,0.76-1.58,1.76-1.63
		C49.63,149.21,49.71,150.15,49.87,150.81z"/>
	<path d="M192.05,77.44c-0.87-0.25-1.93-0.41-1.9-1.58c0.02-0.94,0.51-1.82,1.65-1.84c1.01-0.02,1.61,0.66,1.71,1.58
		C193.61,76.58,193.02,77.18,192.05,77.44z"/>
	<path d="M186.17,58.17c0.05,1.18-0.66,1.58-1.7,1.66c-1.21,0.09-1.43-0.72-1.43-1.63c0-0.91,0.17-1.72,1.41-1.64
		C185.49,56.62,186.21,56.97,186.17,58.17z"/>
	<path d="M170.17,34.9c0.02,1.19-0.7,1.61-1.82,1.69c-1.27,0.09-1.33-0.77-1.36-1.65c-0.04-1.06,0.5-1.6,1.53-1.54
		C169.41,33.45,170.26,33.65,170.17,34.9z"/>
	<path d="M78.95,35.09c-0.08,1.05-0.59,1.66-1.71,1.65c-1.07-0.01-1.5-0.61-1.49-1.62c0-1.06,0.54-1.59,1.58-1.51
		C78.2,33.68,79.07,33.86,78.95,35.09z"/>
	<path d="M50.86,94.49c-0.01,1.14-0.78,1.23-1.62,1.24c-1.03,0-1.82-0.37-1.73-1.56c0.07-0.96,0.57-1.58,1.5-1.52
		C50.33,92.69,50.87,93.31,50.86,94.49z"/>
	<path d="M70.07,203.79c-0.07,1.07-0.59,1.49-1.66,1.43c-1.11-0.07-1.62-0.52-1.6-1.69c0.02-1.18,0.67-1.44,1.67-1.41
		C69.56,202.12,70.14,202.62,70.07,203.79z"/>
	<path d="M48.29,113.12c0,1.07-0.49,1.56-1.55,1.54c-1.06-0.02-1.58-0.59-1.58-1.59c0.01-0.93,0.3-1.71,1.72-1.61
		C47.76,111.44,48.3,111.97,48.29,113.12z"/>
	<path d="M55.59,76c-0.31,0.81-0.41,1.85-1.58,1.69c-0.9-0.12-1.83-0.45-1.81-1.66c0.02-1.16,0.8-1.62,1.78-1.68
		C55.07,74.28,55.31,75.19,55.59,76z"/>
	<path d="M129.16,13.54c0.02,0.96-0.28,1.83-1.35,1.77c-1.23,0.02-1.96-0.36-2.02-1.51c-0.06-1.05,0.47-1.61,1.52-1.54
		C128.17,12.31,129.13,12.38,129.16,13.54z"/>
	<path d="M97.6,229.44c-0.06,1.14-0.89,1.43-1.77,1.38c-0.89-0.05-1.68-0.48-1.61-1.59c0.06-0.96,0.48-1.63,1.59-1.56
		C96.91,227.74,97.66,228.18,97.6,229.44z"/>
	<path d="M181.48,50.14c0,0.87-0.61,1.41-1.59,1.4c-0.91-0.01-1.66-0.37-1.7-1.49c-0.04-1.19,0.7-1.61,1.71-1.68
		C180.99,48.29,181.39,48.97,181.48,50.14z"/>
	<path d="M191.99,177.91c-0.02,1.3-0.4,1.95-1.53,1.86c-0.97-0.08-1.78-0.27-1.75-1.56c0.03-1.19,0.77-1.64,1.74-1.66
		C191.43,176.54,191.94,177.22,191.99,177.91z"/>
	<path d="M65.07,195.36c-0.04,1-0.2,1.83-1.36,1.89c-1.12,0.05-1.73-0.57-1.84-1.61c-0.11-1.11,0.67-1.55,1.61-1.55
		C64.3,194.08,65.11,194.33,65.07,195.36z"/>
	<path d="M82.26,218.22c-0.01,0.89-0.42,1.61-1.4,1.59c-1.08-0.01-1.86-0.53-1.89-1.74c-0.02-1,0.56-1.42,1.63-1.46
		C81.44,216.72,82.27,217.04,82.26,218.22z"/>
	<path d="M201.09,131.79c-0.01,1.02-0.5,1.56-1.56,1.58c-1.17,0.02-1.62-0.59-1.62-1.69c0-0.97,0.4-1.47,1.42-1.46
		C200.4,130.23,201.09,130.6,201.09,131.79z"/>
	<path d="M105.97,233.35c0.04,0.86-0.28,1.37-1.27,1.34c-1.13-0.03-1.88-0.38-1.87-1.67c0.01-0.99,0.45-1.44,1.45-1.48
		C105.56,231.5,106.02,232.15,105.97,233.35z"/>
	<path d="M138.38,15.36c0,0.96-0.55,1.46-1.5,1.47c-0.89-0.12-1.78-0.15-1.75-1.41c0.03-1.13,0.54-1.72,1.67-1.69
		C137.85,13.74,138.38,14.35,138.38,15.36z"/>
	<path d="M134.1,235.34c-0.08,1.02-0.14,1.82-1.42,1.74c-1.12-0.07-1.7-0.48-1.7-1.63c0-1.07,0.59-1.52,1.6-1.57
		C133.7,233.84,134.11,234.46,134.1,235.34z"/>
	<path d="M115.2,235.42c-0.01,0.93-0.23,1.67-1.5,1.68c-1.16,0.01-1.65-0.5-1.66-1.6c-0.01-1.02,0.5-1.62,1.53-1.59
		C114.46,233.94,115.28,234.16,115.2,235.42z"/>
	<path d="M161.54,29.92c-1.01,0.1-1.42-0.48-1.43-1.44c-0.01-1.04,0.44-1.59,1.54-1.52c0.91,0.06,1.74,0.19,1.64,1.41
		C163.41,29.68,162.46,29.83,161.54,29.92z"/>
	<path d="M196.23,84.95c0.02,1.08-0.78,1.36-1.62,1.3c-0.74-0.05-1.69-0.08-1.69-1.24c0-1.07,0.47-1.74,2-1.76
		C195.68,83.24,196.2,83.88,196.23,84.95z"/>
	<path d="M155.53,22.91c-0.05,0.88-0.24,1.61-1.34,1.59c-1.18-0.02-1.81-0.62-1.8-1.8c0-1.04,0.66-1.37,1.6-1.31
		C155.04,21.34,155.59,21.8,155.53,22.91z"/>
	<path d="M147.36,18.47c-0.09,0.98-0.64,1.63-1.72,1.61c-1.08-0.02-1.41-0.83-1.41-1.75c0-0.91,0.3-1.75,1.44-1.65
		C146.67,16.75,147.38,17.25,147.36,18.47z"/>
	<path d="M124.72,236.23c0.03,1.07-0.56,1.57-1.58,1.59c-1.12,0.02-1.71-0.53-1.69-1.67c0.02-1,0.42-1.61,1.54-1.59
		C124.12,234.59,124.7,235.12,124.72,236.23z"/>
	<path d="M85.67,28.53c0.03,1.31-0.77,1.53-1.67,1.61c-1.22,0.1-1.4-0.81-1.43-1.66c-0.03-0.9,0.44-1.49,1.46-1.44
		C85.11,27.07,85.78,27.49,85.67,28.53z"/>
	<path d="M190.1,66.93c-0.05,0.93-0.39,1.7-1.47,1.57c-1.31,0.08-1.51-0.82-1.54-1.69c-0.03-0.95,0.4-1.69,1.53-1.61
		C189.66,65.28,190.16,65.93,190.1,66.93z"/>
	<path d="M141.69,234.61c-1.26,0.03-1.57-0.73-1.64-1.71c-0.08-1.19,0.78-1.37,1.69-1.4c1.02-0.03,1.66,0.35,1.55,1.51
		C143.42,234.18,142.83,234.58,141.69,234.61z"/>
	<path d="M201.22,122.19c-0.01,0.98-0.37,1.66-1.48,1.68c-0.96,0.02-1.69-0.22-1.7-1.4c-0.01-1.09,0.37-1.76,1.56-1.78
		C200.64,120.66,201.25,121.06,201.22,122.19z"/>
	<path d="M200.82,112.76c0.05,0.99-0.34,1.65-1.41,1.69c-1.09,0.03-1.68-0.5-1.69-1.63c-0.01-0.9,0.21-1.59,1.31-1.53
		C199.98,111.34,200.89,111.44,200.82,112.76z"/>
	<path d="M199.82,103.49c-0.01,1.06-0.5,1.54-1.6,1.47c-1.09-0.07-1.69-0.46-1.63-1.67c0.06-1.16,0.75-1.43,1.71-1.41
		C199.35,101.9,199.89,102.42,199.82,103.49z"/>
	<path d="M119.56,13.87c-0.02,0.94-0.38,1.56-1.42,1.48c-1.02-0.08-1.76-0.5-1.7-1.65c-0.07-1.25,0.72-1.43,1.66-1.46
		C119.25,12.21,119.59,12.85,119.56,13.87z"/>
	<path d="M58.94,67.24c0.08,1-0.62,1.46-1.66,1.48c-1.2,0.03-1.51-0.81-1.58-1.79c-0.07-1.12,0.69-1.28,1.57-1.24
		C58.16,65.74,59.02,65.83,58.94,67.24z"/>
	<path d="M198.18,94.11c0.05,0.91-0.27,1.52-1.34,1.51c-1.09-0.01-1.7-0.47-1.72-1.63c-0.02-1.13,0.58-1.47,1.61-1.49
		C197.87,92.47,198.27,93.03,198.18,94.11z"/>
	<path d="M159.72,224.02c-0.04,0.96-0.43,1.72-1.5,1.64c-0.97-0.07-1.72-0.55-1.67-1.73c0.04-1.11,0.66-1.48,1.63-1.45
		C159.31,222.41,159.77,222.97,159.72,224.02z"/>
	<path d="M151.86,229.22c-0.06,1.08-0.65,1.49-1.67,1.44c-1.08-0.05-1.74-0.49-1.6-1.63c-0.02-1.28,0.8-1.39,1.73-1.36
		C151.33,227.69,151.92,228.1,151.86,229.22z"/>
	<path d="M101.44,194.51c-0.86-0.67-0.5-1.7-0.57-2.52c-0.21-2.48-0.95-4.95-0.3-7.47C100.85,187.86,101.52,191.15,101.44,194.51z"
		/>
	<path d="M168.76,183.18c0.08-3.01,0.43-5.99,0.92-8.95C170.17,177.3,169.87,180.28,168.76,183.18z"/>
	<path d="M166.82,162.54c-0.65-2.12-0.02-4.35-0.52-6.5c-0.17-0.73-0.83-1.58-0.13-2.4C167.4,156.53,167.17,159.53,166.82,162.54z"
		/>
	<path d="M142.54,124.72c-0.55,0.27-1.07,0.62-1.18-0.45c-0.04-0.41-0.15-0.97-0.62-1.25c-0.63-1.38-0.1-2.87-0.44-4.31
		C142.49,120.19,141.49,122.84,142.54,124.72z"/>
	<path d="M99.93,65.77c-0.49-3.09-0.55-6.18,0.03-9.26C100.07,59.6,100.15,62.68,99.93,65.77z"/>
	<path d="M66.48,50.54c0.19,0.34,0.61,0.6-0.03,0.88c-0.76-1.08-0.99-2.37-1.4-3.59c-0.1-0.3-0.21-0.77-0.06-0.95
		c0.32-0.41,0.7,0.05,1.05,0.15c0.65,0.18,0.84,0.88,1.33,1.25C66.03,48.63,65.89,49.47,66.48,50.54z"/>
	<path d="M169.86,172.18c-0.02-3.12,0.26-6.22,0.88-9.27c0.58,2.37-0.27,4.69-0.33,7.04C170.39,170.64,170.57,171.57,169.86,172.18z
		"/>
	<path d="M128.78,48.65c-0.76,0.55-1.38-0.11-2.07-0.23c-0.87-0.15-1.76-0.59-2.49,0.32c-0.39-0.6-0.79-1.2-1.4-2.13
		C125.25,46.78,126.84,48.27,128.78,48.65z"/>
	<path d="M99.92,90.47c-0.48-2.74-0.49-5.48,0-8.22C100.1,85,100.13,87.73,99.92,90.47z"/>
	<path d="M166.9,196.18c-0.02,2.75-0.46,5.37-2.26,7.59C165.39,201.24,166.15,198.72,166.9,196.18z"/>
	<path d="M121.04,49.47c-0.48-0.69-1.28-0.72-1.99-0.94c0.14-0.17,0.25-0.37,0.42-0.51c0.68-0.55,1.49-1.67,2.22-1.02
		C122.35,47.59,121.68,48.73,121.04,49.47z"/>
	<path d="M72.01,108.63c0.03,2.68-0.49,5.3-0.91,7.93C70.74,113.84,70.97,111.19,72.01,108.63z"/>
	<path d="M171.81,47.83c-2.44-0.69-5.08-0.53-7.38-1.77C167.05,46,169.58,46.32,171.81,47.83z"/>
	<path d="M68.58,110.43c-0.11-2.54-0.09-5.07,0.22-7.59C69.24,105.39,69.39,107.93,68.58,110.43z"/>
	<path d="M166.04,152.98c-0.98-2.21-2.27-4.3-2.86-6.68C164.61,148.33,165.81,150.44,166.04,152.98z"/>
	<path d="M167.43,192.8c0.01-2,0.37-3.95,0.87-5.88C168.85,189.01,168.47,190.95,167.43,192.8z"/>
	<path d="M147.78,46.36c0.05,1.35-0.37,2.19-1.44,2.67c-0.13-0.62-0.02-1.37-0.9-1.57C145.97,46.64,146.91,46.83,147.78,46.36z"/>
	<path d="M162.46,46.06c-1.89,0.59-3.78,1.18-5.66,1.78C158.49,46.64,160.29,45.77,162.46,46.06z"/>
	<path d="M68.75,69.89c-0.25-1.6-0.39-3.2-0.31-4.82C69.5,66.62,69.05,68.26,68.75,69.89z"/>
	<path d="M164.74,175.23c-0.46-1.44-0.01-2.68,0.87-3.81C165.69,172.78,165.17,173.99,164.74,175.23z"/>
	<path d="M160.53,195.45c-0.03,1.16-0.07,2.32-0.1,3.49C159.94,197.76,159.75,196.59,160.53,195.45z"/>
	<path d="M88.29,48.29c-1.35,0.15-2.41-0.54-3.48-1.18C86.13,47.03,87.2,47.69,88.29,48.29z"/>
	<path d="M71.51,49.08c-1.17,0.95-2.22,0.82-3.15-0.36C69.37,49.12,70.46,48.93,71.51,49.08z"/>
	<path d="M166.45,165.62c-0.24-0.85-1.2-1.79,0.31-2.42C166.88,164.04,166.81,164.85,166.45,165.62z"/>
	<path d="M141.53,48.79c-0.83,0.63-1.71,1.04-2.77,0.59C139.64,48.99,140.56,48.76,141.53,48.79z"/>
	<path d="M115.08,110.38c-0.22-0.91-0.43-1.82-0.25-2.77C115.75,108.46,115.44,109.42,115.08,110.38z"/>
	<path d="M145.94,124.88c-0.09,0.22-0.18,0.44-0.27,0.66c-0.16-0.13-0.36-0.24-0.47-0.41c-0.35-0.53-0.49-1.12-0.29-1.74
		c0.03-0.11,0.33-0.26,0.36-0.24C145.77,123.61,146.04,124.18,145.94,124.88z"/>
	<path d="M68.37,116.22c-0.19-0.81-0.14-1.6,0.09-2.4C68.92,114.65,68.91,115.45,68.37,116.22z"/>
	<path d="M100.33,180.4c-0.54-0.78-0.51-1.58-0.1-2.39C100.48,178.8,100.51,179.59,100.33,180.4z"/>
	<path d="M132.2,49.37c-0.95,0.5-1.74,0.21-2.44-0.49C130.62,48.85,131.41,49.1,132.2,49.37z"/>
	<path d="M72.72,100.41c-0.33-0.86-0.51-1.71,0.33-2.41C73.19,98.83,73.13,99.64,72.72,100.41z"/>
	<path d="M171.31,154.32c-0.19-0.69-0.2-1.38,0.08-2.06C171.85,152.97,171.85,153.66,171.31,154.32z"/>
	<path d="M114.74,106.26c-0.3-0.67-0.41-1.36-0.23-2.09C115.34,104.79,115.1,105.52,114.74,106.26z"/>
	<path d="M94.85,49.11c-0.69,0.79-1.41,0.67-2.15,0.07C93.41,48.95,94.13,48.99,94.85,49.11z"/>
	<path d="M67.79,58.21c-0.42-0.62-0.59-1.3-0.48-2.05C67.86,56.75,68.27,57.37,67.79,58.21z"/>
	<path d="M91.37,48.99c-0.84,0.45-1.48,0.03-2.1-0.48C90.01,48.5,90.73,48.58,91.37,48.99z"/>
	<path d="M170.95,160.5c-0.2-0.59-0.17-1.16,0.09-1.72C171.44,159.38,171.49,159.96,170.95,160.5z"/>
	<path d="M101.78,196.92c-0.63-0.51-0.56-1.11-0.22-1.74C101.88,195.73,101.92,196.31,101.78,196.92z"/>
	<path d="M155.97,138.14c-0.85-0.06-1.32-0.53-1.42-1.37C155.14,137.11,155.67,137.5,155.97,138.14z"/>
	<path d="M84.53,48.88c-0.58-0.22-1.17-0.05-1.75,0.01c0.18-0.87,0.89-0.49,1.4-0.61C84.29,48.48,84.41,48.68,84.53,48.88z"/>
	<path d="M100.31,47.61c-0.36,0.9-1.13,0.89-1.9,0.86C98.99,48.06,99.59,47.7,100.31,47.61z"/>
	<path d="M81.48,47.15c-0.43,0.54-0.91,0.51-1.41,0.12C80.52,47.05,80.98,46.94,81.48,47.15z"/>
	<path d="M168.46,185.93c-0.21-0.5-0.08-0.97,0.16-1.42C169.06,185.05,169.05,185.52,168.46,185.93z"/>
	<path d="M114.43,103.51c-0.27-0.43-0.37-0.89-0.15-1.38C114.81,102.54,114.88,102.99,114.43,103.51z"/>
	<path d="M113.1,91.83c-0.34-0.42-0.4-0.89-0.25-1.39C113.5,90.8,113.49,91.28,113.1,91.83z"/>
	<path d="M68.06,60.28c-0.2-0.46-0.24-0.93-0.11-1.42C68.44,59.3,68.46,59.77,68.06,60.28z"/>
	<path d="M145.79,49.94c-0.01,0.65-0.44,1.05-0.84,1.48C144.74,50.65,145.17,50.25,145.79,49.94z"/>
	<path d="M116.79,49.23c-0.49,0.55-0.97,0.59-1.44-0.04C115.84,49,116.32,48.98,116.79,49.23z"/>
	<path d="M68.14,123.45c-0.15-0.48-0.17-0.96,0.05-1.43C69,122.53,69.04,123.01,68.14,123.45z"/>
	<path d="M162.14,204.72c-0.76-0.01-1.08-0.39-1-1.13C161.61,203.84,161.93,204.23,162.14,204.72z"/>
	<path d="M160.35,142.65c-0.65-0.09-1-0.43-0.98-1.11C159.86,141.77,160.2,142.13,160.35,142.65z"/>
	<path d="M103.75,48.76c-0.48-0.02-0.96-0.05-1.44-0.08C102.83,47.95,103.29,48.29,103.75,48.76z"/>
	<path d="M95.16,203.39c-0.35,0.16-0.69,0.16-1.03-0.03C94.48,202.95,94.82,203.01,95.16,203.39z"/>
	<path d="M114.06,100.43c-0.22-0.33-0.26-0.68-0.09-1.04C114.4,99.71,114.49,100.05,114.06,100.43z"/>
	<path d="M111.68,80.86c-0.27-0.31-0.38-0.66-0.21-1.06C112.02,80.06,112.13,80.4,111.68,80.86z"/>
	<path d="M112.01,83.27c-0.24-0.33-0.3-0.67-0.09-1.03C112.35,82.55,112.43,82.88,112.01,83.27z"/>
	<path d="M113.35,93.57c-0.26-0.33-0.36-0.68-0.15-1.07C113.76,92.78,113.77,93.14,113.35,93.57z"/>
	<path d="M164.44,176.96c-0.39-0.45-0.35-0.81,0.21-1.07C164.8,176.29,164.66,176.63,164.44,176.96z"/>
	<path d="M166.18,167.35c-0.45-0.45-0.38-0.8,0.19-1.07C166.54,166.68,166.46,167.03,166.18,167.35z"/>
	<path d="M78.73,47.45c-0.28,0.57-0.74,0.53-1.23,0.37C77.83,47.42,78.25,47.33,78.73,47.45z"/>
	<path d="M163.15,204.99c-0.09,0.18-0.2,0.51-0.25,0.5c-0.33-0.05-0.48-0.31-0.5-0.65C162.64,204.89,162.9,204.94,163.15,204.99z"/>
	<path d="M72.48,103.18c-0.33-0.25-0.31-0.48,0.04-0.69C72.72,102.73,72.66,102.96,72.48,103.18z"/>
	<path d="M73.13,97.33c-0.38-0.27-0.25-0.49,0.08-0.68C73.38,96.91,73.37,97.13,73.13,97.33z"/>
	<path d="M68.93,112.8c-0.01,0.26-0.2,0.37-0.46,0.36c-0.14-0.26-0.14-0.5,0.03-0.75C68.78,112.4,68.94,112.55,68.93,112.8z"/>
	<path d="M112.68,89.1c-0.21-0.21-0.21-0.44-0.05-0.69C112.93,88.62,113.01,88.85,112.68,89.1z"/>
	<path d="M68.39,64.06c-0.16-0.23-0.2-0.48-0.05-0.73C68.65,63.55,68.76,63.79,68.39,64.06z"/>
	<path d="M68.54,111.8c-0.15-0.26-0.15-0.51,0.02-0.77C69.15,111.3,69.14,111.56,68.54,111.8z"/>
	<path d="M167.15,194.82c-0.16-0.26-0.13-0.49,0.09-0.7C167.56,194.4,167.48,194.63,167.15,194.82z"/>
	<path d="M67.03,54.45c-0.17-0.23-0.22-0.47-0.09-0.73C67.25,53.93,67.41,54.16,67.03,54.45z"/>
	<path d="M162,144.72c-0.46-0.04-0.63-0.32-0.58-0.76C161.81,144.07,162.02,144.31,162,144.72z"/>
	<path d="M72.12,106.95c-0.35-0.26-0.29-0.48,0.05-0.68C72.36,106.51,72.34,106.73,72.12,106.95z"/>
	<path d="M163.07,146.09c-0.5-0.02-0.67-0.31-0.6-0.78C162.85,145.43,163.07,145.68,163.07,146.09z"/>
	<path d="M165.85,170.1c-0.29-0.25-0.28-0.48,0.04-0.7C166.06,169.65,166.03,169.88,165.85,170.1z"/>
	<path d="M118.2,48.91c-0.22,0.36-0.52,0.47-0.9,0.26C117.52,48.82,117.85,48.85,118.2,48.91z"/>
	<path d="M72.86,48.88c-0.18,0.34-0.4,0.47-0.69,0.12C72.37,48.76,72.6,48.71,72.86,48.88z"/>
	<path d="M173.71,167.35c-0.36-0.23-0.33-0.46,0.02-0.68C173.92,166.9,173.92,167.13,173.71,167.35z"/>
	<path d="M156.24,48.26c-0.01,0.51-0.28,0.7-0.76,0.65C155.58,48.52,155.82,48.29,156.24,48.26z"/>
	<path d="M112.99,48.7c-0.35,0.39-0.55,0.17-0.72-0.18C112.55,48.39,112.78,48.51,112.99,48.7z"/>
	<path d="M160.78,202.75c-0.32-0.2-0.51-0.42-0.1-0.73C160.87,202.24,160.93,202.48,160.78,202.75z"/>
	<path d="M76.67,48.1c-0.21,0.45-0.54,0.5-0.94,0.26C76.01,48.2,76.29,47.97,76.67,48.1z"/>
	<path d="M110.46,48.07c-0.39,0.28-0.7,0.18-0.94-0.2C109.88,47.72,110.18,47.82,110.46,48.07z"/>
	<path d="M108.87,47.66c-0.33,0.4-0.55,0.22-0.73-0.14C108.42,47.38,108.65,47.48,108.87,47.66z"/>
	<path d="M106.47,47.27c-0.27,0.33-0.49,0.26-0.69-0.08C106.03,47.03,106.26,47.07,106.47,47.27z"/>
	<path d="M162.17,71.28c-0.61-1.83-0.54-3.67-0.06-5.52C162.35,67.6,162.45,69.44,162.17,71.28z"/>
	<path d="M162.11,61.66c-0.4-1.29-0.69-2.58,0.18-3.82C162.46,59.13,162.37,60.4,162.11,61.66z"/>
	<path d="M163.4,53.06c-0.09,0.62-0.14,1.25-0.62,1.73C162.39,54,162.71,53.47,163.4,53.06z"/>
	<path d="M162.47,56.17c-0.45-0.36-0.32-0.59,0.17-0.73C162.78,55.73,162.76,55.98,162.47,56.17z"/>
	<path d="M173.67,52.75c-0.3-0.09-0.42-0.31-0.41-0.61C173.71,52.13,174.11,52.15,173.67,52.75z"/>
	<path d="M84.18,48.28c0.02-0.04,0.04-0.08,0.06-0.11C84.21,48.2,84.19,48.23,84.18,48.28C84.17,48.27,84.18,48.28,84.18,48.28z"/>
	<polygon points="175.91,60.1 176,60.07 175.99,60.15 	"/>
</g>
</svg>
