<?xml version="1.0" encoding="utf-8"?>
<!-- Generator: Adobe Illustrator 27.0.0, SVG Export Plug-In . SVG Version: 6.00 Build 0)  -->
<svg version="1.1" id="Layer_1" xmlns="http://www.w3.org/2000/svg" xmlns:xlink="http://www.w3.org/1999/xlink" x="0px" y="0px"
	 viewBox="0 0 250 250" style="enable-background:new 0 0 250 250;" xml:space="preserve">
<style type="text/css">
	.st0{fill:#FFFFFF;}
	.st1{fill:#262223;}
</style>
<g>
	<path class="st0" d="M196.95,95.44c0-0.8-0.16-1.1-1.01-1.05c-1.22,0.08-2.45,0.06-3.67,0c-0.7-0.03-0.88,0.19-0.88,0.88
		c0.03,5.62,0.02,11.24,0.01,16.85c0,1.39,0.02,2.78-0.11,4.16c-0.45,4.77-2.49,8.54-7.1,10.49c-2.83,1.2-5.79,1.24-8.76,0.6
		c-3.79-0.83-6.14-3.17-7.13-6.89c-0.44-1.64-0.5-3.33-0.5-5.02c0-6.71-0.01-13.42,0.02-20.13c0-0.73-0.17-0.99-0.93-0.94
		c-1.19,0.07-2.38,0.08-3.57,0c-0.86-0.06-1.11,0.17-1.11,1.07c0.04,6.77,0.02,13.55,0.03,20.32c0,0.99,0.03,1.99,0.13,2.97
		c0.57,5.57,2.89,10.09,8.08,12.67c3.79,1.89,7.85,2.19,12,1.55c3.31-0.51,6.23-1.88,8.86-4.24c0,3.06,0.05,5.93-0.02,8.79
		c-0.05,2.19-0.51,4.32-1.29,6.38c-2.47,6.61-8.57,9.5-14.38,9.34c-3.25-0.09-6.14-1.44-8.65-3.54c-2.02-1.69-3.59-3.78-5.32-5.74
		c-2-2.26-4.11-4.39-6.81-5.83c-4.44-2.39-9.23-2.57-14.09-2.16c-2.97,0.25-5.77,1.11-8.3,2.73c-4.98,3.18-7.52,7.99-9.05,13.49
		c-0.32,1.14-0.3,2.01,0.74,2.74c0.48,0.34,0.84,0.84,1.27,1.26c0.85,0.84,1.71,1.67,2.72,2.66c0.03-3.08,0.59-5.8,1.68-8.41
		c1.58-3.79,4.09-6.68,8.02-8.16c2.47-0.93,5.05-0.93,7.63-0.9c3.84,0.05,7.16,1.29,9.92,4.03c2.21,2.19,4.1,4.66,6.24,6.91
		c6.21,6.52,15.45,8.29,23.55,4.42c6.98-3.33,10.41-9.15,11.46-16.59c0.31-2.17,0.21-4.35,0.21-6.53
		C196.9,120.89,196.91,108.17,196.95,95.44z M113.32,111.86c-0.01-3.01-0.12-6.03-0.93-8.94c-1.27-4.51-4.07-7.61-8.71-8.72
		c-5.54-1.32-10.2,0.45-14.13,4.43c-0.94,0.95-1.64,2.08-2.52,3.23c-1.99-5.2-5.8-7.78-11.1-8.04c-5.19-0.25-9.32,2.01-12.69,6.3
		c0-1.72-0.04-3.07,0.02-4.42c0.03-0.74-0.12-1.06-0.95-1c-1.18,0.08-2.38,0.09-3.57,0c-0.92-0.07-1.14,0.24-1.13,1.13
		c0.03,11.76,0.02,23.53,0.02,35.29v1.01c0.23-0.11,0.33-0.13,0.39-0.19c1.64-1.63,3.27-3.27,4.92-4.9c0.34-0.33,0.3-0.7,0.3-1.1
		c0-3.14,0-6.28,0-9.42c0-2.48,0.1-4.95,0.56-7.4c0.92-4.96,3.63-8.36,8.63-9.65c4.9-1.26,9.2,1.69,9.81,6.69
		c0.18,1.51,0.32,3.03,0.33,4.54c0.05,6.77,0.04,13.55,0.06,20.32c0,0.33-0.13,0.7,0.16,1.06c1.65-1.65,3.24-3.28,4.87-4.87
		c0.44-0.43,0.6-0.87,0.59-1.48c-0.03-2.78-0.03-5.55-0.01-8.33c0.02-3.07,0.09-6.15,0.74-9.17c1.23-5.72,6.01-9.42,11.47-8.96
		c3.63,0.31,6.19,2.68,6.76,6.27c0.31,1.93,0.41,3.87,0.41,5.83c0,6.54,0,13.09,0,19.63v1.06c0.46-0.04,0.6-0.33,0.8-0.52
		c1.46-1.44,2.88-2.91,4.35-4.34c0.42-0.4,0.58-0.81,0.57-1.38C113.31,121.18,113.33,116.52,113.32,111.86z M157.56,121.27
		c0-8.56-0.01-17.11,0.01-25.67c0-0.66-0.12-0.94-0.85-0.9c-1.32,0.06-2.64,0.05-3.96,0.01c-0.61-0.02-0.79,0.14-0.78,0.76
		c0.05,1.6,0.02,3.2,0.02,4.95c-7.21-9.34-21.37-8.18-28.37-0.38c-6.9,7.69-6.8,19.62,0.31,27.21c7,7.48,20.04,8.35,28.05-0.46
		c0,1.72,0.02,3.23-0.01,4.74c-0.01,0.57,0.17,0.74,0.73,0.72c1.29-0.04,2.58-0.06,3.86,0c0.76,0.03,1.02-0.15,1-0.97
		C157.53,127.95,157.56,124.61,157.56,121.27z M138.28,127.93c-7.76,0-14.11-6.5-14.1-14.42c0.01-7.93,6.28-14.29,14.07-14.29
		c7.96,0,14.02,6.25,14.03,14.46C152.29,121.75,146.22,127.93,138.28,127.93z M239.71,95.41c0-0.47-0.04-0.72-0.63-0.7
		c-1.42,0.05-2.84,0.05-4.26,0c-0.61-0.02-0.69,0.25-0.68,0.76c0.03,1.58,0.01,3.17,0.01,4.95c-7.38-9.07-20.47-8.1-27.38-1.34
		c-7.45,7.29-8.22,19.22-1.54,27.14c3.24,3.84,7.3,6.26,12.35,6.8c6.46,0.7,11.95-1.34,16.57-6.27c0,1.77,0.02,3.27-0.01,4.77
		c-0.01,0.57,0.17,0.75,0.73,0.73c1.35-0.03,2.71-0.04,4.06,0c0.61,0.02,0.78-0.15,0.78-0.77
		C239.7,119.46,239.7,107.43,239.71,95.41z M220.34,127.93c-7.66-0.02-13.97-6.54-13.97-14.44c0-7.86,6.28-14.26,13.99-14.28
		c7.97-0.02,14.12,6.24,14.12,14.39C234.5,121.77,228.4,127.95,220.34,127.93z M19.71,126.39c6.62-7.99,13.17-16.03,19.92-23.91
		c1.8-2.1,2.83-4.17,2.4-6.9c0-0.03-0.01-0.07,0-0.1c0.11-0.62-0.17-0.77-0.77-0.77c-2.48,0.03-4.96,0.01-7.44,0.01
		c-6.21,0-12.43,0.01-18.64-0.02c-0.77,0-1.04,0.18-0.98,0.98c0.07,1.02,0.08,2.05,0,3.07c-0.06,0.82,0.19,1.04,1.02,1.04
		c6.35-0.04,12.69-0.02,19.04-0.01c0.32,0,0.65-0.1,1.06,0.14c-0.28,0.35-0.54,0.67-0.81,0.98c-6.59,7.84-13.11,15.74-19.82,23.47
		c-1.81,2.09-2.85,4.13-2.47,6.89c0.1,0.74,0.21,1,1.01,0.99c6.64-0.03,13.29-0.12,19.93,0.04c2.21,0.05,3.85-0.48,5.2-2.21
		c0.79-1.01,1.8-1.85,2.9-2.96H19.17C19.45,126.74,19.57,126.56,19.71,126.39z M52.24,94.71c0-0.73-0.18-0.99-0.94-0.95
		c-1.22,0.07-2.45,0.06-3.67,0c-0.8-0.04-1.06,0.16-1.06,1.01c0.05,12.13,0.06,24.26,0.09,36.39c0,0.28-0.1,0.59,0.19,0.95
		c1.52-1.54,2.99-3.09,4.54-4.57c0.58-0.56,0.79-1.11,0.78-1.9c-0.04-2.64,0-5.29,0-7.93C52.2,110.04,52.2,102.37,52.24,94.71z
		 M142.51,150.33c-1.23-1.24-2.46-2.48-3.68-3.73c-0.33-0.34-0.5-0.09-0.71,0.12c-1.14,1.14-2.28,2.29-3.43,3.41
		c-0.35,0.34-0.4,0.57-0.01,0.94c1.17,1.11,2.31,2.26,3.43,3.42c0.35,0.37,0.55,0.3,0.86-0.02c1.12-1.16,2.28-2.29,3.41-3.43
		c0.12-0.12,0.22-0.24,0.35-0.38C142.65,150.53,142.6,150.41,142.51,150.33z M153.62,150.32c-1.23-1.24-2.48-2.46-3.7-3.71
		c-0.33-0.33-0.5-0.11-0.72,0.1c-1.16,1.17-2.31,2.34-3.49,3.49c-0.3,0.3-0.32,0.48,0,0.79c1.16,1.12,2.29,2.27,3.42,3.42
		c0.34,0.35,0.56,0.43,0.95,0.03c1.12-1.16,2.28-2.28,3.42-3.42c0.12-0.12,0.22-0.24,0.35-0.38
		C153.77,150.53,153.71,150.41,153.62,150.32z M53.4,86.26c-1.21-1.21-2.44-2.41-3.63-3.64c-0.35-0.36-0.55-0.16-0.8,0.08
		c-1.14,1.14-2.26,2.3-3.43,3.42c-0.4,0.38-0.31,0.58,0.04,0.91c1.14,1.1,2.26,2.22,3.35,3.35c0.36,0.38,0.59,0.36,0.94-0.01
		c1.12-1.16,2.28-2.29,3.42-3.43c0.12-0.12,0.22-0.24,0.35-0.38C53.56,86.46,53.49,86.35,53.4,86.26z"/>
	<path class="st1" d="M191.33,128.73c-2.64,2.37-5.56,3.73-8.86,4.25c-4.14,0.64-8.21,0.34-12-1.55c-5.19-2.59-7.51-7.1-8.08-12.67
		c-0.1-0.98-0.13-1.98-0.13-2.97c-0.01-6.77,0.01-13.55-0.03-20.32c-0.01-0.9,0.25-1.12,1.11-1.07c1.18,0.08,2.38,0.07,3.57,0
		c0.76-0.04,0.94,0.21,0.93,0.94c-0.03,6.71-0.02,13.42-0.02,20.13c0,1.69,0.06,3.37,0.5,5.02c1,3.72,3.34,6.07,7.13,6.89
		c2.97,0.65,5.93,0.6,8.76-0.59c4.61-1.95,6.65-5.71,7.1-10.49c0.13-1.38,0.11-2.77,0.11-4.16c0.01-5.62,0.01-11.24-0.01-16.85
		c0-0.69,0.17-0.91,0.88-0.88c1.22,0.06,2.45,0.07,3.67,0c0.86-0.05,1.02,0.25,1.01,1.05c-0.04,12.72-0.04,25.45-0.07,38.17
		c0,2.18,0.1,4.36-0.21,6.53c-1.05,7.45-4.49,13.26-11.46,16.59c-8.1,3.87-17.34,2.1-23.55-4.42c-2.14-2.25-4.03-4.72-6.24-6.91
		c-2.76-2.73-6.08-3.98-9.92-4.02c-2.58-0.03-5.16-0.03-7.63,0.9c-3.93,1.48-6.44,4.37-8.02,8.16c-1.09,2.61-1.65,5.33-1.68,8.41
		c-1.01-0.99-1.87-1.82-2.72-2.66c-0.42-0.42-0.79-0.92-1.26-1.25c-1.04-0.73-1.06-1.61-0.74-2.74c1.53-5.51,4.07-10.31,9.05-13.49
		c2.53-1.61,5.32-2.48,8.3-2.73c4.86-0.41,9.65-0.23,14.09,2.16c2.7,1.45,4.81,3.57,6.81,5.83c1.73,1.95,3.3,4.05,5.32,5.74
		c2.51,2.1,5.4,3.45,8.65,3.54c5.8,0.15,11.9-2.74,14.38-9.34c0.77-2.06,1.23-4.19,1.29-6.38
		C191.38,134.65,191.33,131.79,191.33,128.73z"/>
	<path class="st1" d="M57.62,132.14c0-0.42,0-0.72,0-1.01c0-11.77,0.01-23.53-0.02-35.3c0-0.89,0.21-1.2,1.13-1.13
		c1.18,0.09,2.38,0.08,3.57,0c0.83-0.06,0.98,0.27,0.95,1c-0.05,1.34-0.02,2.69-0.02,4.42c3.37-4.28,7.5-6.55,12.69-6.3
		c5.3,0.26,9.1,2.84,11.1,8.04c0.88-1.14,1.58-2.28,2.52-3.23c3.93-3.98,8.59-5.74,14.13-4.42c4.64,1.1,7.44,4.2,8.71,8.71
		c0.82,2.92,0.93,5.93,0.93,8.94c0.01,4.66-0.01,9.32,0.01,13.98c0,0.57-0.15,0.98-0.57,1.38c-1.47,1.42-2.9,2.89-4.35,4.34
		c-0.2,0.2-0.35,0.48-0.8,0.52c0-0.36,0-0.71,0-1.06c0-6.54,0-13.09,0-19.63c0-1.95-0.1-3.9-0.41-5.83
		c-0.57-3.59-3.13-5.96-6.76-6.27c-5.47-0.46-10.24,3.24-11.48,8.96c-0.65,3.02-0.72,6.1-0.74,9.17c-0.02,2.78-0.02,5.55,0.01,8.33
		c0.01,0.61-0.15,1.05-0.59,1.48c-1.63,1.59-3.22,3.22-4.87,4.87c-0.29-0.36-0.16-0.73-0.16-1.06c-0.02-6.77-0.01-13.55-0.06-20.32
		c-0.01-1.52-0.14-3.04-0.33-4.54c-0.61-5-4.91-7.95-9.81-6.69c-5,1.28-7.71,4.68-8.63,9.65c-0.45,2.45-0.56,4.92-0.55,7.4
		c0,3.14,0,6.28,0,9.42c0,0.39,0.04,0.77-0.3,1.1c-1.65,1.62-3.28,3.26-4.92,4.89C57.95,132.01,57.85,132.03,57.62,132.14z"/>
	<path class="st1" d="M157.56,121.27c0-8.56-0.01-17.11,0.01-25.67c0-0.66-0.12-0.94-0.85-0.9c-1.32,0.06-2.64,0.05-3.96,0.01
		c-0.61-0.02-0.79,0.14-0.78,0.76c0.05,1.6,0.02,3.2,0.02,4.95c-7.21-9.34-21.37-8.18-28.37-0.38c-6.9,7.69-6.8,19.62,0.31,27.21
		c7,7.48,20.04,8.35,28.05-0.46c0,1.72,0.02,3.23-0.01,4.74c-0.01,0.57,0.17,0.74,0.73,0.72c1.29-0.04,2.58-0.06,3.86,0
		c0.76,0.03,1.02-0.15,1-0.97C157.53,127.95,157.56,124.61,157.56,121.27z M138.28,127.93c-7.76,0-14.11-6.5-14.1-14.42
		c0.01-7.93,6.28-14.29,14.07-14.29c7.96,0,14.02,6.25,14.03,14.46C152.29,121.75,146.22,127.93,138.28,127.93z"/>
	<path class="st1" d="M239.71,95.41c0-0.47-0.04-0.72-0.63-0.7c-1.42,0.05-2.84,0.05-4.26,0c-0.61-0.02-0.69,0.25-0.68,0.76
		c0.03,1.58,0.01,3.17,0.01,4.95c-7.38-9.07-20.47-8.1-27.38-1.34c-7.45,7.29-8.22,19.22-1.54,27.14c3.24,3.84,7.3,6.26,12.35,6.8
		c6.46,0.7,11.95-1.34,16.57-6.27c0,1.77,0.02,3.27-0.01,4.77c-0.01,0.57,0.17,0.75,0.73,0.73c1.35-0.03,2.71-0.04,4.06,0
		c0.61,0.02,0.78-0.15,0.78-0.77C239.7,119.46,239.7,107.43,239.71,95.41z M220.34,127.93c-7.66-0.02-13.97-6.54-13.97-14.44
		c0-7.86,6.28-14.26,13.99-14.28c7.97-0.02,14.12,6.24,14.12,14.39C234.5,121.77,228.4,127.95,220.34,127.93z"/>
	<path class="st1" d="M19.17,127.12c7.43,0,14.61,0,22.09,0c-1.1,1.11-2.11,1.95-2.9,2.96c-1.35,1.74-2.99,2.26-5.2,2.21
		c-6.64-0.16-13.29-0.07-19.93-0.04c-0.8,0-0.91-0.25-1.01-0.99c-0.38-2.76,0.66-4.81,2.47-6.89c6.71-7.73,13.23-15.63,19.82-23.47
		c0.27-0.32,0.52-0.64,0.81-0.98c-0.41-0.24-0.74-0.14-1.06-0.14c-6.35-0.01-12.69-0.02-19.04,0.01c-0.83,0-1.08-0.22-1.02-1.04
		c0.07-1.02,0.07-2.05,0-3.07c-0.06-0.8,0.21-0.98,0.98-0.98c6.21,0.03,12.43,0.02,18.64,0.02c2.48,0,4.96,0.02,7.44-0.01
		c0.6-0.01,0.88,0.14,0.77,0.77c-0.01,0.03-0.01,0.07,0,0.1c0.43,2.73-0.6,4.8-2.4,6.9c-6.75,7.88-13.29,15.93-19.91,23.91
		C19.57,126.56,19.45,126.74,19.17,127.12z"/>
	<path class="st1" d="M46.86,132.11c-0.3-0.36-0.19-0.67-0.19-0.95c-0.03-12.13-0.04-24.26-0.09-36.39c0-0.86,0.26-1.06,1.06-1.02
		c1.22,0.07,2.45,0.07,3.67,0c0.76-0.04,0.94,0.21,0.94,0.95c-0.04,7.67-0.04,15.33-0.06,23c-0.01,2.64-0.04,5.29-0.01,7.93
		c0.01,0.79-0.2,1.34-0.78,1.9C49.85,129.02,48.37,130.57,46.86,132.11z"/>
	<path class="st1" d="M142.73,150.65c-0.13,0.14-0.23,0.27-0.35,0.39c-1.14,1.14-2.29,2.28-3.42,3.43
		c-0.31,0.32-0.51,0.39-0.86,0.02c-1.12-1.16-2.26-2.31-3.43-3.42c-0.39-0.37-0.34-0.6,0.01-0.94c1.16-1.13,2.29-2.27,3.43-3.41
		c0.21-0.21,0.38-0.46,0.71-0.12c1.22,1.25,2.45,2.48,3.68,3.73C142.6,150.41,142.65,150.53,142.73,150.65z"/>
	<path class="st1" d="M153.85,150.65c-0.13,0.14-0.23,0.27-0.35,0.38c-1.14,1.14-2.31,2.26-3.42,3.42c-0.38,0.4-0.61,0.32-0.95-0.03
		c-1.12-1.16-2.26-2.3-3.42-3.42c-0.32-0.31-0.3-0.49,0-0.79c1.18-1.15,2.33-2.33,3.49-3.49c0.21-0.21,0.39-0.44,0.72-0.1
		c1.22,1.25,2.47,2.47,3.7,3.7C153.71,150.41,153.77,150.53,153.85,150.65z"/>
	<path class="st1" d="M53.64,86.57c-0.13,0.14-0.23,0.26-0.35,0.38c-1.14,1.14-2.3,2.27-3.42,3.43c-0.35,0.37-0.58,0.38-0.94,0.01
		c-1.1-1.14-2.22-2.26-3.36-3.35c-0.34-0.33-0.44-0.53-0.04-0.91c1.17-1.12,2.29-2.28,3.43-3.42c0.24-0.24,0.45-0.44,0.8-0.08
		c1.19,1.23,2.42,2.43,3.63,3.64C53.49,86.35,53.56,86.46,53.64,86.57z"/>
</g>
</svg>
