<?xml version="1.0" encoding="utf-8"?>
<!-- Generator: Adobe Illustrator 28.1.0, SVG Export Plug-In . SVG Version: 6.00 Build 0)  -->
<svg version="1.1" id="Layer_1" xmlns="http://www.w3.org/2000/svg" xmlns:xlink="http://www.w3.org/1999/xlink" x="0px" y="0px"
	 viewBox="0 0 250 250" style="enable-background:new 0 0 250 250;" xml:space="preserve">
<style type="text/css">
	.st0{fill:#FFFFFF;}
</style>
<g>
	<path class="st0" d="M156.01,181.72c-0.48-1.35-0.56-2.92-1.3-3.37c-1.18-0.71-1.88-1.6-2.43-2.71c-2.77-5.59-5.7-11.12-8.18-16.83
		c-0.9-2.08-0.72-4.64-1.07-7.27c-0.08-0.01-0.54,0.06-0.91-0.09c-0.46-0.19-1.11-0.49-1.21-0.86c-1.66-6.36-3.28-12.73-4.8-19.12
		c-0.18-0.75,0.27-1.64,0.32-2.47c0.04-0.61,0.14-1.42-0.19-1.82c-1-1.22-1.33-2.61-1.49-4.09c-0.71-6.4-1.67-12.78-2.06-19.2
		c-0.82-13.49-1.42-26.98-1.94-40.48c-0.14-3.56,0.36-7.14,0.52-10.71c0.03-0.62-0.18-1.24-0.27-1.87c0.51-1.51,0.43-2.94-0.78-4.25
		c-0.36-0.39-0.69-0.83-1.12-1.14c-0.81-0.59-0.87-1.33-0.84-2.27c0.07-2.71,0-5.41-0.08-8.12c-0.02-0.72-0.28-1.44-0.44-2.16
		c-0.21,0.01-0.42,0.03-0.64,0.05c0,3.61,0.02,7.22-0.03,10.83c-0.01,0.44-0.25,1.03-0.59,1.29c-2.01,1.56-3.01,3.4-2.05,5.46
		c-0.26,0.86-0.53,1.32-0.5,1.75c0.16,2.16,0.66,4.33,0.58,6.47c-0.63,16.06-1.26,32.13-2.14,48.18c-0.32,5.88-1.3,11.73-2.02,17.59
		c-0.09,0.76-0.2,1.48-1.03,2.07c-0.47,0.34-0.43,1.54-0.43,2.35c0,0.98,0.48,2.03,0.26,2.93c-1.41,5.87-2.97,11.71-4.42,17.57
		c-0.35,1.42-0.96,2.33-2.56,2.15c-0.17,1.5-0.5,2.74-0.39,3.94c0.15,1.64-0.19,3.05-0.96,4.45c-0.6,1.1-1.12,2.26-1.68,3.38
		c-2.29,4.54-4.57,9.08-6.88,13.6c-0.21,0.41-0.52,0.86-0.91,1.05c-1.68,0.81-2,1.5-1.42,3.51h10.97
		c-0.96-9.07,7.46-16.25,14.29-16.8c4.67-0.38,8.98,0.53,12.81,3.25c4.75,3.37,6.88,8.06,6.53,13.77H156.01z M121.39,151.36
		c0.58-3.11,1.15-6.17,1.73-9.23c0.38-2.04,0.8-4.08,1.15-6.13c0.14-0.82,0.51-1.14,1.35-1.11c1.45,0.05,2.91-0.06,4.35,0.06
		c0.4,0.03,1.01,0.55,1.09,0.93c0.96,5.12,1.85,10.26,2.78,15.48H121.39z M112.08,151.57h0.02c0.02,0,0.04,0.01,0.06,0.01
		c0-0.03,0.01-0.05,0.01-0.08C112.13,151.53,112.1,151.55,112.08,151.57z M112.08,151.57C112.04,151.58,112,151.63,112.08,151.57
		L112.08,151.57z"/>
	<path class="st0" d="M241.66,172.49c0.24,0.26,0.48,0.49,0.69,0.75c3.83,4.46,2.8,10.51-2.33,13.15c-1.4,0.72-2.96,1.25-4.51,1.52
		c-6.4,1.09-12.53-0.21-18.47-2.55c-7.74-3.06-13.8-8.26-18.72-14.98c0.44-0.35,0.81-0.65,1.18-0.95
		c8.49-6.7,11.99-15.41,10.46-26.12c-1.42-9.91-6.71-17.53-14.32-23.62c-9.63-7.7-20.97-11.01-33.03-12.21
		c-1.15-0.11-1.93-0.45-2.66-1.39c-3.67-4.71-7.59-9.2-12.79-12.32c-2.19-1.31-4.53-2.2-7.16-1.99c-2.55,0.21-4.99,2.17-5.41,4.46
		c2.95-2.44,5.9-1.82,8.82-0.12c3.48,2.02,6.28,4.83,8.92,7.81c0.85,0.96,1.65,1.96,2.54,3.01c-2.45,0.51-4.71,0.81-6.86,1.44
		c-7.69,2.23-10.85,7.72-10.02,14.54c0.68,5.58,3.7,9.9,8.18,13.21c3.78,2.78,8.14,4.14,12.61,5.36c5.71,1.56,11.19,2.15,16.22-2.12
		c2.59,5.28,5.01,10.62,7.78,15.77c2.77,5.13,5.89,10.07,9,15.32c-2.07,0.74-4.25,1.69-6.51,2.3c-9.73,2.59-18.81,0.55-27.41-4.21
		c-2.81-1.55-5.34-3.51-7.03-6.36c-2.75-4.64-1.29-7.75,4.06-8.5c5.94-0.83,10.7,1.55,14.66,5.74c0.81,0.86,1.27,2.17,1.57,3.36
		c0.41,1.65-0.39,2.81-1.98,3.39c-2.05,0.75-3.91,0.4-4.75-0.9c-1.27,1.75-0.94,2.6,1.17,2.83c0.91,0.1,1.84,0.1,2.76,0.04
		c5.36-0.35,7.7-4.67,4.9-9.24c-4.87-7.97-15.86-9.92-23.55-5.09c-1.87,1.17-2.72,2.95-2.61,5.18c0.11,2.31,0.97,4.33,2.28,6.18
		c2.86,4.04,7.02,6.29,11.46,8.1c10.85,4.42,21.71,5,32.51-0.16c0.83-0.4,1.17-0.01,1.71,0.48c2.96,2.69,5.75,5.66,9.02,7.94
		c7.04,4.9,15.1,7.36,23.55,8.45c4.91,0.64,9.87,0.78,14.68-0.8c4.46-1.47,7.4-4.34,7.92-9.21
		C250.67,175.2,245.94,171.05,241.66,172.49z M171.04,133.02c-3.84-1.76-7.68-1.57-11.56,0.06c0.4,0.05,0.81,0.07,1.2,0.15
		c2.17,0.44,4.36,0.81,6.48,1.41c0.83,0.23,1.6,0.92,2.21,1.57c0.92,0.98,1.33,2.37,0.62,3.48c-0.48,0.74-1.67,1.35-2.59,1.43
		c-4.78,0.44-9.05-1.18-13.01-3.71c-4.53-2.89-8.42-6.36-10.27-11.63c-1.04-2.96-1.11-6-0.45-9.02c0.56-2.55,2.07-4.6,4.41-5.64
		c2.31-1.02,4.84-1.58,7.29-2.25c0.34-0.09,1,0.16,1.19,0.46c4.98,7.77,9.91,15.57,14.85,23.37
		C171.3,132.8,171.17,132.91,171.04,133.02z M194.23,164.27c-3.44-6.49-6.91-12.97-10.25-19.52c-5.38-10.56-10.63-21.2-17.79-30.73
		c-1.24-1.65-2.58-3.23-3.87-4.85c13.69,2.2,26.06,6.86,35.03,17.89c5.27,6.48,8.05,14,7.95,22.38c-0.08,7.3-3.19,13.23-9.07,17.99
		C195.55,166.34,194.8,165.35,194.23,164.27z"/>
	<path class="st0" d="M113.88,95.16c1.71-0.74,3.48-0.82,5.2,0.04c0.58,0.29,1.13,0.62,1.82,1.01c-1.34-3.09-3.59-4.77-6.64-4.38
		c-2.1,0.26-4.28,0.96-6.12,2c-5.33,3-9.19,7.66-12.92,12.38c-0.62,0.79-1.26,1.16-2.28,1.25c-9.76,0.86-19.1,3.26-27.57,8.3
		c-10.1,6.01-17.44,14.25-19.8,26.14C43.9,150.31,45.4,158.1,51,164.8c1.72,2.06,3.82,3.8,5.86,5.8c-1.08,1.29-2.18,2.76-3.44,4.1
		c-8.44,9.03-18.74,13.83-31.22,13.52c-3-0.07-5.85-0.84-8.3-2.67c-3.17-2.37-4.16-6.27-2.44-9.82c0.58-1.19,1.37-2.26,2.06-3.38
		c-4.85-0.69-8.82,2.78-8.43,7.46c0.29,3.51,1.98,6.23,5.02,8.04c2.78,1.66,5.86,2.24,9.02,2.43c8.23,0.5,16.06-1.29,23.67-4.25
		c6.82-2.65,12.54-6.86,17.36-12.31c0.55-0.62,0.94-1.03,1.92-0.58c13.58,6.24,26.51,4.1,38.91-3.29c3.46-2.06,5.98-5.08,6.98-9.11
		c0.85-3.39-0.11-5.87-3.21-7.44c-5.63-2.85-11.36-2.99-16.96,0.15c-3.3,1.85-5.95,4.34-6.81,8.25c-0.47,2.16,0.28,3.9,2.12,5.13
		c2.07,1.38,4.36,1.52,6.7,1.25c2.01-0.23,2.31-1.06,1.08-2.8c-0.26,0.31-0.45,0.72-0.78,0.92c-1.11,0.7-4.01,0.29-5.12-0.65
		c-1.03-0.88-1.3-2.33-0.56-4.02c0.4-0.92,0.9-1.91,1.63-2.53c1.57-1.34,3.22-2.67,5.02-3.64c4.03-2.16,8.27-2.7,12.54-0.63
		c1.82,0.88,2.44,2.22,2.03,4.19c-0.2,0.93-0.51,1.88-0.96,2.71c-2.01,3.77-5.4,5.99-9.08,7.84c-9.58,4.82-19.43,5.98-29.61,1.98
		c-0.92-0.36-1.8-0.83-2.85-1.33c7.43-9.48,11.84-20.39,17.19-30.94c2.57,2.97,5.9,3.56,9.36,3.41c6.04-0.26,11.67-2.14,16.98-4.95
		c3.55-1.87,6.35-4.59,8.31-8.1c1.68-3.01,2.76-6.22,2.32-9.73c-0.76-6.11-4.15-9.89-10.31-11.49c-2.12-0.55-4.3-0.89-6.67-1.37
		C104.35,102.25,108.15,97.62,113.88,95.16z M75.14,137.2c-4.63,8.98-9.3,17.94-13.99,26.89c-0.58,1.1-1.33,2.12-2.12,3.36
		c-6.41-5.21-9.55-11.8-9.05-19.81c0.72-11.61,6.11-20.83,15.37-27.76c8.08-6.04,17.32-9.3,27.2-10.89c0.09-0.01,0.19,0.03,0.47,0.1
		c-1.31,1.63-2.61,3.17-3.82,4.78C83.71,121.16,79.31,129.11,75.14,137.2z M100.51,108.91c2.03,0.62,4.14,1.03,6.07,1.87
		c3.22,1.42,4.94,4.06,5.33,7.57c0.51,4.71-0.56,9-3.64,12.61c-4.91,5.75-10.87,9.72-18.68,10.23c-0.58,0.04-1.16,0.02-1.74-0.03
		c-1.08-0.1-2.19-0.27-2.63-1.46c-0.48-1.29-0.19-2.51,0.69-3.53c1.38-1.58,3.29-2.18,5.26-2.54c1.5-0.28,3.04-0.39,4.56-0.57
		c-3.83-1.64-7.68-1.79-11.92,0.15c1.19-2.06,2.12-3.77,3.15-5.42c3.75-5.98,7.56-11.94,11.3-17.93
		C98.84,108.94,99.48,108.59,100.51,108.91z"/>
	<path class="st0" d="M200.56,208.34c-0.74-0.81-0.14-1.82,0.54-2.58c0.19-0.22,0.43-0.39,0.65-0.58c0.67-0.56,1.38-1.07,2-1.68
		c0.27-0.27,0.33-0.73,0.49-1.1c-0.44-0.1-1.08-0.43-1.3-0.25c-0.75,0.61-1.37,1.39-2.01,2.12c-0.83,0.96-1.64,1.96-2.46,2.94
		c-0.1-0.08-0.2-0.17-0.3-0.26c0.17-0.34,0.37-0.67,0.5-1.03c0.44-1.22,1.19-2.65-0.11-3.6c-1.31-0.96-2.39,0.28-3.24,1.13
		c-1.72,1.7-3.24,3.6-4.97,5.29c-1.09,1.07-2.32,2.08-3.65,2.79c-1.56,0.83-2.74-0.12-2.42-1.86c0.08-0.45,0.65-0.92,1.11-1.18
		c1.67-0.93,3.46-1.67,5.08-2.68c0.93-0.58,1.44-1.68,0.87-2.8c-0.6-1.17-1.75-1.04-2.82-0.83c-0.51,0.1-1.08,0.24-1.49,0.54
		c-1.56,1.2-3.12,2.41-4.57,3.74c-1.63,1.5-3.12,3.17-4.73,4.69c-0.34,0.32-0.99,0.31-1.5,0.45c0.07-0.54,0-1.17,0.25-1.61
		c0.56-1.01,1.34-1.9,1.93-2.89c0.53-0.91,1.1-1.85,1.34-2.86c0.14-0.57-0.17-1.51-0.61-1.87c-0.35-0.29-1.3-0.12-1.83,0.16
		c-0.8,0.42-1.49,1.07-2.15,1.7c-0.74,0.7-1.39,1.49-2.08,2.25c-0.12-0.64,0.09-1.02,0.17-1.44c0.19-0.99,0.59-2.27-0.55-2.71
		c-0.68-0.27-1.93,0.11-2.56,0.64c-1.44,1.2-2.64,2.68-3.97,4.02c-0.54,0.54-1.1,1.1-1.75,1.48c-0.35,0.2-1.05,0.21-1.34-0.02
		c-0.27-0.21-0.42-0.94-0.26-1.28c0.33-0.72,0.81-1.4,1.36-1.97c0.66-0.69,1.49-1.24,2.18-1.91c0.19-0.19,0.32-0.68,0.21-0.88
		c-0.12-0.22-0.57-0.36-0.86-0.35c-1.25,0.08-1.68,1.08-2.27,1.99c-0.73,1.13-1.67,2.12-2.52,3.18c-0.11-0.08-0.22-0.17-0.33-0.26
		c0.13-0.26,0.27-0.51,0.4-0.78c0.85-1.82,0.93-3.44,0.04-3.9c-1.58-0.82-2.54,0.45-3.48,1.34c-1.29,1.23-2.44,2.62-3.69,3.91
		c-0.83,0.85-1.77,1.53-3.22,1.36c0.51-0.88,0.96-1.56,1.32-2.3c0.74-1.53,0.62-3.12-0.21-3.96c-0.84-0.84-2.37-0.89-3.96-0.11
		c-2.27,1.11-3.97,2.87-5.31,4.62c0.22,0.46,0.44,0.73,0.49,1.02c0.08,0.62,0.01,1.26,0.11,1.87c0.33,1.97,1.65,2.78,3.48,1.97
		c1.04-0.45,1.91-1.28,2.89-1.9c0.42-0.27,0.9-0.61,1.36-0.62c1.64-0.04,2.81-0.85,3.87-2.01c1.27-1.4,2.58-2.76,3.95-4.05
		c0.44-0.42,1.15-0.56,1.73-0.82c0.13,0.16,0.26,0.33,0.4,0.49c-1.89,2.93-3.79,5.86-5.72,8.83c1.54,0.33,2.52-0.15,3.39-1.28
		c1.09-1.43,2.37-2.71,3.45-3.92c0.41,0.91,0.64,2.16,1.09,2.25c0.81,0.15,1.78-0.32,2.62-0.67c0.41-0.17,0.68-0.67,1.01-1.01
		c1.25-1.28,2.45-2.61,3.76-3.82c0.46-0.43,1.17-0.6,1.77-0.88c0.15,0.16,0.29,0.32,0.43,0.48c-1.9,2.95-3.81,5.89-5.75,8.9
		c1.58,0.31,2.5-0.21,3.42-1.31c2.01-2.42,4.19-4.69,6.36-6.96c0.47-0.49,1.21-0.73,1.82-1.08c0.12,0.15,0.24,0.29,0.36,0.44
		c-0.54,0.76-1.11,1.51-1.63,2.3c-0.72,1.08-1.53,2.13-2.06,3.3c-0.51,1.15-0.49,2.49,0.61,3.32c1.18,0.9,2.1-0.13,2.91-0.84
		c1.26-1.09,2.42-2.29,3.75-3.56c0.03,0.44,0.06,0.67,0.07,0.91c0.07,1.46,0.39,2.85,1.84,3.54c1.49,0.7,2.9,0.19,4.05-0.78
		c1.4-1.18,2.68-2.51,3.97-3.81c1.34-1.33,2.6-2.73,3.97-4.03c0.42-0.4,1.09-0.54,1.65-0.8c0.17,0.17,0.33,0.35,0.49,0.52
		c-1.91,2.91-3.82,5.81-5.77,8.77c1.96,0.27,2.12,0.19,3.14-0.99c1.28-1.49,2.6-2.94,3.9-4.41c0.13,1.16-0.3,2.28,1.13,2.67
		c1.11,0.3,2.54-0.59,3.21-2.13c-0.45,0.35-0.74,0.56-1.02,0.79C202.23,208.43,201.33,209.19,200.56,208.34z M188.52,202.97
		c0.41-0.25,1.04-0.13,1.57-0.19c-0.03,0.55,0.12,1.19-0.12,1.62c-1.11,1.94-2.89,3.01-5.37,3.76
		C185.49,205.81,186.64,204.09,188.52,202.97z M146.24,211.58c-1.14,0.41-1.97-0.1-1.66-1.27c0.45-1.69,1.16-3.34,2.03-4.86
		c0.55-0.96,1.47-1.81,2.41-2.42c1.37-0.88,2.46-0.12,2.42,1.53C151.36,207.02,148.62,210.71,146.24,211.58z"/>
	<path class="st0" d="M72.02,199.73c4.25,0.71,6.36-0.42,7.63-4.09c1-2.9,0.26-5.47-2.25-6.92c-1.17,1.71-2.43,3.4-3.52,5.2
		c-2.18,3.6-4.15,7.33-6.44,10.85c-1.84,2.83-4.34,5.07-7.45,6.52c-2.17,1.02-4.43,1.43-6.77,0.73c-1.71-0.51-2.63-1.99-2.18-3.39
		c0.3-0.92,0.89-1.58,1.94-1.29c1,0.28,1.28,1.06,1.02,2.07c-0.4,1.58,0.08,2.25,1.7,2.37c2.02,0.15,3.83-0.59,5.09-2.04
		c1.93-2.21,3.77-4.55,5.28-7.05c3.11-5.13,5.77-10.55,11.26-14.43c-1.76-0.46-3.1-1.03-4.48-1.14c-6.64-0.53-12.42,1.46-17.07,6.32
		c-1.46,1.53-2.49,3.35-2.53,5.56c-0.04,2.15,1.05,3.36,3.13,2.94c1.64-0.33,3.33-1.07,4.69-2.05c3.48-2.5,5.66-6.03,7.17-10.32
		c0.14,0.45,0.27,0.67,0.24,0.84c-1.04,5.16-3.32,9.5-8.3,11.9c-0.93,0.45-2.03,0.7-3.06,0.76c-3.55,0.22-5.41-2.27-4.26-5.66
		c1.31-3.84,4.08-6.44,7.57-8.24c5.33-2.73,10.89-3.52,16.73-1.7c0.76,0.24,1.76-0.29,2.79-0.5c-0.44,0.39-0.8,0.71-1.29,1.14
		c2.27,1.66,3.94,3.64,3.68,6.64c-0.16,1.9-1.12,3.37-2.53,4.58C77.39,201.46,73.55,201.63,72.02,199.73z"/>
	<path class="st0" d="M116.97,207.04c-0.71,0.73-1.43,1.45-1.98,2.02c-0.19-1.33-0.42-2.8-0.62-4.28c-0.13-0.95-0.38-1.93,0.81-2.51
		c0.3-0.15,0.45-0.65,0.58-1.03c0.03-0.09-0.35-0.46-0.46-0.43c-0.39,0.12-0.83,0.27-1.09,0.56c-1.59,1.81-3.09,3.72-4.72,5.5
		c-1.37,1.5-2.83,2.92-4.34,4.26c-0.42,0.38-1.2,0.36-1.81,0.52c0.08-0.62,0-1.33,0.28-1.84c0.81-1.48,1.78-2.88,2.67-4.32
		c0.64-1.03,1.27-2.06,1.96-3.18c-1.71-0.19-2.88,0.23-3.81,1.41c-0.9,1.14-1.88,2.21-2.88,3.27c-0.52,0.56-1.1,1.12-1.76,1.47
		c-0.38,0.2-1.1,0.14-1.45-0.1c-0.25-0.19-0.36-1.01-0.16-1.3c0.57-0.86,1.3-1.62,2.02-2.38c0.66-0.7,1.39-1.34,2.18-2.1
		c-1.73-0.8-2.52-0.37-3.43,1.15c-0.74,1.24-1.7,2.34-2.56,3.5c-0.09-0.07-0.18-0.14-0.28-0.21c0.29-1,0.71-1.99,0.82-3.01
		c0.06-0.57-0.24-1.46-0.67-1.72c-0.44-0.26-1.3-0.08-1.86,0.17c-0.64,0.3-1.18,0.84-1.69,1.36c-2.09,2.15-4.12,4.36-6.24,6.48
		c-0.64,0.64-1.49,1.07-2.25,1.59c-0.19-0.15-0.38-0.31-0.57-0.46c1.14-3.31,3.66-5.93,5.18-9.04c-0.09-0.15-0.17-0.29-0.26-0.43
		c-1.07,0.5-2.14,0.99-3.2,1.49c-0.68-1.4-1.65-1.76-3.56-1.09c-2.71,0.95-4.63,2.9-6.18,5.03c0.29,0.68,0.29,1.38,0.52,2.01
		c0.34,0.95,0.63,2.35,1.32,2.62c0.8,0.32,2.06-0.25,3.01-0.68c0.69-0.31,1.21-1.01,1.62-1.37c0.44,0.78,0.77,2.05,1.3,2.14
		c0.85,0.15,1.97-0.28,2.73-0.81c1.13-0.8,2.07-1.89,3.04-2.89c1.55-1.59,3.03-3.26,4.63-4.8c0.49-0.48,1.27-0.66,1.92-0.97
		c0.13,0.17,0.26,0.35,0.39,0.52c-1.89,2.91-3.79,5.83-5.75,8.84c2.21,0.1,2.19,0.08,3.43-1.37c1.18-1.38,2.41-2.71,3.5-3.94
		c0.34,0.9,0.41,1.94,0.95,2.33c0.94,0.69,1.93,0.01,2.73-0.67c0.33-0.28,0.6-0.62,0.89-0.94c0.49-0.53,0.97-1.06,1.45-1.59
		c-0.28,1.05-0.8,1.92-1.2,2.84c-0.49,1.12-0.71,2.31,0.33,3.21c1.1,0.96,2.24,0.43,3.14-0.37c1.37-1.22,2.66-2.54,3.92-3.87
		c1.34-1.42,2.62-2.91,4.14-4.62c0.27,3.07-0.22,5.55-1.88,7.73c-0.48,0.63-1.06,1.29-2.12,0.78c0.06-0.26,0.14-0.48,0.15-0.71
		c0.01-0.44-0.02-0.87-0.03-1.31c-0.37,0.03-0.93-0.07-1.06,0.12c-0.26,0.39-0.56,1.11-0.37,1.37c0.37,0.54,1.07,1.24,1.6,1.21
		c1.2-0.07,2.54-0.28,3.52-0.92c1.35-0.88,2.42-2.2,3.59-3.35c0.15-0.15,0.17-0.42,0.25-0.63
		C117.19,207.21,117.08,207.12,116.97,207.04z M79.44,211.3c-1.22,0.74-2.01,0.29-1.79-1.04c0.51-3.04,2.01-5.53,4.65-7.19
		c1.33-0.84,2.43-0.34,2.42,1.11c-0.07,0.25-0.14,0.68-0.31,1.08C83.36,207.77,81.78,209.87,79.44,211.3z"/>
	<path class="st0" d="M147.28,186.57c-1.37-0.02-2.83,0.17-4.13,0.61c-6.42,2.2-11.69,5.98-15.39,11.74
		c-0.61,0.95-1.33,1.42-2.41,1.59c-1.11,0.17-2.2,0.5-3.29,0.75c0.03,0.15,0.06,0.31,0.1,0.46c1.47-0.3,2.94-0.6,4.48-0.92
		c-0.29,1.3-0.65,2.42-0.76,3.55c-0.12,1.14-0.13,2.33,0.05,3.46c0.41,2.55,2.29,4.21,4.84,4.48c4.45,0.47,9.52-2.97,10.72-7.28
		c0.82-2.96-1.17-5.09-4.14-4.35c-0.68,0.17-1.38,0.5-1.93,0.94c-2.55,2.03-3.49,4.77-3.4,7.92c0.14,0.04,0.28,0.09,0.41,0.14
		c0.26-0.8,0.49-1.6,0.79-2.38c0.86-2.27,2.08-4.3,4.35-5.41c2.14-1.04,3.73,0.13,3.48,2.47c-0.04,0.38-0.13,0.77-0.28,1.12
		c-1.56,3.57-4.29,5.68-8.13,6.23c-2.25,0.32-4-1.01-4.13-3.26c-0.1-1.71,0.22-3.45,0.43-5.16c0.3-2.41,1.62-3.62,4.08-4.3
		c4.76-1.3,9.44-2.99,13.44-6c1.11-0.84,2.09-2.03,2.75-3.27C150.05,188.09,149.11,186.6,147.28,186.57z M148.05,190.67
		c-1.87,1.62-3.85,3.28-6.08,4.31c-3.44,1.6-7.11,2.71-10.68,4.01c-0.17,0.06-0.37,0.03-0.85,0.06c3.62-6.05,8.39-10.14,14.99-11.94
		c0.18-0.05,0.38-0.06,0.57-0.08c1.03-0.11,2.3-0.24,2.62,0.9C148.86,188.74,148.63,190.16,148.05,190.67z"/>
	<path class="st0" d="M111.95,196.19c-0.83,0.65-1.34,1.15-1.95,1.45c-0.11,0.05-0.97-0.93-0.89-1.08c0.35-0.58,0.89-1.08,1.47-1.45
		C110.7,195.03,111.25,195.63,111.95,196.19z"/>
</g>
</svg>
