<?xml version="1.0" encoding="utf-8"?>
<!-- Generator: Adobe Illustrator 28.1.0, SVG Export Plug-In . SVG Version: 6.00 Build 0)  -->
<svg version="1.1" id="Layer_1" xmlns="http://www.w3.org/2000/svg" xmlns:xlink="http://www.w3.org/1999/xlink" x="0px" y="0px"
	 viewBox="0 0 250 250" style="enable-background:new 0 0 250 250;" xml:space="preserve">
<style type="text/css">
	.st0{fill:#FFFFFF;}
</style>
<g>
	<path class="st0" d="M107.65,94.69c1.55-0.87,3.28-0.12,4.88-0.53c0.84,0.68,1.94,0.55,2.9,0.86c0.67,0.22,1.53,0.92,2.1,0.14
		c0.54-0.73-0.85-0.77-0.86-1.45c0-0.19-0.05-0.38-0.08-0.57c0,0-0.02,0.01-0.02,0.01c0.33,0.03,0.62-0.06,0.82-0.34
		c0,0-0.01,0-0.01,0c0.32,0,0.58-0.1,0.76-0.37c0.23-0.14,0.45-0.28,0.68-0.42c0.16,0.02,0.32,0.03,0.47,0.05
		c0.03,0.11,0.05,0.22,0.08,0.33c0.05-0.03,0.11-0.06,0.16-0.09c-0.07-0.08-0.15-0.17-0.22-0.25c0-0.12,0-0.23,0-0.35l0.02-0.01
		c0.24,0,0.49-0.01,0.73-0.01c0.98,0.56,1.56,0.33,2.52-0.45c1.3-1.07,1.21-2.61,2.07-3.74c0.07-0.08,0.15-0.16,0.22-0.25
		c-0.05-0.03-0.11-0.06-0.16-0.09c-0.02,0.11-0.05,0.22-0.07,0.33c-0.26-0.14-0.52-0.28-0.78-0.42c2.84-6.65,1.7-11.46-3.83-15.84
		c-0.62-0.49-0.73-0.84-0.53-1.57c0.79-2.92,2.1-5.56,3.82-8.04c0.92-1.32,1.75-1.38,3.13-0.6c12.82,7.27,14.81,24.93,3.87,35.33
		c-6.39,6.08-14.23,8.04-22.8,7.68c-1.33-0.05-2.65-0.27-3.97-0.46c-0.77-0.12-1.2-0.07-1.07,0.92
		c1.44,10.68,4.67,20.65,11.56,29.16c0.11,0.14,0.31,0.21,0.49,0.34c9.23-13.94,22.54-22.6,37.59-29.19
		c-0.47-0.83-1.38-1.2-2.08-1.79c-3.85-3.27-6.52-7.26-7.43-12.28c-0.16-0.89-0.56-2.13,0.23-2.67c0.67-0.46,1.64,0.36,2.43,0.73
		c3.34,1.56,6.72,3.07,10.38,3.66c12.46,1.99,23.29-5.34,26.18-17.79c1.93-8.31,0.81-16.22-4.3-23.19
		c-4.41-6.02-12.55-7.05-17.79-2.56c-3.4,2.91-4.67,7.59-3.09,11.35c1.86,4.4,6.16,7.04,10.78,6.53c1.45-0.16,2.92-0.36,4.3-0.79
		c1.15-0.35,1.65,0,2.02,1c1.08,2.95,1.51,6.02,1.83,9.12c0.09,0.89-0.47,1.07-1.07,1.29c-12.67,4.63-29.3-2.22-28.21-20.19
		c0.6-9.83,8.46-17.61,18.31-18.58c5.4-0.54,10.51,0.04,15.16,3.06c0.76,0.5,0.99,0.11,1.41-0.48c2.82-3.95,6.67-6.09,11.89-6.47
		c-1.36,2.12-2.47,4.04-3.17,6.18c-1.8,5.51-1.01,11.01-0.2,16.57c1.76,12.11,0.54,23.71-6.7,34.08
		c-5.29,7.58-12.52,12.88-20.48,17.32c-8.22,4.58-16.35,9.3-23.74,15.16c-10.43,8.26-17.04,18.99-20.6,31.72
		c-0.17,0.61-0.34,1.22-0.54,1.94c-1.1-0.35-1.75-1.23-2.47-1.96c-10.64-10.87-16.86-23.97-19.53-38.85
		c-0.91-5.09-1.32-10.21-1.17-15.36c0.03-1.08-0.33-1.69-1.18-2.35c-11.39-8.77-11.07-25.46-4.23-33.83
		c0.3-0.11,0.45-0.33,0.49-0.64c0.01-0.12,0.07-0.17,0.19-0.16c0.8,0.6,1.45,0.12,2.1-0.31l0,0c0.25,1.24,0.45,2.48,0.09,3.75
		c-0.07,0.24,0.2,0.57,0.31,0.86c-1.63,4.15-1.96,8.42-1.1,12.79c-0.04,0.35,0.01,0.67,0.28,0.92c0.03,0.13,0.06,0.26,0.09,0.39
		c-0.63,0.02-0.75,0.59-1.06,0.97c-0.63,0.79-2.06,1.66,0.36,1.96c0.51,0.06,1.15,0.68,0.89,1.45c-0.54,1.67,0.56,1.05,1.29,0.96
		c0,0,0,0,0,0c0.1,0.35,0.19,0.71,0.29,1.06c0.14,0.51,0.14,1.32,0.9,1.12c1.05-0.28-0.06-0.82,0-1.26c0.04-0.3-0.03-0.61-0.05-0.92
		l0.01-0.01c0.12,0,0.24,0.01,0.36,0.01c0.13,0.14,0.26,0.28,0.39,0.42c0.21,0.42,0.01,1.26,0.86,1.03
		c0.32-0.09,0.15-0.51-0.13-0.72c0.11-0.51,0.22-1.02,0.34-1.53c0.05-0.02,0.15-0.05,0.15-0.07c0-0.09-0.03-0.19-0.06-0.28
		c0.04-0.26,0.07-0.52,0.11-0.78c0.08-0.28,0.17-0.55,0.25-0.83c-0.06-0.11-0.05-0.21,0.06-0.3c0.12,0,0.24,0,0.36,0
		c0.32,0.45,0.62,0.97,1.3,0.45c-0.28-0.65-0.85-0.36-1.3-0.45c-0.1-0.13-0.2-0.25-0.3-0.38c-0.07-0.44,0.11-0.8,0.33-1.15
		c0.37-0.36,0.36-0.81,0.31-1.26c-0.05-0.65,0.22-1.22,0.48-1.79c0.33-0.3,0.35-0.7,0.32-1.1c-0.01-0.46,0.09-0.89,0.4-1.24
		c0.34,0.57-0.02,1.7,1.19,1.56c0.53-0.06,0.68-0.5,0.67-0.99c-0.03-0.99-0.64-1.28-1.52-1.24c-0.06,0-0.13,0-0.19,0
		c0.07-0.14,0.14-0.27,0.2-0.41c0.24-0.17,0.62-0.3,0.69-0.52c0.09-0.31-0.31-0.24-0.51-0.3c0.29-0.77,0.58-1.53,0.87-2.3
		c0.07-0.08,0.11-0.17,0.12-0.28c0,0,0.01-0.04,0.01-0.04c1.05-0.4,1.63-0.2,2.1,0.99c0.47,1.2,0.44,2.6,1.38,3.61
		c-0.17,0.89-0.34,1.77-0.51,2.66c-0.26,0.3-0.29,0.66-0.23,1.03c-0.07,0.67-0.14,1.34-0.21,2.01c-0.8,0.73-0.99-0.12-1.36-0.85
		c-0.14,2.33-0.26,4.32-0.37,6.32c-0.04,0.82,0.14,1.53,1.07,1.78c0,0.25,0,0.51,0,0.76c-0.44,0.24-0.85,0.57-1.31,0.69
		c-0.9,0.23-1.04,0.83-0.9,1.58c0.19,1,1.02,0.73,1.67,0.76c1.18,0.06,1.49-1.3,2.5-1.52c0.76,0.15,1.51,0.3,2.27,0.45
		C106.34,94.71,106.94,94.84,107.65,94.69z M118.54,93.21c-0.02,0.04-0.04,0.08-0.06,0.12C118.5,93.29,118.52,93.25,118.54,93.21
		c0.03-0.03,0.05-0.07,0.07-0.11C118.58,93.14,118.56,93.18,118.54,93.21z M97.63,88.34c-1.14,1.06-1.71,2.02-0.69,3.24
		c0.35,0.42,0.87,0.61,1.37,0.32c0.5-0.3,0.24-0.76,0.09-1.19C98.15,90.01,97.93,89.29,97.63,88.34z M90.57,66.15
		c-0.47,0-0.9,0.08-0.96,0.66c-0.04,0.44,0.18,0.72,0.63,0.76c0.53,0.04,0.82-0.28,0.95-0.74C91.35,66.3,90.99,66.19,90.57,66.15z
		 M101.36,79.93c-0.5,0.93-0.5,1.6,0.01,2.53C101.87,81.52,101.88,80.86,101.36,79.93z M99.05,83.6c-0.1-0.4-0.26-0.66-0.65-0.55
		c-0.1,0.03-0.23,0.35-0.19,0.4c0.19,0.22,0.44,0.39,0.67,0.57C98.94,83.86,99.01,83.71,99.05,83.6z M98.43,81.04l0.13,0.01
		l-0.06-0.14L98.43,81.04z"/>
	<path class="st0" d="M232.07,15.64c-2.74,1.51-5.42,2.76-7.78,4.56c-6.7,5.1-10.23,12.12-12.24,20.07
		c-2.1,8.33-2.81,16.89-4.19,25.34c-1.51,9.24-3.77,18.25-8.11,26.63c-5.77,11.14-14.85,18.64-26.04,23.86
		c-6.67,3.11-13.64,5.56-20.13,9.03c-13.03,6.95-23.98,16.16-31.21,29.3c-0.8,1.45-1.43,2.98-2.32,4.4
		c0.95-5.25,2.87-10.13,5.54-14.72c6.52-11.18,16.13-18.96,27.42-24.88c7.42-3.88,14.94-7.57,22.08-11.99
		c10.81-6.7,17.12-16.48,20.18-28.64c2.21-8.77,3.09-17.74,4.18-26.68c0.98-7.95,2.05-15.87,6.11-23
		C210.67,19.98,222.42,14.01,232.07,15.64z"/>
	<path class="st0" d="M108.12,177.61c-0.39,0.6-0.19,1.24-0.19,1.84c-0.01,9.09,0.08,18.19-0.04,27.28
		c-0.05,3.82,0.91,7.13,3.52,9.94c0.35,0.37,0.68,0.76,0.96,1.18c0.35,0.51,1,0.99,0.74,1.66c-0.3,0.79-1.11,0.37-1.67,0.38
		c-3.05,0.04-6.1,0.04-9.16,0c-0.44,0-1.08,0.33-1.31-0.36c-0.18-0.53,0.11-0.98,0.46-1.38c0.74-0.85,1.66-1.51,2.24-2.52
		c1.12-1.96,1.36-4.03,1.35-6.27c-0.08-10.94-0.03-21.87-0.04-32.81c0-2.8-0.7-3.85-3.26-4.9c-0.55-0.23-1.37-0.23-1.15-1.16
		c0.21-0.9,0.95-0.31,1.43-0.4c7.39-1.31,11.88,2.84,15.79,8.28c5.97,8.3,11.75,16.74,18.07,24.79c1.6,2.04,3.26,4.02,5.3,5.68
		c0.52-0.55,0.26-1.15,0.26-1.67c-0.09-9.28,0.2-18.56-0.19-27.84c-0.14-3.32-1.4-5.98-3.88-8.12c-0.31-0.27-0.76-0.47-0.81-1.12
		c3.82,0,7.62,0,11.41,0c0.07,0.55-0.32,0.74-0.61,0.93c-2.91,1.9-3.45,4.72-3.43,7.96c0.07,12.91,0.02,25.82-0.02,38.72
		c0,0.62,0.46,1.72-0.44,1.79c-1.09,0.08-2.42,0.71-3.36-0.53c-1.19-1.57-2.4-3.12-3.59-4.69c-9.02-11.89-17.84-23.92-27.19-35.56
		C109,178.31,108.82,177.68,108.12,177.61z"/>
	<path class="st0" d="M237.28,208.62c-0.31-10.16,0.33-20.33-0.36-30.49c-0.19-2.79-1.54-4.9-3.5-6.74c-0.4-0.37-0.8-0.74-1.45-1.34
		c4.2,0,8.02,0,11.84,0c0.17,0.43-0.16,0.65-0.39,0.78c-3.34,2.05-3.74,5.28-3.72,8.78c0.04,12.59,0.02,25.18-0.02,37.76
		c0,0.72,0.58,1.95-0.5,2.12c-1.19,0.19-2.53,0.54-3.59-0.91c-4.71-6.39-9.51-12.71-14.33-19.02c-5.4-7.06-10.84-14.09-16.27-21.13
		c-0.3-0.39-0.57-0.85-1.28-0.99c0,3.37,0,6.71,0,10.05c0,6.23,0.07,12.46-0.03,18.69c-0.07,4.04,0.82,7.67,3.69,10.65
		c0.4,0.41,0.75,0.87,1.09,1.32c0.31,0.41,0.65,0.87,0.46,1.39c-0.25,0.65-0.88,0.31-1.32,0.32c-3.18,0.03-6.36,0.04-9.54,0.01
		c-0.42,0-1.08,0.35-1.25-0.42c-0.12-0.54,0.09-0.93,0.57-1.28c2.74-2.05,3.5-4.82,3.46-8.18c-0.14-11.12-0.06-22.25-0.06-33.38
		c0-3.23-0.37-3.78-3.31-4.99c-0.57-0.23-1.36-0.31-1.12-1.2c0.24-0.88,0.96-0.3,1.45-0.33c1.08-0.06,2.17,0.09,3.24-0.04
		c3.51-0.44,6.09,1.19,8.45,3.52c4.02,3.96,6.89,8.78,10.21,13.27c4.98,6.74,9.54,13.79,15.19,20.02c0.63,0.69,1.19,1.44,1.78,2.15
		C236.87,208.9,237.08,208.76,237.28,208.62z"/>
	<path class="st0" d="M103.34,78.35c-0.94-1.01-0.91-2.42-1.38-3.61c-0.47-1.19-1.05-1.39-2.1-0.99
		c2.49-7.61,6.33-14.53,11.14-20.89c9.72-12.85,22.79-20.7,38.03-25.29c10.92-3.29,22.1-5.16,33.44-6.14
		c5.13-0.44,10.25-0.9,15.36-1.55c5.06-0.64,9.71-2.41,13.99-6.27c-1.2,3.73-3.29,6.06-5.97,7.95c-5.07,3.57-10.87,5.15-16.88,5.97
		c-8.69,1.19-17.48,1.37-26.2,2.28c-19.19,2-35.41,9.53-47.53,24.91c-5.44,6.9-9.42,14.59-11.63,23.14
		C103.57,78.05,103.43,78.19,103.34,78.35z"/>
	<path class="st0" d="M59.43,219.82c-4.42,0-8.78,0-13.16,0c-0.02-0.07-0.13-0.24-0.09-0.28c2.08-2.25,2.2-4.58,0.74-7.28
		c-1.11-2.05-1.83-4.32-2.73-6.49c-0.46-1.1-1.17-1.62-2.48-1.6c-5.4,0.08-10.81,0.02-16.22,0.03c-0.74,0-1.44-0.11-1.79,0.91
		c-0.92,2.7-1.93,5.36-2.98,8.01c-0.8,2.02-0.74,3.82,0.93,5.4c0.31,0.29,0.52,0.7,0.91,1.24c-3.75,0-7.29,0-11.03,0
		c0.26-0.35,0.38-0.67,0.62-0.81c4.26-2.69,5.53-7.27,7.24-11.54c4.03-10.07,8.2-20.08,11.99-30.25c0.48-1.28,0.43-2.24-0.16-3.38
		c-0.74-1.41-1.53-2.77-2.94-4.17c2.59,0,4.89-0.07,7.18,0.03c1.14,0.05,1.63,1.12,2.15,1.97c1.41,2.29,2.15,4.86,3.1,7.35
		c3.62,9.54,7.22,19.1,10.81,28.65c1.47,3.91,3.35,7.53,6.55,10.35C58.59,218.44,59.19,218.94,59.43,219.82z M33.56,179.38
		c-2.86,7.55-5.54,14.61-8.3,21.89c5.56,0,10.88-0.01,16.19,0.01c1.16,0,0.81-0.58,0.55-1.22C39.25,193.32,36.5,186.58,33.56,179.38
		z"/>
	<path class="st0" d="M194.59,219.85c-4.34,0-8.64,0-12.94,0c-0.02-0.12-0.11-0.3-0.06-0.35c2.21-2.34,1.96-4.82,0.61-7.5
		c-1.03-2.03-1.78-4.2-2.71-6.29c-0.47-1.06-1.22-1.57-2.52-1.55c-5.34,0.08-10.67,0.07-16.01,0.01c-1.11-0.01-1.69,0.27-2.06,1.39
		c-0.84,2.52-1.83,5-2.81,7.47c-0.82,2.07-0.78,3.95,0.98,5.56c0.31,0.28,0.5,0.68,0.88,1.21c-3.76,0-7.27,0-10.96,0
		c0.39-0.93,1.12-1.52,1.85-2.03c1.85-1.29,2.93-3.09,3.76-5.13c4.64-11.32,9.12-22.7,13.67-34.06c1.22-3.05,0.37-5.2-1.27-7.48
		c-0.32-0.45-0.74-0.83-1.37-1.52c2.6,0,4.91-0.13,7.2,0.05c1.33,0.1,1.86,1.44,2.42,2.49c1.41,2.64,2.28,5.5,3.34,8.28
		c3.55,9.36,7.07,18.73,10.63,28.09c1.34,3.53,3.1,6.81,6.07,9.3C193.87,218.31,194.53,218.87,194.59,219.85z M177.88,201.27
		c-2.99-7.29-5.9-14.37-8.98-21.87c-0.65,1.71-1.09,2.9-1.54,4.07c-2.06,5.39-4.13,10.77-6.14,16.17c-0.21,0.55-1.25,1.63,0.56,1.63
		C167.04,201.27,172.3,201.27,177.88,201.27z"/>
	<path class="st0" d="M60.32,170.11c12.21,0,23.71,0.01,35.2-0.02c0.97,0,1.54,0.28,1.88,1.18c0.61,1.6,1.29,3.17,1.89,4.77
		c0.19,0.52,0.47,1.21-0.07,1.59c-0.49,0.35-1.07-0.03-1.58-0.32c-3.49-1.98-7.11-3.62-11.05-4.49c-4.19-0.92-8.42-1.24-12.68-0.92
		c-3.36,0.25-4.16,1.23-4.16,4.55c0,4.96,0.05,9.92-0.03,14.88c-0.02,1.38,0.31,1.93,1.77,1.89c3.81-0.1,7.63-0.06,11.44-0.09
		c3.03-0.03,5.44-1.53,7.76-3.26c0.6-0.45,1.23-1.14,2.02-0.8c0.89,0.39,0.41,1.35,0.42,2.03c0.06,2.48-0.02,4.96,0.03,7.43
		c0.03,1.53-0.62,1.62-1.74,0.98c-0.27-0.16-0.56-0.32-0.78-0.55c-2.59-2.72-5.88-3.21-9.42-3.12c-3.37,0.09-6.74,0.06-10.11-0.01
		c-1.07-0.02-1.41,0.27-1.4,1.37c0.05,5.28,0.02,10.55,0.02,15.83c0,2.26,0.52,4.28,2.6,5.59c0.31,0.2,0.72,0.45,0.63,0.87
		c-0.13,0.57-0.68,0.46-1.11,0.46c-3.43,0.01-6.87,0.01-10.3,0.01c-0.37,0-0.8,0.04-0.97-0.42c-0.18-0.48,0.21-0.7,0.52-0.88
		c2-1.16,2.18-2.97,2.17-5.07c-0.07-12.46-0.1-24.92,0.02-37.39C63.34,173.78,62.54,171.96,60.32,170.11z"/>
	<path class="st0" d="M180.45,232.6c-1.8,3.91-3.59,7.81-5.41,11.71c-0.25,0.53-0.27,1.45-1.02,1.39c-0.59-0.04-0.98-0.75-1.32-1.29
		c-1.48-2.39-2.24-5.1-3.37-7.64c-0.59-1.32-1.05-2.7-1.96-3.88c-2.16,4.04-2.61,12.03-0.75,14.82c-1.68,0.22-3.27,0.2-4.79,0.04
		c3.21-5.59,4.05-11.54,3.78-17.83c3.4-0.26,3.4-0.26,4.92,3.2c1.28,2.9,2.56,5.79,4,9.04c1.12-2.33,2.12-4.39,3.11-6.47
		c0.46-0.97,0.96-1.94,1.3-2.96c0.78-2.37,2.14-3.64,4.5-2.8c-0.17,6.11,0.9,11.98,3.15,17.84c-0.47,0.27-1.23,0.06-1.93,0.07
		c-2,0.04-1.81,0-1.93-1.67c-0.19-2.72-0.65-5.41-1.03-8.11c-0.26-1.81-0.58-3.62-0.87-5.43
		C180.71,232.61,180.58,232.6,180.45,232.6z"/>
	<path class="st0" d="M116.11,108.11c3.78,0.01,6.84,2.99,6.84,6.67c0,3.67-3.11,6.68-6.88,6.67c-3.66-0.01-6.68-2.99-6.69-6.6
		C109.38,111.04,112.3,108.1,116.11,108.11z"/>
	<path class="st0" d="M139.1,55.11c-3.81-0.07-6.87-3.13-6.76-6.76c0.11-3.63,3.37-6.69,7.01-6.58c3.69,0.11,6.64,3.1,6.62,6.73
		C145.95,52.22,142.87,55.18,139.1,55.11z"/>
	<path class="st0" d="M114.4,87.92c-3.8,0.01-6.73-2.8-6.75-6.51c-0.03-3.75,2.94-6.68,6.82-6.72c3.66-0.03,6.72,2.95,6.74,6.58
		C121.23,85.1,118.35,87.91,114.4,87.92z"/>
	<path class="st0" d="M69.74,229.76c3.94,0.35,7.51-0.32,11.03,0.45c1.44,0.31,2.81,0.75,3.92,1.79c2.61,2.44,1.73,5.79-1.93,7.33
		c-2.42,1.02-2.53,1.24-1.07,3.47c1.43,2.18,3.05,4.22,4.88,6.08c0.29,0.3,0.81,0.45,0.7,1.12c-1,0.11-1.83-0.4-2.58-0.92
		c-2.86-1.98-5.29-4.4-6.64-7.65c-0.74-1.78-2.15-0.99-3.23-1.04c-1.03-0.05-0.62,1.11-0.57,1.68c0.16,1.84-0.65,3.81,0.77,5.61
		c-1.6,0.32-3.14,0.15-4.74,0.1C71.88,245.13,71.69,231.61,69.74,229.76z M76.68,239.31c1.35,0.07,2.66-0.06,3.87-0.73
		c1.59-0.88,2.41-2.23,2.3-4.05c-0.11-1.82-1.22-2.82-2.92-3.32c-1.3-0.39-2.63-0.35-3.96-0.41c-1.25-0.06-1.88,0.35-1.79,1.74
		c0.1,1.45,0.01,2.92,0.02,4.38C74.24,239.57,73.85,239.31,76.68,239.31z"/>
	<path class="st0" d="M216.03,16.64c1.89-3.18,5.14-4.08,8.36-5.02c0.36-0.11,0.74-0.17,1.12-0.21c1.29-0.15,2.17-0.31,1.93-2.17
		c-0.26-1.93,1.37-3.03,3.03-3.7c1.6-0.65,3.3-0.88,5.03-0.8c3.66,0.18,7.31,0.36,11.27,0.23c-1.65,2.02-3.52,2.73-5.7,2.76
		c-2.09,0.02-4.19-0.02-6.28-0.04c-0.84-0.01-1.67,0.08-2.37,0.55c-0.6,0.4-1.04,0.97-0.91,1.75c0.17,0.99,0.99,0.55,1.54,0.58
		c1.77,0.12,3.54,0.17,5.38,0.43c-2.1,1.04-3.74,2.83-6.46,2.72C226.48,13.5,221.1,14.11,216.03,16.64z"/>
	<path class="st0" d="M215.82,244.92c-0.51,1.75-1.05,3.08-3.33,2.97c-4.12-0.21-8.26-0.07-12.4-0.09c-0.11,0-0.21-0.11-0.49-0.25
		c1.22-0.6,1.14-1.67,1.16-2.72c0.06-3.88,0.15-7.75,0.21-11.63c0.02-1.19,0.12-2.43-1.52-3.35c4.83,0,9.15,0.04,13.47-0.02
		c1.87-0.02,1.39,1.57,1.98,2.45c-0.5,0.37-0.91,0.25-1.29-0.02c-2.55-1.87-5.49-1.68-8.42-1.67c-1.27,0-1.73,0.61-1.71,1.74
		c0.03,1.69-0.54,4.23,0.3,4.87c1.34,1.01,3.66,0.44,5.54,0.21c1.01-0.13,1.96-0.78,3.06-1.25c0,1.29,0,2.47,0,3.73
		c-0.12,0.03-0.37,0.17-0.43,0.11c-2.23-2.17-5.03-1.23-7.62-1.42c-0.86-0.06-0.85,0.52-0.85,1.12c0.01,1.91,0.04,3.82,0,5.72
		c-0.03,1.27,0.59,1.62,1.76,1.62C208.89,247.03,212.56,247.18,215.82,244.92z"/>
	<path class="st0" d="M15.7,247.77c-1.87,0-3.37,0-5.38,0c1.24-0.83,1.31-1.78,1.31-2.78c-0.02-4.06-0.08-8.12,0.04-12.18
		c0.04-1.24-0.65-1.92-1.67-3.02c4.21,0.21,7.99-0.35,11.73,0.47c2.83,0.62,4.42,2.52,4.46,5.15c0.03,2.51-1.28,4.01-4.25,4.78
		c-2.11,0.55-4.27,0.53-6.42,0.51c-0.87-0.01-1.3,0.18-1.21,1.14C14.47,243.81,13.72,245.96,15.7,247.77z M16.91,239.81
		c1.04,0.07,2.24-0.1,3.38-0.48c1.53-0.52,2.67-1.49,2.83-3.23c0.16-1.81-0.28-3.41-2-4.38c-1.6-0.91-3.35-1.09-5.14-1.03
		c-1.11,0.04-1.73,0.57-1.69,1.81c0.06,1.65,0.01,3.3,0.02,4.95C14.31,239.86,14.31,239.86,16.91,239.81z"/>
	<path class="st0" d="M228.22,243.17c1.66,0.27,2.26,1.62,3.28,2.41c2.15,1.66,5.08,1.95,7.3,0.59c2.22-1.36,2.33-3.53,0.2-5.04
		c-1.58-1.12-3.5-1.45-5.27-2.1c-1.25-0.46-2.55-0.8-3.64-1.6c-2.55-1.86-2.43-5.04,0.34-6.54c3.28-1.78,6.64-1.24,9.92,0.08
		c1.48,0.6,0.1,1.98,0.9,2.86c-1.17,0.23-1.42-0.59-1.9-1.01c-2.05-1.75-4.29-2.72-7-1.8c-0.98,0.33-1.86,0.91-2.01,2.06
		c-0.17,1.25,0.59,2.04,1.58,2.59c2.12,1.18,4.51,1.67,6.77,2.48c2.57,0.92,3.9,2.38,3.95,4.52c0.05,2.16-1.16,3.72-3.76,4.67
		c-3.44,1.26-6.75,0.46-10.01-0.75C228.26,246.37,228.29,246.28,228.22,243.17z"/>
	<path class="st0" d="M56.42,232.26c-0.67,0.37-1.08,0.25-1.45-0.03c-2.49-1.83-5.36-1.67-8.23-1.65c-1.29,0.01-1.91,0.49-1.85,1.79
		c0.01,0.19-0.01,0.38,0,0.57c0.13,1.5-0.62,3.99,0.28,4.3c1.91,0.68,4.23,0.61,6.33-0.08c0.77-0.25,1.5-0.65,2.16-0.94
		c0.41,0.21,0.34,0.48,0.33,0.72c-0.02,0.95,0.31,2.28-0.18,2.76c-0.79,0.76-1.48-0.66-2.33-0.88c-2.01-0.52-4.04-0.13-6.06-0.23
		c-0.53-0.03-0.53,0.42-0.53,0.81c0,2.1,0,4.2,0,6.29c0,0.98,0.51,1.33,1.44,1.33c3.74,0.01,7.52,0.24,10.82-2.3
		c-0.22,2.27-1.03,3.11-2.9,3.12c-4.36,0.01-8.71,0-13.23-0.17c1.4-0.81,1.19-2.06,1.2-3.23c0.03-4.01,0.03-8.01,0.06-12.02
		c0.01-0.9,0.06-1.79-0.86-2.57c4.46,0,8.92-0.07,13.38,0.04C56.24,229.92,55.68,231.56,56.42,232.26z"/>
	<path class="st0" d="M145.44,229.87c1.4,0,2.79,0,4.52,0c-2.2,2.11-1.54,4.66-1.65,7.06c-0.1,2.02,0.13,4.05-0.29,6.08
		c-0.53,2.54-2.08,4.04-4.47,4.66c-2.69,0.7-5.42,0.62-8.1-0.14c-2.78-0.79-4.03-2.43-4.12-5.44c-0.08-2.86-0.03-5.72-0.05-8.58
		c-0.01-1.24,0.33-2.58-0.99-3.56c1.51,0,3.03,0,4.54,0c-1.37,1-1.03,2.39-1.04,3.68c0,2.54-0.04,5.09,0.01,7.63
		c0.08,4.09,2.1,5.85,6.54,5.8c4.24-0.05,6.41-2.09,6.42-6.04c0-1.84,0.01-3.69,0-5.53C146.76,233.56,147.19,231.51,145.44,229.87z"
		/>
	<path class="st0" d="M102.06,229.84c4.69,0,9.13,0,13.57,0c1.78,0,1.41,1.62,2.04,2.55c-0.94,0.46-1.53-0.24-2.16-0.51
		c-2.51-1.07-5.1-1.39-7.8-1.31c-1.49,0.04-2.09,0.67-1.94,2.11c0.02,0.19-0.01,0.38,0,0.57c0.16,1.61-0.67,4.32,0.37,4.62
		c2.23,0.65,4.87,0.83,7.21-0.45c0.49-0.27,1.28-1.27,1.62-0.31c0.35,0.99,0.34,2.26-0.09,3.34c-0.11,0.28-0.69,0.03-1.01-0.21
		c-2.26-1.73-4.89-0.81-7.36-1c-0.41-0.03-0.76,0.12-0.75,0.63c0.04,2.09,0.07,4.18,0.13,6.28c0.02,0.72,0.78,0.94,1.13,1.6
		c-1.62,0-3.18,0-5.06,0c1.34-1.02,1.23-2.3,1.22-3.59c-0.03-3.56-0.04-7.11,0-10.67C103.23,232.19,103.27,230.95,102.06,229.84z"/>
	<path class="st0" d="M91.83,64.21c-0.65,0.43-1.3,0.91-2.1,0.31c1.89-2.93,4.6-5.05,7.28-7.17c3.63-2.88,7.41-5.57,10.83-8.7
		c1.53-1.41,2.9-2.98,4.09-5.02c0.38,1.67-0.4,2.75-1.07,3.8c-2.14,3.35-5.15,5.93-7.96,8.67c-3.44,3.36-7.2,6.42-9.56,10.75
		c-0.36,0.66-0.74,1.31-1.12,1.96c-0.11-0.29-0.37-0.62-0.31-0.86C92.28,66.69,92.07,65.46,91.83,64.21
		c0.08-0.08,0.15-0.16,0.23-0.24c-0.05-0.03-0.11-0.06-0.16-0.09C91.87,63.99,91.85,64.1,91.83,64.21z"/>
	<path class="st0" d="M101.73,91.31c-0.92-0.25-1.11-0.96-1.07-1.78c0.1-2,0.23-4,0.37-6.32c0.36,0.73,0.56,1.57,1.36,0.85
		C102.17,86.47,101.95,88.89,101.73,91.31z"/>
	<path class="st0" d="M92.97,88.25c-0.73,0.09-1.83,0.71-1.29-0.96c0.25-0.78-0.39-1.39-0.89-1.45c-2.42-0.3-1-1.17-0.36-1.96
		c0.3-0.38,0.43-0.95,1.06-0.97c0.38,1.3,1.42,2.33,1.52,3.74C92.99,87.18,92.98,87.72,92.97,88.25z"/>
	<path class="st0" d="M123.86,87.06c0.26,0.14,0.52,0.28,0.78,0.42l0.01,0.01c-0.85,1.13-0.77,2.67-2.07,3.74
		c-0.96,0.79-1.54,1.02-2.52,0.45c0.09-0.23,0.18-0.46,0.27-0.69C121.68,89.84,122.81,88.48,123.86,87.06z"/>
	<path class="st0" d="M103.68,93.58c-1.01,0.22-1.33,1.59-2.5,1.52c-0.65-0.03-1.48,0.24-1.67-0.76c-0.14-0.75,0-1.35,0.9-1.58
		c0.47-0.12,0.88-0.46,1.31-0.69C101.72,93.42,103.09,93.01,103.68,93.58z"/>
	<path class="st0" d="M116.59,93.15c0.03,0.19,0.07,0.38,0.08,0.57c0.01,0.67,1.4,0.71,0.86,1.45c-0.57,0.78-1.42,0.08-2.1-0.14
		c-0.96-0.31-2.05-0.18-2.9-0.86C113.88,93.82,115.23,93.48,116.59,93.15z"/>
	<path class="st0" d="M98.49,77.6c0.06,0,0.13,0,0.19,0c0.88-0.04,1.49,0.25,1.52,1.24c0.01,0.49-0.14,0.92-0.67,0.99
		c-1.21,0.14-0.85-0.99-1.19-1.56C98.38,78.05,98.44,77.82,98.49,77.6z"/>
	<path class="st0" d="M92.97,88.25c0.01-0.53,0.02-1.07,0.03-1.6c0.64,0.15,0.86,0.69,1.12,1.2c0,0.13,0,0.27-0.01,0.4
		c0,0-0.01,0.01-0.01,0.01C93.73,88.26,93.35,88.26,92.97,88.25L92.97,88.25z"/>
	<path class="st0" d="M107.65,94.69c-0.71,0.15-1.31,0.02-1.7-0.66C106.59,94.08,107.36,93.76,107.65,94.69z"/>
	<path class="st0" d="M95.59,88.99c0.28,0.21,0.45,0.64,0.13,0.72c-0.85,0.23-0.64-0.61-0.86-1.03
		C95.11,88.79,95.35,88.89,95.59,88.99z"/>
	<path class="st0" d="M98.87,76.37c0.21,0.06,0.6-0.01,0.51,0.3c-0.07,0.22-0.45,0.35-0.69,0.52
		C98.75,76.91,98.81,76.64,98.87,76.37z"/>
	<path class="st0" d="M97.12,82.41c0.05,0.46,0.06,0.91-0.31,1.26C96.77,83.21,96.76,82.76,97.12,82.41z"/>
	<path class="st0" d="M97.93,79.51c0.03,0.41,0,0.8-0.32,1.1C97.53,80.19,97.64,79.82,97.93,79.51z"/>
	<path class="st0" d="M118.14,92.45c-0.18,0.27-0.45,0.37-0.76,0.37C117.63,92.7,117.89,92.57,118.14,92.45z"/>
	<path class="st0" d="M96.37,85.5c-0.08,0.28-0.17,0.55-0.25,0.83C96.21,86.05,96.29,85.78,96.37,85.5z"/>
	<path class="st0" d="M120.07,91.69c-0.24,0-0.49,0.01-0.73,0.01c0.24-0.16,0.49-0.32,0.73-0.49
		C120.06,91.37,120.06,91.53,120.07,91.69z"/>
	<path class="st0" d="M91.39,82.53c-0.26-0.26-0.31-0.58-0.28-0.92C91.38,81.86,91.44,82.18,91.39,82.53z"/>
	<path class="st0" d="M102.6,82.04c-0.07-0.38-0.04-0.73,0.23-1.03C102.87,81.38,102.88,81.75,102.6,82.04z"/>
	<path class="st0" d="M89.54,64.68c-0.04,0.31-0.18,0.54-0.49,0.64C89.14,65.05,89.22,64.77,89.54,64.68z"/>
	<path class="st0" d="M117.38,92.82c-0.2,0.28-0.49,0.38-0.82,0.34C116.76,92.87,117.05,92.79,117.38,92.82z"/>
	<path class="st0" d="M94.12,88.25c0-0.13,0-0.27,0.01-0.4c0.12,0.14,0.24,0.27,0.35,0.41C94.36,88.26,94.24,88.26,94.12,88.25z"/>
	<path class="st0" d="M119.29,92.08c-0.16-0.02-0.32-0.03-0.47-0.05c0.17-0.1,0.33-0.21,0.5-0.31c-0.01,0.12-0.01,0.23,0,0.35
		L119.29,92.08z"/>
	<path class="st0" d="M96.02,87.11c0.02,0.09,0.05,0.19,0.06,0.28c0,0.02-0.09,0.05-0.15,0.07C95.96,87.34,95.99,87.23,96.02,87.11z
		"/>
	<path class="st0" d="M120.07,91.69c0-0.16,0-0.32,0-0.47c0.09-0.07,0.18-0.15,0.27-0.22C120.25,91.23,120.16,91.46,120.07,91.69z"
		/>
	<path class="st0" d="M96.79,85.2c-0.12,0-0.24,0-0.36,0c0.02-0.13,0.04-0.25,0.05-0.38C96.59,84.95,96.69,85.07,96.79,85.2
		L96.79,85.2z"/>
	<path class="st0" d="M99.85,73.79c-0.01,0.1-0.05,0.2-0.12,0.28c0,0-0.03-0.17-0.03-0.17L99.85,73.79z"/>
	<path class="st0" d="M97.63,88.34c0.3,0.95,0.52,1.67,0.77,2.38c0.15,0.42,0.41,0.89-0.09,1.19c-0.5,0.29-1.02,0.1-1.37-0.32
		C95.91,90.36,96.48,89.4,97.63,88.34z"/>
	<path class="st0" d="M90.57,66.15c0.41,0.04,0.78,0.15,0.63,0.69c-0.13,0.46-0.42,0.78-0.95,0.74c-0.46-0.04-0.68-0.31-0.63-0.76
		C89.67,66.23,90.1,66.15,90.57,66.15z"/>
	<path class="st0" d="M92.97,88.26c0.38,0,0.76,0,1.13,0.01c0.02,0.31,0.09,0.62,0.05,0.92c-0.06,0.44,1.05,0.97,0,1.26
		c-0.76,0.2-0.75-0.61-0.9-1.12C93.16,88.97,93.07,88.61,92.97,88.26z"/>
	<path class="st0" d="M101.36,79.93c0.51,0.93,0.51,1.59,0.01,2.53C100.86,81.53,100.86,80.86,101.36,79.93z"/>
	<path class="st0" d="M99.05,83.6c-0.04,0.1-0.1,0.26-0.17,0.42c-0.23-0.19-0.48-0.36-0.67-0.57c-0.04-0.05,0.09-0.37,0.19-0.4
		C98.78,82.94,98.95,83.2,99.05,83.6z"/>
	<path class="st0" d="M96.79,85.2c0.44,0.09,1.01-0.2,1.3,0.45C97.4,86.17,97.11,85.65,96.79,85.2L96.79,85.2z"/>
	<path class="st0" d="M119.31,92.07c0.07,0.08,0.15,0.17,0.22,0.25c-0.05,0.03-0.11,0.06-0.16,0.09c-0.03-0.11-0.05-0.22-0.08-0.33
		C119.29,92.08,119.31,92.07,119.31,92.07z"/>
	<path class="st0" d="M124.64,87.49c0.02-0.11,0.05-0.22,0.07-0.33c0.05,0.03,0.11,0.06,0.16,0.09c-0.07,0.08-0.15,0.16-0.22,0.25
		C124.65,87.49,124.64,87.49,124.64,87.49z"/>
	<polygon class="st0" points="98.43,81.04 98.51,80.91 98.57,81.05 	"/>
	<path class="st0" d="M118.54,93.22c-0.02,0.04-0.04,0.07-0.07,0.11C118.49,93.29,118.52,93.25,118.54,93.22L118.54,93.22z"/>
	<path class="st0" d="M118.54,93.21c0.02-0.04,0.05-0.07,0.07-0.11C118.58,93.14,118.56,93.18,118.54,93.21
		C118.54,93.22,118.54,93.21,118.54,93.21z"/>
	<path class="st0" d="M91.83,64.21c0.02-0.11,0.04-0.22,0.07-0.33c0.05,0.03,0.11,0.06,0.16,0.09
		C91.98,64.05,91.9,64.13,91.83,64.21C91.83,64.21,91.83,64.21,91.83,64.21z"/>
</g>
</svg>
