<?xml version="1.0" encoding="utf-8"?>
<!-- Generator: Adobe Illustrator 28.1.0, SVG Export Plug-In . SVG Version: 6.00 Build 0)  -->
<svg version="1.1" id="Layer_1" xmlns="http://www.w3.org/2000/svg" xmlns:xlink="http://www.w3.org/1999/xlink" x="0px" y="0px"
	 viewBox="0 0 250 250" style="enable-background:new 0 0 250 250;" xml:space="preserve">
<style type="text/css">
	.st0{fill:#FFFFFF;}
	.st1{fill:#FFFFFF;stroke:#282828;stroke-miterlimit:10;}
</style>
<g>
	<g>
		<g>
			<g>
				<g>
					<polygon class="st0" points="28.52,105.41 28.52,109.38 4.35,109.38 4.35,142.57 1.2,142.57 1.2,105.41 					"/>
					<rect x="6.89" y="128.43" class="st0" width="22.23" height="3.98"/>
				</g>
				<g>
					<polygon class="st0" points="238.02,138.6 238.02,142.57 210.7,142.57 210.7,142.43 210.11,142.43 210.11,105.27 
						237.43,105.27 237.43,109.24 213.84,109.24 213.84,138.6 					"/>
					<rect x="215.79" y="128.28" class="st0" width="22.23" height="3.98"/>
				</g>
				<rect x="31.52" y="105.16" class="st0" width="3.61" height="37.51"/>
				<rect x="158.66" y="105.06" class="st0" width="3.93" height="37.64"/>
				<path class="st0" d="M44.14,104.67h8.83c2.22,0,4.43,0.46,6.44,1.42c3.58,1.71,8.2,5.26,8.2,12.22
					c0,11.35-11.74,14.33-11.74,14.33l10.09,10.42h-5.6l-14.33-14.33h7.49c0,0,9.82,0.82,9.82-10.33c0-3.29-1.23-5.5-2.7-6.96
					c-1.77-1.76-4.21-2.67-6.7-2.67h-9.47v34.28h-3.93v-38.4L44.14,104.67"/>
				<path class="st0" d="M84.27,108.32l-2.67,2.14c-0.76-1.35-2.29-2.23-3.84-2.21c-2.23,0.04-4.36,1.95-4.19,4.37
					c0.13,1.76,1.46,3.23,3.17,3.65c1.07,0.26,2.24,0.29,3.33,0.45c3.77,0.53,7.26,2.83,9.23,6.09c2.51,4.16,2.38,9.65-0.1,13.79
					c-2.03,3.39-5.01,4.86-6.11,5.34c-1.14,0.51-3.49,1.38-6.53,1.16c-2.49-0.18-4.38-1.02-5.43-1.58
					c-1.11-0.63-3.33-2.09-5.02-4.83c-1.92-3.1-2.1-6.1-2.1-7.39l3.42,0c0.04,1,0.26,3.42,1.94,5.82c1.99,2.86,4.76,3.86,5.66,4.15
					c0.79,0.23,2.16,0.51,3.85,0.27c1.32-0.19,2.35-0.63,3.01-0.98c0.86-0.43,2.73-1.49,4.15-3.69c0.01-0.02,0.03-0.04,0.04-0.06
					c1.68-2.63,1.83-5.96,0.53-8.79c-0.32-0.69-0.73-1.41-1.27-2.12c-0.96-1.27-2-2.44-3.5-3.08c-1.67-0.71-3.46-0.64-5.21-1
					c-1.7-0.35-3.35-1.08-4.6-2.31c-2.05-2.02-2.72-5.3-1.68-7.98s3.71-4.64,6.58-4.88c2.87-0.24,5.8,1.23,7.37,3.65
					C84.29,108.3,84.28,108.31,84.27,108.32z"/>
				<polygon class="st0" points="115.73,105.29 115.73,109.03 103.4,109.03 103.4,142.7 99.65,142.7 99.65,109.03 87.33,109.03 
					87.33,105.29 				"/>
				<polygon class="st0" points="156.32,105.29 156.32,109.03 144,109.03 144,142.7 140.25,142.7 140.25,109.03 127.92,109.03 
					127.92,105.29 				"/>
				<polygon class="st0" points="167.67,142.7 171.41,142.7 171.41,118.55 186.04,142.7 200.74,118.55 200.74,142.7 204.89,142.7 
					204.89,103.99 186.28,135.4 167.67,103.99 				"/>
			</g>
			<g>
				<path class="st0" d="M41.88,177.4c-0.56,0.94-1.31,1.7-2.27,2.28c-0.96,0.58-2.11,0.87-3.45,0.87c-2.2,0-3.97-0.74-5.33-2.22
					c-1.36-1.48-2.03-3.42-2.03-5.82c0-2.4,0.68-4.34,2.05-5.82c1.37-1.48,3.15-2.22,5.34-2.22c1.19,0,2.25,0.25,3.18,0.75
					c0.93,0.5,1.7,1.26,2.31,2.29l-1.06,0.58c-0.46-0.79-1.06-1.4-1.8-1.82c-0.75-0.43-1.63-0.64-2.65-0.64
					c-1.81,0-3.28,0.64-4.42,1.91c-1.14,1.27-1.71,2.93-1.71,4.98c0,2.06,0.56,3.73,1.69,5c1.13,1.27,2.6,1.91,4.42,1.91
					c1.03,0,1.93-0.22,2.72-0.66s1.43-1.07,1.92-1.9L41.88,177.4z"/>
				<path class="st0" d="M62.22,180.55c-2.21,0-3.97-0.73-5.29-2.19c-1.32-1.46-1.98-3.36-1.98-5.69c0-2.42,0.67-4.39,2.01-5.92
					c1.34-1.52,3.15-2.28,5.43-2.28c2.15,0,3.9,0.72,5.23,2.15c1.33,1.43,2,3.32,2,5.65c0,2.55-0.67,4.57-2.01,6.05
					C66.26,179.81,64.47,180.55,62.22,180.55z M62.21,179.41c1.89,0,3.38-0.62,4.49-1.85c1.11-1.23,1.66-2.93,1.66-5.1
					c0-2.14-0.54-3.82-1.62-5.03c-1.08-1.21-2.55-1.82-4.4-1.82c-1.8,0-3.27,0.64-4.42,1.91c-1.15,1.28-1.72,2.95-1.72,5.03
					c0,2.09,0.55,3.75,1.64,5C58.93,178.79,60.39,179.41,62.21,179.41z"/>
				<path class="st0" d="M83.34,177.77l1.08-0.62c0.44,0.81,0.96,1.39,1.57,1.74c0.6,0.35,1.32,0.52,2.15,0.52
					c1.03,0,1.87-0.27,2.52-0.81s0.97-1.32,0.97-2.33c0-0.87-0.26-1.57-0.78-2.1s-1.35-0.97-2.49-1.31
					c-1.44-0.43-2.5-0.99-3.18-1.68c-0.68-0.69-1.02-1.57-1.02-2.63c0-1.24,0.41-2.23,1.24-2.97c0.82-0.74,1.87-1.12,3.13-1.12
					c1.03,0,1.9,0.23,2.61,0.7c0.72,0.47,1.26,1.05,1.63,1.74l-1.07,0.57c-0.27-0.56-0.69-1.01-1.25-1.36s-1.2-0.53-1.93-0.53
					c-0.91,0-1.66,0.25-2.26,0.76s-0.89,1.19-0.89,2.06c0,0.8,0.26,1.45,0.78,1.97c0.52,0.52,1.37,0.96,2.56,1.32
					c1.47,0.45,2.53,1.02,3.18,1.72c0.65,0.7,0.98,1.6,0.98,2.72c0,1.31-0.43,2.37-1.28,3.19s-2,1.23-3.42,1.23
					c-1.09,0-2.04-0.24-2.84-0.72C84.51,179.35,83.85,178.67,83.34,177.77z"/>
				<path class="st0" d="M122.03,180.27h-1.16v-10.93c0-0.17,0-0.42,0.01-0.75c0-0.33,0.01-0.75,0.02-1.27h-0.04
					c-0.09,0.2-0.16,0.37-0.22,0.49s-0.13,0.29-0.23,0.49l-5.49,11.97h-0.47l-5.52-11.89c-0.09-0.19-0.16-0.35-0.22-0.49
					c-0.06-0.14-0.14-0.33-0.25-0.56h-0.05c0.02,0.27,0.03,0.55,0.04,0.86c0,0.3,0,0.62,0,0.94v11.15h-1.18v-15.55h1.26l5.62,12.23
					c0.1,0.21,0.19,0.41,0.27,0.6c0.08,0.19,0.16,0.4,0.24,0.63h0.07c0.1-0.24,0.19-0.46,0.26-0.65s0.17-0.42,0.29-0.66l5.57-12.16
					h1.18V180.27z"/>
				<path class="st0" d="M144.87,180.27h-7.72v-15.55h7.37v1.13h-6.17v5.99h5.71v1.13h-5.71v6.18h6.52V180.27z"/>
				<path class="st0" d="M168.06,165.85h-4.49v14.42h-1.19v-14.42h-4.49v-1.13h10.17V165.85z"/>
				<path class="st0" d="M183.09,180.27h-1.2v-15.55h1.2V180.27z"/>
				<path class="st0" d="M210.43,177.4c-0.56,0.94-1.31,1.7-2.27,2.28c-0.96,0.58-2.11,0.87-3.45,0.87c-2.2,0-3.97-0.74-5.33-2.22
					c-1.36-1.48-2.03-3.42-2.03-5.82c0-2.4,0.68-4.34,2.05-5.82c1.37-1.48,3.15-2.22,5.34-2.22c1.19,0,2.25,0.25,3.18,0.75
					c0.93,0.5,1.7,1.26,2.31,2.29l-1.06,0.58c-0.46-0.79-1.06-1.4-1.8-1.82c-0.75-0.43-1.63-0.64-2.65-0.64
					c-1.81,0-3.28,0.64-4.42,1.91c-1.14,1.27-1.71,2.93-1.71,4.98c0,2.06,0.56,3.73,1.69,5c1.13,1.27,2.6,1.91,4.42,1.91
					c1.03,0,1.93-0.22,2.72-0.66s1.43-1.07,1.92-1.9L210.43,177.4z"/>
			</g>
			<g>
				<path class="st0" d="M244.58,97.62h-0.97l-1.53-3.2c-0.32-0.67-0.64-1.11-0.95-1.31c-0.31-0.21-0.7-0.31-1.16-0.31h-1.34v4.82
					h-0.85V86.65h2.97c0.96,0,1.73,0.25,2.32,0.75c0.59,0.5,0.88,1.21,0.88,2.13c0,0.74-0.21,1.37-0.62,1.91s-0.98,0.9-1.7,1.1v0.03
					c0.21,0.11,0.41,0.28,0.6,0.52s0.38,0.57,0.59,1.01L244.58,97.62z M238.63,87.42v4.61h1.86c0.78,0,1.41-0.22,1.88-0.65
					c0.47-0.44,0.71-1.03,0.71-1.77c0-0.69-0.21-1.23-0.63-1.61s-1.02-0.57-1.81-0.57H238.63z"/>
			</g>
		</g>
		<circle class="st1" cx="241.04" cy="91.8" r="9.25"/>
	</g>
</g>
</svg>
