<?xml version="1.0" encoding="utf-8"?>
<!-- Generator: Adobe Illustrator 28.1.0, SVG Export Plug-In . SVG Version: 6.00 Build 0)  -->
<svg version="1.1" id="Layer_1" xmlns="http://www.w3.org/2000/svg" xmlns:xlink="http://www.w3.org/1999/xlink" x="0px" y="0px"
	 viewBox="0 0 250 250" style="enable-background:new 0 0 250 250;" xml:space="preserve">
<style type="text/css">
	.st0{fill:#FFFFFF;}
</style>
<g>
	<path class="st0" d="M147.9,191.14c-0.14-0.51-0.59-0.39-0.93-0.42c-9.28-0.73-18.17-3.28-27.13-5.56
		c-18.26-4.64-36.71-8.25-55.39-10.79c-15.87-2.15-31.8-3.36-47.83-2.78c-5.07,0.18-10.13,0.64-15.15,1.48
		c-0.47,0.08-0.94,0.09-1.45,0.03c2.7-1.73,5.63-2.96,8.61-4.07c13.32-4.95,27.16-7.09,41.3-7.51c17.49-0.52,34.69,1.66,51.67,5.68
		c10.45,2.47,20.77,5.45,31.43,7.02c15.11,2.21,30.24,2.78,45.45,1.27c15.95-1.58,31.41-5.17,46.25-11.28
		c3.3-1.36,6.51-2.89,9.75-4.44c-2.19,2.31-4.61,4.34-7.12,6.25c-14.93,11.39-31.46,19.31-49.93,23.04
		c-3.67,0.74-7.38,1.27-11.11,1.64c-0.48,0.05-1.1-0.18-1.43,0.44C159.25,191.14,153.58,191.14,147.9,191.14z"/>
	<path class="st0" d="M250.03,61.42c-0.64,0.27-0.47,0.9-0.58,1.37c-1.41,6.19-6.72,10.17-13.16,9.85
		c-5.79-0.29-10.83-4.98-11.58-10.78c-0.82-6.28,2.87-12.03,8.88-13.87c0.57-0.18,1.3-0.04,1.68-0.7c1.07,0,2.14,0,3.21,0
		c0.14,0.4,0.51,0.31,0.8,0.37c5.63,1.21,9.07,4.62,10.28,10.26c0.09,0.42-0.1,1,0.48,1.25C250.03,59.92,250.03,60.67,250.03,61.42z
		 M227.15,60.01c-0.03,5.69,4.35,10.13,9.99,10.15c5.64,0.01,10.09-4.42,10.1-10.06c0.01-5.58-4.36-10-9.93-10.06
		C231.62,49.99,227.18,54.34,227.15,60.01z"/>
	<path class="st0" d="M32.83,62.41c6.85,0,13.7-0.08,20.55,0.03c4.42,0.07,8.72,0.95,12.75,2.85c7.74,3.64,10.51,10.12,10.5,18.28
		c-0.02,11.21-5.48,18.54-15.73,22.56c-1.13,0.44-1.33,0.72-0.64,1.83c6.25,9.96,12.32,20.03,18.91,29.77
		c0.54,0.8,1.17,1.53,1.71,2.32c2.08,3.01,4.77,5.04,8.57,5.22c1.18,0.06,1.59,0.54,1.55,1.78c-0.09,3.3-0.02,3.3-3.39,3.3
		c-7.39,0-14.77-0.02-22.16,0.02c-1.05,0.01-1.59-0.3-2.09-1.27c-6.62-12.83-13.7-25.39-21.7-37.44c-0.82-1.23-1.74-1.16-2.85-1.13
		c-0.64,0.02-0.58,0.46-0.57,0.9c0.02,9.04,0.01,18.09,0.07,27.13c0.02,2.85,1.57,4.72,4.22,5.62c1.41,0.48,2.88,0.82,4.34,1.11
		c0.78,0.16,1.01,0.48,1.04,1.27c0.11,3.77,0.13,3.77-3.56,3.77c-10.81,0-21.62-0.02-32.43,0.03c-1.34,0.01-1.87-0.21-1.81-1.71
		c0.13-3.1,0.03-3.11,3.12-3.58c0.48-0.07,0.95-0.13,1.43-0.21c4.18-0.71,5.79-2.44,5.8-6.69c0.04-21.03,0.03-42.06,0-63.09
		c-0.01-3.72-1.09-5.17-4.62-6.43c-1.45-0.52-2.97-0.88-4.48-1.23c-0.84-0.2-1.24-0.47-1.24-1.47c-0.01-3.59-0.06-3.58,3.59-3.58
		c6.37,0,12.74,0,19.11,0C32.83,62.39,32.83,62.4,32.83,62.41z M38.25,86.25c0.01,0,0.01,0,0.02,0c0,4.76-0.03,9.51,0.02,14.27
		c0.01,1.36-0.64,3.15,0.26,3.97c0.89,0.81,2.65,0.25,4.03,0.22c6.66-0.17,11.38-3.66,13.27-10.03c1.64-5.53,1.77-11.17,0.47-16.79
		c-0.97-4.16-3.44-7.16-7.47-8.79c-3.22-1.3-6.6-1.13-9.96-1.14c-0.72,0-0.66,0.45-0.66,0.98C38.26,74.71,38.25,80.48,38.25,86.25z"
		/>
	<path class="st0" d="M118.21,62.39c5.73,0,11.45-0.03,17.18,0.01c19.14,0.11,34.55,12.85,38.19,31.65
		c1.89,9.75,2.02,19.52-1.12,29.02c-5.1,15.41-16.14,23.94-31.93,26.65c-2.91,0.5-5.85,0.65-8.79,0.64
		c-10.97-0.01-21.94-0.03-32.91,0.03c-1.37,0.01-1.85-0.26-1.8-1.73c0.12-3.1,0.03-3.1,3.18-3.44c0.58-0.06,1.17-0.15,1.75-0.24
		c3.53-0.58,5.25-2.47,5.46-6.02c0.04-0.69,0.03-1.39,0.03-2.09c0-20.01,0-40.02,0-60.03c0-0.48,0-0.96-0.01-1.44
		c-0.08-4.08-1.55-6.06-5.44-7.31c-0.61-0.2-1.23-0.35-1.86-0.48c-3.11-0.63-3.06-0.62-3.09-3.81c-0.01-1.13,0.32-1.44,1.44-1.43
		C105.05,62.41,111.63,62.38,118.21,62.39C118.21,62.39,118.21,62.39,118.21,62.39z M125.09,102.66
		C125.1,102.66,125.1,102.66,125.09,102.66c0.01,10.96-0.02,21.93,0.02,32.89c0.02,5.09,2.51,8.42,6.95,8.94
		c6.44,0.76,11.97-1.11,16-6.45c3.27-4.34,4.76-9.42,5.61-14.67c1.56-9.61,1.77-19.26,0.38-28.91c-0.91-6.34-2.57-12.46-6.22-17.85
		c-3-4.43-7-7.48-12.38-8.4c-2.92-0.5-5.87-0.08-8.81-0.13c-1.33-0.02-1.56,0.48-1.56,1.68C125.11,80.73,125.09,91.7,125.09,102.66z
		"/>
	<path class="st0" d="M208.36,150.35c-10.22,0-20.45-0.03-30.67,0.03c-1.36,0.01-1.86-0.25-1.8-1.73c0.13-3.04,0.03-3.05,3-3.54
		c6.41-1.07,7.44-2.3,7.44-8.88c0-19.8,0-39.6,0-59.4c0-5.8-1.26-7.44-6.86-8.92c-0.15-0.04-0.31-0.07-0.47-0.11
		c-3.11-0.73-3.05-0.74-3.11-3.94c-0.02-1.24,0.37-1.5,1.54-1.5c8.4,0.05,16.81,0.03,25.21,0.03c3.59,0,7.17,0.04,10.76-0.02
		c1.05-0.02,1.35,0.29,1.35,1.34c0,3.34,0.04,3.33-3.17,3.85c-0.95,0.15-1.9,0.35-2.83,0.58c-3.2,0.81-4.45,2.33-4.68,5.64
		c-0.04,0.53-0.04,1.07-0.04,1.6c0,19.43,0.01,38.85,0.01,58.28c0,1.82,0.07,3.64,0.37,5.44c0.51,3.02,2.11,4.77,5.1,5.16
		c5.12,0.67,10.25,0.57,15.34-0.39c2.19-0.41,3.91-1.56,5.19-3.45c3.51-5.18,5.82-10.93,8.05-16.72c0.52-1.35,2.4-2.16,3.68-1.54
		c0.53,0.26,0.36,0.71,0.34,1.11c-0.32,6.95-0.64,13.9-0.96,20.84c-0.07,1.55-0.23,3.1-0.19,4.65c0.03,1.24-0.35,1.62-1.64,1.61
		C229.03,150.33,218.69,150.35,208.36,150.35z"/>
	<path class="st0" d="M239.25,61.03c1.67,1.66,2.54,3.66,3.69,5.53c-2.74,0.67-3.03,0.53-4.21-1.7c-0.6-1.13-1.1-2.36-2.23-3.09
		c-0.81-0.52-1.6-0.78-1.71,0.7c-0.08,1.06-0.4,2.12-0.41,3.18c-0.01,1.54-1.07,1.1-1.9,1.18c-1.1,0.11-1.01-0.62-1.01-1.34
		c0.01-3.59,0.03-7.17-0.02-10.76c-0.01-0.97,0.25-1.33,1.26-1.28c1.66,0.08,3.32,0.02,4.98,0.04c2.65,0.02,4.1,0.98,4.53,2.96
		C242.63,58.3,241.7,59.8,239.25,61.03z M236.08,59.19c0.6-0.03,1.15,0.02,1.66-0.1c0.88-0.22,1.54-0.8,1.64-1.72
		c0.1-0.95-0.73-1.18-1.43-1.43c-0.97-0.35-1.99-0.29-2.99-0.3c-0.27,0-0.62,0.03-0.64,0.32c-0.06,0.95-0.24,1.96,0.01,2.83
		C234.56,59.6,235.54,59.01,236.08,59.19z"/>
</g>
</svg>
