<?xml version="1.0" encoding="utf-8"?>
<!-- Generator: Adobe Illustrator 28.1.0, SVG Export Plug-In . SVG Version: 6.00 Build 0)  -->
<svg version="1.1" id="Layer_1" xmlns="http://www.w3.org/2000/svg" xmlns:xlink="http://www.w3.org/1999/xlink" x="0px" y="0px"
	 viewBox="0 0 250 250" style="enable-background:new 0 0 250 250;" xml:space="preserve">
<style type="text/css">
	.st0{fill:#FCFCFC;}
	.st1{fill:#F5F5F5;}
</style>
<g>
	<path class="st0" d="M249.98,142.41c-3.35-1.69-6.7-3.22-10.13-4.59c-6.72-2.68-13.61-4.77-20.69-6.28
		c-3.14-0.67-6.12-1.84-8.95-3.36c-0.15-0.08-0.29-0.16-0.5-0.16c0.14,0.1,0.27,0.2,0.42,0.29c6.69,3.9,13.76,6.95,21.2,9.11
		c0.48,0.14,0.77,0.38,0.97,0.83c1.21,2.7,1.47,5.47,0.74,8.44c-0.55-0.61-1.03-1.16-1.52-1.69c-3.21-3.48-7.09-5.98-11.42-7.83
		c-3.04-1.29-6.08-2.59-8.79-4.53c-3.37-2.42-6.24-5.35-8.73-8.66c-0.05-0.07-0.09-0.14-0.13-0.22c0.53-0.13,0.17-0.27,1.78,0.83
		c0.56,0.38,1.13,0.75,1.78,1.04c-3.04-2.57-5.63-5.5-7.51-9.01c-1.88-3.51-3.24-7.18-3.46-11.38c0.47,0.35,0.52,0.72,0.64,1.03
		c1.35,3.55,3.01,6.94,5.39,9.93c2.86,3.59,6.26,6.51,10.54,8.3c2.27,0.95,4.65,1.31,7.1,1.31c4.2-0.01,8.4,0.06,12.58,0.59
		c1.11,0.14,2.23,0.29,3.35,0.44c0.07-0.27-0.14-0.4-0.23-0.57c-1.83-3.56-4.79-6.09-7.83-8.54c-6.17-4.97-13.03-8.7-20.55-11.21
		c-0.22-0.07-0.44-0.13-0.69-0.2c2.4-2.38,5.35-3.67,8.59-4.21c4.12-0.69,7.86,0.63,11.42,2.57c3.94,2.15,7.11,5.19,10.01,8.56
		c7.27,8.46,12.15,18.12,14.66,28.99C250.01,142.24,249.99,142.29,249.98,142.41z M209.49,127.77c-0.04,0.04-0.1,0.08-0.02,0.13
		c0.02,0.02,0.07,0,0.1,0c-0.03-0.04-0.07-0.08-0.1-0.12c-0.07-0.03-0.14-0.06-0.21-0.09c0,0.03-0.02,0.08-0.01,0.08
		C209.33,127.8,209.41,127.92,209.49,127.77z M206.78,126.03c-0.05-0.03-0.1-0.06-0.16-0.09c-0.07-0.06-0.14-0.11-0.21-0.17
		c-0.13-0.08-0.25-0.34-0.4-0.15c-0.12,0.16,0.13,0.21,0.26,0.27c0.08,0.06,0.16,0.12,0.24,0.18c0.05,0.02,0.1,0.05,0.15,0.07
		c0.07,0.06,0.15,0.11,0.22,0.17c0.44,0.28,0.88,0.56,1.32,0.83c0.02-0.04,0.05-0.08,0.07-0.12c-0.43-0.27-0.86-0.54-1.29-0.81
		C206.92,126.16,206.85,126.1,206.78,126.03z M208.54,127.25c-0.02-0.03-0.03-0.08-0.05-0.09c-0.03-0.01-0.06,0.02-0.1,0.03
		c0.02,0.03,0.03,0.08,0.05,0.08C208.47,127.29,208.5,127.26,208.54,127.25z"/>
	<path class="st0" d="M36.25,126.35c0.07-4.65,1.04-9.12,3.78-13.07c3.18-4.58,7.61-7.07,13.14-7.6c3.82-0.37,7.52,0.05,10.97,1.84
		c4.33,2.25,6.69,5.92,7.57,10.64c0.05,0.28,0,0.39-0.31,0.39c-1.62-0.01-3.25-0.01-4.88,0c-0.28,0-0.35-0.12-0.4-0.37
		c-1.05-4.78-4.99-7.36-9.42-7.7c-3.74-0.29-7.14,0.48-9.97,3.09c-2.2,2.03-3.51,4.6-4.17,7.48c-1.04,4.53-0.97,9.04,0.84,13.38
		c1.87,4.47,5.12,7.34,10.04,7.99c2.91,0.38,5.76,0.12,8.29-1.55c2.96-1.95,4.32-4.86,4.78-8.26c0.07-0.5,0.18-0.69,0.72-0.68
		c1.45,0.04,2.9,0.04,4.35,0c0.47-0.01,0.57,0.14,0.55,0.58c-0.25,5.37-3.79,12.71-11.92,14.39c-4.17,0.86-8.32,0.81-12.31-0.82
		c-5.55-2.27-8.9-6.53-10.63-12.17C36.54,131.47,36.27,128.96,36.25,126.35z"/>
	<path class="st0" d="M158.27,126.63c0-6.35,0.01-12.7-0.01-19.05c0-0.57,0.14-0.71,0.71-0.71c7.17,0.02,14.35,0.02,21.52,0
		c0.62,0,0.75,0.18,0.73,0.76c-0.04,1.28-0.04,2.56,0,3.83c0.02,0.56-0.1,0.76-0.72,0.75c-5.24-0.03-10.49,0-15.73-0.03
		c-0.59,0-0.7,0.16-0.69,0.71c0.03,3.49,0.02,6.98,0,10.47c0,0.49,0.12,0.61,0.61,0.61c5.29-0.02,10.58,0,15.86-0.02
		c0.55,0,0.69,0.14,0.67,0.68c-0.04,1.34-0.04,2.69,0,4.03c0.01,0.49-0.12,0.61-0.61,0.61c-5.27-0.02-10.53,0-15.8-0.03
		c-0.6,0-0.75,0.15-0.74,0.74c0.03,3.47,0.03,6.93,0,10.4c0,0.55,0.1,0.72,0.7,0.72c5.24-0.03,10.49-0.01,15.73-0.03
		c0.55,0,0.75,0.1,0.72,0.7c-0.05,1.36-0.03,2.73-0.01,4.09c0.01,0.39-0.05,0.56-0.52,0.56c-7.3-0.02-14.61-0.02-21.91,0
		c-0.53,0-0.52-0.24-0.52-0.62C158.27,139.42,158.27,133.02,158.27,126.63z"/>
	<path class="st0" d="M36.47,145.1c-1.88,0-3.72-0.01-5.56,0.01c-0.38,0-0.41-0.26-0.5-0.48c-1.32-3.24-2.64-6.48-3.93-9.73
		c-0.21-0.54-0.47-0.72-1.07-0.72c-4.31,0.03-8.63,0.02-12.94,0.01c-0.45,0-0.67,0.11-0.84,0.56c-1.19,3.24-2.43,6.47-3.61,9.71
		c-0.19,0.53-0.45,0.66-0.97,0.65c-1.88-0.03-3.76-0.01-5.7-0.01c0.82-2.04,1.6-4.02,2.4-6c4.25-10.56,8.5-21.11,12.73-31.67
		c0.19-0.46,0.41-0.67,0.92-0.68c1.19-0.02,2.38-0.07,3.57-0.16c0.43-0.03,0.58,0.12,0.73,0.51c3.09,7.97,6.21,15.93,9.31,23.9
		c1.76,4.51,3.5,9.01,5.25,13.52C36.33,144.69,36.39,144.87,36.47,145.1z M18.74,115.85c-1.65,4.41-3.26,8.69-4.87,13
		c3.41,0,6.74,0,10.14,0C22.26,124.53,20.53,120.26,18.74,115.85z"/>
	<path class="st0" d="M155.9,106.87c-1.25,4.44-2.47,8.78-3.69,13.13c-2.43,8.63-4.86,17.25-7.28,25.88
		c-0.11,0.38-0.25,0.54-0.68,0.54c-2.56-0.03-5.11-0.02-7.67,0c-0.39,0-0.51-0.14-0.6-0.48c-3.61-12.85-7.23-25.7-10.85-38.54
		c-0.13-0.46-0.04-0.54,0.41-0.53c1.62,0.02,3.25,0.03,4.87,0c0.45-0.01,0.62,0.11,0.74,0.56c1.77,6.75,3.57,13.49,5.36,20.24
		c1.19,4.47,2.37,8.94,3.57,13.4c0.06,0.21-0.02,0.58,0.39,0.56c0.4-0.02,0.31-0.36,0.37-0.58c2.98-11.19,5.96-22.38,8.92-33.57
		c0.12-0.46,0.29-0.61,0.76-0.6C152.28,106.88,154.06,106.87,155.9,106.87z"/>
	<path class="st0" d="M114.49,126.06c0,4.42,0.01,8.84-0.01,13.26c0,0.46,0.08,0.62,0.59,0.61c1.93-0.04,3.86,0,5.78-0.02
		c0.43-0.01,0.55,0.12,0.54,0.55c-0.03,1.43-0.02,2.86,0,4.29c0.01,0.39-0.08,0.52-0.5,0.52c-6.15-0.01-12.31-0.01-18.46,0
		c-0.37,0-0.54-0.05-0.53-0.48c0.03-1.45,0.03-2.9,0-4.35c-0.01-0.4,0.11-0.51,0.51-0.51c1.91,0.02,3.81,0,5.72,0.02
		c0.43,0.01,0.53-0.11,0.53-0.53c-0.01-8.9-0.01-17.81,0-26.71c0-0.41-0.11-0.5-0.5-0.49c-1.91,0.02-3.81,0-5.72,0.02
		c-0.43,0.01-0.55-0.11-0.54-0.54c0.03-1.43,0.03-2.86,0-4.29c-0.01-0.41,0.12-0.5,0.52-0.5c6.15,0.01,12.31,0.01,18.46,0
		c0.4,0,0.51,0.11,0.51,0.51c-0.02,1.45-0.02,2.9,0,4.35c0.01,0.38-0.12,0.46-0.48,0.46c-1.93-0.02-3.86,0.02-5.78-0.02
		c-0.57-0.01-0.65,0.17-0.65,0.68C114.5,117.26,114.49,121.66,114.49,126.06z"/>
	<path class="st0" d="M82.72,129.3c0-5.46-0.01-10.92,0.01-16.38c0-0.56-0.1-0.76-0.72-0.75c-3.42,0.04-6.85,0.01-10.27,0.03
		c-0.5,0-0.61-0.14-0.6-0.62c0.03-1.39,0.02-2.77,0-4.16c-0.01-0.39,0.05-0.56,0.52-0.56c9.32,0.02,18.64,0.01,27.96,0
		c0.4,0,0.51,0.09,0.5,0.5c-0.03,1.41-0.03,2.82,0,4.23c0.01,0.49-0.12,0.61-0.61,0.61c-3.4-0.02-6.81,0-10.21-0.03
		c-0.6-0.01-0.79,0.1-0.79,0.76c0.02,10.92,0.01,21.85,0.03,32.77c0,0.61-0.17,0.74-0.74,0.72c-1.47-0.04-2.95-0.04-4.42,0
		c-0.53,0.01-0.68-0.11-0.68-0.66C82.73,140.26,82.72,134.78,82.72,129.3z"/>
	<path class="st0" d="M150.71,88.17c0.02-6.65,4.35-12.64,10.92-14.84c6.42-2.15,12.27-1.04,17.13,3.78
		c7.53,7.47,5.87,20.3-3.29,25.39c-5.46,3.03-11,2.62-16.35-0.35c-4.68-2.6-7.51-6.6-8.28-11.97c-0.02-0.13-0.04-0.26-0.05-0.39
		C150.77,89.25,150.74,88.71,150.71,88.17z M154.5,88.29c0.03,0.75,0.09,1.59,0.27,2.41c1.49,6.88,8.73,10.81,14.83,9.89
		c6.69-1.01,11.2-7.28,9.87-14.26c-1.47-7.73-8.96-12-16.42-9.49C157.94,78.56,154.52,83.1,154.5,88.29z"/>
	<path class="st0" d="M139.52,91.64c1.83,1.83,3.58,3.58,5.32,5.32c1.46,1.46,2.9,2.92,4.37,4.36c0.26,0.26,0.27,0.4,0,0.66
		c-0.71,0.67-1.4,1.36-2.07,2.07c-0.24,0.25-0.37,0.22-0.61-0.01c-4.12-4.13-8.24-8.25-12.36-12.37c-0.62-0.62-0.84-1.37-0.52-2.2
		c0.31-0.81,0.96-1.2,1.81-1.24c0.97-0.04,1.95,0.04,2.91-0.21c2.21-0.57,4.13-1.6,5.27-3.67c0.83-1.52,0.79-3.11-0.13-4.57
		c-2.02-3.22-4.97-4.91-8.77-5.07c-1.06-0.04-2.12,0.02-3.19-0.02c-0.48-0.02-0.55,0.16-0.55,0.58c0.01,6.63,0.01,13.26,0.01,19.9
		c0,2.58-0.01,5.16,0.01,7.74c0,0.42-0.09,0.56-0.53,0.55c-0.89-0.03-1.78-0.04-2.66,0c-0.5,0.03-0.6-0.14-0.6-0.61
		c0.02-8.78,0.01-17.55,0.01-26.33c0-1.69,0-3.38,0-5.07c0-0.3-0.02-0.53,0.42-0.52c2.77,0.06,5.56-0.21,8.32,0.1
		c5.11,0.57,9.03,3.12,11.27,7.79c1.74,3.64,0.52,7.68-2.8,10.38c-0.71,0.57-1.47,1.07-2.28,1.48
		C141.36,91.06,140.52,91.37,139.52,91.64z"/>
	<path class="st0" d="M102.81,87.15c0-5.18,0.01-10.36-0.02-15.54c0-0.62,0.19-0.73,0.75-0.72c3.06,0.03,6.11-0.01,9.17,0.02
		c3.46,0.04,6.17,1.54,8.07,4.42c1.17,1.77,2.13,3.66,2.39,5.82c0.82,6.65-4.09,12.42-10.94,11.98c-1.77-0.12-3.55-0.04-5.33-0.07
		c-0.48-0.01-0.31,0.32-0.31,0.53c-0.01,2.95-0.01,5.89-0.01,8.84c0,0.99,0,0.99-0.98,0.99c-0.74,0-1.48-0.04-2.21,0.01
		c-0.5,0.03-0.6-0.14-0.6-0.61c0.02-4.83,0.01-9.66,0.01-14.5C102.81,87.93,102.81,87.54,102.81,87.15z M106.58,82.03
		c0,2.23,0.01,4.46-0.01,6.7c0,0.45,0.1,0.58,0.56,0.58c1.86-0.01,3.73-0.06,5.59,0.05c3.42,0.2,6.46-2.38,6.74-6.27
		c0.17-2.29-0.84-4.16-2.05-5.95c-0.97-1.43-2.38-2.31-4.13-2.39c-2.12-0.1-4.24-0.04-6.37-0.07c-0.46-0.01-0.33,0.3-0.33,0.52
		C106.58,77.48,106.58,79.75,106.58,82.03z"/>
	<path class="st1" d="M51.96,74.08c-15.77,0-31.55,0-47.32,0.01c-0.6,0-0.81-0.15-0.73-0.75c0.08-0.6-0.26-1.4,0.14-1.74
		c0.34-0.29,1.12-0.09,1.7-0.09c31.18,0,62.36,0,93.54-0.02c0.69,0,0.91,0.18,0.82,0.85c-0.07,0.55,0.23,1.28-0.11,1.63
		c-0.34,0.35-1.07,0.1-1.63,0.1C82.9,74.08,67.43,74.08,51.96,74.08z"/>
	<path class="st0" d="M197.38,107.25c-0.87-4.68-1.91-9.31-3.19-13.89c-1.53-5.45-4.01-10.47-6.83-15.34
		c-1.38-2.4-2.78-4.78-4.24-7.13c-0.11-0.18-0.21-0.36-0.39-0.65c1.31,0.38,2.44,0.9,3.53,1.51c5.63,3.15,9.08,7.93,10.53,14.17
		c0.25,1.08,0.15,2.2,0.18,3.3c0.21,5.88,0.41,11.76,0.61,17.64c0,0.13-0.02,0.26-0.03,0.39
		C197.5,107.25,197.44,107.25,197.38,107.25z"/>
	<path class="st0" d="M204.35,104.81c0.67-1.8,1.23-3.6,1.51-5.49c0.71-4.79-0.17-9.28-2.54-13.5c-0.25-0.44-0.41-0.28-0.66-0.04
		c-2.04,1.9-3.26,4.22-3.72,6.98c-0.23-0.79-0.19-1.6-0.14-2.4c0.25-3.86,1.4-7.38,4.07-10.28c1.32-1.43,2.81-2.63,4.58-3.46
		c0.41-0.19,0.84-0.35,1.3-0.37c0.55-0.03,0.77,0.21,0.67,0.75c-0.06,0.34-0.18,0.67-0.34,0.98c-1.88,3.71-1.96,7.55-0.9,11.49
		c0.46,1.71,0.88,3.43,1.01,5.21c0.28,3.73-1.17,6.74-3.83,9.24C205.05,104.23,204.7,104.51,204.35,104.81z"/>
	<path class="st0" d="M195.12,113.96c0,0.8-0.05,1.61,0.01,2.4c0.13,1.84-1.15,3.22-2.29,3.64c-1.43,0.53-3.01,0.07-4.12-1.26
		c-1.01-1.21-1.21-2.59-0.8-4.09c0.06-0.21,0.18-0.38,0.34-0.54c3.51-3.53,5.13-7.77,4.82-12.74c-0.01-0.18-0.23-0.5,0.2-0.56
		c0.36-0.04,0.37,0.23,0.41,0.45C194.53,105.46,195.01,109.69,195.12,113.96z"/>
	<path class="st1" d="M83.79,85.38c0.72,0,1.43-0.03,2.14,0.01c0.45,0.03,0.54-0.15,0.52-0.55c-0.03-0.74,0-1.47-0.01-2.21
		c-0.01-0.82-0.12-0.95-0.95-1.1c-0.17-0.03-0.41,0.06-0.4-0.27c0.01-0.32,0.23-0.25,0.41-0.25c1.15,0,2.3-0.01,3.45,0
		c0.17,0,0.41-0.1,0.44,0.22c0.03,0.37-0.25,0.27-0.44,0.3c-0.85,0.14-0.98,0.28-0.99,1.14c-0.01,2.21-0.01,4.42,0,6.63
		c0,0.96,0.07,1.03,1.04,1.21c0.18,0.03,0.41,0,0.39,0.31c-0.02,0.28-0.24,0.2-0.39,0.2c-1.21,0.01-2.43,0.01-3.64,0
		c-0.15,0-0.36,0.09-0.38-0.21c-0.02-0.31,0.2-0.28,0.38-0.31c1.01-0.17,1.07-0.23,1.07-1.24c0-0.91-0.02-1.82,0.01-2.73
		c0.01-0.38-0.12-0.46-0.48-0.46c-1.47,0.02-2.95,0.02-4.42,0c-0.37-0.01-0.48,0.1-0.46,0.47c0.03,1,0.03,1.99,0.03,2.99
		c0,0.59,0.27,0.93,0.89,0.97c0.19,0.02,0.54-0.1,0.52,0.3c-0.03,0.41-0.36,0.21-0.55,0.21c-1.1,0.02-2.21,0.01-3.32,0
		c-0.16,0-0.41,0.13-0.43-0.22c-0.01-0.31,0.22-0.26,0.4-0.3c0.85-0.15,0.96-0.27,0.97-1.14c0.01-2.23,0.01-4.46,0-6.7
		c0-0.85-0.13-0.98-0.99-1.14c-0.17-0.03-0.41,0.05-0.39-0.28c0.01-0.32,0.24-0.25,0.41-0.25c1.15,0,2.3,0,3.45,0
		c0.2,0,0.4-0.03,0.4,0.27c0,0.28-0.21,0.22-0.36,0.25c-0.86,0.17-0.95,0.25-0.98,1.14c-0.02,0.76,0,1.52-0.03,2.27
		c-0.02,0.4,0.15,0.45,0.49,0.44C82.31,85.37,83.05,85.38,83.79,85.38z"/>
	<path class="st1" d="M33.82,86.08c-0.74,0-1.47,0.01-2.21-0.01c-0.31-0.01-0.46,0.04-0.45,0.41c0.03,0.97,0,1.95,0.02,2.92
		c0.02,0.81,0.17,0.96,0.97,1.09c0.19,0.03,0.48-0.05,0.45,0.3c-0.03,0.38-0.32,0.21-0.49,0.21c-1.13,0.02-2.25,0.01-3.38,0
		c-0.16,0-0.41,0.12-0.42-0.22c-0.01-0.31,0.22-0.29,0.4-0.29c0.74,0,0.97-0.43,0.97-1.09c0-2.25,0.01-4.51-0.01-6.76
		c-0.01-0.86-0.15-0.98-1-1.13c-0.17-0.03-0.43,0.07-0.42-0.25c0-0.36,0.27-0.27,0.47-0.27c1.13-0.01,2.25-0.01,3.38,0
		c0.17,0,0.42-0.09,0.45,0.22c0.04,0.37-0.25,0.29-0.44,0.3c-0.63,0.06-0.92,0.39-0.92,1.02c0,0.82,0,1.65-0.01,2.47
		c-0.01,0.27,0.06,0.38,0.35,0.38c1.54-0.01,3.08-0.02,4.61,0c0.33,0,0.4-0.12,0.39-0.41c-0.02-0.78,0-1.56-0.01-2.34
		c-0.01-0.83-0.11-0.94-0.95-1.1c-0.17-0.03-0.41,0.05-0.4-0.28c0.01-0.32,0.23-0.25,0.41-0.25c1.15,0,2.3-0.01,3.44,0
		c0.17,0,0.41-0.1,0.44,0.22c0.03,0.37-0.25,0.27-0.44,0.3c-0.86,0.14-0.98,0.27-0.99,1.13c-0.01,2.25-0.01,4.51,0,6.76
		c0,0.82,0.13,0.94,0.96,1.08c0.19,0.03,0.49-0.05,0.47,0.3c-0.02,0.37-0.32,0.21-0.5,0.22c-1.15,0.01-2.3,0.01-3.44,0
		c-0.17,0-0.47,0.15-0.48-0.23c-0.01-0.32,0.24-0.25,0.41-0.27c0.96-0.15,1.05-0.25,1.06-1.19c0.01-0.91-0.02-1.82,0.01-2.73
		c0.01-0.38-0.07-0.54-0.49-0.51C35.29,86.11,34.55,86.08,33.82,86.08z"/>
	<path class="st1" d="M56.49,101.34c0.69-1.43,1.32-2.74,1.96-4.06c0.08-0.17,0.16-0.35,0.25-0.53c0.81-1.64,0.81-1.64,2.65-1.49
		c0.14,0.01,0.32-0.06,0.35,0.18c0.03,0.29-0.19,0.24-0.35,0.25c-0.63,0.03-0.85,0.36-0.83,0.98c0.07,1.77,0.11,3.54,0.15,5.32
		c0.01,0.58,0.19,0.98,0.84,0.99c0.16,0,0.31,0.04,0.31,0.24c0,0.23-0.19,0.2-0.33,0.2c-0.95,0-1.91,0-2.86,0
		c-0.12,0-0.27,0.03-0.29-0.16c-0.02-0.19,0.08-0.28,0.27-0.28c0.68,0,0.8-0.42,0.8-0.99c-0.02-1.73-0.01-3.46-0.01-5.22
		c-0.23,0.06-0.25,0.24-0.31,0.38c-0.88,1.9-1.75,3.8-2.63,5.7c-0.08,0.18-0.09,0.47-0.36,0.48c-0.28,0.01-0.28-0.29-0.36-0.47
		c-0.74-1.7-1.48-3.4-2.22-5.1c-0.1-0.23-0.16-0.49-0.44-0.75c-0.06,0.88-0.13,1.68-0.16,2.49c-0.03,0.84-0.01,1.69-0.06,2.53
		c-0.03,0.59,0.21,0.89,0.8,0.94c0.16,0.01,0.38-0.02,0.37,0.24c0,0.27-0.22,0.22-0.38,0.22c-0.76,0.01-1.52,0-2.27,0
		c-0.15,0-0.33,0.04-0.37-0.17c-0.04-0.24,0.13-0.28,0.32-0.3c0.54-0.07,0.73-0.43,0.79-0.94c0.22-1.74,0.31-3.49,0.43-5.23
		c0.04-0.58-0.11-1.03-0.8-1.08c-0.14-0.01-0.32,0.03-0.32-0.21c0-0.29,0.21-0.2,0.37-0.22c0.04,0,0.09,0.01,0.13,0
		c1.26-0.25,1.97,0.24,2.42,1.48C54.91,98.28,55.72,99.74,56.49,101.34z"/>
	<path class="st1" d="M44.29,91.03c-1.13,0-2.25,0-3.38-0.01c-0.17,0-0.43,0.12-0.46-0.2c-0.03-0.34,0.25-0.29,0.45-0.32
		c0.93-0.15,1.03-0.21,1.06-1.13c0.08-2.25,0.05-4.5,0.02-6.75c-0.01-0.7-0.27-1.06-0.96-1.09c-0.18-0.01-0.4,0.03-0.38-0.29
		c0.02-0.33,0.26-0.23,0.43-0.23c2.1-0.01,4.2,0,6.3-0.01c0.33,0,0.46,0.08,0.46,0.42c0.01,0.52,0.07,1.03,0.1,1.55
		c0.01,0.15,0.09,0.34-0.2,0.38c-0.27,0.04-0.33-0.09-0.39-0.3c-0.06-0.23-0.16-0.45-0.24-0.67c-0.18-0.48-0.55-0.72-1.05-0.74
		c-0.71-0.03-1.43-0.02-2.14-0.03c-0.31-0.01-0.41,0.14-0.4,0.44c0.01,1.04,0.01,2.08,0,3.12c0,0.28,0.07,0.39,0.36,0.37
		c0.45-0.03,0.91-0.03,1.36-0.02c0.65,0.01,1.22-0.1,1.33-0.9c0.03-0.22,0.17-0.26,0.37-0.25c0.23,0.01,0.21,0.17,0.21,0.32
		c0,0.8,0,1.6,0,2.4c0,0.13,0.02,0.28-0.17,0.29c-0.14,0.01-0.34,0.07-0.37-0.14c-0.15-1.1-0.96-1.05-1.76-1.04
		c-1.32,0.01-1.32,0-1.32,1.34c0,0.63-0.01,1.26,0,1.88c0.01,0.58,0.26,0.95,0.89,0.97c0.37,0.01,0.73,0.04,1.1,0.07
		c1.31,0.08,2.21-0.43,2.6-1.73c0.07-0.22,0.19-0.31,0.44-0.24c0.27,0.08,0.14,0.26,0.13,0.42c0,0.02-0.01,0.04-0.02,0.06
		c-0.17,0.67-0.07,1.55-0.54,1.95c-0.45,0.38-1.28,0.09-1.95,0.11C45.55,91.04,44.92,91.03,44.29,91.03z"/>
	<path class="st1" d="M95.06,99.39c-0.56,0-1.13,0.01-1.69-0.01c-0.32-0.01-0.46,0.06-0.44,0.42c0.03,0.76,0.01,1.52,0.01,2.27
		c0,0.53,0.18,0.88,0.78,0.89c0.19,0,0.43,0,0.39,0.29c-0.04,0.26-0.28,0.15-0.43,0.15c-0.89,0.01-1.78,0.01-2.66,0
		c-0.15,0-0.38,0.1-0.41-0.18c-0.02-0.25,0.17-0.26,0.35-0.27c0.61-0.01,0.75-0.39,0.75-0.91c0-1.82-0.01-3.64,0-5.46
		c0-0.59-0.24-0.89-0.83-0.92c-0.14-0.01-0.32,0.02-0.31-0.22c0.01-0.24,0.17-0.21,0.32-0.21c0.95,0,1.91,0,2.86,0
		c0.13,0,0.27-0.01,0.29,0.17c0.03,0.22-0.11,0.25-0.27,0.25c-0.69,0.02-0.86,0.44-0.83,1.05c0.02,0.54,0.02,1.08,0,1.62
		c-0.01,0.31,0.05,0.46,0.41,0.45c1.17-0.03,2.34-0.02,3.51,0c0.33,0.01,0.46-0.08,0.44-0.43c-0.03-0.58-0.02-1.17-0.01-1.75
		c0.01-0.56-0.21-0.91-0.82-0.93c-0.14,0-0.32,0.02-0.3-0.22c0.01-0.24,0.18-0.2,0.32-0.2c0.95,0,1.91,0,2.86,0
		c0.14,0,0.32-0.05,0.34,0.19c0.02,0.24-0.15,0.23-0.3,0.23c-0.71,0.01-0.89,0.42-0.88,1.07c0.03,1.73,0.02,3.47,0,5.2
		c-0.01,0.6,0.13,1.03,0.84,1.03c0.16,0,0.33,0.02,0.33,0.23c0,0.28-0.22,0.21-0.38,0.21c-0.95,0.01-1.91,0-2.86,0
		c-0.14,0-0.33,0.04-0.35-0.19c-0.01-0.2,0.14-0.26,0.3-0.25c0.74,0.03,0.91-0.43,0.9-1.04c-0.01-0.71-0.01-1.43,0-2.14
		c0.01-0.31-0.1-0.42-0.41-0.41C96.27,99.41,95.66,99.39,95.06,99.39z"/>
	<path class="st1" d="M57.83,91.03c-0.54,0-1.08,0.01-1.62,0c-0.15,0-0.37,0.08-0.4-0.19c-0.03-0.23,0.12-0.28,0.3-0.34
		c0.79-0.24,0.81-0.26,0.53-1.01c-0.25-0.67-0.35-1.52-0.82-1.93c-0.49-0.41-1.37-0.11-2.08-0.12c-1.21-0.02-1.21-0.01-1.6,1.11
		c-0.12,0.35-0.21,0.7-0.35,1.04c-0.22,0.56,0.01,0.81,0.55,0.9c0.21,0.04,0.55-0.05,0.5,0.33c-0.05,0.36-0.38,0.19-0.57,0.2
		c-0.84,0.02-1.69,0.01-2.53,0c-0.15,0-0.37,0.1-0.4-0.19c-0.02-0.22,0.08-0.32,0.29-0.34c0.8-0.06,1.13-0.64,1.39-1.28
		c1.08-2.61,2.16-5.22,3.23-7.84c0.12-0.29,0.22-0.57,0.6-0.57c0.39,0,0.31,0.36,0.39,0.57c1,2.62,1.99,5.24,2.97,7.87
		c0.25,0.65,0.55,1.23,1.37,1.28c0.18,0.01,0.27,0.11,0.26,0.3c-0.01,0.23-0.17,0.21-0.32,0.21C58.95,91.03,58.39,91.03,57.83,91.03
		z M52.83,86.68c0.96,0,1.85,0,2.79,0c-0.45-1.23-0.88-2.42-1.36-3.75C53.75,84.27,53.3,85.46,52.83,86.68z"/>
	<path class="st1" d="M95.4,85.87c0.74-1.23,1.38-2.4,1.95-3.6c0.26-0.54-0.14-0.6-0.51-0.71c-0.19-0.05-0.55,0.09-0.5-0.32
		c0.04-0.39,0.37-0.21,0.56-0.22c0.87-0.02,1.73-0.01,2.6-0.01c0.17,0,0.41-0.09,0.43,0.23c0.03,0.32-0.21,0.27-0.39,0.3
		c-0.63,0.09-1.06,0.45-1.38,0.97c-0.3,0.48-0.58,0.97-0.93,1.41c-1.25,1.62-1.71,3.44-1.48,5.47c0.09,0.82,0.2,1,1.04,1.1
		c0.11,0.01,0.21,0.04,0.32,0.04c0.21,0,0.24,0.12,0.24,0.3c0,0.19-0.13,0.19-0.26,0.19c-1.37,0-2.73,0-4.1,0
		c-0.14,0-0.25-0.03-0.26-0.2c-0.01-0.19,0.08-0.28,0.26-0.29c0.15-0.01,0.3-0.03,0.45-0.05c0.47-0.06,0.76-0.3,0.78-0.79
		c0.06-1.6,0.2-3.18-0.89-4.59c-0.64-0.83-1.11-1.8-1.65-2.71c-0.27-0.45-0.62-0.78-1.16-0.85c-0.22-0.03-0.37-0.06-0.33-0.34
		c0.04-0.28,0.25-0.19,0.4-0.19c1.04-0.01,2.08-0.01,3.12,0c0.18,0,0.4-0.08,0.41,0.25c0.01,0.26-0.16,0.24-0.33,0.29
		c-0.76,0.22-0.77,0.25-0.36,0.96C94.07,83.6,94.71,84.69,95.4,85.87z"/>
	<path class="st1" d="M73.42,85.8c0,1.19-0.01,2.38,0.01,3.57c0.01,0.82,0.22,1.02,1.02,1.12c0.13,0.02,0.26,0.03,0.39,0.05
		c0.16,0.01,0.22,0.11,0.22,0.26c0,0.17-0.09,0.22-0.25,0.22c-1.41,0-2.82,0-4.23,0c-0.14,0-0.25-0.02-0.26-0.2
		c-0.01-0.2,0.08-0.27,0.26-0.28c0.13-0.01,0.26-0.04,0.39-0.05c0.59-0.04,0.92-0.32,0.92-0.94c0.01-2.53,0.02-5.07,0.03-7.6
		c0-0.26-0.09-0.34-0.34-0.33c-0.35,0.02-0.69,0-1.04,0.01c-1.21,0.03-1.42,0.19-1.79,1.36c-0.04,0.12-0.08,0.25-0.12,0.37
		c-0.06,0.21-0.22,0.17-0.37,0.17c-0.2,0-0.17-0.15-0.16-0.28c0.04-0.78,0.08-1.55,0.14-2.33c0.03-0.36,0.25-0.4,0.47-0.18
		c0.23,0.24,0.49,0.25,0.77,0.25c2.1,0,4.2,0.01,6.31,0.01c0.28,0,0.55-0.03,0.78-0.24c0.29-0.26,0.49-0.25,0.5,0.23
		c0.02,0.71,0.08,1.42,0.12,2.14c0.01,0.16,0.07,0.35-0.22,0.37c-0.23,0.02-0.29-0.07-0.34-0.28c-0.05-0.25-0.14-0.5-0.24-0.74
		c-0.22-0.52-0.59-0.8-1.19-0.85c-1.81-0.13-1.81-0.14-1.81,1.63c0,0.85,0,1.69,0,2.54C73.41,85.8,73.42,85.8,73.42,85.8z"/>
	<path class="st0" d="M198.95,130.47c-0.02-3.13-1-5.99-2.53-8.68c-0.14-0.25-0.47-0.58-0.21-0.8c0.23-0.19,0.55,0.14,0.78,0.33
		c3.05,2.53,4.69,5.76,4.78,9.75c0.03,1.19,0.01,1.19-1.17,1.14c-0.3-0.01-0.61-0.08-0.91-0.04c-0.75,0.08-0.85-0.31-0.74-0.92
		C198.99,130.99,198.95,130.73,198.95,130.47z"/>
	<path class="st1" d="M77.11,103.62c-2.48,0.01-4.35-1.79-4.36-4.18c-0.01-2.49,1.92-4.38,4.48-4.39c2.44-0.01,4.34,1.85,4.32,4.23
		C81.54,101.8,79.68,103.61,77.11,103.62z M80.07,99.65c0.03-1.15-0.19-2.17-0.91-3.03c-1.18-1.42-3.26-1.38-4.3,0.07
		c-1.14,1.59-0.81,4.44,0.66,5.72c1.4,1.22,3.38,0.8,4.17-0.87C79.99,100.92,80.1,100.26,80.07,99.65z"/>
	<path class="st1" d="M66.97,103.62c-2.48,0-4.34-1.8-4.34-4.2c0-2.5,1.95-4.39,4.5-4.37c2.45,0.02,4.29,1.81,4.29,4.18
		C71.42,101.79,69.57,103.62,66.97,103.62z M69.96,99.62c-0.04-1.27-0.27-2.2-0.91-2.99c-1.26-1.55-3.55-1.36-4.51,0.38
		c-0.83,1.51-0.57,3.83,0.57,5.11c1.46,1.64,3.81,1.19,4.57-0.87C69.92,100.63,69.95,99.99,69.96,99.62z"/>
	<path class="st1" d="M64.23,91.03c-1.06,0-2.12,0-3.19,0c-0.17,0-0.42,0.1-0.43-0.23c0-0.3,0.24-0.25,0.42-0.28
		c0.92-0.15,1.07-0.29,1.07-1.2c0.01-2.21,0.01-4.42,0-6.63c-0.01-0.88-0.17-1.03-1.05-1.16c-0.18-0.02-0.4,0.05-0.38-0.28
		c0.02-0.33,0.26-0.23,0.42-0.23c1.15-0.01,2.3-0.01,3.45,0c0.17,0,0.4-0.11,0.43,0.22c0.03,0.32-0.18,0.26-0.37,0.29
		c-0.83,0.13-0.99,0.27-0.99,1.07c-0.02,2.25,0,4.51-0.01,6.76c0,0.65,0.28,1.02,0.95,1.05c0.45,0.02,0.91,0.05,1.36,0.03
		c1.01-0.03,1.52-0.7,1.89-1.54c0.09-0.21,0.07-0.58,0.49-0.42c0.38,0.14,0.12,0.4,0.08,0.59c-0.14,0.63-0.12,1.45-0.51,1.83
		c-0.41,0.4-1.24,0.09-1.88,0.12C65.4,91.04,64.81,91.03,64.23,91.03z"/>
	<path class="st1" d="M192.76,122.45c1.15,4.83,0.4,9.28-2.48,13.33c-0.59,0.83-1.52,1.04-2.19,0.52c-0.28-0.22-0.42-0.4-0.12-0.78
		c2.33-2.91,3.78-6.23,4.37-9.91c0.13-0.83,0.18-1.68,0.26-2.52C192.62,122.88,192.55,122.65,192.76,122.45z"/>
	<path class="st1" d="M86.68,99.19c0,0.93,0.02,1.86-0.01,2.79c-0.02,0.65,0.26,0.98,0.91,0.99c0.19,0,0.43-0.03,0.4,0.28
		c-0.03,0.27-0.27,0.16-0.42,0.16c-0.97,0.01-1.95,0.01-2.92,0c-0.17,0-0.44,0.12-0.44-0.21c0-0.26,0.22-0.23,0.38-0.23
		c0.62-0.02,0.87-0.34,0.87-0.95c-0.01-1.93-0.02-3.86,0-5.78c0-0.42-0.14-0.54-0.52-0.49c-0.26,0.03-0.52,0.05-0.78,0.04
		c-0.68-0.04-1.03,0.31-1.22,0.92c-0.07,0.22-0.02,0.63-0.36,0.58c-0.43-0.07-0.15-0.47-0.16-0.7c-0.02-0.45,0.06-0.9,0.09-1.36
		c0.02-0.31,0.12-0.43,0.38-0.18c0.21,0.21,0.45,0.22,0.72,0.22c1.65,0,3.29,0,4.94,0c0.2,0,0.41,0.02,0.56-0.12
		c0.5-0.44,0.58-0.19,0.57,0.31c0,0.47,0.06,0.95,0.08,1.42c0.01,0.15,0.12,0.35-0.17,0.39c-0.21,0.03-0.24-0.09-0.3-0.25
		c-0.47-1.21-0.98-1.47-2.33-1.29c-0.37,0.05-0.27,0.27-0.27,0.46c-0.01,1,0,1.99,0,2.99C86.67,99.19,86.68,99.19,86.68,99.19z"/>
	<path class="st1" d="M47.3,103.62c-0.06,0-0.26-0.01-0.45-0.04c-1.18-0.2-1.82-1.09-1.65-2.28c0.02-0.17,0.11-0.22,0.24-0.25
		c0.18-0.04,0.21,0.11,0.25,0.23c0.12,0.35,0.28,0.68,0.5,0.98c0.3,0.42,0.69,0.72,1.2,0.83c0.71,0.16,1.38-0.14,1.65-0.72
		c0.32-0.67,0.16-1.37-0.43-1.86c-0.5-0.41-1.11-0.66-1.67-0.98c-0.75-0.43-1.4-0.95-1.49-1.91c-0.14-1.51,1.12-2.65,2.81-2.55
		c0.04,0,0.09,0.01,0.13,0.02c1.45,0.15,1.67,0.41,1.61,1.86c-0.01,0.13,0.01,0.25-0.17,0.29c-0.16,0.03-0.24-0.04-0.3-0.17
		c-0.1-0.24-0.17-0.49-0.3-0.71c-0.36-0.61-0.92-0.89-1.58-0.77c-0.56,0.1-0.93,0.42-1.07,0.99c-0.17,0.68,0.1,1.2,0.64,1.56
		c0.44,0.3,0.93,0.54,1.41,0.79c1.43,0.76,1.96,1.63,1.67,2.79C50.02,102.91,48.94,103.63,47.3,103.62z"/>
	<path class="st1" d="M197.38,107.25c0.06,0,0.12,0,0.18,0c0.06,0.32,0.07,0.64-0.01,1.12
		C197.48,107.91,197.43,107.58,197.38,107.25z"/>
	<path d="M206.99,126.22c0.43,0.27,0.86,0.54,1.29,0.81c-0.02,0.04-0.05,0.08-0.07,0.12c-0.44-0.28-0.88-0.56-1.32-0.83
		C206.93,126.29,206.96,126.25,206.99,126.22z"/>
	<path d="M206.28,125.9c-0.13-0.06-0.37-0.11-0.26-0.27c0.15-0.2,0.27,0.06,0.4,0.15C206.37,125.82,206.32,125.86,206.28,125.9z"/>
	<path d="M208.54,127.25c-0.03,0.01-0.07,0.03-0.1,0.02c-0.02-0.01-0.03-0.05-0.05-0.08c0.03-0.01,0.07-0.03,0.1-0.03
		C208.51,127.18,208.52,127.22,208.54,127.25z"/>
	<path d="M206.52,126.08c-0.08-0.06-0.16-0.12-0.24-0.18c0.05-0.04,0.09-0.08,0.14-0.12c0.07,0.06,0.14,0.11,0.21,0.17
		C206.59,125.99,206.56,126.03,206.52,126.08z"/>
	<path d="M206.78,126.03c0.07,0.06,0.14,0.13,0.21,0.19c-0.03,0.03-0.07,0.06-0.1,0.1c-0.07-0.06-0.15-0.11-0.22-0.17
		C206.71,126.11,206.74,126.07,206.78,126.03z"/>
	<path d="M209.49,127.77c-0.08,0.14-0.16,0.03-0.24,0c0,0,0.01-0.05,0.01-0.08c0.07,0.03,0.14,0.06,0.21,0.09L209.49,127.77z"/>
	<path d="M206.62,125.94c0.05,0.03,0.1,0.06,0.16,0.09c-0.03,0.04-0.07,0.08-0.1,0.12c-0.05-0.02-0.1-0.05-0.15-0.07
		C206.56,126.03,206.59,125.99,206.62,125.94z"/>
	<path d="M209.47,127.79c0.03,0.04,0.07,0.08,0.1,0.12c-0.03,0-0.08,0.01-0.1,0c-0.07-0.05-0.01-0.09,0.02-0.13
		C209.49,127.77,209.47,127.79,209.47,127.79z"/>
	<path d="M52.83,86.68c0.47-1.22,0.92-2.4,1.43-3.75c0.48,1.32,0.91,2.51,1.36,3.75C54.68,86.68,53.79,86.68,52.83,86.68z"/>
</g>
</svg>
