<?xml version="1.0" encoding="utf-8"?>
<!-- Generator: Adobe Illustrator 28.1.0, SVG Export Plug-In . SVG Version: 6.00 Build 0)  -->
<svg version="1.1" id="Layer_1" xmlns="http://www.w3.org/2000/svg" xmlns:xlink="http://www.w3.org/1999/xlink" x="0px" y="0px"
	 viewBox="0 0 250 250" style="enable-background:new 0 0 250 250;" xml:space="preserve">
<style type="text/css">
	.st0{fill:#FEFEFE;}
</style>
<g>
	<path class="st0" d="M80.13,96.09c6.43,0,12.57,0.03,18.72-0.03c1.17-0.01,1.27,0.44,1.31,1.42c0.05,1.16-0.45,1.31-1.43,1.3
		c-4.52-0.04-9.04,0.03-13.56-0.05c-1.5-0.03-1.67,0.43-1.34,1.8c1.43,6.04,5.06,10.39,10.18,13.65c2.11,1.34,2.81,1.16,3.87-1.13
		c2.07-4.5,4.87-8.27,9.41-10.6c2.66-1.37,5.48-2.02,8.4-2.31c1.03-0.1,1.34-0.28,1.4-1.35c0.06-1.12,0.67-2.2,0.79-3.32
		c0.17-1.52,0.18-2.92-1.32-4.14c-4.15-3.39-6.17-8.04-7.09-13.22c-0.33-1.87-1.69-2.32-3.27-2.46
		c-8.96-0.82-15.67,2.95-20.11,10.51c-1.22,2.08-2.37,2.04-4.16,1.82c3.62-10.4,13.83-16.59,24.77-15.32c2.4,0.28,2.13-0.38,2.4-2.1
		c1.31-8.33,4.95-15.6,10.34-22.09c1.68-2.02,3.76-3.66,5.17-5.92c0.67-1.07,1.49-1.66,2.81-0.37c4.99,4.92,9.39,10.26,12.5,16.57
		c2.04,4.14,3.12,8.58,3.75,13.12c0.13,0.95,0.31,0.78,1.08,0.71c8.52-0.74,15.91,1.62,21.66,8.22c3.1,3.56,4.66,7.74,5.38,12.41
		c0.74,4.78-0.01,9.15-2.26,13.33c-2.48,4.6-6.22,7.97-10.64,10.62c-1.34,0.8-2.39,1.28-1.96,3.44c0.71,3.62,0.7,7.39,1.01,11.09
		c0.1,1.17-0.27,1.77-1.59,1.79c-7.02,0.11-13.84-0.76-20.17-4.03c-4.29-2.21-7.71-5.34-9.95-9.94c-1.37,2.08-2.54,4.03-4.19,5.63
		c-4.39,4.24-9.63,6.56-15.65,7.49c-3.7,0.57-7.38,0.91-11.12,0.85c-1.05-0.02-1.44,0-1.17-1.45c0.63-3.34,0.78-6.78,1.14-10.17
		c0.08-0.78-0.2-1.56,0.32-2.35c0.41-0.62,0.04-1.29-0.69-1.58c-4.75-1.86-8.3-5.11-11.01-9.37c-2.01-3.16-2.92-6.65-3.29-10.31
		C80.5,97.56,80.67,96.87,80.13,96.09z M169.03,96.13c0.5-1.55-0.47-2.89-0.48-4.36c0-0.82-0.41-1.65-0.71-2.44
		c-3.37-8.81-12.23-15.02-22.02-13.72c-1.51,0.2-2.31,0.72-2.58,2.28c-1.03,5.86-3.6,10.9-8.39,14.6c-0.68,0.53-0.61,1.22-0.41,1.47
		c0.7,0.89,0.43,1.97,0.71,2.93c1,3.35,0.91,3.16,4.37,3.72c4.2,0.68,7.91,2.66,10.74,5.91c1.98,2.27,3.54,4.85,4.68,7.67
		c0.37,0.9,0.73,1.27,1.92,0.66C164.58,110.92,168.43,104.58,169.03,96.13z M126.23,87.46c2.78-6.33,7.06-10.69,13.19-13.2
		c1.57-0.64,1.35-2.23,1.13-3.49c-1.72-9.7-6.75-17.6-13.55-24.51c-0.76-0.77-1.13-1.27-2.05,0.12c-2.37,3.6-5.16,6.93-7.58,10.51
		c-2.97,4.39-4.91,9.2-5.25,14.57c-0.11,1.77,0.6,2.66,2.31,3.39c2.58,1.1,4.95,2.75,6.83,4.87
		C123.2,81.9,124.68,84.46,126.23,87.46z M154.89,130.64c0.08-3.48-0.87-6.78-0.93-10.17c-0.02-1.18-0.49-1.49-1.43-1.22
		c-3.34,0.98-6.7,0.47-9.95-0.19c-5.71-1.15-9.94-4.74-13.53-9.14c-0.27-0.33-0.36-0.86-0.87-0.72c-0.29,0.08-0.52,0.45-0.5,0.89
		c0.08,1.69-0.2,3.47,0.23,5.06c1.77,6.58,6.48,10.47,12.53,12.95C145.09,130,150.04,130.3,154.89,130.64z M124.58,112.85
		c0-2.04-0.13-2.76-0.48-2.77c-0.85-0.01-1.19,0.79-1.65,1.29c-6.23,6.75-13.82,9.46-22.91,7.86c-0.54-0.1-1.24-0.22-1.2,0.77
		c0.12,2.64-0.5,5.21-0.97,7.76c-0.47,2.55,0.24,2.79,2.59,2.64c6.28-0.39,12.2-1.63,17.41-5.39
		C121.74,121.87,124.28,117.74,124.58,112.85z M104.65,117.08c0.59,0.25,1.34-0.44,2.2-0.55c6.38-0.82,10.88-4.56,14.53-9.55
		c0.15-0.2,0.69-0.75,0.23-1.04c-2.15-1.38-4.21-3.22-7.03-2.7c-6.79,1.24-11.53,5.09-14.21,11.48c-0.41,0.98-0.27,1.58,0.75,1.81
		C102.16,116.76,103.24,116.86,104.65,117.08z M148.14,116.55c0.74,0,1.48-0.05,2.22,0.01c1.47,0.11,2.17-0.05,1.39-1.85
		c-2.15-4.98-5.54-8.56-10.6-10.65c-2.88-1.19-5.54-1.15-8.2,0.48c-1.99,1.22-2.35,2.4-0.98,4.04
		C136.18,113.62,141.34,116.76,148.14,116.55z M132.14,98.26c0-3.35-2.46-5.72-5.94-5.73c-3.01-0.01-6.17,3.06-6.04,5.88
		c0.12,2.69,3.68,6.36,6.1,6.1C129.58,104.14,132.83,101.19,132.14,98.26z M140.15,78.16c-0.04-1-0.41-0.74-1.08-0.39
		c-4.19,2.16-7.14,5.42-9.27,9.62c-0.85,1.68-0.62,2.25,1,2.98c1.14,0.51,1.81,0.09,2.43-0.54c1.23-1.24,2.41-2.53,3.48-3.91
		C138.49,83.64,139.15,80.83,140.15,78.16z M112.46,77.22c0.76,5.81,3.73,9.76,7.58,13.2c0.95,0.85,1.65-0.01,2.31-0.4
		c0.53-0.31,1.02-0.7,0.59-1.75C120.91,83.36,117.32,80.02,112.46,77.22z"/>
	<path class="st0" d="M112.13,163.55c0.05-5.04,3.77-9.2,9.46-9.12c6.1,0.08,9.02,3.49,9.58,8.73c0.54,5.04-4.18,9.38-9.62,9.42
		C116.04,172.62,112.06,167.94,112.13,163.55z M115.69,163.52c0.02,2.89,2.98,6.05,5.76,5.91c3.83-0.2,6.11-2.64,6.16-5.93
		c0.04-3.39-2.52-5.95-6.28-6.02C118.54,157.43,115.66,160.64,115.69,163.52z"/>
	<path class="st0" d="M233.52,163.21c0-2.52,0-5.04,0-7.56c0-0.64-0.18-1.33,0.92-1.32c3.35,0.02,6.71,0.2,9.97,0.94
		c4.59,1.04,6,6.2,5.48,9.6c-0.72,4.74-3.67,7.16-8.18,7.25c-2.22,0.04-4.45-0.07-6.67,0.04c-1.31,0.07-1.6-0.41-1.56-1.62
		C233.59,168.1,233.52,165.65,233.52,163.21z M236.64,163.55c0,1.55-0.02,3.11,0.01,4.66c0.01,0.45-0.26,0.99,0.5,1.26
		c2.33,0.83,7.21-0.76,8.4-2.75c1.19-1.97,1.39-4.07,0.26-5.97c-1.46-2.47-3.89-3.45-6.75-3.29c-1.62,0.09-2.76,0.51-2.46,2.55
		C236.78,161.16,236.64,162.36,236.64,163.55z"/>
	<path class="st0" d="M141.48,163.14c0-2.51,0.01-5.03,0-7.54c0-0.68-0.07-1.5,0.96-1.23c3.2,0.84,6.56-0.14,9.73,0.86
		c3.55,1.12,5.06,6.79,2.29,9.37c-1.76,1.64-2.01,2.85-0.28,4.47c0.14,0.13,0.12,0.42,0.23,0.59c0.51,0.75,1.85,1.52,0.67,2.43
		c-1.42,1.11-2.7,0.16-3.7-1.01c-0.27-0.31-0.38-0.76-0.57-1.15c-1.22-2.43-2.91-3.24-5.49-2.72c-0.57,0.11-0.75,0.31-0.74,0.83
		c0.01,0.81-0.06,1.63,0.02,2.44c0.1,1.13-0.08,1.7-1.48,1.7c-1.4,0.01-1.75-0.39-1.68-1.74
		C141.56,168.02,141.48,165.57,141.48,163.14z M144.59,160.63c0,0.59,0.08,1.19-0.02,1.77c-0.26,1.54,0.49,1.75,1.84,1.78
		c1.41,0.03,2.73-0.29,4.06-0.57c1.68-0.35,2.19-1.87,1.82-3.66c-0.49-2.4-2.36-1.79-3.89-2.12
		C144.58,156.99,144.59,156.94,144.59,160.63z"/>
	<path class="st0" d="M191.28,163.26c0-2.37,0.11-4.75-0.04-7.11c-0.1-1.6,0.83-1.4,1.79-1.36c0.89,0.03,2.09-0.35,1.8,1.31
		c-0.01,0.07-0.01,0.15,0,0.22c0.15,1.82-0.83,4.31,0.39,5.28c1.14,0.91,3.53,0.27,5.37,0.3c0.59,0.01,1.19-0.05,1.78,0.01
		c1.04,0.12,1.46-0.23,1.38-1.33c-0.09-1.33,0.02-2.67-0.04-4c-0.05-1.13-0.05-1.88,1.55-1.87c1.54,0.01,1.61,0.63,1.6,1.83
		c-0.05,4.67-0.06,9.34,0.01,14c0.02,1.21-0.26,1.65-1.56,1.63c-1.22-0.02-1.65-0.28-1.62-1.58c0.04-1.67,0.78-3.96-0.33-4.85
		c-1.05-0.84-3.25-0.28-4.94-0.28c-3.58-0.02-3.58-0.01-3.58,3.53c0,0.44-0.05,0.9,0.01,1.33c0.21,1.41-0.27,1.89-1.77,1.86
		c-1.4-0.03-1.92-0.32-1.84-1.82C191.38,168.01,191.28,165.63,191.28,163.26z"/>
	<path class="st0" d="M18.75,166.93c0,4.14-2.99,6.39-7.73,5.62c-4.27-0.7-7.37-2.68-8.43-7.36c-1.09-4.78,2.3-9.3,6.46-10.39
		c3.15-0.83,6.05-0.31,8.8,1.48c0.77,0.5,1.09,0.78,0.46,1.56c-0.54,0.67-0.66,1.65-2.09,1.06c-1.89-0.78-3.72-2.03-6.1-1.05
		c-2.91,1.19-5.01,4.39-4.18,6.99c1.09,3.41,4.77,5.23,8.05,4.23c2.08-0.63,1.61-2.14,1.64-3.53c0.02-1.04-0.21-1.97,1.49-1.92
		c1.42,0.04,1.84,0.44,1.65,1.76C18.69,165.88,18.75,166.41,18.75,166.93z"/>
	<path class="st0" d="M44.99,161.54c-0.22,1.69,0.31,3.75-0.28,5.78c-1.14,3.96-5.01,6.19-9,5.1c-4.46-1.22-5.88-2.85-5.98-7.57
		c-0.06-2.9,0.49-5.77,0.12-8.64c-0.19-1.48,0.64-1.41,1.7-1.46c1.19-0.06,1.49,0.35,1.46,1.49c-0.08,2.66,0.02,5.32-0.04,7.99
		c-0.09,4.28,2.14,5.16,4.35,5.2c2.62,0.04,4.23-1.36,4.52-5.07c0.21-2.72,0.13-5.47,0.01-8.2c-0.06-1.33,0.55-1.41,1.56-1.38
		c0.91,0.03,1.75-0.13,1.62,1.32C44.88,157.78,44.99,159.49,44.99,161.54z"/>
	<path class="st0" d="M168.6,163.55c0.05,4.31,4.61,6.88,8.7,4.98c0.91-0.42,1.74-1.95,3.09-0.45c0.86,0.95,0.89,1.67-0.11,2.36
		c-3.07,2.12-6.38,2.9-9.89,1.24c-3.43-1.63-5.33-4.49-5.3-8.27c0.03-3.87,2.01-6.72,5.61-8.25c3.39-1.44,6.56-0.69,9.5,1.28
		c0.39,0.27,1.08,0.59,0.7,1.4c-0.35,0.75-0.81,1.04-1.66,0.97c-1.73-0.14-3.3-0.99-5.09-0.94
		C170.98,157.97,168.57,160.35,168.6,163.55z"/>
	<path class="st0" d="M77,163.28c0-2.37,0.04-4.74-0.02-7.11c-0.03-1.02,0.2-1.43,1.32-1.4c3.11,0.08,6.22,0.06,9.33,0.01
		c1.01-0.02,1.44,0.19,1.41,1.32c-0.02,1.02-0.19,1.46-1.33,1.4c-1.85-0.1-3.71,0.04-5.55-0.05c-1.2-0.06-1.81,0.22-1.61,1.54
		c0.08,0.58,0.08,1.19,0,1.77c-0.15,1.21,0.21,1.73,1.54,1.62c1.55-0.12,3.11,0.03,4.66-0.05c1.01-0.05,1.44,0.18,1.41,1.32
		c-0.02,1.02-0.19,1.45-1.33,1.4c-1.99-0.08-4.57-0.73-5.82,0.25c-1.32,1.03-0.4,3.73-0.41,5.69c-0.01,1.78-1.22,1.03-2,1.13
		c-0.91,0.12-1.71,0.17-1.63-1.28C77.1,168.32,77,165.79,77,163.28z"/>
	<path class="st0" d="M56.55,163.35c0-2.45,0.07-4.89-0.03-7.33c-0.05-1.24,0.55-1.3,1.47-1.24c0.84,0.05,1.74-0.28,1.7,1.23
		c-0.1,3.85,0.01,7.71-0.06,11.56c-0.02,1.16,0.29,1.55,1.47,1.48c1.62-0.1,3.26,0.06,4.89-0.05c1.24-0.08,1.3,0.55,1.24,1.47
		c-0.05,0.85,0.28,1.77-1.23,1.7c-2.74-0.11-5.48-0.07-8.22-0.01c-0.97,0.02-1.28-0.26-1.25-1.24
		C56.59,168.39,56.55,165.87,56.55,163.35z"/>
	<path class="st0" d="M218.4,163.44c0-2.43,0.09-4.87-0.04-7.3c-0.07-1.34,0.56-1.41,1.56-1.37c0.9,0.03,1.66-0.14,1.63,1.3
		c-0.1,4.94-0.08,9.88-0.01,14.81c0.02,1.22-0.51,1.33-1.45,1.25c-0.81-0.07-1.79,0.35-1.73-1.19
		C218.48,168.45,218.4,165.94,218.4,163.44z"/>
</g>
</svg>
