<?xml version="1.0" encoding="utf-8"?>
<!-- Generator: Adobe Illustrator 28.1.0, SVG Export Plug-In . SVG Version: 6.00 Build 0)  -->
<svg version="1.1" id="Layer_1" xmlns="http://www.w3.org/2000/svg" xmlns:xlink="http://www.w3.org/1999/xlink" x="0px" y="0px"
	 viewBox="0 0 250 250" style="enable-background:new 0 0 250 250;" xml:space="preserve">
<style type="text/css">
	.st0{fill:#FFFFFF;}
	.st1{fill:#282828;}
</style>
<path class="st0" d="M249.09,0.91v160.1c0,48.65-39.44,88.09-88.09,88.09H0.91V88.99c0-48.65,39.44-88.09,88.09-88.09H249.09z"/>
<g>
	<path class="st1" d="M45.84,222.68c0,4.4,0.01,8.79,0,13.19c0,1.1,0.02,2.22-0.33,3.27c-0.73,2.18-2.79,3.68-5.15,3.71
		c-3.98,0.04-7.97,0.02-11.95,0.01c-0.46,0-0.98,0.14-1.33-0.32c-0.45-0.61,0.04-1.54,0.89-1.57c1.58-0.05,3.16,0,4.74-0.04
		c1.71-0.04,2.76-1.04,2.91-2.74c0.06-0.68,0.03-1.37,0.03-2.06c-0.01-9.13-0.01-18.27-0.02-27.4c0-0.48,0.02-0.96,0-1.44
		c-0.02-0.64,0.17-1.03,0.92-1.03c2.75,0.02,5.49,0.02,8.24,0.01c0.97,0,1.08,0.64,1.08,1.38c0,2.13-0.01,4.26-0.01,6.39
		c0,2.88,0,5.77,0,8.65C45.85,222.68,45.85,222.68,45.84,222.68z"/>
	<g>
		<path class="st1" d="M26.97,125.24c0-18.27,0-36.54,0-54.81c0-2.87-0.15-2.73,2.65-2.73c10.78,0.02,21.56,0.03,32.35,0.05
			c0.41,0,0.82,0.02,1.24,0c0.98-0.05,1.33,0.44,1.32,1.38c-0.03,2.4-0.03,4.81,0,7.21c0.01,0.98-0.44,1.34-1.38,1.33
			c-2.33-0.02-4.67,0-7,0.01c-5.56,0.01-11.13,0.02-16.69,0.04c-2.5,0.01-2.51,0.01-2.51,2.46c0,23.9,0,47.8,0.01,71.7
			c0,6.04,0.01,12.09,0.01,18.13c0,0.55,0.01,1.1,0.03,1.65c0.03,0.64,0.38,1.02,1.03,1.06c0.55,0.04,1.1,0.05,1.65,0.05
			c16.62,0.02,33.24,0.03,49.86,0.04c2.53,0,2.52-0.01,2.52-2.65c0.01-24.17,0.02-48.35,0.03-72.52c0-2.83-0.18-2.74,2.65-2.74
			c1.85,0,3.71-0.03,5.56-0.01c1.65,0.02,1.74,0.09,1.75,1.76c0.03,4.46,0.01,8.93,0.02,13.39c0.01,3.21-0.26,3.01,3.01,3.01
			c6.87,0,13.73,0,20.6-0.01c0.48,0,0.96-0.02,1.44,0c0.93,0.03,1.4-0.36,1.37-1.34c-0.03-1.1-0.01-2.2-0.01-3.3
			c0.01-3.91,0-7.83,0.03-11.74c0.01-1.67,0.08-1.73,1.77-1.74c2.2-0.02,4.4-0.03,6.59,0c1.77,0.02,1.82,0.06,1.82,1.9
			c0.02,4.74,0.01,9.48,0.01,14.22c0,3.37,0.02,6.73,0,10.1c-0.01,1.79-0.06,1.86-1.86,1.86c-7.14,0.02-14.28,0.01-21.43,0.01
			c-3.57,0-7.14,0.01-10.71,0c-2.79,0-2.64-0.11-2.64,2.75c0.01,14.15,0.01,28.3,0.01,42.44c0,3.98-0.03,7.97-0.03,11.95
			c0,2.77,0.13,2.63-2.75,2.63c-17.24-0.01-34.47-0.02-51.71-0.02c-5.97,0-11.95,0.01-17.92,0.01c-0.55,0-1.1-0.01-1.65-0.02
			c-0.67-0.01-0.99-0.39-1.01-1.04c-0.02-0.62-0.03-1.24-0.03-1.85c0-18.2,0-36.4,0-54.6C26.97,125.24,26.97,125.24,26.97,125.24z"
			/>
		<path class="st1" d="M142.56,233.05c-20.12,0-40.24,0-60.36,0c-2.47,0-2.31-0.26-2.3,2.35c0,0.82,0.03,1.65-0.02,2.47
			c-0.16,2.78-2.35,4.92-5.13,4.93c-7.42,0.03-14.83,0.02-22.25,0.03c-0.34,0-0.69,0.01-1.03-0.04c-0.61-0.09-0.7-0.57-0.69-1.08
			c0.01-0.5,0.29-0.74,0.77-0.76c0.48-0.02,0.96-0.01,1.44-0.01c4.46,0,8.93,0,13.39-0.02c2.11-0.01,3.14-0.96,3.15-3.06
			c0.03-9.13,0.02-18.27,0-27.4c0-1.68-0.55-2.27-2.18-2.35c-1.37-0.07-2.75-0.05-4.12,0.04c-1.51,0.1-2.1,0.71-2.11,2.2
			c-0.03,6.18-0.05,12.36-0.02,18.54c0.01,1.72,0.5,2.18,2.21,2.32c0.89,0.07,1.78,0.05,2.68,0.08c0.53,0.02,0.94,0.17,0.97,0.81
			c0.03,0.76-0.43,0.92-1.05,0.91c-3.57-0.02-7.14-0.08-10.71-0.02c-1.94,0.03-2.94-1.07-3.74-2.59c-0.52-1-0.68-2.07-0.68-3.17
			c0-4.88-0.01-9.75,0-14.63c0-0.62,0.06-1.23,0.13-1.85c0.3-2.63,1.76-4.1,4.41-4.43c0.41-0.05,0.82-0.05,1.23-0.05
			c5.7-0.01,11.4,0.08,17.1-0.05c3.75-0.09,6.19,2.34,6.13,6.26c-0.08,5.7-0.01,11.4,0,17.1c0,1.57,0.03,1.59,1.58,1.62
			c2.47,0.04,4.95,0.01,7.42,0.1c1.06,0.04,1.48-0.27,1.44-1.37c-0.06-1.99-0.01-3.98-0.01-5.97c0.01-9.07,0.01-18.13,0.02-27.2
			c0-1.92,0.01-1.92,2.01-1.92c2.33,0,4.67,0.03,7-0.03c0.91-0.02,1.21,0.3,1.2,1.18c-0.04,2.88-0.04,5.77-0.03,8.65
			c0.01,1.54,0.03,1.57,1.62,1.57c6.66,0.02,13.32,0.01,19.98,0.04c4.01,0.02,6.04,2.07,6.06,6.12c0.03,5.7,0.02,11.4,0.03,17.1
			c0,1.7,0.02,1.71,1.69,1.74c2.33,0.03,4.67,0.05,7,0.05c1.52,0,1.55-0.01,1.55-1.62c0.01-5.77,0.01-11.54-0.01-17.31
			c-0.01-1.42,0.28-2.73,1.13-3.88c1.04-1.4,2.35-2.23,4.17-2.22c6.04,0.04,12.09-0.01,18.13,0.04c3.57,0.03,5.58,2.04,5.7,5.62
			c0.06,1.78-0.01,3.57,0.05,5.36c0.03,0.9-0.33,1.22-1.21,1.21c-2.61-0.02-5.22-0.02-7.83,0.04c-1.02,0.02-1.29-0.44-1.28-1.37
			c0.03-2.13,0.03-4.26-0.02-6.39c-0.05-2.09-0.5-2.53-2.57-2.62c-1.3-0.05-2.61-0.09-3.91-0.01c-1.45,0.1-2.06,0.77-2.07,2.26
			c-0.03,6.04-0.05,12.09-0.02,18.13c0.01,2.18,0.57,2.72,2.68,2.73c8.17,0.03,16.34,0.04,24.52,0.04c1.52,0,1.54-0.03,1.54-1.86
			c0.01-10.71,0-21.43,0.01-32.14c0-2.65-0.31-2.46,2.39-2.45c2.13,0.01,4.26-0.01,6.39,0.02c1.48,0.02,1.51,0.05,1.52,1.49
			c0.03,2.47,0.01,4.94,0.01,7.42c0,8.52,0,17.03,0,25.55c0,1.87,0.02,1.88,1.93,1.89c1.92,0.02,3.85,0.05,5.77,0.02
			c1.6-0.02,2.27-0.58,2.51-2.13c0.14-0.88,0.13-1.78,0.13-2.67c0-9.75-0.01-19.5-0.02-29.25c0-0.41,0.02-0.83-0.01-1.24
			c-0.07-0.93,0.41-1.16,1.25-1.15c2.61,0.03,5.22,0.04,7.83,0c0.92-0.01,1.21,0.37,1.19,1.22c-0.03,1.44,0,2.88,0,4.33
			c0,8.86-0.01,17.72-0.01,26.58c0,2.34-0.84,4.16-2.81,5.57c-0.92,0.65-1.8,0.51-2.7,0.51c-8.1,0.05-16.21,0.05-24.31,0.05
			C166.45,233.06,154.51,233.05,142.56,233.05z M100.4,219.64C100.4,219.64,100.4,219.64,100.4,219.64c0,3.36-0.01,6.72,0.01,10.08
			c0.01,1.51,0.03,1.53,1.43,1.54c4.73,0.02,9.46,0.04,14.2,0.04c1.66,0,1.69-0.02,1.7-1.71c0.04-6.17,0.07-12.34,0.07-18.52
			c0-2.61-0.32-2.94-3.01-2.97c-4.32-0.06-8.64-0.06-12.96-0.06c-1.4,0-1.43,0.02-1.44,1.53
			C100.39,212.92,100.4,216.28,100.4,219.64z"/>
		<path class="st1" d="M187.2,125.48c0,18.13,0,36.26,0,54.39c0,0.34,0,0.69,0,1.03c-0.04,2.02-0.04,2.05-2.11,2.06
			c-5.15,0.03-10.3,0.04-15.45,0.03c-1.81,0-1.85-0.05-1.87-1.85c-0.02-2.06,0.03-4.12-0.01-6.18c-0.02-1.08,0.43-1.46,1.47-1.44
			c2.06,0.04,4.12,0.04,6.18,0.01c1.71-0.02,1.76-0.08,1.79-1.73c0.02-1.1-0.01-2.2-0.01-3.3c0.01-32.55,0.01-65.1,0.02-97.65
			c0-3.21-0.26-2.96,3.04-2.95c1.85,0,3.71,0.02,5.56,0c0.93-0.01,1.42,0.36,1.38,1.33c-0.02,0.48,0,0.96,0,1.44
			C187.2,88.95,187.2,107.22,187.2,125.48C187.2,125.48,187.2,125.48,187.2,125.48z"/>
		<path class="st1" d="M208.08,125.47c0,18.33,0,36.66,0,54.99c0,2.48,0,2.48-2.46,2.5c-2.06,0.02-4.12,0.06-6.18,0.03
			c-1.4-0.02-1.48-0.13-1.55-1.54c-0.02-0.41-0.01-0.82-0.01-1.24c0-36.52,0-73.04,0-109.56c0-2.88-0.18-2.73,2.64-2.72
			c2.06,0.01,4.12,0.03,6.18,0c0.94-0.01,1.43,0.33,1.37,1.31c-0.02,0.34,0,0.69,0,1.03C208.07,88.68,208.07,107.07,208.08,125.47
			C208.07,125.47,208.07,125.47,208.08,125.47z"/>
		<path class="st1" d="M158.38,139c0,13.73,0,27.46,0,41.19c0,0.41-0.02,0.82,0,1.24c0.04,0.96-0.42,1.34-1.37,1.34
			c-5.77-0.02-11.53-0.02-17.3,0.01c-1.06,0-1.47-0.42-1.46-1.47c0.04-2.33,0.04-4.67,0.01-7c-0.02-1.06,0.42-1.48,1.47-1.47
			c2.06,0.03,4.12,0,6.18-0.03c2.25-0.03,2.29-0.07,2.29-2.34c0-15.17-0.01-30.35,0-45.52c0-8.99,0.02-17.99,0.03-26.98
			c0-0.41,0-0.82,0.01-1.24c0.06-1.77,0.09-1.82,1.9-1.84c2.27-0.02,4.53,0.03,6.8-0.01c1.07-0.02,1.51,0.44,1.45,1.47
			c-0.02,0.41,0,0.82,0,1.24C158.38,111.4,158.38,125.2,158.38,139z"/>
		<path class="st1" d="M130.92,27.79c0,4.6,0,9.2,0,13.81c0,2.21-0.01,2.23-2.12,2.23c-8.24,0.01-16.48,0.01-24.72-0.01
			c-1.95,0-1.97-0.03-1.98-1.92c-0.02-9.27-0.04-18.54-0.04-27.82c0-3.01,1.39-4.37,4.44-4.37c6.59-0.01,13.19,0,19.78,0
			c0.41,0,0.83-0.02,1.24,0.03c2.18,0.22,3.34,1.42,3.36,3.64c0.03,4.81,0.01,9.62,0.01,14.42
			C130.9,27.79,130.91,27.79,130.92,27.79z M116.31,23.27c2.82,0.04,5.09-2.09,5.11-4.79c0.01-2.59-2.19-4.62-4.91-4.78
			c-2.34-0.14-4.75,2.26-4.77,4.68C111.71,20.95,113.87,23.23,116.31,23.27z"/>
		<path class="st1" d="M107.78,139.56c1.94-2.43,3.86-4.83,5.78-7.22c0.47-0.59,0.89-0.39,1.38,0.02c1.84,1.54,3.73,3.01,5.54,4.59
			c0.77,0.68,1.24,0.57,1.81-0.18c1.07-1.42,2.21-2.79,3.28-4.22c0.46-0.62,0.87-0.77,1.51-0.24c2.32,1.91,4.66,3.8,7.06,5.75
			c-2,2.49-3.92,4.89-5.84,7.29c-0.53,0.65-0.94,0.19-1.37-0.16c-1.76-1.42-3.51-2.85-5.29-4.25c-1.22-0.97-1.24-0.96-2.19,0.21
			c-1.04,1.28-2.09,2.54-3.08,3.85c-0.51,0.67-0.91,0.86-1.64,0.24C112.47,143.35,110.17,141.51,107.78,139.56z"/>
		<path class="st1" d="M116.65,63.61c-4.25,0-8.5,0.01-12.75-0.01c-1.7-0.01-1.73-0.05-1.77-1.72c-0.02-1.03-0.04-2.06,0-3.08
			c0.05-1.41,0.19-1.54,1.52-1.63c0.34-0.02,0.69-0.01,1.03-0.01c7.95,0,15.9,0.01,23.85,0.01c0.34,0,0.69-0.01,1.03,0.01
			c1.44,0.08,1.57,0.21,1.62,1.74c0.03,0.96,0.04,1.92,0.01,2.88c-0.05,1.57-0.23,1.79-1.79,1.81c-3.15,0.03-6.31,0.01-9.46,0.01
			C118.84,63.61,117.75,63.61,116.65,63.61z"/>
		<path class="st1" d="M116.57,53.72c-4.18,0-8.36,0.01-12.55,0c-1.84-0.01-1.86-0.04-1.9-1.8c-0.02-0.89-0.02-1.78,0-2.67
			c0.04-1.82,0.14-1.94,2.04-1.95c2.61-0.02,5.22-0.13,7.81,0.02c5.41,0.33,10.83,0.11,16.24,0.19c2.73,0.04,2.74,0.02,2.75,2.66
			c0.01,3.94,0.39,3.52-3.5,3.54c-3.63,0.02-7.27,0-10.9,0C116.57,53.71,116.57,53.72,116.57,53.72z"/>
		<path class="st1" d="M154.42,81.54c-0.44-0.01-0.65-0.29-0.92-0.5c-2.03-1.6-3.93-3.36-6.12-4.73c-0.76-0.48-0.83-1.08-0.34-1.7
			c1.67-2.13,3.41-4.21,5.09-6.33c0.45-0.57,0.89-0.58,1.39-0.17c2.22,1.79,4.43,3.6,6.63,5.41c0.34,0.28,0.54,0.66,0.21,1.07
			c-1.82,2.22-3.65,4.43-5.49,6.64C154.74,81.36,154.54,81.45,154.42,81.54z"/>
		<path class="st1" d="M70.54,123.63c-1.88,2.33-3.66,4.57-5.47,6.79c-0.95,1.16-0.97,1.14-2.04,0.27c-1.99-1.61-3.99-3.2-6-4.79
			c-0.64-0.5-0.85-0.86-0.17-1.62c1.66-1.87,3.2-3.84,4.76-5.79c0.86-1.08,1.27-1.17,2.34-0.29
			C66.11,119.97,68.26,121.75,70.54,123.63z"/>
	</g>
</g>
</svg>
