<?xml version="1.0" encoding="utf-8"?>
<!-- Generator: Adobe Illustrator 28.1.0, SVG Export Plug-In . SVG Version: 6.00 Build 0)  -->
<svg version="1.1" id="Layer_1" xmlns="http://www.w3.org/2000/svg" xmlns:xlink="http://www.w3.org/1999/xlink" x="0px" y="0px"
	 viewBox="0 0 250 250" style="enable-background:new 0 0 250 250;" xml:space="preserve">
<style type="text/css">
	.st0{fill:#FFFFFF;}
	.st1{fill:#282828;}
</style>
<path class="st0" d="M249.09,0.91v160.1c0,48.65-39.44,88.09-88.09,88.09H0.91V88.99c0-48.65,39.44-88.09,88.09-88.09H249.09z"/>
<g>
	<path class="st1" d="M187.62,111.4c-9.67,18.59-19.33,37.18-29,55.77c-0.17-0.07-0.33-0.14-0.5-0.2
		c4.47-12.32,8.94-24.65,13.54-37.32c-1.65,0.48-2.94,0.9-4.25,1.24c-12.62,3.26-23.39,0.02-32.4-9.28
		c-4.35-4.49-7.9-9.56-10.98-14.98c-0.48-0.84-1.03-1.63-1.77-2.8c-0.71,1.08-1.27,1.84-1.74,2.66
		c-3.68,6.36-7.87,12.29-13.35,17.28c-9.44,8.58-20.25,10.1-32.13,6.56c-0.5-0.15-1-0.31-1.5-0.45c-0.1-0.03-0.22,0.02-0.62,0.08
		c4.5,12.39,8.98,24.72,13.45,37.04c-0.16,0.08-0.33,0.15-0.49,0.23c-9.66-18.63-19.32-37.26-28.99-55.88
		c0.14-0.11,0.28-0.22,0.43-0.32c0.76,0.57,1.53,1.13,2.28,1.72c5.38,4.31,11.08,8.09,17.73,10.13c9.41,2.89,17.59,0.79,24.54-6.27
		c6.14-6.24,10.17-13.8,13.69-21.66c2.06-4.6,3.76-9.37,5.63-14.06c0.29-0.74,0.6-1.48,1.08-2.67c0.36,0.85,0.56,1.27,0.72,1.71
		c3.85,10.66,8.02,21.17,14.5,30.58c3.17,4.6,6.92,8.66,11.91,11.25c6.76,3.51,13.71,2.98,20.55,0.17
		c5.29-2.17,10.06-5.27,14.52-8.84c0.89-0.71,1.84-1.36,2.76-2.04C187.36,111.14,187.49,111.27,187.62,111.4z"/>
	<path class="st1" d="M149.8,13.58c-0.24,0.57-0.41,1.18-0.74,1.69c-3.32,5.26-4.67,11.19-5.96,17.16
		c-1.55,7.21-1.26,14.54-1.56,21.84c-0.43,10.62-2.95,20.64-8.76,29.68c-0.52,0.81-1.15,1.54-1.73,2.3
		c-0.14-0.05-0.29-0.09-0.43-0.14c0-0.4-0.12-0.84,0.02-1.19c2.52-6.35,2.5-13.05,2.79-19.71c0.34-7.71,0.51-15.43,1.14-23.11
		c0.58-7.11,2.3-14.04,6.19-20.11c1.88-2.93,4.54-5.36,6.92-7.96c0.4-0.44,1.14-0.59,1.72-0.87
		C149.53,13.3,149.67,13.44,149.8,13.58z"/>
	<path class="st1" d="M112.04,86.65c-0.09-1.88,0.07-3.82-0.31-5.64c-1.13-5.38-2.22-10.79-3.81-16.05c-2.74-9.05-6-17.96-7.18-27.4
		c-1.02-8.17-0.47-16.12,3.76-23.46c0.5-0.86,1.17-1.62,1.76-2.43c0.2,0.06,0.4,0.12,0.59,0.19c0,0.52,0.08,1.06-0.01,1.56
		c-2.16,11.43-0.1,22.42,3.53,33.21c2.96,8.8,5.37,17.7,4.77,27.08c-0.25,3.85-1.11,7.67-1.75,11.49c-0.09,0.56-0.51,1.07-0.77,1.6
		C112.43,86.74,112.23,86.69,112.04,86.65z"/>
	<path class="st1" d="M121.52,75.6c0-0.5-0.11-1.04,0.02-1.51c1.64-6.14,0.98-12.33,0.5-18.53c-0.67-8.56-1.52-17.11-1.87-25.69
		c-0.28-6.79,0.89-13.48,3.97-19.61c1.43-2.86,3.55-5.39,5.45-8c0.42-0.58,1.22-0.89,1.84-1.32c0.14,0.11,0.28,0.22,0.42,0.33
		c-0.19,0.69-0.3,1.41-0.58,2.06c-3.47,7.84-4.17,16.16-3.89,24.56c0.17,5.15,1.06,10.28,1.39,15.43
		c0.66,10.48-0.85,20.61-5.34,30.19c-0.37,0.8-0.92,1.52-1.38,2.28C121.86,75.72,121.69,75.66,121.52,75.6z"/>
	<path class="st1" d="M110.91,191.88c-0.03,8.04-5.87,14.04-13.7,14.1c-7.88,0.06-13.95-6.21-13.88-14.34
		c0.07-8.15,5.98-14.09,13.96-14.02C105.32,177.69,110.94,183.56,110.91,191.88z M106.46,192.02c-0.62-2.73-0.96-5.27-1.79-7.64
		c-1.03-2.97-3.35-4.71-6.5-5.02c-3.53-0.35-6.5,0.81-8.08,4.16c-2.53,5.37-2.59,10.9-0.13,16.29c1.4,3.06,4.07,4.48,7.48,4.38
		c3.28-0.1,5.76-1.65,6.97-4.6C105.4,197.17,105.81,194.51,106.46,192.02z"/>
	<path class="st1" d="M82.59,213.17c0.65-0.03,1.33-0.09,2.01-0.09c23.4-0.01,46.8-0.02,70.19-0.05c1.36,0,2.16,0.14,2.06,1.86
		c-0.08,1.36-0.46,1.77-1.83,1.77c-23.28-0.05-46.56-0.04-69.85-0.05C82.07,216.6,82.06,216.57,82.59,213.17z"/>
	<path class="st1" d="M60.35,200.38c0-1.04-0.06-2.09,0.03-3.13c0.04-0.44,0.37-0.85,0.57-1.27c0.42,0.32,0.97,0.55,1.24,0.96
		c1.07,1.63,1.88,3.46,3.12,4.93c1.44,1.71,3.55,2.35,5.8,2.28c2.63-0.08,4.26-1.27,4.83-3.47c0.56-2.14-0.48-4.6-2.62-5.74
		c-1.32-0.71-2.8-1.12-4.16-1.75c-1.73-0.8-3.57-1.47-5.11-2.56c-4.21-2.98-3.81-9.01,0.67-11.6c2.96-1.71,6.08-1.74,9.24-0.62
		c1.13,0.4,2.12,1.03,3.34-0.05c0.68-0.6,1.43-0.12,1.45,0.93c0.06,2.26,0.14,4.53,0.14,6.79c0,0.35-0.41,0.7-0.62,1.06
		c-0.43-0.28-1.05-0.45-1.26-0.84c-0.74-1.37-1.19-2.91-2.03-4.21c-1.37-2.12-3.43-3.04-5.98-2.75c-1.91,0.22-3.49,1.45-3.86,3.02
		c-0.42,1.73,0.24,3.8,1.8,4.74c1.48,0.89,3.13,1.49,4.7,2.22c1.73,0.8,3.57,1.44,5.17,2.45c4.22,2.69,4.47,8.35,0.62,11.55
		c-3.48,2.9-7.4,3.01-11.5,1.78c-1.4-0.42-2.75-1.4-4.15,0.05c-0.08,0.08-1.17-0.46-1.2-0.77c-0.14-1.32-0.06-2.66-0.06-4
		C60.46,200.38,60.4,200.38,60.35,200.38z"/>
	<path class="st1" d="M136.87,178.32c0,1.95,0.03,3.79-0.03,5.62c-0.01,0.31-0.35,0.82-0.6,0.86c-0.3,0.05-0.77-0.22-0.98-0.5
		c-0.53-0.69-0.96-1.45-1.42-2.19c-0.94-1.49-2.26-2.28-4.05-2.27c-1.86,0-3.71,0-5.57-0.04c-0.95-0.02-1.35,0.35-1.34,1.33
		c0.03,2.67,0.02,5.34-0.03,8.01c-0.02,0.95,0.32,1.41,1.31,1.36c0.87-0.05,1.74-0.06,2.61-0.05c2.05,0,3.38-0.91,4.01-2.92
		c0.17-0.55,0.77-0.96,1.17-1.43c0.18,0.1,0.36,0.19,0.53,0.29c0,3.18,0.01,6.35-0.02,9.53c0,0.27-0.3,0.71-0.51,0.75
		c-0.25,0.04-0.57-0.26-0.85-0.43c-0.04-0.02-0.07-0.1-0.08-0.15c-0.95-4.75-4.62-3.74-8.05-3.82c0,3.34-0.07,6.56,0.07,9.77
		c0.02,0.49,0.93,1.04,1.53,1.39c0.48,0.28,1.15,0.23,1.66,0.47c0.29,0.14,0.52,0.55,0.6,0.88c0.03,0.12-0.46,0.52-0.72,0.53
		c-3.65,0.04-7.31,0.04-10.96,0c-0.24,0-0.66-0.38-0.66-0.6c-0.01-0.25,0.35-0.51,0.56-0.75c0.03-0.04,0.11-0.03,0.16-0.05
		c3.32-1.24,3.34-1.24,3.33-4.77c-0.01-5.4-0.1-10.79-0.03-16.19c0.02-1.87-0.73-2.77-2.49-3.12c-0.58-0.12-1.09-0.63-1.63-0.96
		c0.09-0.18,0.18-0.36,0.27-0.54C122,178.32,129.34,178.32,136.87,178.32z"/>
	<path class="st1" d="M170.45,204.28c0.89-0.29,1.76-0.64,2.66-0.85c0.97-0.23,1.26-0.73,0.91-1.64c-0.65-1.68-1.23-3.39-2.01-5
		c-0.23-0.47-1.05-0.89-1.61-0.9c-2.55-0.07-5.11,0-7.66,0.03c-0.29,0-0.6-0.01-0.86,0.1c-0.98,0.39-2.65,6.02-1.88,6.65
		c0.67,0.55,1.68,0.66,2.49,1.06c0.44,0.22,0.77,0.65,1.15,0.99c-0.41,0.22-0.83,0.63-1.24,0.64c-2.79,0.05-5.57,0.04-8.36-0.01
		c-0.38-0.01-0.76-0.34-1.14-0.52c0.29-0.35,0.54-0.95,0.89-1.02c2.59-0.53,3.62-2.5,4.5-4.65c2.69-6.55,5.37-13.1,8.12-19.63
		c0.27-0.65,0.98-1.11,1.49-1.66c0.5,0.56,1.19,1.04,1.46,1.69c2.72,6.54,5.36,13.1,8.04,19.66c0.84,2.06,1.7,4.11,4.28,4.62
		c0.32,0.06,0.55,0.61,0.81,0.93c-0.26,0.19-0.53,0.54-0.79,0.54c-3.54,0.01-7.08-0.03-10.61-0.08c-0.18,0-0.36-0.23-0.54-0.36
		C170.52,204.67,170.48,204.48,170.45,204.28z M170.88,194.18c-1.4-3.44-2.69-6.62-3.99-9.81c-0.16-0.01-0.32-0.02-0.47-0.03
		c-1.34,3.19-2.68,6.38-4.14,9.84C165.31,194.18,167.89,194.18,170.88,194.18z"/>
	<path class="st1" d="M139.19,178.34c4.21,0,8.43,0,12.64,0c0.09,0.16,0.17,0.32,0.26,0.48c-0.52,0.3-1,0.73-1.56,0.89
		c-2.75,0.78-2.76,0.76-2.77,3.67c0,5.57-0.01,11.15,0,16.72c0,2.8,0.15,2.91,2.84,3.62c0.54,0.14,0.97,0.71,1.46,1.09
		c-0.55,0.2-1.09,0.56-1.64,0.56c-3.08,0.04-6.15,0.02-9.23-0.02c-0.71-0.01-1.42-0.19-2.13-0.3c-0.04-0.2-0.08-0.4-0.12-0.6
		c0.62-0.22,1.23-0.53,1.87-0.66c2.44-0.51,2.73-0.78,2.74-3.18c0.02-5.81,0.02-11.61-0.01-17.42c-0.01-2.41-0.35-2.74-2.65-3.34
		c-0.67-0.18-1.3-0.55-1.94-0.83C139.02,178.78,139.1,178.56,139.19,178.34z"/>
	<path class="st1" d="M138.89,222.9c-0.63,0-1.32,0-2,0c-11.61,0-23.21-0.01-34.82-0.01c-1.94,0-2.74-1.11-2-2.95
		c0.13-0.33,0.78-0.6,1.21-0.63c1.33-0.09,2.67-0.07,4-0.07c10.39,0,20.78-0.01,31.16,0C139.51,219.22,139.77,219.6,138.89,222.9z"
		/>
	<path class="st1" d="M149.59,234.37c-0.1,4.11-1.2,8.15,0.24,12.28c-1.19,0-2.5,0-4.45,0c2.95-1.57,2.22-3.92,2.33-6.01
		c0.11-2.14,0.24-4.29,0.19-6.43c-0.03-1.4-0.37-2.8-0.6-4.42c0.62,0,1.68-0.18,2.63,0.07c0.54,0.14,1.05,0.92,1.3,1.53
		c1.69,4.06,3.32,8.15,5.17,12.75c1-2.23,1.86-4,2.61-5.83c1.04-2.52,1.95-5.08,3.01-7.59c0.17-0.41,0.77-0.81,1.22-0.88
		c0.84-0.14,1.72-0.04,3-0.04c-2.14,1.84-1.35,3.95-1.31,5.94c0.05,2.32,0.15,4.64,0.27,6.96c0.07,1.46,0.19,2.92,1.75,3.93
		c-1.72,0-3.43,0-4.66,0c0.24-1.3,0.66-2.5,0.64-3.68c-0.06-2.66-0.33-5.31-0.89-8.05c-0.18,0.29-0.39,0.57-0.52,0.88
		c-1.34,3.27-2.64,6.56-4.03,9.81c-0.26,0.61-0.88,1.07-1.34,1.59c-0.48-0.54-1.12-1-1.41-1.62c-1.62-3.46-3.16-6.97-4.73-10.46
		C149.91,234.83,149.74,234.61,149.59,234.37z"/>
	<path class="st1" d="M107.69,246.85c-0.91,0-1.85,0.13-2.72-0.04c-0.57-0.11-1.22-0.54-1.55-1.02c-1.25-1.81-2.39-3.69-3.56-5.56
		c-0.64-1.02-1.62-1.52-2.64-1.01c-0.48,0.24-0.79,1.32-0.75,2c0.09,1.76-0.8,3.77,1.06,5.41c-1.57,0-3.15,0-4.72,0
		c1.69-1.21,1.46-2.89,1.45-4.5c-0.02-2.84,0.03-5.69-0.09-8.52c-0.05-1.2-0.49-2.39-0.84-3.97c2.78,0.17,5.79,0.03,8.64,0.62
		c2.69,0.56,3.41,3.73,1.7,6.03c-0.59,0.79-1.23,1.53-2.04,2.53c1.89,2.3,2.86,5.88,6.3,7.55
		C107.84,246.53,107.77,246.69,107.69,246.85z M96.41,234.52c0.01,0,0.03,0,0.04,0c0,0.81-0.12,1.65,0.05,2.42
		c0.09,0.42,0.61,0.98,1.02,1.06c2.06,0.4,4.35-1.07,4.5-3.1c0.08-1.06-0.35-2.63-1.11-3.17c-0.96-0.67-2.52-0.73-3.77-0.6
		c-0.33,0.04-0.5,1.74-0.72,2.68C96.36,234.05,96.41,234.29,96.41,234.52z"/>
	<path class="st1" d="M138.58,229.93c1.19,0,2.37,0,3.19,0c-0.27,1.59-0.63,3.11-0.75,4.65c-0.17,2.25-0.13,4.52-0.23,6.78
		c-0.16,3.36-2.81,5.74-6.39,5.78c-3.72,0.04-6.55-2.23-6.76-5.62c-0.16-2.66-0.02-5.34-0.15-8c-0.06-1.18-0.47-2.34-0.74-3.61
		c1.1,0,2.53,0,3.68,0c-0.21,1.47-0.55,2.84-0.58,4.23c-0.05,2.43-0.08,4.89,0.18,7.3c0.31,2.91,2.17,4.31,5,4.17
		c2.7-0.14,4.27-1.72,4.37-4.64c0.1-2.84,0.09-5.69,0-8.53C139.37,231.66,138.9,230.88,138.58,229.93z"/>
	<path class="st1" d="M84.94,236.09c0,1.11,0,2.23,0,2.98c-1.71-0.34-3.4-0.68-5.38-1.07c0,2.53-0.07,4.53,0.06,6.53
		c0.03,0.41,0.73,1.07,1.17,1.11c1.38,0.13,2.8,0.17,4.16-0.05c0.68-0.11,1.36-0.75,1.87-1.3c0.51-0.56,0.82-1.31,1.21-1.98
		c0.19,0.06,0.38,0.12,0.58,0.17c-0.2,1.3-0.37,2.6-0.62,3.88c-0.04,0.18-0.44,0.42-0.67,0.43c-3.92,0.03-7.85,0.02-11.91-0.21
		c2-1.05,1.76-2.79,1.76-4.42c0.01-2.79,0.05-5.58-0.06-8.36c-0.05-1.24-0.46-2.47-0.73-3.86c3.29,0,6.89,0,10.7,0
		c0.06,1.14,0.12,2.22,0.19,3.39c-0.46-0.09-0.65-0.08-0.67-0.14c-1.07-3-3.59-2.35-5.82-2.25c-0.44,0.02-0.94,0.73-1.24,1.22
		c-0.18,0.3-0.08,0.8-0.03,1.2c0.15,1.22-0.02,3.22,0.58,3.48C81.5,237.49,83.33,237.49,84.94,236.09z"/>
	<path class="st1" d="M170.23,246.33c2.42-0.85,1.87-2.91,1.88-4.75c0.02-2.61,0.08-5.23-0.03-7.83c-0.05-1.22-0.46-2.43-0.74-3.78
		c3.19,0,6.77,0,10.44,0c0.09,1.05,0.18,2,0.3,3.36c-0.59-0.37-1.14-0.52-1.22-0.8c-0.46-1.63-1.67-1.64-3.01-1.64
		c-3.98,0-3.54-0.35-3.58,3.52c-0.01,0.87,0.25,2.47,0.44,2.48c1.38,0.06,2.77-0.18,4.16-0.37c0.23-0.03,0.43-0.31,0.84-0.62
		c0,1.34,0,2.43,0,3.14c-1.47-0.26-2.85-0.54-4.25-0.73c-0.89-0.12-1.22,0.37-1.19,1.25c0.05,1.51,0.06,3.02,0.03,4.53
		c-0.02,1.08,0.41,1.64,1.53,1.59c0.58-0.02,1.17-0.04,1.74,0.03c2.25,0.26,4.01-0.3,4.82-2.66c0.08-0.23,0.34-0.4,0.96-0.51
		c-0.13,1.21-0.22,2.42-0.43,3.61c-0.05,0.27-0.56,0.66-0.86,0.65c-3.87-0.02-7.74-0.09-11.62-0.16
		C170.38,246.64,170.35,246.54,170.23,246.33z"/>
	<path class="st1" d="M59.99,229.95c2.46,0,5.19-0.21,7.87,0.06c2.83,0.28,4.2,3.47,2.8,5.97c-1.19,2.13-4.01,3.38-6.62,2.71
		c0.95-0.39,1.66-0.66,2.36-0.98c2.06-0.95,2.81-2.5,2.19-4.5c-0.53-1.69-2.6-2.78-4.56-2.23c-0.42,0.12-0.94,0.87-0.95,1.33
		c-0.07,3.89-0.13,7.78,0.03,11.66c0.04,0.86,0.94,1.69,1.49,2.62c-1.48,0-3.23,0-5.21,0c1.97-1.58,1.37-3.74,1.42-5.73
		c0.06-2.49,0.07-4.99-0.05-7.48C60.71,232.26,60.28,231.16,59.99,229.95z"/>
	<path class="st1" d="M120.16,236.13c0,1.22,0,2.3,0,3.04c-1.73-0.3-3.35-0.57-4.93-0.84c-1.07,3.63-0.47,6.84,1.33,7.92
		c-0.98,0.73-3.37,0.83-4.86,0.36c0.27-1.33,0.71-2.58,0.75-3.84c0.1-3.18,0.09-6.38-0.01-9.56c-0.03-1.06-0.45-2.1-0.71-3.27
		c3.27,0,6.86,0,10.6,0c0.07,1.15,0.13,2.21,0.22,3.64c-0.57-0.42-0.86-0.57-1.05-0.79c-0.51-0.59-0.91-1.63-1.48-1.73
		c-1.46-0.25-3-0.14-4.49-0.04c-0.24,0.01-0.56,0.67-0.62,1.06c-0.11,0.8-0.15,1.63-0.06,2.43c0.11,0.95,0.24,2.62,0.64,2.7
		c1.37,0.29,3.03,0.73,4.08-0.91C119.6,236.21,119.77,236.22,120.16,236.13z"/>
</g>
</svg>
