<?xml version="1.0" encoding="utf-8"?>
<!-- Generator: Adobe Illustrator 28.1.0, SVG Export Plug-In . SVG Version: 6.00 Build 0)  -->
<svg version="1.1" id="Layer_1" xmlns="http://www.w3.org/2000/svg" xmlns:xlink="http://www.w3.org/1999/xlink" x="0px" y="0px"
	 viewBox="0 0 100 100" style="enable-background:new 0 0 100 100;" xml:space="preserve">
<style type="text/css">
	.st0{fill:#FFFDFD;}
</style>
<g>
	<path class="st0" d="M97.39,20.88c0.02,19.37,0.02,38.73,0,58.1c-0.02,10.29-8.06,18.31-18.34,18.36c-4.67,0.02-9.34,0-14.01,0
		c-2.42-0.01-4.08-1.48-4.09-3.62c-0.02-2.2,1.64-3.67,4.15-3.67c4.56-0.01,9.12,0.01,13.68-0.01c6.61-0.02,11.33-4.72,11.34-11.32
		c0.01-19.18,0.01-38.35,0-57.53C90.1,14.57,85.39,9.85,78.79,9.85c-19.18-0.01-38.35-0.01-57.53,0c-6.62,0-11.35,4.72-11.36,11.31
		C9.9,40.36,9.9,59.58,9.91,78.79c0,6.52,4.75,11.25,11.29,11.25c8.05,0.02,16.1-0.02,24.15,0.03c0.9,0,1.03-0.27,1.02-1.08
		c-0.03-6.61-0.04-13.21,0.01-19.82c0.01-0.9-0.27-1.09-1.07-1.02c-0.91,0.07-1.83,0.05-2.73,0c-1.93-0.08-3.48-1.59-3.49-3.52
		c-0.04-4.94-0.04-9.87,0-14.81c0.02-1.99,1.58-3.48,3.58-3.53c0.99-0.03,1.97-0.05,2.96,0.01c0.62,0.03,0.74-0.2,0.74-0.77
		c-0.03-2.73-0.02-5.47-0.02-8.2c0.03-9.27,7.26-16.52,16.53-16.56c4.1-0.02,8.2-0.01,12.3,0c2.48,0.01,3.97,1.5,3.98,3.96
		c0.01,4.67,0.01,9.34-0.01,14.02c0,2.39-1.51,3.88-3.93,3.89c-2.09,0.02-4.18,0.03-6.26-0.01c-0.61-0.02-0.74,0.17-0.75,0.76
		c-0.06,2.9-0.08,2.9,2.81,2.9c1.49,0,2.97-0.02,4.45,0c2.59,0.03,4.25,2.02,3.66,4.57c-0.87,3.8-1.88,7.57-2.82,11.36
		c-0.27,1.06-0.5,2.13-0.8,3.19c-0.49,1.72-1.81,2.7-3.61,2.75c-0.15,0.01-0.3,0-0.46,0.01c-1.05,0.06-2.49-0.46-3.04,0.21
		c-0.53,0.63-0.17,2.02-0.17,3.08c-0.01,2.47,0.01,4.94-0.01,7.4c-0.01,2.29-1.59,3.93-3.71,3.9c-2.06-0.03-3.58-1.66-3.58-3.9
		c-0.02-4.71-0.02-9.42,0-14.12c0.01-2.33,1.52-3.82,3.86-3.84c1.1-0.02,2.21-0.04,3.3,0.01c0.65,0.02,0.99-0.09,1.15-0.84
		c0.46-2.14,1.03-4.25,1.59-6.47c-2.06,0-3.99,0.01-5.92,0c-2.48-0.02-3.97-1.5-3.98-3.96c-0.02-2.32-0.02-4.63,0-6.95
		c0.05-4.11,3.19-7.26,7.3-7.31c0.99-0.02,1.97-0.04,2.96,0.01c0.56,0.02,0.69-0.17,0.68-0.71c-0.03-1.97-0.01-3.95-0.01-5.92
		c0-0.33,0.08-0.7-0.47-0.68c-3.45,0.11-6.92-0.33-10.35,0.22c-4.25,0.68-7.34,4.4-7.4,8.71c-0.05,4.18-0.01,8.35-0.02,12.53
		c-0.01,2.63-1.46,4.05-4.1,4.07c-1.02,0.01-2.38-0.36-2.97,0.15c-0.68,0.6-0.17,2-0.21,3.04c-0.04,1.14,0.02,2.28-0.02,3.42
		c-0.02,0.55,0.16,0.71,0.71,0.69c0.99-0.04,1.97-0.03,2.96-0.01c2.05,0.05,3.62,1.57,3.63,3.61c0.02,9.72,0.02,19.45,0,29.17
		c-0.01,2.11-1.57,3.66-3.69,3.67c-9.95,0.02-19.9,0.1-29.85-0.03C10.64,97.18,2.68,89.04,2.64,79.5
		C2.57,64.15,2.62,48.82,2.62,33.47c0-4.18-0.02-8.35,0-12.53C2.65,10.59,10.67,2.57,21.04,2.56c19.32-0.02,38.65-0.02,57.98,0
		C89.32,2.57,97.38,10.6,97.39,20.88z"/>
</g>
</svg>
