<?xml version="1.0" encoding="utf-8"?>
<!-- Generator: Adobe Illustrator 28.1.0, SVG Export Plug-In . SVG Version: 6.00 Build 0)  -->
<svg version="1.1" id="Layer_1" xmlns="http://www.w3.org/2000/svg" xmlns:xlink="http://www.w3.org/1999/xlink" x="0px" y="0px"
	 viewBox="0 0 100 100" style="enable-background:new 0 0 100 100;" xml:space="preserve">
<style type="text/css">
	.st0{fill:#FDFDFD;}
</style>
<g>
	<path class="st0" d="M50,96.73c-6.18,0-12.37,0.01-18.55,0C15.55,96.7,3.27,84.4,3.25,68.5c-0.02-12.32-0.01-24.64,0-36.95
		C3.26,17.5,12.65,6.19,26.43,3.63c1.67-0.31,3.38-0.4,5.09-0.4c12.32,0.01,24.64,0,36.95,0.01C82.5,3.25,93.85,12.7,96.35,26.45
		c0.31,1.67,0.4,3.38,0.4,5.09c-0.02,12.27,0,24.54-0.01,36.81c-0.01,14.05-9.2,25.22-22.97,27.94c-1.72,0.34-3.47,0.46-5.23,0.45
		C62.36,96.73,56.18,96.73,50,96.73z M87.36,50.05c0-6.13,0.01-12.27,0-18.4c-0.02-10.94-8.06-19.01-18.96-19.02
		c-12.27-0.01-24.53-0.01-36.8,0c-10.84,0.01-18.94,8.07-18.95,18.88c-0.02,12.32,0,24.63-0.01,36.95c0,1.42,0.14,2.82,0.44,4.2
		c1.87,8.64,9.26,14.65,18.1,14.67c12.36,0.03,24.73,0.01,37.09,0.01c11.03,0,19.08-8.02,19.1-19.03
		C87.37,62.22,87.36,56.13,87.36,50.05z"/>
	<path class="st0" d="M74.19,49.89c0.15,13.08-10.73,24.14-23.89,24.29C36.97,74.33,25.89,63.5,25.79,50.22
		c-0.1-13.36,10.67-24.3,24.03-24.43C63.12,25.66,74.04,36.46,74.19,49.89z M50.41,35.22c-7.84-0.45-14.64,5.89-15.19,14.17
		c-0.52,7.92,5.86,14.86,14.13,15.37c8.03,0.5,14.94-5.88,15.41-14.24C65.21,42.5,58.84,35.71,50.41,35.22z"/>
	<path class="st0" d="M68.39,25.85c-0.01-3.3,2.61-5.95,5.9-5.96c3.28-0.01,5.93,2.61,5.98,5.91c0.05,3.21-2.7,5.99-5.92,5.99
		C71.07,31.78,68.4,29.11,68.39,25.85z"/>
</g>
</svg>
