<?xml version="1.0" encoding="utf-8"?>
<!-- Generator: Adobe Illustrator 28.1.0, SVG Export Plug-In . SVG Version: 6.00 Build 0)  -->
<svg version="1.1" id="Layer_1" xmlns="http://www.w3.org/2000/svg" xmlns:xlink="http://www.w3.org/1999/xlink" x="0px" y="0px"
	 viewBox="0 0 100 100" style="enable-background:new 0 0 100 100;" xml:space="preserve">
<style type="text/css">
	.st0{fill:#FFFFFF;}
</style>
<g>
	<path class="st0" d="M61.35,92.46c8.31-2.22,15.32-6.58,21.15-12.89c0.32-0.35,0.62-0.72,0.96-1.05c1.1-1.1,2.53-1.19,3.61-0.23
		c1.06,0.94,1.18,2.44,0.19,3.61c-2.99,3.52-6.42,6.55-10.28,9.08c-8.65,5.64-18.14,8.34-28.47,8.2
		C25.61,98.86,5.4,81.92,1.14,59.43C-3.99,32.34,13.59,6.68,40.74,1.64c23.17-4.3,46.46,8.65,54.96,30.55c0.42,1.08,0.5,2.07-0.27,3
		c-0.64,0.77-1.5,1.01-2.46,0.83c-1.15-0.21-1.68-1.05-2.07-2.06c-1.87-4.79-4.51-9.13-7.92-12.97
		C77.22,14.5,70.15,10.07,61.81,7.67c-0.18-0.05-0.37-0.09-0.91-0.23c0.7,0.79,1.2,1.32,1.67,1.88c4.21,4.98,7.62,10.46,10.13,16.49
		c0.72,1.72,0.26,3.19-1.18,3.79c-1.46,0.6-2.8-0.05-3.54-1.82c-3.29-7.8-8.06-14.56-14.28-20.29c-0.43-0.39-0.86-0.77-1.32-1.18
		c-0.31,0.38-0.17,0.74-0.17,1.07c-0.01,13.93,0,27.86-0.03,41.78c0,0.97,0.2,1.3,1.21,1.23c1.42-0.1,2.85-0.06,4.27-0.02
		c1.65,0.05,2.7,1.06,2.71,2.53c0.01,1.5-1.11,2.54-2.8,2.57c-1.54,0.02-3.09,0.02-4.63-0.01c-0.54-0.01-0.75,0.1-0.75,0.7
		c0.02,12.38,0.02,24.77,0.03,37.15c0,0.03,0.04,0.06,0.14,0.19c2.18-1.81,4.15-3.83,6-5.95c2.89-3.32,5.34-6.95,7.42-10.83
		c0.81-1.51,1.84-1.97,3.19-1.54c1.68,0.54,2.28,2.14,1.39,3.83c-2.01,3.82-4.4,7.4-7.16,10.73c-0.68,0.82-1.38,1.63-2.06,2.44
		c-0.11,0.09-0.22,0.18-0.34,0.27C60.98,92.62,61.16,92.53,61.35,92.46z M37.85,92.2c0.1,0.01,0.26,0.05,0.28,0.02
		c0.08-0.13-0.05-0.15-0.15-0.17c-1.04-1.29-2.1-2.56-3.1-3.87c-7.14-9.4-11.4-19.95-12.6-31.7c-0.08-0.81-0.35-1.03-1.16-1.02
		c-3.8,0.04-7.59,0.02-11.39,0.02c-1.34,0-2.67,0-4.02,0C7.48,72.67,21.09,88.18,37.85,92.2z M46.84,6.43
		C34.11,18.09,27.33,32.34,27,49.58c-0.02,0.91,0.49,0.78,1.03,0.78c5.93,0,11.87-0.02,17.8,0.02c0.97,0.01,1.25-0.2,1.24-1.21
		c-0.04-13.85-0.02-27.7-0.03-41.55C47.05,7.3,47.16,6.94,46.84,6.43z M13.56,50.37c2.37,0,4.75-0.06,7.12,0.03
		c1.03,0.04,1.2-0.3,1.22-1.24c0.27-13.39,4.33-25.51,12.26-36.32c1.03-1.4,2.17-2.72,3.25-4.08c0.14-0.17,0.42-0.33,0.3-0.59
		c-0.16-0.33-0.48-0.18-0.73-0.13c-0.35,0.07-0.68,0.19-1.02,0.3c-5.24,1.69-10.07,4.15-14.33,7.65
		C11.13,24.63,5.76,35.8,5.35,49.39c-0.02,0.76,0.17,1.02,0.97,1C8.73,50.33,11.15,50.37,13.56,50.37z M47.06,93.69
		c0-3.47,0-6.66,0-9.85c0-9.09,0-18.18-0.01-27.27c0-0.47,0.31-1.12-0.69-1.11c-6.13,0.03-12.25,0.03-18.38,0
		c-0.6,0-0.72,0.16-0.65,0.74c0.57,4.76,1.62,9.4,3.31,13.89C34.08,79.24,39.48,87.04,47.06,93.69z"/>
	<path class="st0" d="M90.35,55.61c1.15,1.97,2.25,3.87,3.36,5.77c2.3,3.97,1.45,7.16-2.52,9.45c-0.96,0.55-1.9,1.12-2.88,1.65
		c-3.08,1.67-6.51,0.74-8.31-2.27c-1.1-1.83-2.15-3.68-3.23-5.52c-0.17-0.29-0.26-0.66-0.66-0.86c-1.29,1.43-2.54,2.9-3.89,4.28
		c-1.27,1.3-2.88,1.87-4.66,1.32c-1.69-0.52-2.59-1.87-2.99-3.54c-0.13-0.53-0.23-1.09-0.23-1.64c-0.07-7.95-0.13-15.9-0.18-23.85
		c-0.04-5.79,7.54-9.67,12.05-6.86c6.56,4.09,13.33,7.84,20.01,11.74c0.72,0.42,1.4,0.89,1.99,1.48c2.71,2.72,1.74,6.55-1.97,7.56
		C94.34,54.83,92.4,55.17,90.35,55.61z M69.31,63.22c0.12,0.04,0.24,0.07,0.37,0.11c1.52-1.69,3.04-3.39,4.56-5.08
		c1.89-2.09,3.61-1.9,5.04,0.57c1.63,2.8,3.28,5.58,4.86,8.4c0.54,0.96,1.09,1.24,2.06,0.6c0.86-0.56,1.75-1.07,2.67-1.53
		c1.01-0.5,1.16-1.1,0.58-2.07c-1.74-2.91-3.43-5.85-5.12-8.79c-1.17-2.04-0.37-3.75,1.94-4.22c2.37-0.49,4.74-0.98,7.27-1.5
		c-0.33-0.24-0.51-0.38-0.71-0.5c-6.37-3.72-12.74-7.44-19.12-11.14c-1.98-1.15-4.41,0.3-4.41,2.61c0,0.67,0,1.34,0,2.02
		C69.31,49.55,69.31,56.38,69.31,63.22z"/>
	<path class="st0" d="M61.35,92.46c-0.18,0.07-0.37,0.16-0.54-0.01c0.11-0.09,0.22-0.18,0.34-0.27
		C61.21,92.28,61.28,92.37,61.35,92.46z"/>
	<path class="st0" d="M37.98,92.04c0.09,0.02,0.22,0.03,0.15,0.17c-0.02,0.04-0.18-0.01-0.28-0.02
		C37.88,92.14,37.93,92.09,37.98,92.04z"/>
</g>
</svg>
